<?xml version="1.0" encoding="UTF-8" standalone="no"?>
<svg width="41px" height="49px" viewBox="0 0 41 49" version="1.1" xmlns="http://www.w3.org/2000/svg" xmlns:xlink="http://www.w3.org/1999/xlink">
    <!-- Generator: Sketch 41 (35326) - http://www.bohemiancoding.com/sketch -->
    <title>Group 14</title>
    <desc>Created with Sketch.</desc>
    <defs></defs>
    <g id="Configurator-WebApp" stroke="none" stroke-width="1" fill="none" fill-rule="evenodd">
        <g id="6_1" transform="translate(-645.000000, -703.000000)">
            <g id="Group-14" transform="translate(646.000000, 704.000000)">
                <g id="Group-11-Copy-2" opacity="0.4" transform="translate(5.000000, 0.000000)">
                    <path d="M30.8141506,20.8074857 L30.6054275,29.8762497 C30.4204188,37.9149138 24.4738523,44.2690722 17.3188112,44.2690722 C10.1637657,44.2690722 4.21720351,37.9149138 4.03219056,29.8762497 L3.82346335,20.8074857 C3.62708444,12.2747694 9.66681238,5.17319493 17.3188112,5.17319493 C24.9708099,5.17319493 31.0105336,12.2747694 30.8141506,20.8074857 L30.8141506,20.8074857 Z" id="2-line" stroke="#5972CB" stroke-width="1.5" fill="#FFFFFF"></path>
                    <path d="M2.95319513,21.8428521 C2.8144191,21.799236 2.64194333,21.7633571 2.44535479,21.754511 C2.39625852,21.7523016 2.34572834,21.7517773 2.2940242,21.7532459 C2.24231991,21.7547145 2.18943738,21.7581716 2.1356841,21.7639117 C2.0281906,21.7753962 1.91717063,21.7960346 1.80545309,21.8281704 C1.35812853,21.9567227 0.901801703,22.2692741 0.633802003,22.914383 C0.499271451,23.2369548 0.410523076,23.6427037 0.387060189,24.1503666 C0.381190032,24.2772855 0.379396562,24.4105727 0.381969795,24.5505228 C0.384547429,24.6904728 0.391496309,24.8370856 0.40310205,24.990656 C0.426300757,25.2977837 0.472394811,27.1007415 0.866845505,28.3685707 C1.23766879,29.6081239 2.12813319,31.1308048 3.77223984,31.5659257 C3.58315013,28.417433 3.57727585,25.2099234 3.37957382,22.0476068 C3.37790172,22.047702 3.23085989,21.9302749 2.95319513,21.8428521 Z" id="Shape-11-copy" stroke="#5972CB" fill="#FFFFFF"></path>
                    <path d="M2.62168623,28.1065191 C2.62168623,28.1065191 2.46139666,28.2276547 2.32369935,28.2276547 C2.18600205,28.2276547 2.02766636,28.1065191 2.02766636,28.1065191 L1.73208393,25.1278898 C1.73208393,25.1278898 2.13991226,23.660994 3.87047995,24.4362061 L3.91138836,25.287902 C3.91138836,25.287902 2.39307871,24.7494333 2.4244738,25.4199502 C2.45469492,26.0653581 2.62168623,28.1065191 2.62168623,28.1065191 L2.62168623,28.1065191 Z" id="Shape-4" fill="#5972CB"></path>
                    <path d="M31.6320431,21.8499438 C31.7714299,21.8063581 31.9446595,21.7705053 32.1421101,21.7616633 C32.1914186,21.7594583 32.2421698,21.758934 32.2941036,21.7604027 C32.3460331,21.7618668 32.3991451,21.7653239 32.4531368,21.7710598 C32.5610982,21.7825356 32.6726077,21.8031609 32.7848147,21.8352752 C33.2340974,21.9637407 33.6924214,22.2760799 33.9615951,22.9207513 C34.0967148,23.243102 34.1858531,23.6485738 34.2094156,24.1558944 C34.2153118,24.2827267 34.2171139,24.415923 34.2145319,24.5557777 C34.2119413,24.6956323 34.2049622,24.8421457 34.1933044,24.995612 C34.1700062,25.3025317 33.9865785,27.5428044 33.7275291,28.371235 C33.3550857,29.6099478 32.4607181,31.1315932 30.8094114,31.5664196 C30.9993284,28.4200626 31.0052288,25.214732 31.2037972,22.0545599 C31.205478,22.0546552 31.3531653,21.9373102 31.6320431,21.8499438 Z" id="Shape-11-copy_1" stroke="#5972CB" fill="#FFFFFF"></path>
                    <path d="M31.9643838,28.109361 C31.9643838,28.109361 32.1253751,28.2304141 32.2636746,28.2304141 C32.401974,28.2304141 32.5610029,28.109361 32.5610029,28.109361 L32.8578807,25.1327548 C32.8578807,25.1327548 32.4482674,23.6668555 30.7101185,24.4415389 L30.6690324,25.2926587 C30.6690324,25.2926587 32.193992,24.7545539 32.1624582,25.424616 C32.1321072,26.0695862 31.9643838,28.109361 31.9643838,28.109361 L31.9643838,28.109361 Z" id="Shape-4_1" fill="#5972CB"></path>
                    <path d="M30.7459713,22.1167218 C30.7459713,22.1167218 36.3372326,7.44647338 19.1200276,4.10443765 C19.1200276,4.10443765 15.516252,3.90927861 12.7015383,0.554575599 C12.7015383,0.554575599 10.6907153,3.31113024 11.8538148,5.41920123 C11.8538148,5.41920123 10.3737624,6.71034606 6.40415413,5.68215838 C6.40415413,5.68215838 5.80336325,6.96542295 6.28304905,8.44316205 C6.28304905,8.44316205 1.28996645,10.6021272 3.66945956,20.2594432 C3.69225539,20.3519347 3.71571828,20.4451191 3.73987434,20.5390011 C3.73987434,20.5390011 5.87621697,11.9988508 7.37297858,11.861552 C7.37297858,11.861552 15.4380394,16.4916483 22.2687196,11.4671229 C22.2687196,11.4671229 25.6413318,15.9667694 29.7771428,16.2002765 C29.7771428,16.2002765 30.5252094,19.1020015 30.7459713,22.1167218 L30.7459713,22.1167218 Z" id="fill" stroke="#5972CB" stroke-width="1.5" fill="#FFFFFF"></path>
                </g>
                <g id="Stroke-4293-+-Stroke-4294-+-Stroke-4295" transform="translate(0.000000, 20.000000)" stroke="#5972CB" stroke-width="1.8" stroke-linejoin="round">
                    <path d="M7.09898366,1.98970593 C7.40428817,0.934476923 8.35609443,0.210865574 9.43720105,0.210865574 C10.5183077,0.210865574 11.4701139,0.934476923 11.7754184,1.98970593 L11.7914188,2.04332346 L11.8350955,2.00908033 C12.6917644,1.33863594 13.8801168,1.32196494 14.7549483,1.96807869 C15.6293473,2.614643 15.9813556,3.76899685 15.6194011,4.80485145 L15.5999412,4.85801841 L15.6552939,4.85621614 C16.7364005,4.82602812 17.7076667,5.52305599 18.0419449,6.56837251 C18.3757906,7.6141396 17.9930788,8.75813039 17.1009497,9.37946293 L17.0551107,9.41190378 L17.1009497,9.44389407 C17.9930788,10.0652266 18.3757906,11.209668 18.0419449,12.2549845 C17.7076667,13.3007516 16.7364005,13.9973289 15.6552939,13.9671409 L15.5999412,13.9657892 L15.6194011,14.0185055 C15.9813556,15.0543602 15.6293473,16.2091646 14.7549483,16.8552783 C13.8801168,17.5018426 12.6917644,17.4851716 11.8350955,16.8142767 L11.7914188,16.779583 L11.7754184,16.8336511 C11.4701139,17.8888801 10.5183077,18.612942 9.43720105,18.612942 C8.35609443,18.612942 7.40428817,17.8888801 7.09898366,16.8336511 L7.08298328,16.779583 L7.03887413,16.8142767 C6.18263769,17.4851716 4.99385285,17.5018426 4.11945381,16.8552783 C3.24462234,16.2091646 2.89347891,15.0543602 3.25500096,14.0185055 L3.27402844,13.9657892 L3.21824334,13.9671409 C2.1380016,13.9973289 1.16673542,13.3007516 0.832457249,12.2549845 C0.498611525,11.209668 0.881323268,10.0652266 1.77345245,9.44389407 L1.81929137,9.41190378 L1.77345245,9.37946293 C0.881323268,8.75813039 0.498611525,7.6141396 0.832457249,6.56837251 C1.16673542,5.52305599 2.1380016,4.82602812 3.21824334,4.85621614 L3.27402844,4.85801841 L3.25500096,4.80485145 C2.89347891,3.76899685 3.24462234,2.614643 4.11945381,1.96807869 C4.99385285,1.32196494 6.18263769,1.33863594 7.03887413,2.00908033 L7.08298328,2.04332346 L7.09898366,1.98970593 L7.09898366,1.98970593 Z" id="Stroke-4293" fill="#FFFFFF"></path>
                    <polyline id="Stroke-4294" points="13.8369158 19.134609 13.8369158 26.3436884 9.51248932 21.8380138 5.18806284 26.3436884 5.18806284 19.134609"></polyline>
                </g>
            </g>
        </g>
    </g>
</svg>