<?xml version="1.0" encoding="UTF-8" standalone="no"?>
<svg width="69px" height="46px" viewBox="0 0 69 46" version="1.1" xmlns="http://www.w3.org/2000/svg" xmlns:xlink="http://www.w3.org/1999/xlink">
    <!-- Generator: Sketch 41 (35326) - http://www.bohemiancoding.com/sketch -->
    <title>Group 16</title>
    <desc>Created with Sketch.</desc>
    <defs></defs>
    <g id="Configurator-WebApp" stroke="none" stroke-width="1" fill="none" fill-rule="evenodd">
        <g id="3_2" transform="translate(-284.000000, -401.000000)" fill="#A7DEED">
            <g id="Group-14" transform="translate(190.000000, 85.000000)">
                <g id="Group-12" transform="translate(42.000000, 291.000000)">
                    <g id="Group-16" transform="translate(52.000000, 25.000000)">
                        <path d="M51.753033,29.7249032 C41.4583846,37.9759677 27.4703407,36.5418065 16.8746703,29.7063548 C15.6940879,28.945871 11.4433846,30.9817419 12.0575604,31.3779355 C25.3639451,39.962129 43.8415385,39.3233226 56.3570769,29.2923548 C57.3913187,28.462871 52.672022,28.9881613 51.753033,29.7249032 L51.753033,29.7249032 L51.753033,29.7249032 Z" id="Shape"></path>
                        <path d="M33.6242308,33.4946774 C29.3886923,33.4946774 24.6792527,32.5271935 19.6566593,29.934129 C19.1547033,29.6744516 18.9621099,29.0668065 19.2274945,28.5756452 C19.4928791,28.0844839 20.1131209,27.8960323 20.6158352,28.1564516 C39.0251868,37.6584194 52.8881209,23.7849677 53.0253626,23.6447419 C53.4188901,23.241871 54.0679451,23.2277742 54.4781538,23.6113548 C54.8891209,23.9949355 54.9027692,24.6315161 54.5107582,25.0329032 C54.4000549,25.1464194 46.0593956,33.4946774 33.6242308,33.4946774 L33.6242308,33.4946774 Z" id="Shape"></path>
                        <path d="M51.0781978,41.2568065 C50.8075055,41.2568065 50.5352967,41.1670323 50.3100989,40.9845161 C48.6631978,39.6371613 48.3212308,37.8988065 48.2886264,37.7051613 C48.1771648,37.0670968 48.6177033,36.4616774 49.2682747,36.3540968 C49.912022,36.2465161 50.5322637,36.6709032 50.6475165,37.3022903 C50.6550989,37.3438387 50.8825714,38.398871 51.8470549,39.1860645 C52.3543187,39.6008065 52.4225604,40.3397742 51.9964286,40.836871 C51.7621319,41.1143548 51.4201648,41.2568065 51.0781978,41.2568065 L51.0781978,41.2568065 Z" id="Shape"></path>
                        <path d="M41.5872857,44.4300645 C41.1566044,44.4300645 40.7380549,44.2000645 40.524989,43.8001613 C39.2511429,41.4140968 39.3936923,39.5740968 39.4141648,39.3722903 C39.4786154,38.7282903 40.0594286,38.2571613 40.7236484,38.3209677 C41.3787692,38.3847742 41.8572198,38.9530968 41.7980769,39.5919032 C41.795044,39.6423548 41.7169451,40.9711613 42.6473077,42.7147097 C42.9543956,43.2882258 42.7276813,43.9975161 42.1423187,44.2957742 C41.9641319,44.3870323 41.7738132,44.4300645 41.5872857,44.4300645 L41.5872857,44.4300645 Z" id="Shape"></path>
                        <path d="M30.9650769,45.7863226 C30.4130769,45.7863226 29.9171868,45.4109032 29.7958681,44.8626129 C29.4296374,43.2066129 29.4288791,41.5224194 29.4296374,41.4511935 C29.4311538,40.8057097 29.9664725,40.2826452 30.6269011,40.2826452 L30.6284176,40.2826452 C31.2896044,40.2833871 31.8249231,40.8101613 31.8241648,41.457129 C31.8241648,41.4719677 31.8264396,42.9647419 32.1365604,44.3662581 C32.2760769,44.999871 31.8658681,45.6223548 31.2190879,45.7596129 C31.1341648,45.7774194 31.0484835,45.7863226 30.9650769,45.7863226 L30.9650769,45.7863226 Z" id="Shape"></path>
                        <path d="M20.031989,42.8044839 C19.6733407,42.8044839 19.3192418,42.6471935 19.0834286,42.3489355 C18.6792857,41.837 18.7755824,41.1002581 19.2995275,40.7055484 C20.5710989,39.744 21.7001209,38.2200645 21.7114945,38.2044839 C22.0974396,37.6806774 22.8465824,37.5604839 23.3826593,37.938871 C23.9187363,38.3172581 24.0423297,39.0480645 23.6556264,39.5733548 C23.6017912,39.6475484 22.3158132,41.3859032 20.7629341,42.5596452 C20.5453187,42.7250968 20.2875165,42.8044839 20.031989,42.8044839 L20.031989,42.8044839 Z" id="Shape"></path>
                        <path d="M9.03975824,19.2257742 C17.7777363,14.8780323 26.3185714,8.77932258 35.7071209,5.85387097 C42.823978,3.63622581 51.7158791,5.42577419 58.5332308,8.00103226 C60.72,8.82680645 64.1184396,7.67680645 66.0671209,6.72787097 C67.2423956,6.15509677 69.5459341,4.56883871 67.3121538,3.72525806 C57.9220879,0.178806452 47.039044,-0.571290323 37.2455934,1.58922581 C24.8096703,4.33216129 13.9652967,11.9177097 2.7509011,17.4970645 C1.7758022,17.9822903 -0.902307692,19.8400968 1.50586813,20.4996774 C3.86172527,21.1451613 6.93942857,20.2711613 9.03975824,19.2257742 L9.03975824,19.2257742 L9.03975824,19.2257742 Z" id="Shape"></path>
                    </g>
                </g>
            </g>
        </g>
    </g>
</svg>