<?xml version="1.0" encoding="UTF-8" standalone="no"?>
<svg width="22px" height="22px" viewBox="0 0 22 22" version="1.1" xmlns="http://www.w3.org/2000/svg" xmlns:xlink="http://www.w3.org/1999/xlink">
    <!-- Generator: Sketch 41 (35326) - http://www.bohemiancoding.com/sketch -->
    <title>thin-0626_photo_camera_upload_computer copy</title>
    <desc>Created with Sketch.</desc>
    <defs></defs>
    <g id="Configurator-WebApp" stroke="none" stroke-width="1" fill="none" fill-rule="evenodd">
        <g id="3" transform="translate(-1070.000000, -755.000000)" stroke="#FFFFFF" stroke-width="1.5">
            <g id="Group-10" transform="translate(1047.000000, 745.000000)">
                <g id="thin-0626_photo_camera_upload_computer-copy" transform="translate(24.471698, 11.000000)">
                    <path d="M8.18867925,0.7864 L8.18867925,8.94639985" id="Shape"></path>
                    <polyline id="Shape" points="4.26088574 4.747616 8.44632151 0.7864 12.6318756 4.747616"></polyline>
                    <path d="M9.50292528,17.926176 C7.55233328,17.926176 5.9658723,16.424704 5.9658723,14.579168 C5.9658723,12.733072 7.55233328,11.2316 9.50292528,11.2316 C11.4529256,11.2316 13.0396232,12.733072 13.0396232,14.579168 C13.0396232,16.424704 11.4529256,17.926176 9.50292528,17.926176 L9.50292528,17.926176 Z" id="Shape"></path>
                    <path d="M10.7700383,6.867856 C11.5947472,7.124672 11.9303583,7.793088 12.0150895,8.983088 L17.3331538,8.983088 C18.6934678,8.983088 19.079965,9.982128 19.1255257,10.593648 L19.1255257,18.60176 C19.1255257,20.113648 17.3145745,20.173904 17.3145745,20.173904 L1.95799668,20.200112 C1.34795592,20.200112 0.903708981,19.995376 0.570819623,19.638208 C0.108230038,19.144064 0.16384966,18.479568 0.16384966,18.323552 L0.16384966,11.119936 C0.16384966,9.640976 1.32961328,9.011536 2.01740317,8.98264 L4.90666506,8.98264 C4.99388136,7.75792 5.22381525,7.085696 6.04698566,6.846016" id="Shape"></path>
                    <path id="Shape"></path>
                </g>
            </g>
        </g>
    </g>
</svg>