<?xml version="1.0" encoding="UTF-8" standalone="no"?>
<svg width="508px" height="522px" viewBox="0 0 508 522" version="1.1" xmlns="http://www.w3.org/2000/svg" xmlns:xlink="http://www.w3.org/1999/xlink">
    <!-- Generator: Sketch 41 (35326) - http://www.bohemiancoding.com/sketch -->
    <title>Group 3</title>
    <desc>Created with Sketch.</desc>
    <defs></defs>
    <g id="Configurator-iPad" stroke="none" stroke-width="1" fill="none" fill-rule="evenodd">
        <g id="sucess" transform="translate(-258.000000, -144.000000)">
            <g id="Group-2" transform="translate(258.000000, 103.000000)">
                <g id="Group-3" transform="translate(0.000000, 41.000000)">
                    <g id="Group-18" fill="#FFFFFF">
                        <rect id="Combined-Shape" x="0.200138893" y="0.739376771" width="507.434503" height="520.521246"></rect>
                    </g>
                    <path d="M266.114865,289.003378 C268.208323,289.003378 269.905405,287.306296 269.905405,285.212838 C269.905405,283.11938 268.208323,281.422297 266.114865,281.422297 C264.021407,281.422297 262.324324,283.11938 262.324324,285.212838 C262.324324,287.306296 264.021407,289.003378 266.114865,289.003378 L266.114865,289.003378 L266.114865,289.003378 Z M266.114865,290.898649 C262.974678,290.898649 260.429054,288.353024 260.429054,285.212838 C260.429054,282.072651 262.974678,279.527027 266.114865,279.527027 C269.255051,279.527027 271.800676,282.072651 271.800676,285.212838 C271.800676,288.353024 269.255051,290.898649 266.114865,290.898649 Z M50.6858108,477.266892 C52.7792685,477.266892 54.4763514,475.569809 54.4763514,473.476351 C54.4763514,471.382894 52.7792685,469.685811 50.6858108,469.685811 C48.5923531,469.685811 46.8952703,471.382894 46.8952703,473.476351 C46.8952703,475.569809 48.5923531,477.266892 50.6858108,477.266892 Z M50.6858108,479.162162 C47.5456242,479.162162 45,476.616538 45,473.476351 C45,470.336165 47.5456242,467.790541 50.6858108,467.790541 C53.8259974,467.790541 56.3716216,470.336165 56.3716216,473.476351 C56.3716216,476.616538 53.8259974,479.162162 50.6858108,479.162162 Z M416.472973,494.956081 C417.868611,494.956081 419,493.824693 419,492.429054 C419,491.033416 417.868611,489.902027 416.472973,489.902027 C415.077334,489.902027 413.945946,491.033416 413.945946,492.429054 C413.945946,493.824693 415.077334,494.956081 416.472973,494.956081 Z M58.8986486,314.905405 C60.2942871,314.905405 61.4256757,313.774017 61.4256757,312.378378 C61.4256757,310.98274 60.2942871,309.851351 58.8986486,309.851351 C57.5030102,309.851351 56.3716216,310.98274 56.3716216,312.378378 C56.3716216,313.774017 57.5030102,314.905405 58.8986486,314.905405 Z M358.351351,282.054054 C359.74699,282.054054 360.878378,280.922666 360.878378,279.527027 C360.878378,278.131389 359.74699,277 358.351351,277 C356.955713,277 355.824324,278.131389 355.824324,279.527027 C355.824324,280.922666 356.955713,282.054054 358.351351,282.054054 Z M411.418919,369.236486 C412.814557,369.236486 413.945946,368.105098 413.945946,366.709459 C413.945946,365.313821 412.814557,364.182432 411.418919,364.182432 C410.02328,364.182432 408.891892,365.313821 408.891892,366.709459 C408.891892,368.105098 410.02328,369.236486 411.418919,369.236486 Z M206.097973,481.689189 C207.493611,481.689189 208.625,480.557801 208.625,479.162162 C208.625,477.766524 207.493611,476.635135 206.097973,476.635135 C204.702334,476.635135 203.570946,477.766524 203.570946,479.162162 C203.570946,480.557801 204.702334,481.689189 206.097973,481.689189 Z M318.550676,442.52027 L312.233108,442.52027 L312.233108,437.466216 L309.706081,437.466216 L309.706081,445.047297 L316.023649,445.047297 L316.023649,450.101351 L318.550676,450.101351 L318.550676,442.52027 Z M154.925676,319.959459 L161.243243,319.959459 L161.243243,314.905405 L163.77027,314.905405 L163.77027,322.486486 L157.452703,322.486486 L157.452703,327.540541 L154.925676,327.540541 L154.925676,319.959459 Z" id="Shape-Copy-4" fill="#2BB0D4" style="mix-blend-mode: multiply;" opacity="0.230118937" transform="translate(232.000000, 385.978041) rotate(-180.000000) translate(-232.000000, -385.978041) "></path>
                    <path d="M292.523649,54.9712838 C294.611509,54.9712838 296.304054,53.2787386 296.304054,51.1908784 C296.304054,49.1030181 294.611509,47.410473 292.523649,47.410473 C290.435788,47.410473 288.743243,49.1030181 288.743243,51.1908784 C288.743243,53.2787386 290.435788,54.9712838 292.523649,54.9712838 L292.523649,54.9712838 L292.523649,54.9712838 Z M292.523649,56.8614865 C289.391858,56.8614865 286.853041,54.3226688 286.853041,51.1908784 C286.853041,48.059088 289.391858,45.5202703 292.523649,45.5202703 C295.655439,45.5202703 298.194257,48.059088 298.194257,51.1908784 C298.194257,54.3226688 295.655439,56.8614865 292.523649,56.8614865 Z M77.6706081,242.731419 C79.7584684,242.731419 81.4510135,241.038874 81.4510135,238.951014 C81.4510135,236.863153 79.7584684,235.170608 77.6706081,235.170608 C75.5827479,235.170608 73.8902027,236.863153 73.8902027,238.951014 C73.8902027,241.038874 75.5827479,242.731419 77.6706081,242.731419 Z M77.6706081,244.621622 C74.5388177,244.621622 72,242.082804 72,238.951014 C72,235.819223 74.5388177,233.280405 77.6706081,233.280405 C80.8023985,233.280405 83.3412162,235.819223 83.3412162,238.951014 C83.3412162,242.082804 80.8023985,244.621622 77.6706081,244.621622 Z M442.47973,260.373311 C443.871637,260.373311 445,259.244947 445,257.853041 C445,256.461134 443.871637,255.33277 442.47973,255.33277 C441.087823,255.33277 439.959459,256.461134 439.959459,257.853041 C439.959459,259.244947 441.087823,260.373311 442.47973,260.373311 Z M85.8614865,80.8040541 C87.2533933,80.8040541 88.3817568,79.6756906 88.3817568,78.2837838 C88.3817568,76.8918769 87.2533933,75.7635135 85.8614865,75.7635135 C84.4695797,75.7635135 83.3412162,76.8918769 83.3412162,78.2837838 C83.3412162,79.6756906 84.4695797,80.8040541 85.8614865,80.8040541 Z M384.513514,48.0405405 C385.90542,48.0405405 387.033784,46.9121771 387.033784,45.5202703 C387.033784,44.1283634 385.90542,43 384.513514,43 C383.121607,43 381.993243,44.1283634 381.993243,45.5202703 C381.993243,46.9121771 383.121607,48.0405405 384.513514,48.0405405 Z M437.439189,134.989865 C438.831096,134.989865 439.959459,133.861501 439.959459,132.469595 C439.959459,131.077688 438.831096,129.949324 437.439189,129.949324 C436.047282,129.949324 434.918919,131.077688 434.918919,132.469595 C434.918919,133.861501 436.047282,134.989865 437.439189,134.989865 Z M232.66723,247.141892 C234.059137,247.141892 235.1875,246.013528 235.1875,244.621622 C235.1875,243.229715 234.059137,242.101351 232.66723,242.101351 C231.275323,242.101351 230.146959,243.229715 230.146959,244.621622 C230.146959,246.013528 231.275323,247.141892 232.66723,247.141892 Z M344.819257,208.077703 L338.518581,208.077703 L338.518581,203.037162 L335.998311,203.037162 L335.998311,210.597973 L342.298986,210.597973 L342.298986,215.638514 L344.819257,215.638514 L344.819257,208.077703 Z M181.631757,85.8445946 L187.932432,85.8445946 L187.932432,80.8040541 L190.452703,80.8040541 L190.452703,88.3648649 L184.152027,88.3648649 L184.152027,93.4054054 L181.631757,93.4054054 L181.631757,85.8445946 Z" id="Shape-Copy-3" fill="#2BB0D4" opacity="0.230118937" transform="translate(258.500000, 151.686655) scale(-1, -1) translate(-258.500000, -151.686655) "></path>
                </g>
            </g>
        </g>
    </g>
</svg>