<?xml version="1.0" encoding="UTF-8" standalone="no"?>
<svg width="75px" height="49px" viewBox="0 0 75 49" version="1.1" xmlns="http://www.w3.org/2000/svg" xmlns:xlink="http://www.w3.org/1999/xlink">
    <!-- Generator: Sketch 41 (35326) - http://www.bohemiancoding.com/sketch -->
    <title>Group</title>
    <desc>Created with Sketch.</desc>
    <defs></defs>
    <g id="Configurator-WebApp" stroke="none" stroke-width="1" fill="none" fill-rule="evenodd" opacity="0.419309701">
        <g id="3_2" transform="translate(-671.000000, -536.000000)">
            <g id="Group-14" transform="translate(190.000000, 85.000000)">
                <g id="Group-12-Copy-6" transform="translate(425.000000, 421.000000)">
                    <g id="Group" transform="translate(56.000000, 30.000000)">
                        <path d="M69.6143034,18.0784 C69.0439101,17.372 55.6392697,1.0528 36.5642022,0.5032 C36.2411124,0.4864 35.9156292,0.4768 35.5869551,0.4768 L35.5853596,0.4768 L35.583764,0.4768 C35.5606292,0.4768 35.5382921,0.4784 35.5159551,0.4784 C35.2136067,0.4792 34.9120562,0.4864 34.6128989,0.5024 C15.5322472,1.048 2.12521348,17.372 1.55482022,18.0784 L0.742707865,19.0848 L1.55482022,20.0912 C2.12521348,20.7984 15.5322472,37.1224 34.6128989,37.6672 C34.9120562,37.6832 35.212809,37.6896 35.5159551,37.6912 C35.5390899,37.6912 35.561427,37.6928 35.583764,37.6928 L35.5853596,37.6928 L35.5869551,37.6928 C35.9148315,37.6928 36.2403146,37.6832 36.5642022,37.6672 C55.6392697,37.1168 69.0439101,20.7984 69.6143034,20.092 L70.4272135,19.0848 L69.6143034,18.0784 L69.6143034,18.0784 Z M35.5901461,34.4928 L35.5869551,34.4928 C27.1132247,34.492 20.2198427,27.58 20.2198427,19.084 C20.2198427,12.1792 24.7734157,6.3208 31.0285955,4.3688 C27.6987753,6.0456 25.408427,9.492 25.408427,13.4848 C25.408427,19.1208 29.9643933,23.6896 35.5853596,23.6896 C41.2023371,23.6896 45.7606966,19.1208 45.7606966,13.4848 C45.7606966,11.72 45.3131573,10.0608 44.5273708,8.6128 C44.168382,10.104 42.8385281,11.2168 41.2390337,11.2168 C39.3643146,11.2168 37.8469888,9.6936 37.8469888,7.816 C37.8469888,6.212 38.9558652,4.8776 40.4436742,4.5176 C40.3351798,4.4584 40.2179101,4.4152 40.1062247,4.3592 C46.3781573,6.2992 50.9500787,12.1656 50.9500787,19.084 C50.9492809,27.58 44.0590899,34.4912 35.5901461,34.4928 L35.5901461,34.4928 Z M4.91814607,19.084 C7.10478652,16.688 13.212382,10.5784 21.655,6.812 C18.7791011,10.0904 17.0288315,14.3848 17.0288315,19.084 C17.0288315,23.7776 18.7743146,28.068 21.645427,31.3456 C13.2171685,27.5784 7.10638202,21.4768 4.91814607,19.084 L4.91814607,19.084 Z M49.5165169,31.356 C52.391618,28.0776 54.1402921,23.7832 54.1402921,19.084 C54.1402921,14.3912 52.3956067,10.1024 49.5276854,6.8256 C57.9535506,10.5936 64.0627416,16.6936 66.2509775,19.0856 C64.0643371,21.4832 57.9559438,27.5904 49.5165169,31.356 L49.5165169,31.356 Z" id="Shape" fill="#2BB0D4"></path>
                        <path d="M71.2001953,29.2089844 C71.2001953,29.2089844 57.4765625,45.2763672 38.5634766,45.2763672" id="Path-6" stroke="#2BB0D4" stroke-width="2"></path>
                        <path d="M74.2128906,33.5273438 C74.2128906,33.5273438 62.1025391,45.4619141 50.84375,47.1298828" id="Path-7" stroke="#2BB0D4" stroke-width="2"></path>
                    </g>
                </g>
            </g>
        </g>
    </g>
</svg>