<?xml version="1.0" encoding="UTF-8" standalone="no"?>
<svg width="33px" height="26px" viewBox="0 0 33 26" version="1.1" xmlns="http://www.w3.org/2000/svg" xmlns:xlink="http://www.w3.org/1999/xlink">
    <!-- Generator: Sketch 41 (35326) - http://www.bohemiancoding.com/sketch -->
    <title>Stroke 1273 + Stroke 1274</title>
    <desc>Created with Sketch.</desc>
    <defs></defs>
    <g id="Admin-Dashboard" stroke="none" stroke-width="1" fill="none" fill-rule="evenodd" stroke-linejoin="round">
        <g id="Dash-Home" transform="translate(-1071.000000, -108.000000)" stroke="#00A6DA">
            <g id="Group-4-Copy-2" transform="translate(858.000000, 91.000000)">
                <g id="Stroke-1273-+-Stroke-1274" transform="translate(213.000000, 17.000000)">
                    <path d="M10.8695428,25.3157895 L21.2752814,25.3157895 L21.2752814,19.1578947 C21.2752814,18.4736842 17.1574584,16.4210526 13.7259393,15.0526316 L13.7259393,12.3157895 C13.7259393,12.3157895 15.0985469,11.8368421 15.0985469,8.89473684 C16.0525093,8.89473684 16.4711546,6.15789474 15.1424704,6.15789474 C15.1424704,5.86778947 16.1938879,4.368 15.7848508,2.73684211 C15.0985469,-8.9928065e-15 8.23550867,-8.9928065e-15 7.54920484,2.73684211 C4.65986573,2.14705263 6.86290102,5.76378947 6.86290102,6.15789474 C5.49029336,6.15789474 5.90756609,8.89473684 6.86290102,8.89473684 C6.86290102,11.8368421 8.23550867,12.3157895 8.23550867,12.3157895 L8.23550867,15.0526316 C4.80398953,16.4210526 0.686166567,18.4736842 0.686166567,19.1578947 L0.686166567,25.3157895 L10.8695428,25.3157895 L10.8695428,25.3157895 Z" id="Stroke-1273"></path>
                    <path d="M24.7069378,25.3157895 L32.2562799,25.3157895 L32.2562799,19.1578947 C32.2562799,18.4736842 28.8247608,17.5157895 26.0795455,16.4210526 L26.0795455,14.3684211 C26.0795455,14.3684211 27.4521531,13.9852632 27.4521531,11.6315789 C28.2166956,11.6315789 28.5145514,8.89473684 27.4521531,8.89473684 C27.4521531,8.66347368 28.5639653,7.43463158 28.1384569,6.15789474 C27.4521531,4.10526316 21.9617225,4.10526316 21.2754187,6.15789474 C18.9625748,5.68578947 20.5891148,8.58 20.5891148,8.89473684 C19.4910287,8.89473684 19.8245724,11.6315789 20.5891148,11.6315789 C20.5891148,13.9852632 21.9617225,14.3684211 21.9617225,14.3684211 L21.9617225,15.7368421" id="Stroke-1274" stroke-linecap="round"></path>
                </g>
            </g>
        </g>
    </g>
</svg>