<?xml version="1.0" encoding="UTF-8" standalone="no"?>
<svg width="21px" height="20px" viewBox="0 0 21 20" version="1.1" xmlns="http://www.w3.org/2000/svg" xmlns:xlink="http://www.w3.org/1999/xlink">
    <!-- Generator: Sketch 41 (35326) - http://www.bohemiancoding.com/sketch -->
    <title>dashboard_modules_icon</title>
    <desc>Created with Sketch.</desc>
    <defs></defs>
    <g id="Page-1" stroke="none" stroke-width="1" fill="none" fill-rule="evenodd">
        <g id="dashboard_modules_icon" transform="translate(1.000000, 0.000000)">
            <g id="Group">
                <g id="Admin-Dashboard">
                    <g id="Dash-Home">
                        <g id="Menu---LHS">
                            <g id="Group">
                                <polygon id="Stroke-7333" stroke="#FFFFFF" points="12.2065913 13.5529478 11.4887217 10.6624696 13.8802435 8.88886087 14.5989391 11.7793391"></polygon>
                                <polygon id="Stroke-7334" stroke="#FFFFFF" points="15.2261043 18.5869565 6.67445217 15.5163913 10.8610609 3.85452174 19.412713 6.92343478"></polygon>
                                <polygon id="Fill-7335" fill="#FFFFFF" points="11.9968478 5.57773913 11.4681522 5.82804348 11.7176304 6.35508696 12.2463261 6.10726087"></polygon>
                                <polygon id="Fill-7336" fill="#FFFFFF" points="14.3701957 16.0844913 13.8398478 16.3347957 14.0901522 16.8618391 14.6188478 16.613187"></polygon>
                                <path d="M2.39433043,3.61900435 C2.36376522,3.61900435 2.33237391,3.6223087 2.30098261,3.62974348 C2.07876522,3.68178696 1.9408087,3.90317826 1.9912,4.12539565 C2.03498261,4.31704783 2.20515652,4.4450913 2.39267826,4.4450913 C2.42324348,4.4450913 2.45463478,4.44178696 2.48602609,4.43517826 C2.70906957,4.38478696 2.84785217,4.16256957 2.7958087,3.93952609 C2.75285217,3.74787391 2.58267826,3.61900435 2.39433043,3.61900435" id="Fill-7337" fill="#FFFFFF"></path>
                                <path d="M7.84138261,7.43965652 C8.02725217,8.2450913 7.31516522,8.83326522 6.51055652,9.01913478 C5.70429565,9.20500435 4.80633913,8.98691739 4.62129565,8.18148261 C4.43625217,7.37852609 5.76707826,5.79822174 5.76707826,5.79822174 C5.76707826,5.79822174 7.65551304,6.63422174 7.84138261,7.43965652 L7.84138261,7.43965652 Z" id="Stroke-7338" stroke="#FFFFFF"></path>
                                <path d="M6.5103087,9.01921739 L6.69617826,9.82465217" id="Stroke-7339" stroke="#FFFFFF"></path>
                                <polyline id="Stroke-7340" stroke="#FFFFFF" points="7.24114783 13.9353435 3.1958 14.8679957 0.412713043 2.79308261 9.26753913 0.753473913 10.3257565 5.34403913"></polyline>
                            </g>
                        </g>
                    </g>
                </g>
            </g>
        </g>
    </g>
</svg>