<?xml version="1.0" encoding="UTF-8" standalone="no"?>
<svg width="18px" height="19px" viewBox="0 0 18 19" version="1.1" xmlns="http://www.w3.org/2000/svg" xmlns:xlink="http://www.w3.org/1999/xlink">
    <!-- Generator: Sketch 41 (35326) - http://www.bohemiancoding.com/sketch -->
    <title>Stroke 3479 + Stroke 3480</title>
    <desc>Created with Sketch.</desc>
    <defs></defs>
    <g id="Admin-Dashboard" stroke="none" stroke-width="1" fill="none" fill-rule="evenodd" stroke-linecap="round" opacity="0.507579291" stroke-linejoin="round">
        <g id="Dash-Home" transform="translate(-19.000000, -332.000000)" stroke="#FFFFFF">
            <g id="Menu---LHS" transform="translate(-1.000000, -5.000000)">
                <g id="Stroke-3479-+-Stroke-3480" transform="translate(20.000000, 338.000000)">
                    <path d="M15.1521739,12.1956522 L15.1521739,8.13043478 C15.1521739,5.4326087 13.4455217,3.13686957 11.0573913,2.24769565 C10.8933043,1.18482609 9.97826087,0.369565217 8.86956522,0.369565217 C7.76086957,0.369565217 6.84286957,1.18482609 6.67952174,2.24769565 C4.29065217,3.13686957 2.58695652,5.4326087 2.58695652,8.13043478 L2.58695652,12.1956522 C2.58695652,13.4203913 1.59356522,14.4130435 0.369565217,14.4130435 L17.3695652,14.4130435 C16.1433478,14.4130435 15.1521739,13.4203913 15.1521739,12.1956522 L15.1521739,12.1956522 Z" id="Stroke-3479"></path>
                    <path d="M11.0869565,14.4130435 C11.0869565,15.6377826 10.0935652,16.6304348 8.86956522,16.6304348 C7.64334783,16.6304348 6.65217391,15.6377826 6.65217391,14.4130435" id="Stroke-3480"></path>
                </g>
            </g>
        </g>
    </g>
</svg>