<?xml version="1.0" encoding="UTF-8" standalone="no"?>
<svg width="23px" height="30px" viewBox="0 0 23 30" version="1.1" xmlns="http://www.w3.org/2000/svg" xmlns:xlink="http://www.w3.org/1999/xlink">
    <!-- Generator: Sketch 41 (35326) - http://www.bohemiancoding.com/sketch -->
    <title>Group</title>
    <desc>Created with Sketch.</desc>
    <defs></defs>
    <g id="Admin-Dashboard" stroke="none" stroke-width="1" fill="none" fill-rule="evenodd" stroke-linejoin="round">
        <g id="Dash-Home" transform="translate(-501.000000, -104.000000)" stroke="#00A6DA">
            <g id="Group-4" transform="translate(275.000000, 91.000000)">
                <g id="Group" transform="translate(226.000000, 13.000000)">
                    <path d="M9.58333333,19.375 L9.58333333,21.25 L5.75,22.1575 C5.07405556,22.345 4.53227778,22.96375 4.53227778,23.65125 L4.52077778,24.31" id="Stroke-1350"></path>
                    <path d="M13.4166667,19.375 L13.4166667,21.25 L17.25,22.1575 C17.9246667,22.345 18.4779444,22.92875 18.4677222,23.65125 L18.4779444,24.31" id="Stroke-1351"></path>
                    <path d="M15.3333333,15.963125 C15.3333333,18.221875 13.616,20.051875 11.5,20.051875 C9.38272222,20.051875 7.66666667,18.221875 7.66666667,15.963125 C7.66666667,13.705625 9.38272222,11.874375 11.5,11.874375 C13.616,11.874375 15.3333333,13.705625 15.3333333,15.963125 L15.3333333,15.963125 Z" id="Stroke-1352"></path>
                    <path d="M15.2783889,15.264875 C14.6395,15.889875 12.8276111,15.842375 12.1388889,14.588625 C10.8611111,15.838625 8.78472222,15.838625 7.751,15.124875" id="Stroke-1353"></path>
                    <polyline id="Stroke-1354" points="14.6944444 5.625 22.3611111 5.625 22.3611111 29.375 0.638888889 29.375 0.638888889 5.625 8.30555556 5.625"></polyline>
                    <path d="M14.6944444,9.375 L8.30555556,9.375 L8.30555556,3.75 C8.30555556,2.03125 9.74305556,0.625 11.5,0.625 C13.2569444,0.625 14.6944444,2.03125 14.6944444,3.75 L14.6944444,9.375 L14.6944444,9.375 Z" id="Stroke-1355"></path>
                    <path d="M0.638888889,24 L22.3611111,24" id="Stroke-1356"></path>
                    <path d="M14.0555556,26 L19.1666667,26" id="Stroke-1357"></path>
                    <path d="M12.1388889,3.743875 C12.1388889,4.088875 11.8526667,4.368875 11.5,4.368875 C11.1473333,4.368875 10.8611111,4.088875 10.8611111,3.743875 C10.8611111,3.398875 11.1473333,3.118875 11.5,3.118875 C11.8526667,3.118875 12.1388889,3.398875 12.1388889,3.743875 L12.1388889,3.743875 Z" id="Stroke-1358"></path>
                </g>
            </g>
        </g>
    </g>
</svg>