<?xml version="1.0" encoding="UTF-8" standalone="no"?>
<svg width="17px" height="22px" viewBox="0 0 17 22" version="1.1" xmlns="http://www.w3.org/2000/svg" xmlns:xlink="http://www.w3.org/1999/xlink">
    <!-- Generator: Sketch 41 (35326) - http://www.bohemiancoding.com/sketch -->
    <title>Group</title>
    <desc>Created with Sketch.</desc>
    <defs></defs>
    <g id="Admin-Dashboard" stroke="none" stroke-width="1" fill="none" fill-rule="evenodd" stroke-linejoin="round">
        <g id="Konfigurationen" transform="translate(-19.000000, -182.000000)" stroke="#FFFFFF">
            <g id="Menu---LHS" transform="translate(-1.000000, -5.000000)">
                <g id="Group" transform="translate(21.000000, 188.000000)">
                    <path d="M6.25,12.9166667 L6.25,14.1666667 L3.75,14.7716667 C3.30916667,14.8966667 2.95583333,15.3091667 2.95583333,15.7675 L2.94833333,16.2066667" id="Stroke-1350"></path>
                    <path d="M8.75,12.9166667 L8.75,14.1666667 L11.25,14.7716667 C11.69,14.8966667 12.0508333,15.2858333 12.0441667,15.7675 L12.0508333,16.2066667" id="Stroke-1351"></path>
                    <path d="M10,10.6420833 C10,12.1479167 8.88,13.3679167 7.5,13.3679167 C6.11916667,13.3679167 5,12.1479167 5,10.6420833 C5,9.13708333 6.11916667,7.91625 7.5,7.91625 C8.88,7.91625 10,9.13708333 10,10.6420833 L10,10.6420833 Z" id="Stroke-1352"></path>
                    <path d="M9.96416667,10.1765833 C9.5475,10.59325 8.36583333,10.5615833 7.91666667,9.72575 C7.08333333,10.5590833 5.72916667,10.5590833 5.055,10.08325" id="Stroke-1353"></path>
                    <polyline id="Stroke-1354" points="9.58333333 3.75 14.5833333 3.75 14.5833333 19.5833333 0.416666667 19.5833333 0.416666667 3.75 5.41666667 3.75"></polyline>
                    <path d="M9.58333333,6.25 L5.41666667,6.25 L5.41666667,2.5 C5.41666667,1.35416667 6.35416667,0.416666667 7.5,0.416666667 C8.64583333,0.416666667 9.58333333,1.35416667 9.58333333,2.5 L9.58333333,6.25 L9.58333333,6.25 Z" id="Stroke-1355"></path>
                    <path d="M0.416666667,16.25 L14.5833333,16.25" id="Stroke-1356"></path>
                    <path d="M9.16666667,17.9166667 L12.5,17.9166667" id="Stroke-1357"></path>
                    <path d="M7.91666667,2.49591667 C7.91666667,2.72591667 7.73,2.91258333 7.5,2.91258333 C7.27,2.91258333 7.08333333,2.72591667 7.08333333,2.49591667 C7.08333333,2.26591667 7.27,2.07925 7.5,2.07925 C7.73,2.07925 7.91666667,2.26591667 7.91666667,2.49591667 L7.91666667,2.49591667 Z" id="Stroke-1358"></path>
                </g>
            </g>
        </g>
    </g>
</svg>