<?xml version="1.0" encoding="UTF-8"?>
<svg width="23px" height="19px" viewBox="0 0 23 19" version="1.1" xmlns="http://www.w3.org/2000/svg" xmlns:xlink="http://www.w3.org/1999/xlink">
    <!-- Generator: Sketch 46.1 (44463) - http://www.bohemiancoding.com/sketch -->
    <title>user_select</title>
    <desc>Created with Sketch.</desc>
    <defs></defs>
    <g id="Admin-Dashboard" stroke="none" stroke-width="1" fill="none" fill-rule="evenodd" stroke-linejoin="round">
        <g id="User-/-Company-_-UserOverview" transform="translate(-16.000000, -232.000000)" stroke="#FFFFFF">
            <g id="Menu---LHS" transform="translate(-1.000000, -5.000000)">
                <g id="user_select" transform="translate(18.000000, 238.000000)">
                    <path d="M7.08533158,16.5526316 L13.8683316,16.5526316 L13.8683316,12.5263158 C13.8683316,12.0789474 11.1841211,10.7368421 8.94727895,9.84210526 L8.94727895,8.05263158 C8.94727895,8.05263158 9.84201579,7.73947368 9.84201579,5.81578947 C10.4638579,5.81578947 10.7367526,4.02631579 9.87064737,4.02631579 C9.87064737,3.83663158 10.5560158,2.856 10.2893842,1.78947368 C9.84201579,-1.55431223e-15 5.36833158,-1.55431223e-15 4.92096316,1.78947368 C3.03754211,1.40384211 4.47359474,3.76863158 4.47359474,4.02631579 C3.57885789,4.02631579 3.85085789,5.81578947 4.47359474,5.81578947 C4.47359474,7.73947368 5.36833158,8.05263158 5.36833158,8.05263158 L5.36833158,9.84210526 C3.13148947,10.7368421 0.447278947,12.0789474 0.447278947,12.5263158 L0.447278947,16.5526316 L7.08533158,16.5526316 L7.08533158,16.5526316 Z" id="Stroke-1273"></path>
                    <path d="M16.1052632,16.5526316 L21.0263158,16.5526316 L21.0263158,12.5263158 C21.0263158,12.0789474 18.7894737,11.4526316 17,10.7368421 L17,9.39473684 C17,9.39473684 17.8947368,9.14421053 17.8947368,7.60526316 C18.3931053,7.60526316 18.5872632,5.81578947 17.8947368,5.81578947 C17.8947368,5.66457895 18.6194737,4.86110526 18.3421053,4.02631579 C17.8947368,2.68421053 14.3157895,2.68421053 13.8684211,4.02631579 C12.3607895,3.71763158 13.4210526,5.61 13.4210526,5.81578947 C12.7052632,5.81578947 12.9226842,7.60526316 13.4210526,7.60526316 C13.4210526,9.14421053 14.3157895,9.39473684 14.3157895,9.39473684 L14.3157895,10.2894737" id="Stroke-1274" stroke-linecap="round"></path>
                </g>
            </g>
        </g>
    </g>
</svg>