<?xml version="1.0" encoding="UTF-8" standalone="no"?>
<svg width="124px" height="52px" viewBox="0 0 124 52" version="1.1" xmlns="http://www.w3.org/2000/svg" xmlns:xlink="http://www.w3.org/1999/xlink">
    <!-- Generator: Sketch 41 (35326) - http://www.bohemiancoding.com/sketch -->
    <title>mouth</title>
    <desc>Created with Sketch.</desc>
    <defs></defs>
    <g id="Page-1" stroke="none" stroke-width="1" fill="none" fill-rule="evenodd" stroke-opacity="0.7" stroke-linecap="round" fill-opacity="0.3" stroke-linejoin="round">
        <g id="auswählen" transform="translate(-344.000000, -437.000000)" stroke="#F5AF62" stroke-width="3" fill="#F5AF62">
            <path d="M461.349222,453.699975 C456.374289,451.959449 450.950371,449.327053 445.922268,446.881569 C437.590453,442.828845 429.719437,439 423.930555,439 C416.868894,439 413.279643,440.369825 410.660566,441.369469 C409.079273,441.9729 407.93712,442.409724 406.388648,442.409724 C404.888094,442.409724 403.746596,441.9729 402.164648,441.369469 C399.544258,440.369825 395.95632,439.000521 388.894658,439.000521 C383.104463,439.000521 375.236073,442.827804 366.902945,446.881569 C364.19394,448.19985 361.36875,449.572278 358.560627,450.832246 C356.224463,451.875104 354.095068,452.761768 352.035909,453.504732 L348.80209,454.825972 C345.224516,456.287659 345.058181,458.98651 348.386577,460.981185 C348.386577,460.981185 347.894617,460.362187 353.755704,464.561213 C355.744627,465.911774 357.792627,467.493503 360.000135,469.203831 C370.079314,477.01251 382.624627,486.729884 406.386678,486.729884 C430.199273,486.729884 442.74393,477.01251 452.822453,469.203831 C453.651499,468.561352 454.458227,467.936574 455.248545,467.334705 C462.197961,461.688278 463.433253,461.502732 463.433253,461.502732 C467.239084,459.276946 467.020561,456.08388 462.95379,454.374443 L461.349222,453.699975 Z" id="mouth"></path>
        </g>
    </g>
</svg>