<?xml version="1.0" encoding="UTF-8" standalone="no"?>
<svg width="152px" height="89px" viewBox="0 0 152 89" version="1.1" xmlns="http://www.w3.org/2000/svg" xmlns:xlink="http://www.w3.org/1999/xlink">
    <!-- Generator: Sketch 41 (35326) - http://www.bohemiancoding.com/sketch -->
    <title>throat</title>
    <desc>Created with Sketch.</desc>
    <defs></defs>
    <g id="Page-1" stroke="none" stroke-width="1" fill="none" fill-rule="evenodd" stroke-opacity="0.7" fill-opacity="0.3">
        <g id="auswählen" transform="translate(-332.000000, -555.000000)" stroke="#F5AF62" stroke-width="3" fill="#F5AF62">
            <path d="M465.31811,560.584054 C474.13406,564.758747 480.261739,572.907098 481.684942,582.351485 C482.567854,588.194344 481.583912,594.165524 478.873677,599.448051 L473.703586,609.516931 C466.442616,623.653571 453.330702,634.098859 437.666687,638.230778 L435.312252,638.850994 C417.425581,643.564633 398.572537,643.564633 380.690258,638.850994 L378.335824,638.230778 C362.667416,634.098859 349.555502,623.653571 342.298925,609.516931 L337.128834,599.448051 C334.414206,594.165524 333.434656,588.194344 334.313176,582.351485 C335.740772,572.907098 341.86845,564.758747 350.684401,560.584054 L351.255439,560.314581 C357.633495,557.294772 364.916428,556.606119 371.773278,558.368387 L400.145088,563.860504 C405.069194,565.126599 410.243678,565.135154 415.167784,563.890445 L444.277551,558.317059 C451.108046,556.584732 458.34266,557.286218 464.689968,560.288917 L465.31811,560.584054 Z" id="throat"></path>
        </g>
    </g>
</svg>