<?xml version="1.0" encoding="UTF-8" standalone="no"?>
<svg width="351px" height="210px" viewBox="0 0 351 210" version="1.1" xmlns="http://www.w3.org/2000/svg" xmlns:xlink="http://www.w3.org/1999/xlink">
    <!-- Generator: Sketch 41 (35326) - http://www.bohemiancoding.com/sketch -->
    <title>Page 1</title>
    <desc>Created with Sketch.</desc>
    <defs></defs>
    <g id="Page-1" stroke="none" stroke-width="1" fill="none" fill-rule="evenodd" stroke-opacity="0.7" fill-opacity="0.3">
        <g id="auswählen" transform="translate(-232.000000, -51.000000)" stroke="#F5AF62" stroke-width="3" fill="#F5AF62">
            <path d="M406.185877,150.108173 C488.537573,150.108173 530.589503,216.342839 548.549181,238.969588 C566.50886,261.596338 581.840292,281.754714 580.96421,200.709812 C580.088129,119.66491 542.854649,83.4621114 499.050556,63.3037348 C465.142683,47.7003285 428.872893,53.5421437 414.214291,56.9781185 C409.800591,58.0131894 405.199409,58.0131894 400.785709,56.9781185 C386.127107,53.5421437 349.857317,47.7003285 315.949444,63.3037348 C272.145351,83.4621114 234.911871,119.66491 234.03579,200.709812 C233.159708,281.754714 248.49114,261.596338 266.450819,238.969588 C284.410497,216.342839 322.082018,150.108173 404.433713,150.108173 L406.185877,150.108173 Z" id="Page-1"></path>
        </g>
    </g>
</svg>