<?xml version="1.0" encoding="UTF-8" standalone="no"?>
<svg width="18px" height="13px" viewBox="0 0 18 13" version="1.1" xmlns="http://www.w3.org/2000/svg" xmlns:xlink="http://www.w3.org/1999/xlink">
    <!-- Generator: Sketch 41 (35326) - http://www.bohemiancoding.com/sketch -->
    <title>Stroke 3705 + Stroke 3706</title>
    <desc>Created with Sketch.</desc>
    <defs></defs>
    <g id="Configurator-WebApp" stroke="none" stroke-width="1" fill="none" fill-rule="evenodd">
        <g id="Panel-Projects" transform="translate(-459.000000, -226.000000)" stroke="#FFFFFF" stroke-width="1.3">
            <g id="Group-2" transform="translate(130.000000, 167.000000)">
                <g id="Group-19" transform="translate(323.000000, 51.000000)">
                    <g id="Stroke-3705-+-Stroke-3706" transform="translate(7.000000, 9.000000)">
                        <path d="M15.4703427,9.46414918 C15.4703427,10.3011549 14.8349127,10.9679323 14.0379036,10.9679323 L1.38259026,10.9679323 C0.572975656,10.9679323 0,10.3011549 0,9.46414918 L0,1.64447705 C0,0.742207188 0.572975656,0.140693947 1.43243914,0.140693947 L14.0379036,0.140693947 C14.8973671,0.140693947 15.4703427,0.742207188 15.4703427,1.64447705 L15.4703427,9.46414918 L15.4703427,9.46414918 Z" id="Stroke-3705" stroke-linecap="round" stroke-linejoin="round"></path>
                        <polyline id="Stroke-3706" stroke-linejoin="round" points="15.0911188 0.570384931 8.02174514 6.45649275 0.379109343 0.570384931"></polyline>
                        <path d="M0.5,10.5 L5.5,5.5" id="Line" stroke-linecap="square"></path>
                        <path d="M10.5,9.5 L14.5,5.5" id="Line" stroke-linecap="square" transform="translate(12.500000, 7.500000) scale(-1, 1) translate(-12.500000, -7.500000) "></path>
                    </g>
                </g>
            </g>
        </g>
    </g>
</svg>