<?xml version="1.0" encoding="UTF-8" standalone="no"?>
<svg width="26px" height="16px" viewBox="0 0 26 16" version="1.1" xmlns="http://www.w3.org/2000/svg" xmlns:xlink="http://www.w3.org/1999/xlink">
    <!-- Generator: Sketch 41 (35326) - http://www.bohemiancoding.com/sketch -->
    <title>Stroke 2936 + Stroke 2937 + Stroke 2938</title>
    <desc>Created with Sketch.</desc>
    <defs></defs>
    <g id="Page-1" stroke="none" stroke-width="1" fill="none" fill-rule="evenodd" stroke-linecap="round" stroke-linejoin="round">
        <g id="Stroke-2936-+-Stroke-2937-+-Stroke-2938" transform="translate(1.000000, 1.000000)" stroke="#2BB0D4" stroke-width="1.5">
            <path d="M24.2016148,6.85266509 C24.2016148,6.85266509 18.7842085,13.926792 12.1008074,13.926792 C5.4174063,13.926792 0,6.85266509 0,6.85266509 C0,6.85266509 5.4174063,0.194663326 12.1008074,0.194663326 C18.7842085,0.194663326 24.2016148,6.85266509 24.2016148,6.85266509 L24.2016148,6.85266509 Z" id="Stroke-2936"></path>
            <path d="M16.2734996,6.85266509 C16.2734996,9.15050795 14.4053853,11.0139162 12.1008074,11.0139162 C9.79664678,11.0139162 7.92811521,9.15050795 7.92811521,6.85266509 C7.92811521,4.55482223 9.79664678,2.69141399 12.1008074,2.69141399 C14.4053853,2.69141399 16.2734996,4.55482223 16.2734996,6.85266509 L16.2734996,6.85266509 Z" id="Stroke-2937"></path>
            <path d="M12.1008074,4.77203954 C13.253305,4.77203954 14.1871535,5.70374366 14.1871535,6.85266509 C14.1871535,8.00200264 13.2528877,8.93329064 12.1008074,8.93329064 C10.9487271,8.93329064 10.0144613,8.00200264 10.0144613,6.85266509" id="Stroke-2938"></path>
        </g>
    </g>
</svg>