<?xml version="1.0" encoding="UTF-8" standalone="no"?>
<svg width="69px" height="55px" viewBox="0 0 69 55" version="1.1" xmlns="http://www.w3.org/2000/svg" xmlns:xlink="http://www.w3.org/1999/xlink">
    <!-- Generator: Sketch 41 (35326) - http://www.bohemiancoding.com/sketch -->
    <title>Group 17</title>
    <desc>Created with Sketch.</desc>
    <defs></defs>
    <g id="Configurator-WebApp" stroke="none" stroke-width="1" fill="none" fill-rule="evenodd" opacity="0.419309701">
        <g id="3_2" transform="translate(-285.000000, -527.000000)">
            <g id="Group-14" transform="translate(190.000000, 85.000000)">
                <g id="Group-12-Copy-4" transform="translate(43.000000, 421.000000)">
                    <g id="Group-17" transform="translate(52.000000, 19.000000)">
                        <g id="Group" transform="translate(0.000000, 36.000000)" fill="#2BB0D4">
                            <path d="M9.03975824,19.2257742 C17.7777363,14.8780323 26.3185714,8.77932258 35.7071209,5.85387097 C42.823978,3.63622581 51.7158791,5.42577419 58.5332308,8.00103226 C60.72,8.82680645 64.1184396,7.67680645 66.0671209,6.72787097 C67.2423956,6.15509677 69.5459341,4.56883871 67.3121538,3.72525806 C57.9220879,0.178806452 47.039044,-0.571290323 37.2455934,1.58922581 C24.8096703,4.33216129 13.9652967,11.9177097 2.7509011,17.4970645 C1.7758022,17.9822903 -0.902307692,19.8400968 1.50586813,20.4996774 C3.86172527,21.1451613 6.93942857,20.2711613 9.03975824,19.2257742 L9.03975824,19.2257742 L9.03975824,19.2257742 Z" id="Shape"></path>
                        </g>
                        <g id="augenbraue" transform="translate(33.084373, 20.572061) rotate(-9.000000) translate(-33.084373, -20.572061) translate(19.084373, 2.072061)">
                            <path d="M25.2978723,30.5206349 C25.2978723,30.5206349 25.8297872,19.4031746 24.9787234,6.45079365" id="Shape" stroke="#2BB0D4" stroke-width="1.5"></path>
                            <polygon id="Shape" fill="#2BB0D4" points="27.6685394 10.7463359 24.4349716 1.64214875 22.7373485 11.1564345"></polygon>
                            <ellipse id="Oval" stroke="#2BB0D4" stroke-width="1.5" cx="25.3706025" cy="32.325449" rx="1.98685857" ry="2.01587302"></ellipse>
                            <path d="M3.22340426,33.3809524 C3.22340426,33.3809524 8.80851064,22.5873016 13.7021277,7.63809524" id="Shape" stroke="#2BB0D4" stroke-width="1.5"></path>
                            <polygon id="Shape" fill="#2BB0D4" points="15.4296139 11.0221168 15.9409522 0.818942216 10.4866768 9.37923277"></polygon>
                            <ellipse id="Oval" stroke="#2BB0D4" stroke-width="1.5" cx="2.64143788" cy="34.9622915" rx="1.83823529" ry="1.86507937"></ellipse>
                        </g>
                    </g>
                </g>
            </g>
        </g>
    </g>
</svg>