<?xml version="1.0" encoding="UTF-8" standalone="no"?>
<svg width="19px" height="21px" viewBox="0 0 19 21" version="1.1" xmlns="http://www.w3.org/2000/svg" xmlns:xlink="http://www.w3.org/1999/xlink">
    <!-- Generator: Sketch 41 (35326) - http://www.bohemiancoding.com/sketch -->
    <title>Page 1</title>
    <desc>Created with Sketch.</desc>
    <defs></defs>
    <g id="Configurator-WebApp" stroke="none" stroke-width="1" fill="none" fill-rule="evenodd">
        <g id="3_2" transform="translate(-602.000000, -272.000000)">
            <g id="Group-14" transform="translate(190.000000, 85.000000)">
                <g id="Group-15-Copy-2" transform="translate(393.000000, 173.000000)">
                    <g id="Page-1" transform="translate(19.000000, 14.000000)">
                        <path d="M16.5823195,20.1032004 C16.2647775,19.9499303 15.9463087,19.8115788 15.6296935,19.6867851" id="Fill-1" fill="#307DC1"></path>
                        <g id="Group-8" transform="translate(0.000000, 0.036014)" fill="#66C5DF">
                            <path d="M16.1694428,2.96522232 C14.3397274,1.06358379 11.9655512,0.0163425333 9.48432629,0.0163425333 C6.99517182,0.0163425333 4.6213561,1.05243402 2.80023957,2.93386685 C1.02062439,4.77237567 -2.05962061e-05,7.24647399 -2.05962061e-05,9.72182861 C-2.05962061e-05,12.7305926 0.429461789,16.8249154 2.32863794,20.205705 C2.64175176,20.0453681 2.95661626,19.9000547 3.27045095,19.7684036 C1.44186829,16.5715591 1.0297897,12.6229685 1.0297897,9.72182861 C1.0297897,7.51893678 1.94266504,5.31248541 3.53428835,3.66818158 C5.16025583,1.98838692 7.27337507,1.06326971 9.48432629,1.06326971 C13.9880986,1.06326971 17.9388114,5.10932919 17.9388114,9.72182861 C17.9388114,14.4266147 16.803394,17.6135133 15.6297192,19.6507813 C15.9463344,19.775575 16.2648033,19.9139264 16.5823453,20.0671966 C17.8063263,17.8978064 18.9686217,14.5629769 18.9686217,9.72182861 C18.9686217,7.27667783 17.9483886,4.81399103 16.1694428,2.96522232" id="Fill-6"></path>
                        </g>
                        <path d="M7.98441274,16.2733419 C7.8988355,16.471944 7.98775962,16.7034719 8.18311463,16.7905239 L8.90187073,17.1107266 C9.0779168,17.1891414 9.26786531,17.2284012 9.45786531,17.2284012 C9.63607398,17.2284012 9.81433415,17.1938526 9.98116341,17.1245984 L10.7765374,16.7943975 C10.9740035,16.7124231 11.0686431,16.4831984 10.9880089,16.2825025 C10.9073748,16.0817018 10.6820008,15.9854892 10.4845347,16.0674636 L9.6891607,16.3976645 C9.53669729,16.4609512 9.36276233,16.4587527 9.21184363,16.3914876 L8.49313902,16.0713373 C8.29778401,15.98439 8.07004146,16.0747398 7.98441274,16.2733419" id="Fill-9" fill="#66C5DF"></path>
                        <path d="M16.2491707,10.4603625 C16.1948482,10.4235106 14.8999648,9.55942927 13.2305393,9.73185817 C11.4423252,9.9162744 10.7620325,10.8179928 10.4350678,11.2513159 C10.4150379,11.2778555 10.3963469,11.3026154 10.3788401,11.325229 C9.95079946,11.8772737 9.57409485,13.1906962 9.92108943,15.0755315 C9.95579404,15.2642402 10.1179892,15.3959959 10.3002141,15.3959959 C10.3237967,15.3959959 10.3476883,15.3937974 10.3716829,15.3891909 C10.5813523,15.349303 10.7194499,15.14421 10.6802656,14.9311079 C10.5172466,14.0454599 10.4639539,12.483811 10.9853984,11.8113173 C11.0049133,11.7861387 11.025664,11.7586568 11.0479079,11.7291858 C11.3289946,11.3566368 11.8521897,10.6632569 13.3084959,10.5130229 C14.6941572,10.3699603 15.8100596,11.1065259 15.8211301,11.1139591 C15.9984119,11.2336229 16.2376883,11.1849408 16.3559106,11.0048693 C16.4743388,10.8245361 16.4265556,10.5807591 16.2491707,10.4603625" id="Fill-11" fill="#66C5DF"></path>
                        <path d="M7.90192493,11.6853929 C7.97679214,11.7957914 8.09743442,11.8551521 8.2201878,11.8551521 C8.29515799,11.8551521 8.37090054,11.8330096 8.43747778,11.7868401 C8.61367832,11.6646637 8.65904146,11.4204156 8.5388626,11.2412864 C8.50287073,11.1876837 7.63654282,9.92692164 5.74493577,9.73182676 C4.0755103,9.55971194 2.78062683,10.4235316 2.72635583,10.4603834 C2.548971,10.58078 2.50113631,10.824557 2.6195645,11.0048902 C2.73799268,11.1852758 2.9778355,11.2338008 3.15516883,11.1134042 C3.1661878,11.105971 4.27019593,10.3685679 5.66703062,10.5130438 C7.18450759,10.6695594 7.8711336,11.6407414 7.90192493,11.6853929" id="Fill-13" fill="#66C5DF"></path>
                        <path d="M9.5,8.28947368 C12.3482114,8.28947368 14.6267927,8.10976049 14.6571429,5.80263158 C14.6571429,4.42918661 12.3482114,3.31578947 9.5,3.31578947 C6.65178865,3.31578947 4.34285714,4.42918661 4.34285714,5.80263158 C4.39838867,8.30444978 6.65178865,8.28947368 9.5,8.28947368 Z" id="Oval-6" fill="#2BB0D4"></path>
                    </g>
                </g>
            </g>
        </g>
    </g>
</svg>