<?xml version="1.0" encoding="UTF-8" standalone="no"?>
<svg width="19px" height="19px" viewBox="0 0 19 19" version="1.1" xmlns="http://www.w3.org/2000/svg" xmlns:xlink="http://www.w3.org/1999/xlink">
    <!-- Generator: Sketch 41 (35326) - http://www.bohemiancoding.com/sketch -->
    <title>Fill 1623 + Stroke 1624 + Stroke 1625</title>
    <desc>Created with Sketch.</desc>
    <defs></defs>
    <g id="Configurator-WebApp" stroke="none" stroke-width="1" fill="none" fill-rule="evenodd">
        <g id="Panel-Project:hover" transform="translate(-42.000000, -758.000000)">
            <g id="Group-10-Copy-2" transform="translate(17.000000, 745.000000)">
                <g id="Fill-1623-+-Stroke-1624-+-Stroke-1625" transform="translate(26.000000, 14.000000)">
                    <path d="M8.47995603,12.3924873 C7.98270604,12.3924873 7.57995605,12.7956128 7.57995605,13.2923209 C7.57995605,13.789479 7.98270604,14.1921546 8.47995603,14.1921546 C8.97630602,14.1921546 9.37995601,13.789479 9.37995601,13.2923209 C9.37995601,12.7956128 8.97630602,12.3924873 8.47995603,12.3924873" id="Fill-1623" fill="#FFFFFF"></path>
                    <path d="M17.0321518,8.69052996 C17.0321518,13.3931264 13.2195417,17.2050319 8.51607592,17.2050319 C3.81261016,17.2050319 0,13.3931264 0,8.69052996 C0,3.98793355 3.81261016,0.176028072 8.51607592,0.176028072 C13.2195417,0.176028072 17.0321518,3.98793355 17.0321518,8.69052996 L17.0321518,8.69052996 Z" id="Stroke-1624" stroke="#FFFFFF" stroke-width="1.4" stroke-linecap="round" stroke-linejoin="round"></path>
                    <path d="M6.2944909,7.22117441 C6.2944909,5.99471594 7.2886502,5 8.51607592,5 C9.74239085,5 10.7376609,5.99471594 10.7376609,7.22117441 C10.7376609,8.44800307 9.74239085,9.44234881 8.51607592,9.44234881 L8.52001953,10.8000031" id="Stroke-1625" stroke="#FFFFFF" stroke-width="1.4" stroke-linecap="round" stroke-linejoin="round"></path>
                </g>
            </g>
        </g>
    </g>
</svg>