<?xml version="1.0" encoding="UTF-8" standalone="no"?>
<svg width="50px" height="51px" viewBox="0 0 50 51" version="1.1" xmlns="http://www.w3.org/2000/svg" xmlns:xlink="http://www.w3.org/1999/xlink">
    <!-- Generator: Sketch 44.1 (41455) - http://www.bohemiancoding.com/sketch -->
    <title>Group 3</title>
    <desc>Created with Sketch.</desc>
    <defs></defs>
    <g id="Configurator-iPad" stroke="none" stroke-width="1" fill="none" fill-rule="evenodd">
        <g id="3_3-copy-3" transform="translate(-197.000000, -367.000000)" fill="#2BB0D4">
            <g id="Group-14" transform="translate(89.000000, 48.000000)">
                <g id="Group-3" transform="translate(108.000000, 319.000000)">
                    <path d="M42.5069106,50.5722629 C41.6712737,50.1863582 40.8331978,49.838016 40,49.5238095" id="Fill-1-Copy"></path>
                    <path d="M42.5512195,7.51538758 C37.7361789,2.72742855 31.4883469,0.0906770485 24.9588076,0.0906770485 C18.4084011,0.0906770485 12.1615176,2.69935557 7.36910569,7.43644056 C2.68590786,12.0654512 0,18.2947535 0,24.527219 C0,32.1027065 1.1302168,42.4114217 6.12804878,50.9235978 C6.95203252,50.5199004 7.78062331,50.1540291 8.60650407,49.822557 C3.79444444,41.7735192 2.7100271,31.8317298 2.7100271,24.527219 C2.7100271,18.9807623 5.11233062,13.4253433 9.30081301,9.2853034 C13.5796748,5.05590444 19.1405149,2.72663776 24.9588076,2.72663776 C36.8108401,2.72663776 47.2074526,12.9138351 47.2074526,24.527219 C47.2074526,36.3729629 44.2195122,44.3969591 41.1308943,49.5264068 C41.9640921,49.8406133 42.802168,50.1889555 43.6378049,50.5748602 C46.8588076,45.1127542 49.9174797,36.7162967 49.9174797,24.527219 C49.9174797,18.370801 47.2326558,12.1702306 42.5512195,7.51538758" id="Fill-6-Copy"></path>
                    <path d="M20.0856823,40.2110563 C19.8604791,40.7110981 20.0944899,41.2940408 20.6085821,41.5132209 L22.5000455,42.3194295 C22.9633246,42.516863 23.4631891,42.6157115 23.9631891,42.6157115 C24.4321593,42.6157115 24.901265,42.5287248 25.3402894,42.354356 L27.4333788,41.522974 C27.9530265,41.3165783 28.202078,40.7394347 27.9898829,40.234121 C27.7776877,39.7285437 27.1845983,39.4862989 26.6649506,39.6926947 L24.5718612,40.5240767 C24.1706417,40.6834205 23.7129181,40.677885 23.3157636,40.5085245 L21.4244357,39.7024477 C20.9103436,39.4835312 20.3110211,39.7110146 20.0856823,40.2110563" id="Fill-9-Copy"></path>
                    <path d="M42.0109097,26.6533629 C41.8679558,26.5605771 38.4603677,24.3849869 34.0671427,24.8191296 C29.3613162,25.2834541 27.5710723,27.5538071 26.7106387,28.6448312 C26.6579287,28.7116528 26.6087417,28.7739933 26.5626712,28.83093 C25.4362484,30.2208721 24.4449205,33.5278166 25.3580642,38.2734685 C25.4493921,38.7486004 25.8762213,39.0803361 26.3557606,39.0803361 C26.4178203,39.0803361 26.4806929,39.0748005 26.5438365,39.0632023 C27.095598,38.9627722 27.4590127,38.4463875 27.3558961,37.9098377 C26.9268988,35.6799467 26.7866549,31.748016 28.1588772,30.0548066 C28.2102322,29.9914117 28.2648392,29.9222178 28.3233758,29.8480155 C29.0630777,28.9100089 30.439907,27.1642121 34.2722918,26.7859517 C37.9187688,26.4257477 40.8553541,28.2802778 40.8844869,28.2989932 C41.3510181,28.6002835 41.9806929,28.4777113 42.291804,28.0243261 C42.6034571,27.5702818 42.4777119,26.9564984 42.0109097,26.6533629" id="Fill-11-Copy"></path>
                    <path d="M21.5720843,29.7376517 C21.7691033,30.0156138 22.0865829,30.1650727 22.4096182,30.1650727 C22.6069081,30.1650727 22.8062306,30.1093222 22.9814339,29.9930763 C23.4451195,29.6854597 23.5644962,29.07049 23.2482361,28.6194772 C23.1535206,28.484516 20.8737103,25.3101603 15.895797,24.818949 C11.5025721,24.3855971 8.09498402,26.5605282 7.95216559,26.6533141 C7.48536343,26.9564495 7.35948267,27.570233 7.67113578,28.0242772 C7.9827889,28.4784533 8.61395421,28.60063 9.08062088,28.2974946 C9.10961817,28.2787792 12.0149027,26.4221403 15.6907835,26.7859029 C19.6841439,27.179979 21.4910545,29.625228 21.5720843,29.7376517" id="Fill-13-Copy"></path>
                    <path d="M23.5714286,19.951349 C31.0667216,19.951349 37.0629883,19.4988658 37.1428571,13.6899602 C37.1428571,10.2318907 31.0667216,7.42857143 23.5714286,7.42857143 C16.0761355,7.42857143 10,10.2318907 10,13.6899602 C10.1461356,19.9890559 16.0761355,19.951349 23.5714286,19.951349 Z" id="Oval-6-Copy"></path>
                </g>
            </g>
        </g>
    </g>
</svg>