<?xml version="1.0" encoding="UTF-8" standalone="no"?>
<svg width="29px" height="14px" viewBox="0 0 29 14" version="1.1" xmlns="http://www.w3.org/2000/svg" xmlns:xlink="http://www.w3.org/1999/xlink">
    <!-- Generator: Sketch 41 (35326) - http://www.bohemiancoding.com/sketch -->
    <title>Page 1 Copy</title>
    <desc>Created with Sketch.</desc>
    <defs></defs>
    <g id="Icons" stroke="none" stroke-width="1" fill="none" fill-rule="evenodd">
        <g id="Icons-Cat" transform="translate(-917.000000, -50.000000)" stroke="#2BB0D4" stroke-width="0.5" fill="#2BB0D4">
            <g id="Page-1-Copy" transform="translate(918.000000, 51.000000)">
                <path d="M22.5539154,7.09747478 C22.0874569,6.81139507 21.7868022,7.33253999 21.7868022,7.33253999 L21.7892635,7.32719941 C21.7853104,7.33532985 21.3841889,8.15172115 20.1425618,8.96038057 C18.9765646,9.71969941 16.8169375,10.6248878 13.149711,10.6248878 C9.4626447,10.6248878 7.1728657,9.70877912 5.90118061,8.94037333 C4.55006183,8.1238226 4.03497343,7.29826463 4.02095133,7.27538782 C3.85865299,7.00086608 3.51913918,6.91756898 3.26084912,7.08942405 C3.00151487,7.26199652 2.92215575,7.62667043 3.08370824,7.9038226 C3.17656735,8.06324289 5.44710327,11.8073878 13.149711,11.8073878 C20.8907303,11.8073878 22.7081585,8.01159072 22.7817,7.84993854 C22.7817,7.84993854 23.020374,7.38355449 22.5539154,7.09747478" id="Fill-1"></path>
                <path d="M13.2462224,5.01717971 C9.38462569,5.01717971 5.97964227,4.1826942 3.7094047,3.43796232 C5.11295718,3.07599855 6.39157873,2.45641159 7.4187721,1.95838261 C8.10809254,1.62415797 8.70343508,1.33552754 9.10403453,1.23836087 C9.49001519,1.14478116 9.88539365,1.18583188 10.2475069,1.3572087 L12.2179102,2.28973768 C13.0276119,2.67290435 13.9447914,2.64683913 14.7341312,2.21807826 L16.251576,1.39403478 C16.6085428,1.2001 17.0210014,1.13665072 17.4130981,1.21508551 C17.9319157,1.31910725 18.6879157,1.65572319 19.5633273,2.04542609 C20.5992472,2.5067087 21.7900815,3.03646232 23.0261892,3.37921594 C20.6303494,4.15423768 17.0980483,5.01717971 13.2462224,5.01717971 M26.9074765,2.47067971 C26.7818743,2.17304203 26.454145,2.04056377 26.1757169,2.17495507 C26.162366,2.18133188 25.8495539,2.33007101 25.294413,2.55612899 C23.5027914,2.51794783 21.5582693,1.6526942 19.9888384,0.953955072 C19.0558467,0.538505797 18.2500981,0.179730435 17.6169406,0.0529115942 C16.9863936,-0.0735086957 16.3234765,0.0285202899 15.7502859,0.339788406 L14.2329157,1.16391159 C13.7412472,1.43094058 13.170145,1.44720145 12.6659461,1.20854928 L10.6954682,0.27602029 C10.1223522,0.00476666667 9.47010083,-0.0629869565 8.8590953,0.0851942029 C8.34878039,0.208984058 7.7059268,0.520650725 6.96163674,0.881578261 C5.50244337,1.5890058 3.50407044,2.55796232 1.48056215,2.55796232 C1.44834116,2.55796232 1.41686602,2.56154928 1.38606215,2.5672087 C1.00746547,2.40444058 0.798476519,2.30153478 0.788109116,2.29635362 C0.511470994,2.15773768 0.182175414,2.28503478 0.0525455801,2.5806 C-0.0772334254,2.87624493 0.0418052486,3.22824493 0.318368785,3.36694058 C0.549062155,3.4826 6.05094613,6.19967971 13.2462224,6.19967971 C17.0054876,6.19967971 20.4394848,5.4005058 22.6582583,4.73006377 C23.8639351,4.36578841 24.8426478,4.00334638 25.5272693,3.72858551 C25.5857445,3.71583188 25.6405649,3.69295507 25.690761,3.66226667 C26.2710373,3.42504928 26.6020483,3.26666522 26.6307638,3.25279565 C26.9092666,3.11848406 27.0331533,2.76831739 26.9074765,2.47067971" id="Fill-4"></path>
            </g>
        </g>
    </g>
</svg>