<?xml version="1.0" encoding="UTF-8" standalone="no"?>
<svg width="44px" height="48px" viewBox="0 0 44 48" version="1.1" xmlns="http://www.w3.org/2000/svg" xmlns:xlink="http://www.w3.org/1999/xlink">
    <!-- Generator: Sketch 41 (35326) - http://www.bohemiancoding.com/sketch -->
    <title>Group 4</title>
    <desc>Created with Sketch.</desc>
    <defs></defs>
    <g id="Icons" stroke="none" stroke-width="1" fill="none" fill-rule="evenodd">
        <g id="Icons-Subcat" transform="translate(-877.000000, -199.000000)" fill="#2BB0D4">
            <g id="Group-4" transform="translate(877.000000, 199.000000)">
                <path d="M37.9106387,19.8000334 C37.643569,19.8000334 37.383662,19.6592197 37.2424527,19.4094553 L36.9907317,18.9613182 C36.7819876,18.5912968 36.911941,18.1205474 37.2803131,17.9108686 C37.6497085,17.7011898 38.1173364,17.8317251 38.3260806,18.2027743 L38.5788248,18.6498835 C38.787569,19.0209328 38.6576155,19.4906544 38.2882201,19.7003332 C38.1684992,19.7681705 38.039569,19.8000334 37.9106387,19.8000334 Z M39.6747317,22.9318536 C39.4066387,22.9318536 39.1467317,22.7910399 39.0055224,22.5402476 L38.7538015,22.0931384 C38.5450573,21.7220891 38.6750108,21.2523675 39.0444062,21.0426887 C39.4127783,20.8330099 39.8814294,20.9635452 40.0901736,21.3335666 L40.3418945,21.7806758 C40.5506387,22.1517251 40.4206852,22.6224745 40.0512899,22.8311255 C39.9325922,22.8999906 39.8026387,22.9318536 39.6747317,22.9318536 Z M41.4378015,26.0626459 C41.1697085,26.0626459 40.9098015,25.9218321 40.7685922,25.6710399 L40.5168713,25.2239306 C40.3081271,24.8528814 40.4380806,24.3831598 40.8074759,24.173481 C41.175848,23.9638022 41.6444992,24.0943375 41.8532434,24.4653868 L42.1049643,24.912496 C42.3137085,25.2835452 42.183755,25.7532668 41.8143597,25.9629456 C41.695662,26.0307829 41.5657085,26.0626459 41.4378015,26.0626459 Z M43.2008713,29.194466 C42.9338015,29.194466 42.6738945,29.0536523 42.5326852,28.80286 L42.279941,28.3557508 C42.0722201,27.9847015 42.2011503,27.5139521 42.5705457,27.3042733 C42.9389178,27.0945945 43.407569,27.2261576 43.6163131,27.596179 L43.8680341,28.0432883 C44.0767783,28.4143375 43.9468248,28.8840591 43.5784527,29.0937379 C43.4587317,29.1615752 43.3287783,29.194466 43.2008713,29.194466 Z M42.275848,31.9449585 C42.0773364,31.9449585 41.8788248,31.8678707 41.7284062,31.7147229 C41.431662,31.4104831 41.435755,30.9232883 41.7386387,30.6241876 L42.1029178,30.2644446 C42.4058015,29.9663718 42.8908248,29.9704831 43.1885922,30.2747229 C43.4853364,30.5779349 43.4812434,31.0661576 43.1783597,31.3642304 L42.8140806,31.7239735 C42.6646852,31.871982 42.4702666,31.9449585 42.275848,31.9449585 L42.275848,31.9449585 Z" id="Fill-86"></path>
                <path d="M40.2416155,30.8420891 C39.9428248,29.9273139 39.3769643,28.5037593 38.7220806,26.8551084 C37.6763131,24.223845 36.375755,20.9481277 36.1168713,19.5327957 C35.9910108,18.8441448 36.0769643,17.6436309 36.1854294,16.1234596 C36.4033829,13.0687272 36.7328713,8.45168226 35.5991038,3.01750667 C35.4282201,2.19832037 35.1887783,1.40071866 34.8889643,0.64628611 C34.6781736,0.119005596 34.0826387,-0.136925881 33.5587317,0.0737807566 C33.0338015,0.284487395 32.7790108,0.88268868 32.9887783,1.40996919 C33.2445922,2.05339532 33.4492434,2.73587926 33.595569,3.43891994 C34.6710108,8.59249596 34.3660806,12.8600763 34.1440341,15.9764788 C34.0253364,17.642603 33.9311969,18.9582347 34.1041271,19.903845 C34.399848,21.520633 35.6860806,24.7593482 36.8208713,27.6167358 C37.4368713,29.1667144 38.0180806,30.6303546 38.2974294,31.4834596 C38.3209643,31.5554082 38.3271038,31.600633 38.3281271,31.6242733 C38.2769643,31.6725816 38.0538945,31.8380634 37.3386387,31.9583204 C36.6898945,32.0662433 35.9285922,32.0878279 35.3166852,32.1042733 C34.7426387,32.1196908 34.3271969,32.1320249 34.0253364,32.2080848 C33.7705457,32.2718107 33.1565922,32.5154082 32.947848,33.400376 C32.6418945,34.6964788 33.379662,37.215708 34.6863597,38.6269285 C34.1552899,38.8551084 33.0286852,39.5026459 31.1233829,39.3494981 C29.3163131,39.204573 28.9765922,38.8407187 28.9735224,38.8366073 C28.6143597,38.3977208 27.9697085,38.3339949 27.5327783,38.6947658 C27.095848,39.0545088 27.0324062,39.7020463 27.3905457,40.1409328 C28.2899876,41.2417465 30.5227317,41.4442304 32.0484062,41.4442304 C32.1896155,41.4442304 32.323662,41.4432026 32.4505457,41.4401191 C32.8803131,41.7494981 33.2752899,42.0938236 33.4901736,42.3476994 C33.4031969,42.3836737 33.3100806,42.419648 33.2282201,42.4515109 C32.1343597,42.8760077 30.303755,43.5872711 29.6539876,46.7365645 C29.5393829,47.2915966 29.8944527,47.8363503 30.4480341,47.9514681 C30.5176155,47.9658578 30.5882201,47.9730527 30.6567783,47.9730527 C31.131569,47.9730527 31.5572434,47.6390056 31.6575224,47.1528386 C32.0811503,45.1012754 33.039941,44.7281705 33.9670108,44.3684274 C34.5267317,44.1515538 35.1601271,43.9048728 35.499848,43.2665859 C35.9725922,42.3785345 35.5090573,41.4904831 34.8244992,40.76483 C36.103569,40.3465002 36.7727783,39.8325816 36.9764062,39.1202904 C37.0582666,38.8335238 37.1626387,38.0914253 36.3604062,37.3976351 C35.4343597,36.5959221 34.9575224,34.9297979 34.919662,34.1733097 C35.0649643,34.1681705 35.2266387,34.1630313 35.3729643,34.1589199 C36.9590108,34.1157508 39.1313829,34.0551084 40.0154759,32.7929242 C40.2845922,32.4095409 40.5414294,31.7589199 40.2416155,30.8420891" id="Fill-87" fill-opacity="0.536430027"></path>
                <path d="M26.7622666,17.5079563 L27.9778945,17.3455581 C28.4506387,17.28286 28.7831969,16.8460292 28.7207783,16.3701405 C28.6573364,15.8942518 28.2224527,15.5602047 27.7486852,15.6239306 L16.9809643,17.0649585 C16.6013364,17.1153225 16.3004992,17.4113396 16.2411503,17.7916394 C16.1818015,18.1709114 16.3782666,18.5450441 16.7241271,18.7105259 L25.2386387,22.7745945 C25.4934294,22.8958793 25.7768713,22.8814895 26.0091503,22.7612326 C26.1708248,22.6769499 26.3069178,22.5412754 26.3908248,22.3634596 C26.5964992,21.9297122 26.4123131,21.4116823 25.9815224,21.2061148 L25.6632899,21.0539949 C26.7551038,19.7537808 26.8482201,18.369284 26.7622666,17.5079563" id="Fill-88" fill-opacity="0.536430027"></path>
                <path d="M16.963569,14.5436737 C17.0218945,14.5148942 22.8350108,11.7232883 28.719755,14.0400334 C29.287662,14.2630741 29.9271969,13.9824745 30.1502666,13.4120249 C30.3723131,12.8415752 30.0929643,12.1991769 29.5250573,11.9751084 C22.7470108,9.30787069 16.267755,12.4181062 15.9945457,12.5517251 C15.4471038,12.8210184 15.219941,13.4839735 15.4880341,14.0338664 C15.6793829,14.4275281 16.0712899,14.6567358 16.4805922,14.6567358 C16.6422666,14.6567358 16.8080341,14.6207615 16.963569,14.5436737" id="Fill-89" fill-opacity="0.536430027"></path>
                <path d="M5.64431314,13.1252583 L5.34552244,13.1632883 C3.71240616,13.3729671 2.27166198,14.1715966 1.28728988,15.4111683 C0.275289883,16.6867144 -0.162663605,18.3291983 0.0542666271,20.0354082 C0.269150348,21.7272283 0.76235965,22.9411041 1.19826663,24.0131384 C1.5901736,24.9782775 1.92887128,25.8118536 2.06905732,26.9147229 C2.30849919,28.7956651 3.33891779,30.3528386 4.75715035,30.9787915 C5.20022012,31.1740805 5.65966198,31.2706972 6.1221736,31.2706972 C6.88449919,31.2706972 7.65808058,31.0085987 8.38459221,30.4926244 C8.84505732,30.1647444 8.9545457,29.5233739 8.62812709,29.0598193 C8.30170849,28.5962647 7.66319686,28.4862861 7.20170849,28.8141662 C6.62766198,29.2232454 6.08124337,29.3178065 5.57984802,29.0968214 C4.83901081,28.7689414 4.24347593,27.7883846 4.09919686,26.6546801 C3.92524337,25.284573 3.50263872,24.2433739 3.09333639,23.2360934 C2.66766198,22.1887272 2.26552244,21.1999478 2.08440616,19.7743375 C1.93603407,18.6077422 2.21333639,17.541875 2.88766198,16.6928814 C3.53845267,15.8726673 4.50338291,15.3433311 5.60542942,15.2025174 L5.90319686,15.1644874 C6.80059221,15.0493696 7.71640616,15.413224 8.41528988,16.1625174 C9.07938291,16.8748086 9.43445267,17.8235024 9.29835965,18.5234596 C9.29528988,18.5409328 9.29222012,18.558406 9.2901736,18.5758793 C9.13770849,19.6499692 8.8409643,20.4475709 8.55240616,21.072496 C8.22803407,20.6860292 7.85659221,20.377678 7.43705732,20.1515538 C6.14877825,19.4577636 4.94338291,19.8288129 4.81035965,19.8730099 C4.2741736,20.0528814 3.98459221,20.6346373 4.16366198,21.173224 C4.34170849,21.7118107 4.92189453,22.0026887 5.45808058,21.8228172 C5.4621736,21.8217893 5.95435965,21.685087 6.46905732,21.9636309 C7.02570849,22.2637593 7.46980151,22.9760506 7.75119686,24.0234167 C7.87501081,24.4818321 8.28738291,24.7829885 8.73863872,24.7829885 C8.82663872,24.7829885 8.91668523,24.7716823 9.00570849,24.7470142 C9.52961546,24.6051726 9.84682477,24.0799478 9.74142942,23.5536951 C9.75882477,23.4653011 9.76598756,23.3748514 9.75984802,23.2813182 C9.79668523,23.1620891 9.93380151,22.8948514 10.0453364,22.6759221 C10.4454294,21.8947658 11.0491503,20.7158364 11.3121271,18.8893696 C11.563848,17.5377636 11.027662,15.9569499 9.90924337,14.7574638 C8.75501081,13.5199478 7.20170849,12.9258578 5.64431314,13.1252583" id="Fill-90" fill-opacity="0.536430027"></path>
            </g>
        </g>
    </g>
</svg>