<?xml version="1.0" encoding="UTF-8" standalone="no"?>
<svg width="49px" height="50px" viewBox="0 0 49 50" version="1.1" xmlns="http://www.w3.org/2000/svg" xmlns:xlink="http://www.w3.org/1999/xlink">
    <!-- Generator: Sketch 41 (35326) - http://www.bohemiancoding.com/sketch -->
    <title>Group 3 Copy 2</title>
    <desc>Created with Sketch.</desc>
    <defs></defs>
    <g id="Icons" stroke="none" stroke-width="1" fill="none" fill-rule="evenodd">
        <g id="Icons-Subcat" transform="translate(-136.000000, -117.000000)" fill="#2BB0D4">
            <g id="Group-3-Copy-2" transform="translate(136.000000, 117.000000)">
                <path d="M41.5505051,49.5997194 C40.7336701,49.221236 39.9144509,48.8795927 39.1,48.5714286" id="Fill-1-Copy" opacity="0.55964319"></path>
                <path d="M41.5938171,7.3708609 C36.8871148,2.674978 30.7798591,0.0889332591 24.3972344,0.0889332591 C17.9942121,0.0889332591 11.8878835,2.64744488 7.20330081,7.29343209 C2.62547493,11.8334233 0,17.9429313 0,24.0555417 C0,31.4853468 1.10478692,41.5958174 5.99016768,49.9442978 C6.79561179,49.5483639 7.60555928,49.1895285 8.41285772,48.8644309 C3.70906944,40.9701823 2.64905149,31.2195811 2.64905149,24.0555417 C2.64905149,18.6157476 4.99730318,13.1671636 9.09154472,9.10673988 C13.2741321,4.95867551 18.7098533,2.67420242 24.3972344,2.67420242 C35.9825962,2.67420242 46.1452849,12.6654921 46.1452849,24.0555417 C46.1452849,35.6734828 43.2245732,43.5431714 40.2054492,48.5739759 C41.0199001,48.88214 41.8391192,49.2237833 42.6559543,49.6022667 C45.8044844,44.2452012 48.7943364,36.0102141 48.7943364,24.0555417 C48.7943364,18.0175164 46.1699211,11.9361877 41.5938171,7.3708609" id="Fill-6-Copy" opacity="0.55964319"></path>
                <path d="M19.6337545,39.4377668 C19.4136183,39.9281924 19.6423639,40.4999246 20.144889,40.7148898 L21.9937945,41.5055943 C22.4466498,41.699231 22.9352674,41.7961786 23.4240174,41.7961786 C23.8824357,41.7961786 24.3409865,41.7108647 24.7701329,41.5398491 L26.8161278,40.7244553 C27.3240834,40.5220287 27.5675312,39.955984 27.3601105,39.4603879 C27.1526898,38.9645333 26.5729449,38.726947 26.0649892,38.9293736 L24.0189943,39.7447675 C23.6268022,39.901047 23.1793774,39.895618 22.7911589,39.7295144 L20.9423859,38.9389391 C20.4398608,38.7242325 19.8540231,38.9473412 19.6337545,39.4377668" id="Fill-9-Copy" opacity="0.55964319"></path>
                <path d="M41.0656642,26.1407982 C40.9259268,26.0497967 37.5950094,23.9160448 33.300632,24.3418387 C28.7006866,24.7972338 26.9507232,27.0239262 26.1096493,28.0939691 C26.0581253,28.1595056 26.010045,28.2206473 25.9650111,28.2764891 C24.8639328,29.6397015 23.8949098,32.8830509 24.7875077,37.5374402 C24.8767807,38.003435 25.2940064,38.3287911 25.762756,38.3287911 C25.8234193,38.3287911 25.8848773,38.3233621 25.9466002,38.3119869 C26.4859471,38.2134881 26.8411849,37.7070339 26.7403885,37.1808024 C26.3210436,34.9937939 26.1839552,31.1374772 27.5253024,29.4768295 C27.575502,29.4146538 27.6288803,29.3467905 27.6860999,29.2740152 C28.4091585,28.3540471 29.7550091,26.6418234 33.5011652,26.2708373 C37.0655965,25.9175602 39.9361087,27.7364263 39.964586,27.7547818 C40.4206202,28.050278 41.0361273,27.930063 41.3402384,27.4853967 C41.6448793,27.0400841 41.5219633,26.4381042 41.0656642,26.1407982" id="Fill-11-Copy" opacity="0.55964319"></path>
                <path d="M21.0867124,29.1657738 C21.2792984,29.4383904 21.5896348,29.5849752 21.9054018,29.5849752 C22.0982527,29.5849752 22.2930904,29.5302967 22.4643516,29.4162864 C22.9176043,29.1145854 23.0342951,28.5114422 22.7251507,28.0691026 C22.6325664,27.9367368 20.4040518,24.8234264 15.5381416,24.3416615 C11.2437642,23.9166433 7.91284688,26.0497489 7.77324187,26.1407503 C7.31694275,26.4380563 7.19389431,27.0400362 7.49853523,27.4853488 C7.80317615,27.9307907 8.42014024,28.0506179 8.87630691,27.753312 C8.90465176,27.7349566 11.7445674,25.9140222 15.3377409,26.2707894 C19.2412507,26.6572871 21.0075058,29.055512 21.0867124,29.1657738" id="Fill-13-Copy" opacity="0.55964319"></path>
                <path d="M24.2467812,17.2222319 C23.0819339,17.2138042 21.8900888,17.2138042 20.6974443,17.2138042 L20.6974443,17.2863998 C18.6280103,17.3543036 16.7589578,17.4857228 15.2749685,17.7400677 C12.203197,18.2902523 10.7811971,19.3427794 9.37178125,20.4192276 C11.2103139,19.6537533 13.0337456,18.9122001 16.1055171,18.5533841 C17.8177163,18.3532168 19.9144854,18.2796024 22.1832564,18.2577899 C22.8767725,18.25396 23.5663294,18.2507959 24.2467813,18.2501069 C24.9272331,18.2507959 25.61679,18.25396 26.3103061,18.2577899 C28.5790771,18.2796024 30.6758462,18.3532168 32.3880454,18.5533841 C35.4598169,18.9122001 37.2832486,19.6537533 39.1217813,20.4192276 C37.7123654,19.3427794 36.2903655,18.2902523 33.218594,17.7400677 C31.7346047,17.4857228 29.8655522,17.3543036 27.7961182,17.2863998 L27.7961182,17.2138042 C26.6034737,17.2138042 25.4116286,17.2138042 24.2467813,17.2222319 Z M24.2467813,13.2995595 C23.0819339,13.2907487 21.8900888,13.2907487 20.6974443,13.2907487 L20.6974443,13.3666441 C18.6280103,13.4376344 16.7589578,13.5750272 15.2749685,13.8409333 C12.203197,14.3671968 10.7811971,15.443645 9.37178125,16.4961721 C11.2103139,15.7546189 13.0337456,14.9891446 16.1055171,14.6303286 C17.50336,14.477806 19.1575235,14.3997092 20.9523403,14.3644017 C22.0597168,14.3523999 23.1647604,14.3424075 24.2467813,14.3400831 C25.3288021,14.3424075 26.4338457,14.3523999 27.5412222,14.3644017 C29.336039,14.3997092 30.9902025,14.477806 32.3880454,14.6303286 C35.4598169,14.9891446 37.2832486,15.7546189 39.1217813,16.4961721 C37.7123654,15.443645 36.2903655,14.3671968 33.218594,13.8409333 C31.7346047,13.5750272 29.8655522,13.4376344 27.7961182,13.3666441 L27.7961182,13.2907487 C26.6034737,13.2907487 25.4116286,13.2907487 24.2467813,13.2995595 Z M24.2467813,9.80857743 C23.0853534,9.79827244 21.8913988,9.79827244 20.6974443,9.79827244 L20.6974443,9.88853814 C19.0793148,9.95565334 17.6186964,10.0726707 16.432703,10.2766938 C13.6516235,10.7790363 12.3680483,11.7358791 11.0844732,12.716643 C12.7455704,12.022932 14.4054093,11.353142 17.1877472,11.018247 C19.1204793,10.8021333 21.6002026,10.7477626 24.2467813,10.7427302 C26.8933599,10.7477626 29.3730832,10.8021333 31.3058153,11.018247 C34.0881532,11.353142 35.7479921,12.022932 37.4090893,12.716643 C36.1255142,11.7358791 34.841939,10.7790363 32.0608595,10.2766938 C30.8748661,10.0726707 29.4142477,9.95565334 27.7961182,9.88853814 L27.7961182,9.79827244 C26.6021637,9.79827244 25.4082091,9.79827244 24.2467813,9.80857743 Z" id="Combined-Shape" stroke="#2BB0D4" stroke-width="0.8"></path>
            </g>
        </g>
    </g>
</svg>