<?xml version="1.0" encoding="UTF-8" standalone="no"?>
<svg width="62px" height="40px" viewBox="0 0 62 40" version="1.1" xmlns="http://www.w3.org/2000/svg" xmlns:xlink="http://www.w3.org/1999/xlink">
    <!-- Generator: Sketch 41 (35326) - http://www.bohemiancoding.com/sketch -->
    <title>Group 24</title>
    <desc>Created with Sketch.</desc>
    <defs></defs>
    <g id="Configurator-iPad" stroke="none" stroke-width="1" fill="none" fill-rule="evenodd">
        <g id="Hair" transform="translate(-590.000000, -341.000000)">
            <g id="Group-18" transform="translate(545.000000, 313.000000)">
                <g id="Group-24" transform="translate(46.000000, 29.000000)">
                    <path d="M59.8541606,13.925641 C59.8541606,13.925641 54.0025935,12.6411435 45.1916725,11.6728761 C40.7356798,11.1831892 38.3776325,1.04101562 29.9270803,0.967382812 C22.3038383,0.55859375 19.8547903,10.9328685 15.7540092,11.3499902 C6.3061397,12.3110051 0,13.925641 0,13.925641" id="Stroke-1" stroke="#F67272" stroke-width="2" stroke-linecap="round" stroke-linejoin="round"></path>
                    <path d="M16.8457322,11.9269516 L1.47589789,26.443306" id="Line-Copy-9" stroke-opacity="0.25501019" stroke="#F67272" stroke-linecap="square"></path>
                    <path d="M6.8759785,12.7808548 L1.21340797,17.904274" id="Line-Copy-10" stroke-opacity="0.25501019" stroke="#F67272" stroke-linecap="square"></path>
                    <path d="M25.5,15.5 L6.57055083,34.1284348" id="Line-Copy-11" stroke-opacity="0.25501019" stroke="#F67272" stroke-linecap="square"></path>
                    <path d="M42.1423824,12.7808548 L16.2563457,37.5440475" id="Line-Copy-12" stroke-opacity="0.25501019" stroke="#F67272" stroke-linecap="square"></path>
                    <path d="M54.2549933,12.534758 L28.3689566,37.2979507" id="Line-Copy-12" stroke-opacity="0.25501019" stroke="#F67272" stroke-linecap="square"></path>
                    <path d="M59.5477295,18.5269516 L43.3689566,34.7511124" id="Line-Copy-12" stroke-opacity="0.25501019" stroke="#F67272" stroke-linecap="square"></path>
                    <path d="M34.8209493,2.40991161 C34.8209493,2.40991161 34.9882286,8.291931 29.4624862,10.2247062" id="Stroke-3" stroke="#F67272" stroke-width="2.2" stroke-linecap="round" stroke-linejoin="round" transform="translate(32.141990, 6.317309) rotate(-100.000000) translate(-32.141990, -6.317309) "></path>
                    <path d="M29.9095382,1.02993747 C25.7831779,0.536347361 18.60345,6.24650957 20.2377446,10.7533688 C21.8720392,15.2602279 28.5976493,20.8028867 37.1918875,12.7814023 C45.7861258,4.75991793 34.2602493,1.55036414 29.9095382,1.02993747 Z" id="Path-5" fill="#F67272" opacity="0.140974813"></path>
                </g>
            </g>
        </g>
    </g>
</svg>