<?xml version="1.0" encoding="UTF-8" standalone="no"?>
<svg width="24px" height="32px" viewBox="0 0 24 32" version="1.1" xmlns="http://www.w3.org/2000/svg" xmlns:xlink="http://www.w3.org/1999/xlink">
    <!-- Generator: Sketch 41 (35326) - http://www.bohemiancoding.com/sketch -->
    <title>Page 1</title>
    <desc>Created with Sketch.</desc>
    <defs></defs>
    <g id="Configurator-iPad" stroke="none" stroke-width="1" fill="none" fill-rule="evenodd" stroke-linecap="round" stroke-linejoin="round">
        <g id="Hair-Amnese" transform="translate(-449.000000, -565.000000)" stroke="#A0A3A8" stroke-width="1.7">
            <g id="Group-15-Copy-11" transform="translate(381.000000, 534.000000)">
                <g id="Page-1" transform="translate(69.000000, 32.000000)">
                    <path d="M2.09741053,5.6856 C2.09741053,2.62698462 4.24172632,0.147138462 6.88688421,0.147138462 C9.53204211,0.147138462 11.6763579,2.62698462 11.6763579,5.6856" id="Stroke-5"></path>
                    <path d="M17.5503053,29.2240615 L6.83556842,29.2240615 C6.43462105,29.2240615 6.04325263,29.0509846 5.78188421,28.7408308 C2.95883158,25.3928308 1.42209474,21.3012923 0.769357895,16.9702154 C0.551778947,15.4886769 1.11146316,13.9517538 2.83704211,13.9517538 C3.97283158,13.9517538 4.83493684,14.8794462 4.83493684,16.0286769 L4.83493684,4.97944615 C4.83493684,3.84406154 5.76546316,2.91636923 6.88756842,2.91636923 C8.00830526,2.91636923 8.9402,3.84406154 8.9402,4.97944615 L8.9402,11.8886769 C8.9402,10.7394462 9.87072632,9.81175385 10.9928316,9.81175385 C12.1135684,9.81175385 13.0454632,10.7394462 13.0454632,11.8886769 L13.0454632,14.6440615 C13.0454632,13.5086769 13.9759895,12.5809846 15.0980947,12.5809846 C16.2188316,12.5809846 17.1507263,13.5086769 17.1507263,14.6440615 L17.1507263,17.3994462 C17.1507263,16.0923692 18.3836737,15.0608308 19.7219895,15.4028308 C20.6757789,15.6451385 21.2655684,16.6046769 21.2546211,17.5988308 C21.2163053,21.0437538 20.1913579,25.0785231 18.8092526,28.3946769 C18.5971474,28.9042154 18.0963053,29.2240615 17.5503053,29.2240615 Z" id="Stroke-7"></path>
                </g>
            </g>
        </g>
    </g>
</svg>