<?xml version="1.0" encoding="UTF-8" standalone="no"?>
<svg width="28px" height="38px" viewBox="0 0 28 38" version="1.1" xmlns="http://www.w3.org/2000/svg" xmlns:xlink="http://www.w3.org/1999/xlink">
    <!-- Generator: Sketch 41 (35326) - http://www.bohemiancoding.com/sketch -->
    <title>Page 1</title>
    <desc>Created with Sketch.</desc>
    <defs></defs>
    <g id="Configurator-iPad" stroke="none" stroke-width="1" fill="none" fill-rule="evenodd" stroke-linecap="round" stroke-linejoin="round">
        <g id="Hair-Amnese" transform="translate(-780.000000, -559.000000)" stroke="#A0A3A8" stroke-width="1.7">
            <g id="Group-15-Copy-13" transform="translate(716.000000, 534.000000)">
                <g id="Page-1" transform="translate(65.000000, 26.000000)">
                    <path d="M3.36056842,11.6856 C3.36056842,7.10390769 6.73646316,3.37790769 10.8868842,3.37790769 C15.0373053,3.37790769 18.4132,7.10390769 18.4132,11.6856" id="Stroke-1"></path>
                    <path d="M0.648494737,11.6004462 C0.831863158,5.53167692 5.36270526,0.656446154 10.9061789,0.656446154 C16.5002842,0.656446154 21.0639684,5.62306154 21.1666,11.7721385" id="Stroke-3"></path>
                    <path d="M6.09741053,11.6856 C6.09741053,8.62698462 8.24172632,6.14713846 10.8868842,6.14713846 C13.5320421,6.14713846 15.6763579,8.62698462 15.6763579,11.6856" id="Stroke-5"></path>
                    <path d="M21.5503053,35.2240615 L10.8355684,35.2240615 C10.4346211,35.2240615 10.0432526,35.0509846 9.78188421,34.7408308 C6.95883158,31.3928308 5.42209474,27.3012923 4.76935789,22.9702154 C4.55177895,21.4886769 5.11146316,19.9517538 6.83704211,19.9517538 C7.97283158,19.9517538 8.83493684,20.8794462 8.83493684,22.0286769 L8.83493684,10.9794462 C8.83493684,9.84406154 9.76546316,8.91636923 10.8875684,8.91636923 C12.0083053,8.91636923 12.9402,9.84406154 12.9402,10.9794462 L12.9402,17.8886769 C12.9402,16.7394462 13.8707263,15.8117538 14.9928316,15.8117538 C16.1135684,15.8117538 17.0454632,16.7394462 17.0454632,17.8886769 L17.0454632,20.6440615 C17.0454632,19.5086769 17.9759895,18.5809846 19.0980947,18.5809846 C20.2188316,18.5809846 21.1507263,19.5086769 21.1507263,20.6440615 L21.1507263,23.3994462 C21.1507263,22.0923692 22.3836737,21.0608308 23.7219895,21.4028308 C24.6757789,21.6451385 25.2655684,22.6046769 25.2546211,23.5988308 C25.2163053,27.0437538 24.1913579,31.0785231 22.8092526,34.3946769 C22.5971474,34.9042154 22.0963053,35.2240615 21.5503053,35.2240615 Z" id="Stroke-7"></path>
                </g>
            </g>
        </g>
    </g>
</svg>