<?xml version="1.0" encoding="UTF-8" standalone="no"?>
<svg width="25px" height="22px" viewBox="0 0 25 22" version="1.1" xmlns="http://www.w3.org/2000/svg" xmlns:xlink="http://www.w3.org/1999/xlink">
    <!-- Generator: Sketch 41 (35326) - http://www.bohemiancoding.com/sketch -->
    <title>Group</title>
    <desc>Created with Sketch.</desc>
    <defs></defs>
    <g id="Icons" stroke="none" stroke-width="1" fill="none" fill-rule="evenodd">
        <g id="Icons-Cat" transform="translate(-1352.000000, -46.000000)" fill="#2BB0D4">
            <g id="Group" transform="translate(1352.000000, 46.000000)">
                <path d="M24.6754023,18.0052632 C17.6826054,9.03157895 20.8064368,1.44736842 20.9497318,1.12894737 C21.0930268,0.781578947 20.9497318,0.405263158 20.6058238,0.260526316 C20.2619157,0.115789474 19.8893487,0.260526316 19.7460536,0.607894737 C19.6027586,0.955263158 16.1636782,9.20526316 23.6436782,18.8447368 C23.7583142,19.0184211 23.9589272,19.1052632 24.1595402,19.1052632 C24.3028352,19.1052632 24.4461303,19.0473684 24.5607663,18.9605263 C24.8473563,18.7289474 24.9046743,18.2947368 24.6754023,18.0052632 L24.6754023,18.0052632 Z" id="Shape"></path>
                <path d="M9.22819923,10.2473684 C11.7501916,9.92894737 15.5045211,8.16315789 18.6856705,4.02368421 C18.9149425,3.73421053 18.8576245,3.32894737 18.5710345,3.09736842 C18.2844444,2.86578947 17.8832184,2.92368421 17.6539464,3.21315789 C14.4727969,7.35263158 10.7757854,8.91578947 8.56904215,9.00263158 C4.27019157,9.14736842 3.12383142,2.08421053 3.12383142,1.99736842 C3.06651341,1.65 2.72260536,1.38947368 2.37869732,1.44736842 C2.03478927,1.50526316 1.77685824,1.85263158 1.83417625,2.2 C1.89149425,2.54736842 3.12383142,10.2184211 8.31111111,10.3052632 C8.36842912,10.6236842 8.45440613,11.1447368 8.54038314,12.1 C8.74099617,14.6184211 7.02145594,15.8631579 5.50252874,16.1815789 C4.72873563,16.3263158 3.89762452,16.5 3.15249042,16.6736842 C2.00613027,16.9342105 1.00306513,17.1368421 0.573180077,17.1947368 C0.315249042,17.2236842 0.143295019,17.4552632 0.171954023,17.7157895 C0.143295019,17.9473684 0.343908046,18.1210526 0.573180077,18.1210526 L0.630498084,18.1210526 C1.08904215,18.0631579 2.12076628,17.8315789 3.29578544,17.6 C4.04091954,17.4552632 4.84337165,17.2815789 5.64582375,17.1078947 C7.68061303,16.6736842 9.65808429,14.9368421 9.42881226,12.0131579 C9.37149425,11.2026316 9.28551724,10.6526316 9.22819923,10.2473684 Z" id="Shape"></path>
                <path d="M19.9466667,19.7421053 C19.0295785,19.6552632 14.2435249,20.8131579 13.2691188,21.0736842 C13.0111877,21.1315789 12.8678927,21.3921053 12.9252107,21.6526316 C12.9825287,21.8552632 13.1544828,22 13.3837548,22 L13.4983908,22 C15.6478161,21.4789474 19.2588506,20.6394737 19.8606897,20.6973684 C20.1186207,20.7263158 20.3478927,20.5236842 20.3765517,20.2631579 C20.3765517,19.9736842 20.2045977,19.7421053 19.9466667,19.7421053 L19.9466667,19.7421053 Z" id="Shape"></path>
                <path d="M9.48613027,21.0736842 C8.76965517,20.8421053 5.2159387,19.6552632 4.27019157,19.7421053 C4.01226054,19.7710526 3.81164751,20.0026316 3.84030651,20.2631579 C3.86896552,20.5236842 4.09823755,20.7263158 4.35616858,20.6973684 C4.90068966,20.6394737 7.508659,21.4210526 9.19954023,21.9710526 C9.25685824,22 9.28551724,22 9.34283525,22 C9.54344828,22 9.7154023,21.8842105 9.77272031,21.6815789 C9.85869732,21.4210526 9.7154023,21.1315789 9.48613027,21.0736842 L9.48613027,21.0736842 Z" id="Shape"></path>
            </g>
        </g>
    </g>
</svg>