<?xml version="1.0" encoding="UTF-8" standalone="no"?>
<svg width="37px" height="32px" viewBox="0 0 37 32" version="1.1" xmlns="http://www.w3.org/2000/svg" xmlns:xlink="http://www.w3.org/1999/xlink">
    <!-- Generator: Sketch 41 (35326) - http://www.bohemiancoding.com/sketch -->
    <title>Group 16</title>
    <desc>Created with Sketch.</desc>
    <defs></defs>
    <g id="Configurator-iPad" stroke="none" stroke-width="1" fill="none" fill-rule="evenodd" stroke-linecap="round" stroke-linejoin="round">
        <g id="Hair-Amnese" transform="translate(-441.000000, -220.000000)" stroke="#F67272" stroke-width="1.9">
            <g id="Group-17" transform="translate(381.000000, 191.000000)">
                <g id="Group-15-Copy-14">
                    <g id="Group-16" transform="translate(61.000000, 30.000000)">
                        <path d="M23.67557,14.8399286 C21.0840727,16.5606429 19.7495807,19.7020714 23.67557,22.3399286 C25.8279764,27.6970714 29.8314524,26.2549286 32.2012518,23.7692143 C34.5710513,21.2835 35.8108374,14.3492143 34.0566261,10.5542143 C30.2748481,13.3935 26.9041796,12.6970714 23.67557,14.8399286 L23.67557,14.8399286 Z" id="Stroke-7686"></path>
                        <path d="M16.1862719,7.27714286 C18.9736382,10.5428571 20.4458842,14.8392857 13.803558,17.7235714 C10.7600553,24.4821429 6.1345339,21.9792857 3.05874513,18.3728571 C-0.019196044,14.76 -1.19440995,5.10214286 1.51546973,0 C6.51335743,4.21071429 12.7058307,3.19285714 16.1862719,7.27714286 L16.1862719,7.27714286 Z" id="Stroke-7687"></path>
                        <path d="M29.056586,18.0542143 C22.5993668,21.2685 19.3707572,29.8399286 19.3707572,29.8399286 C19.3707572,29.8399286 16.6501155,17.2827857 5.88808337,7.63992857" id="Stroke-7688"></path>
                    </g>
                </g>
            </g>
        </g>
    </g>
</svg>