<?xml version="1.0" encoding="UTF-8" standalone="no"?>
<svg width="124px" height="123px" viewBox="0 0 124 123" version="1.1" xmlns="http://www.w3.org/2000/svg" xmlns:xlink="http://www.w3.org/1999/xlink">
    <!-- Generator: Sketch 41 (35326) - http://www.bohemiancoding.com/sketch -->
    <title>vis</title>
    <desc>Created with Sketch.</desc>
    <defs></defs>
    <g id="Configurator-iPad" stroke="none" stroke-width="1" fill="none" fill-rule="evenodd" stroke-linecap="round" opacity="0.217525653" stroke-linejoin="round">
        <g id="2-copy" transform="translate(-701.000000, -199.000000)" stroke="#FFFFFF">
            <g id="Group-2-Copy" transform="translate(519.000000, 145.000000)">
                <g id="vis" transform="translate(185.053571, 56.380368)">
                    <path d="M46.1168126,-8.97936418e-05 C46.1168126,-8.97936418e-05 37.0594229,1.39679996 31.3568547,5.18788753 C31.3568547,5.18788753 -1.18578114,4.98854564 5.49663547,42.319953 C5.49663547,42.319953 -1.35482369,55.5722973 0.24105767,68.5923753" id="Stroke-1" stroke-width="4.30000007"></path>
                    <path d="M72.6604125,-8.97936418e-05 C72.6604125,-8.97936418e-05 81.7178022,1.39679996 87.4203704,5.18788753 C87.4203704,5.18788753 119.963006,4.98854564 113.28059,42.319953 C113.28059,42.319953 120.132049,55.5722973 118.536167,68.5923753" id="Stroke-3" stroke-width="4.30000007"></path>
                    <path d="M23.0584212,40.1077369 C23.0584212,40.1077369 23.7953271,49.6857254 29.3803135,53.8760954 C33.3688201,56.8686181 43.2486841,58.951232 51.2256973,56.9434462" id="Stroke-5" stroke-width="4.30000007"></path>
                    <path d="M25.5508265,49.0463947 C25.5508265,49.0463947 23.0582716,51.5812692 23.0582716,53.9757663 C23.0582716,55.1745114 23.0582716,64.3020351 23.8508269,67.4448126 C24.643083,70.5875901 28.831748,80.4648907 28.6821528,83.4580121 C28.5325576,86.4511335 27.3253245,100.455051 27.7845817,103.212613 C28.5325576,107.702295 37.3117002,116.083035 41.2248109,118.477532" id="Stroke-7" stroke-width="4.30000007"></path>
                    <path d="M15.0690813,75.227018 C15.0690813,75.227018 21.6967461,69.7424224 23.0410084,57.9851422" id="Stroke-9" stroke-width="4.30000007"></path>
                    <path d="M95.4246997,40.1077369 C95.4246997,40.1077369 94.6874947,49.6857254 89.1028075,53.8760954 C85.3638256,56.6815481 76.446457,58.6510219 68.7734212,57.2693971" id="Stroke-11" stroke-width="4.30000007"></path>
                    <path d="M92.9322645,49.0463947 C92.9322645,49.0463947 95.4248194,51.5812692 95.4248194,53.9757663 C95.4248194,55.1745114 95.4248194,64.3020351 94.6322641,67.4448126 C93.8400081,70.5875901 89.6513431,80.4648907 89.8009383,83.4580121 C89.9505334,86.4511335 91.1577665,100.455051 90.6985093,103.212613 C89.9505334,107.702295 81.1713908,116.083035 77.2582801,118.477532" id="Stroke-13" stroke-width="4.30000007"></path>
                    <path d="M103.41401,75.227018 C103.41401,75.227018 96.7863449,69.7424224 95.4420827,57.9851422" id="Stroke-15" stroke-width="4.30000007"></path>
                    <path d="M34.8987001,65.8490299 C37.6078688,65.5161948 48.706335,67.8813594 52.9811668,68.3982714 C56.3817644,68.8098256 57.7032882,78.619781 55.0153621,79.1325027 C51.6162604,79.7808128 43.0390713,78.3198702 39.0975375,77.5281896 C35.156303,76.7362097 32.5069724,66.1429545 34.8987001,65.8490299 L34.8987001,65.8490299 Z" id="Stroke-17" stroke-width="2.58000004"></path>
                    <path d="M38.6054292,83.7038371 C40.7664812,83.3793828 49.7095801,85.0354769 53.1445846,85.3581353 C55.8773893,85.6149452 57.3081176,93.360844 55.1683082,93.8286689 C52.4627298,94.420409 45.4320556,93.4545287 42.2573467,92.9049916 C39.0826379,92.3554545 36.6977915,83.9902789 38.6054292,83.7038371 L38.6054292,83.7038371 Z" id="Stroke-19" stroke-width="2.58000004"></path>
                    <path d="M41.9417607,98.5936882 C43.8048191,98.3138314 51.5146554,99.7418496 54.4760415,100.019911 C56.8318664,100.241102 57.9774663,106.87775 56.1329577,107.280924 C53.8001705,107.791251 47.8271342,106.958565 45.0901409,106.484753 C42.3531475,106.010942 40.2971113,98.8406207 41.9417607,98.5936882 L41.9417607,98.5936882 Z" id="Stroke-21" stroke-width="2.58000004"></path>
                    <path d="M84.8968194,65.8490299 C82.1876507,65.5161948 71.0891844,67.8813594 66.8143526,68.3982714 C63.413755,68.8098256 62.0922312,78.619781 64.7801574,79.1325027 C68.179259,79.7808128 76.7564482,78.3198702 80.6979819,77.5281896 C84.6392165,76.7362097 87.2885471,66.1429545 84.8968194,65.8490299 L84.8968194,65.8490299 Z" id="Stroke-23" stroke-width="2.58000004"></path>
                    <path d="M81.1901201,83.7038371 C79.0290682,83.3793828 70.0859692,85.0354769 66.6509648,85.3581353 C63.9181601,85.6149452 62.4874318,93.360844 64.6272412,93.8286689 C67.3328196,94.420409 74.3634938,93.4545287 77.5382026,92.9049916 C80.7129115,92.3554545 83.0977578,83.9902789 81.1901201,83.7038371 L81.1901201,83.7038371 Z" id="Stroke-25" stroke-width="2.58000004"></path>
                    <path d="M77.8537587,98.5936882 C75.9907004,98.3138314 68.2808641,99.7418496 65.3194779,100.019911 C62.9636531,100.241102 61.8180532,106.87775 63.6625617,107.280924 C65.9953489,107.791251 71.9683852,106.958565 74.7053786,106.484753 C77.442372,106.010942 79.4984081,98.8406207 77.8537587,98.5936882 L77.8537587,98.5936882 Z" id="Stroke-27" stroke-width="2.58000004"></path>
                </g>
            </g>
        </g>
    </g>
</svg>