<?xml version="1.0" encoding="UTF-8" standalone="no"?>
<svg width="40px" height="50px" viewBox="0 0 40 50" version="1.1" xmlns="http://www.w3.org/2000/svg" xmlns:xlink="http://www.w3.org/1999/xlink">
    <!-- Generator: Sketch 41 (35326) - http://www.bohemiancoding.com/sketch -->
    <title>Group</title>
    <desc>Created with Sketch.</desc>
    <defs></defs>
    <g id="Configurator-iPad" stroke="none" stroke-width="1" fill="none" fill-rule="evenodd">
        <g id="Hair" transform="translate(-599.000000, -454.000000)" fill="#F97372">
            <g id="Group" transform="translate(599.000000, 454.000000)">
                <path d="M39.1914894,13.2627119 C39.1914894,13.2627119 39.0638298,12.7118644 39.0212766,12.5423729 C39.0212766,12.4576271 38.9787234,12.4152542 38.9361702,12.3305085 C38.893617,12.2457627 38.8085106,11.9067797 38.7659574,11.8220339 C38.7659574,11.779661 38.7659574,11.7372881 38.7234043,11.6949153 C38.3404255,10.4237288 37.7021277,9.36440678 37.2340426,8.51694915 C32.9361702,1.44067797 24.1702128,-0.720338983 17.8297872,0.254237288 C12.0851064,1.10169492 7.74468085,3.98305085 5.31914894,8.47457627 C5.31914894,8.47457627 5.31914894,8.51694915 5.27659574,8.51694915 C4.68085106,9.74576271 4.29787234,10.7627119 4.08510638,11.6949153 L3.91489362,12.3305085 C3.87234043,12.4152542 3.87234043,12.5 3.87234043,12.5847458 L3.74468085,13.2627119 C3.53191489,14.5762712 3.4893617,15.9745763 3.70212766,17.4576271 L3.70212766,17.8389831 C3.70212766,18.1779661 3.61702128,18.5169492 3.44680851,18.8559322 L0.425531915,25.3813559 C-2.83439938e-13,26.2711864 0.085106383,27.2457627 0.595744681,28.0932203 C1.10638298,28.940678 2,29.4491525 3.0212766,29.4491525 L4.08510638,29.4491525 L3.4893617,32.1610169 C3.31914894,32.9237288 3.36170213,33.7288136 3.65957447,34.4491525 L3.78723404,34.7457627 C4.17021277,35.7627119 4.25531915,36.8644068 4.04255319,37.8813559 C3.91489362,38.6864407 4.08510638,39.4915254 4.55319149,40.1694915 C5.0212766,40.8474576 5.74468085,41.2711864 6.55319149,41.3983051 L10.8510638,42.0338983 L10.8510638,48.940678 C10.8510638,49.5338983 11.3191489,50 11.9148936,50 C12.5106383,50 12.9787234,49.5338983 12.9787234,48.940678 L12.9787234,41.1440678 C12.9787234,40.6355932 12.5957447,40.1694915 12.0851064,40.0847458 L6.89361702,39.3220339 C6.68085106,39.279661 6.46808511,39.1525424 6.34042553,38.9830508 C6.21276596,38.7711864 6.12765957,38.559322 6.17021277,38.3050847 C6.42553191,36.8644068 6.29787234,35.4237288 5.78723404,34.0677966 L5.65957447,33.7711864 C5.53191489,33.4322034 5.4893617,33.0508475 5.57446809,32.6694915 L6.42553191,28.6864407 C6.5106383,28.3898305 6.42553191,28.0508475 6.21276596,27.7966102 C6,27.5423729 5.70212766,27.4152542 5.40425532,27.4152542 L3.06382979,27.4152542 C2.80851064,27.4152542 2.59574468,27.2881356 2.46808511,27.0762712 C2.29787234,26.8220339 2.29787234,26.5677966 2.38297872,26.3559322 L5.44680851,19.8728814 C5.74468085,19.2372881 5.87234043,18.6016949 5.87234043,17.9661017 L5.87234043,17.5 L5.87234043,17.3728814 C5.70212766,16.059322 5.70212766,14.8305085 5.91489362,13.7288136 L6.04255319,12.9661017 L6.04255319,12.8389831 L6.17021277,12.3305085 C6.38297872,11.5254237 6.72340426,10.6355932 7.23404255,9.57627119 C9.31914894,5.6779661 13.106383,3.22033898 18.212766,2.45762712 C23.8723404,1.56779661 31.6595745,3.47457627 35.4468085,9.70338983 C35.8723404,10.4237288 36.3829787,11.3559322 36.7234043,12.4152542 C36.7659574,12.6694915 36.893617,13.0508475 36.9787234,13.220339 C37.0212766,13.4322034 37.1489362,13.8559322 37.1489362,13.8983051 C38.6808511,19.7033898 37.2340426,24.9152542 32.7659574,29.3644068 L32.5957447,29.5338983 C32.0425532,30.0847458 31.0638298,31.059322 30.3404255,32.6271186 C29.1489362,35.3813559 29.3617021,38.6440678 30.893617,42.3305085 C31.106383,42.8813559 31.7446809,43.1355932 32.2978723,42.9237288 C32.8510638,42.7118644 33.106383,42.0762712 32.893617,41.5254237 C31.5744681,38.3474576 31.4042553,35.6355932 32.3404255,33.4745763 C32.893617,32.2457627 33.6170213,31.5254237 34.1276596,31.0169492 L34.2978723,30.8474576 C39.2765957,25.720339 40.9361702,19.8305085 39.1914894,13.2627119 Z" id="Shape"></path>
                <path d="M31.1914894,21.2711864 C32.893617,16.4830508 30.8085106,10.9745763 26.3404255,8.47457627 C22.4680851,6.27118644 17.4042553,6.8220339 14.0851064,9.74576271 C10.6808511,12.7118644 9.53191489,17.5 11.1489362,21.6525424 C12.7659574,25.720339 16.7234043,28.3898305 21.106383,28.3898305 L21.3191489,28.3898305 C25.7446809,28.2627119 29.7021277,25.4237288 31.1914894,21.2711864 L31.1914894,21.2711864 Z M29.5744681,20.720339 C28.3404255,24.1949153 24.9787234,26.6101695 21.2765957,26.6525424 L21.106383,26.6525424 C17.4468085,26.6525424 14.0851064,24.4067797 12.7234043,20.9745763 C11.3617021,17.5 12.3404255,13.4745763 15.1914894,10.9745763 C16.8510638,9.53389831 18.9787234,8.77118644 21.106383,8.77118644 C22.6382979,8.77118644 24.1276596,9.15254237 25.4893617,9.91525424 C29.2765957,12.0338983 31.0212766,16.6949153 29.5744681,20.720339 Z" id="Shape"></path>
                <path d="M21.106383,15.2966102 C20.7659574,15.2966102 20.4255319,15.3813559 20.0851064,15.5084746 L17.4893617,12.8389831 C17.1489362,12.5 16.6382979,12.5 16.2978723,12.8389831 C15.9574468,13.1779661 15.9574468,13.6864407 16.2978723,14.0254237 L18.9361702,16.6949153 C18.7659574,17.0338983 18.6808511,17.3728814 18.6808511,17.7542373 C18.6808511,19.1101695 19.787234,20.2118644 21.1489362,20.2118644 C22.212766,20.2118644 23.106383,19.5338983 23.4468085,18.6016949 L28.2553191,18.6016949 C28.7234043,18.6016949 29.106383,18.220339 29.106383,17.7542373 C29.106383,17.2881356 28.7234043,16.9067797 28.2553191,16.9067797 L23.4468085,16.9067797 C23.106383,15.9322034 22.1702128,15.2966102 21.106383,15.2966102 Z M21.106383,18.5169492 C20.6808511,18.5169492 20.3404255,18.1779661 20.3404255,17.7542373 C20.3404255,17.3305085 20.6808511,16.9915254 21.106383,16.9915254 C21.5319149,16.9915254 21.8723404,17.3305085 21.8723404,17.7542373 C21.8723404,18.1779661 21.5319149,18.5169492 21.106383,18.5169492 Z" id="Shape"></path>
            </g>
        </g>
    </g>
</svg>