<?xml version="1.0" encoding="UTF-8" standalone="no"?>
<svg width="24px" height="46px" viewBox="0 0 24 46" version="1.1" xmlns="http://www.w3.org/2000/svg" xmlns:xlink="http://www.w3.org/1999/xlink">
    <!-- Generator: Sketch 41 (35326) - http://www.bohemiancoding.com/sketch -->
    <title>Group 2</title>
    <desc>Created with Sketch.</desc>
    <defs></defs>
    <g id="Icons" stroke="none" stroke-width="1" fill="none" fill-rule="evenodd">
        <g id="Icons-Subcat" transform="translate(-891.000000, -47.000000)" fill="#2BB0D4">
            <g id="Group-2" transform="translate(891.000000, 47.000000)">
                <path d="M16.8855294,1.50088692 C16.8798681,0.998942861 16.8750156,0.49782301 16.8750156,0 L17.9749285,0 C17.9749285,0.493701958 17.9789723,0.989876548 17.9846336,1.48687535 L16.8855294,1.50088692 Z M17.9991912,4.11363351 L16.8984696,4.1045672 L16.9008959,3.52844421 C16.9008959,3.22595904 16.8992783,2.92264966 16.8960433,2.61934027 L17.996765,2.60944975 C17.9991912,2.91605597 18,3.22348641 18,3.52844421 L17.9991912,4.11363351 Z M17.8948613,6.76759062 L16.7989922,6.67610328 C16.8378126,6.19146763 16.8620754,5.70435936 16.8774418,5.21148161 L17.976546,5.24774686 C17.9611795,5.75793302 17.9344905,6.26482235 17.8948613,6.76759062 Z M17.5268757,9.40176668 L16.4471818,9.18664779 L16.4803409,9.03581731 C16.5612169,8.63525112 16.6315789,8.20748598 16.6873834,7.76488506 L17.7783999,7.90829765 C17.7185517,8.37974593 17.6433371,8.83635842 17.555991,9.26659619 L17.5268757,9.40176668 Z M16.530484,11.9988533 L15.5615901,11.4697103 C15.7961304,11.0229883 15.992659,10.5886295 16.1455145,10.178997 L17.1742566,10.5779147 C17.0036083,11.0320546 16.7876695,11.5109208 16.530484,11.9988533 Z M15.1386089,14.2695526 L14.2352246,13.632438 C14.5085853,13.228575 14.7762847,12.8205909 15.0286176,12.4084858 L15.9619261,12.9994446 C15.7015055,13.4280339 15.424101,13.851678 15.1386089,14.2695526 Z M13.635125,16.4009604 L12.7422546,15.7490101 L13.6027747,14.5357725 L14.4948364,15.1926681 L13.635125,16.4009604 Z M12.199577,18.5455555 L11.2824437,17.9249252 C11.5444818,17.5227106 11.8073286,17.1229686 12.0701754,16.7265234 L13.0139978,17.3042949 L12.9743685,17.3644622 C12.7212268,17.74772 12.4599975,18.1458135 12.199577,18.5455555 Z M10.7988055,20.7272401 L9.87520219,20.118973 C10.1420928,19.6994499 10.4089835,19.2799269 10.6758741,18.8628765 L11.5962424,19.4769132 C11.328543,19.8914909 11.0632699,20.3093655 10.7988055,20.7272401 Z M9.42876695,22.9287058 L8.49626726,22.3344502 C8.75587906,21.9108061 9.01710837,21.4879862 9.27995521,21.0668148 L10.2084111,21.6676641 C9.94637302,22.0863629 9.68676123,22.5075344 9.42876695,22.9287058 Z M8.09107876,25.1491283 L7.1480652,24.5713569 C7.40039816,24.1452402 7.65677492,23.717475 7.91476919,23.2905341 L8.85131268,23.8781961 C8.59493592,24.3026643 8.3417942,24.7263084 8.09107876,25.1491283 Z M6.8366928,27.3786171 L5.85162374,26.8799699 C6.03521214,26.5049542 6.24629837,26.1101575 6.50024885,25.6766229 L6.5811248,25.5365071 L7.52656464,26.1076849 L7.44568869,26.2486248 C7.22327983,26.62941 7.01704616,27.0060741 6.8366928,27.3786171 Z M6.09263407,29.6641522 L5,29.5372238 C5.05661316,29.0377524 5.18277964,28.5217968 5.38739579,27.9596854 L6.41856414,28.3495368 C6.24468085,28.8259304 6.1379246,29.2561681 6.09263407,29.6641522 Z M5.64215503,32.4021788 C5.32673883,31.9068284 5.11888764,31.3719159 5.0258803,30.8098045 L6.11042678,30.6251814 C6.17917133,31.0397592 6.32798308,31.4205443 6.56494961,31.7906148 L5.64215503,32.4021788 Z M7.71338808,34.3324793 C7.55001866,34.2393435 7.39311932,34.1396141 7.24673386,34.0332909 C6.94749285,33.818172 6.67332338,33.5898658 6.43312181,33.3566143 L7.19012069,32.543943 C7.39231056,32.7409292 7.6252333,32.9337944 7.88161005,33.1175933 C7.99726266,33.202487 8.12100286,33.2807869 8.25121314,33.3541417 L7.71338808,34.3324793 Z M10.1728257,35.3561484 L9.88733358,35.2531221 C9.5096429,35.1171274 9.13518726,34.981957 8.77609805,34.8352475 L9.18290407,33.7959184 C9.52905313,33.9352099 9.88975986,34.0654351 10.2528929,34.1964846 L10.5424288,34.3011593 L10.1728257,35.3561484 Z M12.3564763,36.3905323 C12.0467214,36.1655229 11.6593256,35.9553493 11.1716436,35.7459999 L11.5978599,34.7124402 C12.1688441,34.9580549 12.6120443,35.2011969 12.9937788,35.4773073 L12.3564763,36.3905323 Z M13.4879308,38.1757718 C13.4677118,38.0710971 13.4458753,37.9713677 13.419995,37.8757593 C13.3391191,37.5642078 13.2097176,37.29057 13.0253204,37.0391858 L13.9060595,36.3682787 C14.1713326,36.730107 14.3654349,37.1397395 14.4835137,37.5856372 C14.5142466,37.7043235 14.5417444,37.8271309 14.566816,37.9565319 L13.4879308,38.1757718 Z M14.7366555,40.6871405 L13.6375513,40.6558205 C13.6424039,40.481088 13.6456389,40.3080038 13.6456389,40.1373923 C13.6456389,39.8184229 13.6359338,39.5085198 13.6173323,39.215101 L14.7132014,39.140922 C14.7342292,39.458243 14.7447431,39.7920482 14.7447431,40.1373923 C14.7447431,40.3187185 14.7423168,40.500869 14.7366555,40.6871405 Z M14.4940276,43.3592303 L13.4078636,43.1902672 C13.4790345,42.7196431 13.5348389,42.2325348 13.5760856,41.7429539 L14.6711459,41.8377381 C14.6290905,42.3520453 14.5684335,42.8638799 14.4940276,43.3592303 Z M13.8995894,46 L12.8570984,45.6439412 C12.9881175,45.2450234 13.1094314,44.780993 13.2169964,44.2617405 L14.2918378,44.4941678 C14.1769939,45.0546308 14.0443573,45.5615201 13.8995894,46 L13.8995894,46 Z" id="Fill-72"></path>
                <path d="M18.9674354,34.0157346 C18.580809,32.5425851 17.3306909,32.0079319 16.0704599,32.0000307 C15.4278977,31.996519 13.4543138,32.2932559 14.1443291,33.5671176 C14.4119337,34.0613864 14.9082469,34.0131008 15.2124138,33.7295327 C15.3018746,33.6979276 15.3928913,33.672468 15.483908,33.65052 C15.7561801,33.5873097 16.0424548,33.5890656 16.3186165,33.6004785 C16.8483803,33.6206707 17.4411556,33.8120572 17.6052968,34.4397699 C17.8627885,35.4230401 19.2264829,35.0042723 18.9674354,34.0157346" id="Fill-73" fill-opacity="0.578549592"></path>
                <path d="M20.0033358,26.0309328 C19.0101079,25.7774949 18.5892188,27.1572362 19.5789246,27.4091 C21.1982031,27.8238881 21.9977164,29.3948885 22.3367171,30.745508 C22.8236453,32.6817108 21.7634978,34.2527112 19.5789246,34.6076817 C18.5645642,34.7721802 18.9960196,36.1495603 20.0033358,35.9866359 C25.6016898,35.0783521 25.0557666,27.3233089 20.0033358,26.0309328" id="Fill-74" fill-opacity="0.578549592"></path>
                <path d="M6.06322576,22.1583827 C9.31622525,19.3322613 12.8779643,16.2615716 14.5697903,12.2019042 C15.9104355,8.98628531 16.4571791,3.91870047 15.5600869,0.530978006 C15.3145932,-0.399533998 13.8591069,-0.00509572399 14.1062649,0.927886666 C14.6563372,3.00959848 14.0862925,5.57385899 14.0788029,7.6967439 C14.0671524,11.0070609 12.1323292,13.9204693 10.0352305,16.3439178 C7.25158168,19.5578898 3.10148998,21.7548863 0.872906545,25.4011758 C-0.348736651,27.4005414 -0.410318119,32.0209865 1.47540632,33.7288465 C2.70953225,34.8462844 4.03353383,35.5536382 5.57057401,36.1893508 C6.50012132,36.574731 7.48958573,36.7320123 8.46906396,36.9337604 C10.8965389,37.4352488 11.3833654,39.4922567 11.3126299,41.5360893 C11.3117977,41.5624401 11.3234483,41.5797328 11.3251126,41.6044366 C11.3234483,41.6250232 11.3126299,41.639022 11.3126299,41.6612555 L11.3126299,42.9055065 C11.3126299,43.057847 11.3667217,43.1821897 11.4407859,43.2892398 C11.4541008,44.2403383 12.9478676,44.2370445 12.9478676,43.2785348 L12.9478676,42.5184794 C12.9478676,42.3554339 12.8937757,42.2294443 12.8213759,42.1215707 L12.8213759,41.6612555 C12.8213759,41.6357282 12.8097253,41.617612 12.808061,41.5937316 C12.8097253,41.5723216 12.8205437,41.5583228 12.8213759,41.5360893 C12.9245665,38.5716263 12.7456473,36.8761181 9.81137355,35.7380937 C6.44602949,34.43373 2.35419053,35.0389745 1.66764037,29.9112769 C1.17831734,26.262517 3.609121,24.2903257 6.06322576,22.1583827" id="Fill-75" fill-opacity="0.578549592"></path>
            </g>
        </g>
    </g>
</svg>