<?xml version="1.0" encoding="UTF-8" standalone="no"?>
<svg width="53px" height="32px" viewBox="0 0 53 32" version="1.1" xmlns="http://www.w3.org/2000/svg" xmlns:xlink="http://www.w3.org/1999/xlink">
    <!-- Generator: Sketch 41 (35326) - http://www.bohemiancoding.com/sketch -->
    <title>Group 31</title>
    <desc>Created with Sketch.</desc>
    <defs></defs>
    <g id="Icons" stroke="none" stroke-width="1" fill="none" fill-rule="evenodd">
        <g id="Icons-Subcat" transform="translate(-2564.000000, -133.000000)">
            <g id="Group-31" transform="translate(2564.000000, 133.000000)">
                <g id="Group-16-Copy" opacity="0.458896922" transform="translate(0.000000, 5.000000)" fill="#2BB0D4">
                    <g id="Group-18">
                        <g id="Group-13-Copy-2">
                            <g id="Group-12">
                                <path d="M44.4304397,12.1433164 C43.545927,11.6081612 42.974178,12.583068 42.974178,12.583068 L42.9798389,12.5726332 C42.9713476,12.58754 42.2113743,14.1154904 39.8550325,15.6270431 C37.6430432,17.0476643 33.5445652,18.7395897 26.585927,18.7395897 C19.5904931,18.7395897 15.2457668,17.0267947 12.8328162,15.5897761 C10.268437,14.0633164 9.29193501,12.5189686 9.26504582,12.4757388 C8.9565278,11.9629438 8.31260256,11.806422 7.82293634,12.1284096 C7.33043968,12.4503972 7.18042633,13.1331301 7.48611391,13.6503972 C7.66301645,13.9485338 11.970947,20.9517636 26.585927,20.9517636 C41.2744984,20.9517636 44.7233903,13.8531301 44.8620819,13.5505214 C44.8620819,13.5505214 45.3149524,12.6784717 44.4304397,12.1433164" id="Fill-98"></path>
                                <path d="M26.0509737,9.9025711 C18.7243783,9.9025711 12.2624824,8.34182576 7.95596705,6.94803694 C10.6194116,6.27126675 13.0450992,5.11300588 14.9938576,4.18132886 C16.3015211,3.55673259 17.4308669,3.01710526 18.1908402,2.83524191 C18.9239243,2.65934128 19.6739911,2.73685681 20.3617881,3.05735371 L24.0993849,4.80145309 C25.6363142,5.51847172 27.3770351,5.46927917 28.8743382,4.6672916 L31.7528963,3.12592514 C32.4307868,2.76368911 33.2134036,2.64443445 33.9578095,2.79201209 C34.9413876,2.98580091 36.376421,3.61635992 38.0378896,4.34381333 C40.0036306,5.20691892 42.2623222,6.19822327 44.6087574,6.83921706 C40.0616546,8.28816116 33.3591713,9.9025711 26.0509737,9.9025711 Z M51.9721486,5.13983818 C51.7343916,4.58381333 51.1116947,4.33486923 50.5838175,4.5867947 C50.5583436,4.59872017 49.9653662,4.87747793 48.9124423,5.29934128 C45.5130832,5.22778849 41.8221887,3.61039719 38.8445652,2.30306799 C37.0741246,1.52642203 35.5456867,0.855614576 34.3441646,0.618595943 C33.1483035,0.381577309 31.8901727,0.572384763 30.8018683,1.15524191 L27.9233102,2.69660837 C26.99068,3.19598725 25.9066213,3.22580091 24.9499323,2.78008663 L21.2109203,1.03598725 C20.1240311,0.527664266 18.8857134,0.400956191 17.726648,0.678223272 C16.7586373,0.910769856 15.5387174,1.493627 14.1263275,2.16741582 C11.3581566,3.49114253 7.56536625,5.30232265 3.72587359,5.30232265 C3.66501912,5.30232265 3.60557987,5.30977607 3.54755583,5.32021085 C2.82862392,5.01611147 2.43236224,4.82381333 2.41254916,4.81337855 C1.88750243,4.55399967 1.26339028,4.79250899 1.01714195,5.34555246 C0.770893618,5.89859594 0.995913644,6.55598725 1.52096037,6.81536613 C1.95826344,7.0315152 12.3983436,12.1132543 26.0509737,12.1132543 C33.183684,12.1132543 39.6993582,10.6195897 43.9096386,9.36443445 C46.1980498,8.68319222 48.0548189,8.00642203 49.3539911,7.49213632 C49.4643783,7.46828538 49.5691046,7.42505557 49.6639243,7.36840961 C50.7649657,6.92418601 51.3933235,6.62903073 51.4471019,6.60219843 C51.9763943,6.35176364 52.2113209,5.69586302 51.9721486,5.13983818 L51.9721486,5.13983818 Z" id="Fill-99"></path>
                            </g>
                        </g>
                    </g>
                </g>
                <path d="M7.5,1 L44.5540146,1" id="Line" stroke="#2BB0D4" stroke-width="2" stroke-linecap="square"></path>
                <path d="M7.5,31 L44.5540146,31" id="Line-Copy" stroke="#2BB0D4" stroke-width="2" stroke-linecap="square"></path>
            </g>
        </g>
    </g>
</svg>