<?xml version="1.0" encoding="UTF-8" standalone="no"?>
<svg width="91px" height="38px" viewBox="0 0 91 38" version="1.1" xmlns="http://www.w3.org/2000/svg" xmlns:xlink="http://www.w3.org/1999/xlink">
    <!-- Generator: Sketch 41 (35326) - http://www.bohemiancoding.com/sketch -->
    <title>Group Copy</title>
    <desc>Created with Sketch.</desc>
    <defs></defs>
    <g id="Icons" stroke="none" stroke-width="1" fill="none" fill-rule="evenodd">
        <g id="Icons-Subcat" transform="translate(-507.000000, -205.000000)" fill="#2BB0D4">
            <g id="Group-Copy" transform="translate(507.000000, 205.000000)">
                <path d="M68.8715955,17.6016 C68.3012022,16.8952 54.8965618,0.576 35.8214944,0.0264 C35.4984045,0.0096 35.1729213,0 34.8442472,0 L34.8426517,0 L34.8410562,0 C34.8179213,0 34.7955843,0.0016 34.7732472,0.0016 C34.4708989,0.0024 34.1693483,0.0096 33.870191,0.0256 C14.7895393,0.5712 1.38250562,16.8952 0.81211236,17.6016 L0,18.608 L0.81211236,19.6144 C1.38250562,20.3216 14.7895393,36.6456 33.870191,37.1904 C34.1693483,37.2064 34.4701011,37.2128 34.7732472,37.2144 C34.796382,37.2144 34.8187191,37.216 34.8410562,37.216 L34.8426517,37.216 L34.8442472,37.216 C35.1721236,37.216 35.4976067,37.2064 35.8214944,37.1904 C54.8965618,36.64 68.3012022,20.3216 68.8715955,19.6152 L69.6845056,18.608 L68.8715955,17.6016 L68.8715955,17.6016 Z M34.8474382,34.016 L34.8442472,34.016 C26.3705169,34.0152 19.4771348,27.1032 19.4771348,18.6072 C19.4771348,11.7024 24.0307079,5.844 30.2858876,3.892 C26.9560674,5.5688 24.6657191,9.0152 24.6657191,13.008 C24.6657191,18.644 29.2216854,23.2128 34.8426517,23.2128 C40.4596292,23.2128 45.0179888,18.644 45.0179888,13.008 C45.0179888,11.2432 44.5704494,9.584 43.7846629,8.136 C43.4256742,9.6272 42.0958202,10.74 40.4963258,10.74 C38.6216067,10.74 37.1042809,9.2168 37.1042809,7.3392 C37.1042809,5.7352 38.2131573,4.4008 39.7009663,4.0408 C39.5924719,3.9816 39.4752022,3.9384 39.3635169,3.8824 C45.6354494,5.8224 50.2073708,11.6888 50.2073708,18.6072 C50.206573,27.1032 43.316382,34.0144 34.8474382,34.016 L34.8474382,34.016 Z M4.1754382,18.6072 C6.36207865,16.2112 12.4696742,10.1016 20.9122921,6.3352 C18.0363933,9.6136 16.2861236,13.908 16.2861236,18.6072 C16.2861236,23.3008 18.0316067,27.5912 20.9027191,30.8688 C12.4744607,27.1016 6.36367416,21 4.1754382,18.6072 L4.1754382,18.6072 Z M48.773809,30.8792 C51.6489101,27.6008 53.3975843,23.3064 53.3975843,18.6072 C53.3975843,13.9144 51.6528989,9.6256 48.7849775,6.3488 C57.2108427,10.1168 63.3200337,16.2168 65.5082697,18.6088 C63.3216292,21.0064 57.213236,27.1136 48.773809,30.8792 L48.773809,30.8792 Z" id="Shape"></path>
                <path d="M72.6213518,15.5482759 C71.1779188,15.0085057 69.7241386,13.9964368 68.2755321,12.9843678 C69.4706325,15.0085057 70.5519138,17.1675862 71.5918064,19.5290805 C72.0574299,19.4616092 71.5918064,20.0013793 70.34497,20.7435632 C69.9828184,20.945977 69.5171949,21.1483908 69.0515713,21.4182759 C68.0168523,23.3749425 66.9821334,25.3316092 65.8439425,27.2208046 C67.0338693,25.803908 68.2237961,24.4544828 69.5689308,23.7797701 C70.8623295,23.0375862 72.2643737,22.9701149 74.7942616,23.8472414 C77.3293231,24.6568966 81.0025754,26.3436782 83.025451,27.4232184 C85.0379794,28.5702299 85.451867,29.0425287 85.503603,29.11 C85.5553389,29.11 85.2449232,28.7051724 84.6240918,28.0304598 C83.9515245,27.4232184 82.9685415,26.4786207 81.9855585,25.7364368 C81.0543114,24.9942529 80.1230643,24.4544828 79.2952891,23.9821839 C78.467514,23.5773563 77.7949466,23.24 76.7654012,22.7677011 L73.5577724,21.4182759 C72.6782613,21.0134483 72.2643737,20.8785057 74.0182224,20.8110345 C75.8289806,20.7435632 79.8178222,20.8785057 83.3306931,19.664023 C86.8487376,18.5170115 89.9011586,16.1555172 90.8324057,15.4133333 C91.7636527,14.6711494 90.52199,15.6157471 89.1768553,16.4254023 C87.8317206,17.1675862 86.43485,17.7748276 85.0379794,18.1121839 C83.6411088,18.4495402 82.1925022,18.5170115 80.7438957,18.5170115 C79.2435532,18.5170115 77.7432107,18.4495402 76.2946041,18.2471264 C74.8511711,18.0447126 73.5008629,17.7073563 73.2421831,17.5724138 C72.9317675,17.4374713 73.7647162,17.4374713 75.0012054,17.3025287 C76.2428682,17.2350575 77.9501545,17.1001149 79.7091767,16.5603448 C81.416463,16.0205747 83.1754853,15.075977 84.6240918,13.794023 C85.503603,13.0518391 86.2848158,12.1072414 86.7452657,11.5 C86.5383219,11.7698851 86.3313781,12.0397701 86.0209624,12.2421839 C85.0897154,13.1193103 83.9049621,13.9289655 82.9168055,14.4012644 C81.8820866,14.9410345 81.0543114,15.2109195 80.0713284,15.4808046 C79.1452549,15.6832184 78.0588,15.9531034 76.7654012,16.0205747 C75.5185649,16.088046 74.0699583,16.0205747 72.6213518,15.5482759" id="Fill-475"></path>
            </g>
        </g>
    </g>
</svg>