<?xml version="1.0" encoding="UTF-8" standalone="no"?>
<svg width="51px" height="52px" viewBox="0 0 51 52" version="1.1" xmlns="http://www.w3.org/2000/svg" xmlns:xlink="http://www.w3.org/1999/xlink">
    <!-- Generator: Sketch 41 (35326) - http://www.bohemiancoding.com/sketch -->
    <title>Group 3 Copy</title>
    <desc>Created with Sketch.</desc>
    <defs></defs>
    <g id="Icons" stroke="none" stroke-width="1" fill="none" fill-rule="evenodd">
        <g id="Icons-Subcat" transform="translate(-135.000000, -42.000000)" fill="#2BB0D4">
            <g id="Group-3-Copy" transform="translate(135.000000, 42.000000)">
                <path d="M43.1799367,51.5448064 C42.3310689,51.1514805 41.4797235,50.7964394 40.6333333,50.4761905" id="Fill-1-Copy"></path>
                <path d="M43.2249472,7.65991427 C38.3336684,2.7798791 31.9869124,0.0924208379 25.3539887,0.0924208379 C18.6998674,0.0924208379 12.354075,2.75126625 7.4857832,7.57944903 C2.72843473,12.2974791 0,18.6465757 0,24.9988963 C0,32.7200663 1.1481119,43.2270259 6.22507622,51.9028977 C7.06210637,51.491437 7.90381651,51.1185296 8.74277371,50.7806831 C3.85452315,42.5768561 2.75293586,32.4438784 2.75293586,24.9988963 C2.75293586,19.345777 5.19327586,13.683523 9.44807588,9.46386693 C13.7946863,5.15313337 19.4435731,2.7790731 25.3539887,2.7790731 C37.3936784,2.7790731 47.9549039,13.1621781 47.9549039,24.9988963 C47.9549039,37.0724429 44.9196545,45.2507467 41.7821335,50.4788377 C42.6285236,50.7990867 43.479869,51.1541278 44.3287368,51.5474537 C47.6007387,45.9803072 50.7078398,37.4223794 50.7078398,24.9988963 C50.7078398,18.7240856 47.9805062,12.4042735 43.2249472,7.65991427" id="Fill-6-Copy"></path>
                <path d="M20.4037056,40.9843459 C20.1749367,41.4940038 20.4126527,42.088157 20.9348846,42.3115521 L22.8562962,43.1332647 C23.3269106,43.3344949 23.8346896,43.4352444 24.3426063,43.4352444 C24.8190018,43.4352444 25.295535,43.3465849 25.7415106,43.1688628 L27.8677406,42.3214927 C28.3956161,42.1111278 28.6486109,41.5228853 28.433056,41.0078541 C28.2175011,40.4925542 27.6150211,40.2456508 27.0871457,40.4560157 L24.9609157,41.3033858 C24.5533435,41.465794 24.0883726,41.460152 23.6849299,41.2875346 L21.7636559,40.4659563 C21.241424,40.2428299 20.6326123,40.4746879 20.4037056,40.9843459" id="Fill-9-Copy"></path>
                <path d="M42.6760824,27.1659276 C42.5308651,27.0713574 39.0693235,24.853929 34.6065392,25.2964206 C29.8262037,25.7696744 28.0076143,28.083688 27.1335571,29.1956933 C27.0800125,29.2638 27.0300467,29.3273393 26.9832468,29.385371 C25.838989,30.8020427 24.8319651,34.1725823 25.7595668,39.0094967 C25.8523408,39.4937658 26.2859282,39.831881 26.7730602,39.831881 C26.8361024,39.831881 26.8999705,39.826239 26.9641139,39.8144177 C27.5246117,39.7120563 27.8937804,39.1857411 27.7890312,38.6388731 C27.3532414,36.3660996 27.210777,32.3585547 28.6047261,30.6327836 C28.6568942,30.5681697 28.7123658,30.497645 28.7718293,30.4220158 C29.5232431,29.4659706 30.9218722,27.6866008 34.8149364,27.3010662 C38.5191493,26.9339351 41.5022306,28.8241293 41.5318246,28.8432046 C42.0057425,29.1502889 42.6453872,29.0253596 42.9614242,28.5632554 C43.2780118,28.1004795 43.1502756,27.4748926 42.6760824,27.1659276" id="Fill-11-Copy"></path>
                <path d="M21.9136423,30.3095296 C22.1137807,30.5928371 22.4362872,30.7451703 22.7644371,30.7451703 C22.9648509,30.7451703 23.1673293,30.6883476 23.3453066,30.5698662 C23.8163339,30.2563339 23.9376007,29.6295379 23.6163331,29.1698517 C23.520118,29.0322951 21.2042107,25.7968941 16.1474805,25.2962365 C11.6846962,24.8545509 8.2231546,27.0713076 8.07807488,27.1658778 C7.60388168,27.4748428 7.47600781,28.1004298 7.79259543,28.5632056 C8.10918306,29.0261158 8.75034182,29.1506422 9.22439738,28.8416771 C9.25385379,28.8226019 12.2051387,26.9302584 15.9392209,27.3010164 C19.9958095,27.7026709 21.8313295,30.1949439 21.9136423,30.3095296" id="Fill-13-Copy"></path>
                <path d="M23.9446429,20.3350287 C31.5586114,20.3350287 37.6498189,19.873844 37.7309524,13.9532287 C37.7309524,10.4286578 31.5586114,7.57142857 23.9446429,7.57142857 C16.3306744,7.57142857 10.1583333,10.4286578 10.1583333,13.9532287 C10.3067827,20.3734608 16.3306744,20.3350287 23.9446429,20.3350287 Z" id="Oval-6-Copy"></path>
            </g>
        </g>
    </g>
</svg>