<?xml version="1.0" encoding="UTF-8" standalone="no"?>
<svg width="35px" height="32px" viewBox="0 0 35 32" version="1.1" xmlns="http://www.w3.org/2000/svg" xmlns:xlink="http://www.w3.org/1999/xlink">
    <!-- Generator: Sketch 41 (35326) - http://www.bohemiancoding.com/sketch -->
    <title>Page 1</title>
    <desc>Created with Sketch.</desc>
    <defs></defs>
    <g id="Configurator-iPad" stroke="none" stroke-width="1" fill="none" fill-rule="evenodd">
        <g id="Hair-Amnese" transform="translate(-779.000000, -222.000000)" stroke-width="2" stroke="#A0A3A8">
            <g id="Group-17" transform="translate(381.000000, 191.000000)">
                <g id="Group-15-Copy-16" transform="translate(335.000000, 0.000000)">
                    <g id="Page-1" transform="translate(64.000000, 32.000000)">
                        <polyline id="Stroke-1" points="11.1393557 0.124898611 15.3452617 1.53248194 15.4346577 7.24989861 18.5667383 9.36100972"></polyline>
                        <polyline id="Stroke-3" points="6.30714094 10.7685667 9.1707651 11.6481083 11.4078121 6.63421944 15.3452617 4.69912222"></polyline>
                        <polyline id="Stroke-6" transform="translate(27.414568, 15.000004) rotate(-38.000000) translate(-27.414568, -15.000004) " points="34.349736 11.6574556 32.291481 16.4074556 27.817387 15.3519 23.700877 18.3425528 20.4794004 16.0554278"></polyline>
                        <polyline id="Stroke-7" points="0.0432483221 16.4026764 4.24915436 17.8102597 9.52861745 15.9630375 12.9291544 16.7547042"></polyline>
                        <polyline id="Stroke-9" points="8.45479195 23.5276764 4.69640268 23.5276764 4.24915436 17.8102597"></polyline>
                        <polyline id="Stroke-10" points="18.0298255 22.2963444 14.897745 25.3748722 15.8821745 29.8609833"></polyline>
                        <polyline id="Stroke-12" points="23.309557 14.4630111 17.6719732 15.1665389 17.1350604 20.4443167"></polyline>
                        <path d="M15.0768054,12.7036639 L17.6719732,15.1665389" id="Stroke-13"></path>
                    </g>
                </g>
            </g>
        </g>
    </g>
</svg>