<?xml version="1.0" encoding="UTF-8" standalone="no"?>
<svg width="53px" height="50px" viewBox="0 0 53 50" version="1.1" xmlns="http://www.w3.org/2000/svg" xmlns:xlink="http://www.w3.org/1999/xlink">
    <!-- Generator: Sketch 41 (35326) - http://www.bohemiancoding.com/sketch -->
    <title>Group 30</title>
    <desc>Created with Sketch.</desc>
    <defs></defs>
    <g id="Icons" stroke="none" stroke-width="1" fill="none" fill-rule="evenodd">
        <g id="Icons-Subcat" transform="translate(-1681.000000, -54.000000)" fill="#2BB0D4">
            <g id="Group-30" transform="translate(1681.000000, 55.000000)">
                <g id="Group-8" opacity="0.64453125" transform="translate(12.000000, 0.000000)" stroke="#2BB0D4" stroke-width="0.571428571">
                    <g id="Group-5-Copy" transform="translate(5.740741, 0.000000)">
                        <path d="M18.1061708,14.623454 C17.6083898,13.1772109 16.4719712,12.1886265 14.9823428,11.9022673 C14.8705939,11.7758565 14.2720048,10.9250341 13.6757565,6.74109348 C13.2840249,3.99204479 13.1366549,1.4359661 13.2247919,0.643963521 C13.2602096,0.326130564 13.03488,0.039771325 12.7215659,0.00365394347 C12.4079465,-0.0319474754 12.1255212,0.196623953 12.0901544,0.513940948 C11.9702127,1.59127084 12.1925908,4.5518642 12.5963828,7.25447626 C12.8193716,8.74664008 13.0786432,10.0226156 13.3461585,10.9446407 C13.7412487,12.30575 14.1529282,12.9295488 14.7226132,13.0311934 C16.229696,13.299494 16.8139348,14.3830154 17.0280692,15.0047504 C17.3807193,16.0294521 17.2396593,17.1877881 16.6850369,17.8219061 C16.4324316,18.1108452 16.1154537,18.2584105 15.7392936,18.264602 C15.8088568,18.1516062 15.8411194,18.0143602 15.8204082,17.8729864 C15.7742024,17.5567013 15.4812434,17.3250341 15.1720003,17.3848858 C14.7420522,17.4684717 13.3752661,17.6490587 12.0796207,19.8805969 C11.5108516,20.8604098 10.9375536,21.6549922 9.29734923,21.6549922 L9.07507284,21.6549922 C7.43486847,21.6549922 6.90563896,20.8330638 6.29280137,19.8805969 C6.07937939,19.5493489 5.10961721,17.5092328 3.19090581,17.3848858 C2.87631958,17.3647633 2.58682086,17.5561854 2.54061506,17.8724705 C2.51863168,18.0226156 2.55583041,18.1676011 2.63384087,18.2836926 C1.97530635,18.3399326 1.54067661,18.1160048 1.31275171,17.6021061 C0.8987314,16.6692457 1.30099671,15.3040087 1.67369642,15.0284846 C1.92848989,14.8406743 1.98456786,14.4784685 1.79887955,14.2199713 C1.61319123,13.961474 1.25606309,13.9047181 1.00121873,14.0930445 C0.0695712484,14.7813386 -0.298752133,16.7920448 0.271390885,18.0773076 C0.505524054,18.6046214 0.886263974,19.0029445 1.37259536,19.2284201 C1.90299528,19.4740183 2.5473322,19.5152953 3.28784641,19.3507033 C3.96103652,19.2010741 4.34910423,19.3161338 4.67564902,19.6246794 C4.696004,19.6478977 5.12010003,20.1772754 5.33662614,20.513683 C5.96121873,21.4836926 6.81663681,22.8128123 9.07507284,22.8128123 L9.29734923,22.8128123 C11.5558362,22.8128123 12.4112542,21.4836926 13.0358468,20.513683 C13.6234442,19.6009451 13.9473429,19.0978816 15.0846265,19.3507033 C16.0508775,19.5653437 16.9226813,19.2954953 17.5394373,18.5901744 C18.3686483,17.6418352 18.5964205,16.0475108 18.1061708,14.623454" id="Fill-109"></path>
                        <path d="M4.25725238,11.1499938 C4.30997178,11.1654727 4.36309828,11.1726962 4.4153597,11.1726962 C4.66338514,11.1726962 4.89176803,11.0075882 4.96377377,10.7537346 C6.06563978,6.87008413 6.02777952,0.829710054 6.02564224,0.574308571 C6.02294521,0.256475614 5.76784641,0.000558167915 5.45483769,0.000558167915 L5.44985072,0.000558167915 C5.13460295,0.00313798088 4.88118344,0.264731015 4.88382958,0.58411186 C4.88433846,0.644995446 4.92209695,6.71271554 3.86638586,10.4338378 C3.77921565,10.7408355 3.9542176,11.0617642 4.25725238,11.1499938" id="Fill-110"></path>
                    </g>
                    <g id="Page-1-Copy" transform="translate(0.000000, 34.285714)">
                        <path d="M25.8952362,8.11139974 C25.3596727,7.7844515 25.0144766,8.38004571 25.0144766,8.38004571 L25.0173025,8.37394219 C25.0127638,8.38323411 24.5522169,9.31625275 23.1266451,10.2404349 C21.7879075,11.1082279 19.3083357,12.1427289 15.0978163,12.1427289 C10.864518,12.1427289 8.23551247,11.0957476 6.77542959,10.2175695 C5.22414506,9.28436869 4.63274727,8.34087386 4.61664783,8.31472894 C4.43030528,8.00098981 4.04049313,7.90579312 3.74393788,8.10219892 C3.44618374,8.29942459 3.35506772,8.71619478 3.5405539,9.03294012 C3.64716993,9.21513473 6.25408153,13.4941575 15.0978163,13.4941575 C23.9856534,13.4941575 26.0723301,9.15610368 26.1567666,8.97135834 C26.1567666,8.97135834 26.4307998,8.43834798 25.8952362,8.11139974" id="Fill-1"></path>
                        <path d="M15.2086257,5.73391967 C10.7749406,5.73391967 6.86551519,4.78022195 4.25894613,3.92909979 C5.87043232,3.51542692 7.33847928,2.80732754 8.51784945,2.23815155 C9.30929144,1.85618054 9.99283287,1.52631718 10.4527804,1.41526957 C10.8959434,1.30832133 11.3498964,1.35523644 11.7656561,1.55109565 L14.027971,2.61684306 C14.9576285,3.05474783 16.0106865,3.02495901 16.9169655,2.53494658 L18.6592169,1.59318261 C19.0690677,1.37154286 19.5426312,1.2990294 19.9928163,1.38866915 C20.5884959,1.50755114 21.4564959,1.89225507 22.4615981,2.33762981 C23.6509876,2.86480994 25.0182417,3.47024265 26.4374765,3.86196108 C23.6866975,4.74770021 19.6310925,5.73391967 15.2086257,5.73391967 M30.8937693,2.82363395 C30.7495594,2.4834766 30.3732776,2.33207288 30.0536008,2.48566294 C30.0382721,2.49295072 29.6791174,2.6629383 29.0417334,2.92129027 C26.9846865,2.87765466 24.752087,1.88879337 22.9501478,1.09023437 C21.8789351,0.615435197 20.9538163,0.205406211 20.2268577,0.0604703934 C19.5028964,-0.0840099379 18.7417693,0.032594617 18.0836616,0.388329607 L16.3414959,1.33018468 C15.7769876,1.63536066 15.1212776,1.65394451 14.5423826,1.38119917 L12.279982,0.31545176 C11.6219599,0.00544761905 10.8730787,-0.0719850932 10.1715539,0.0973648033 C9.58563674,0.238838923 8.84754558,0.5950294 7.99299033,1.00751801 C6.31762017,1.81600663 4.02319199,2.92338551 1.6999047,2.92338551 C1.66291022,2.92338551 1.6267721,2.92748489 1.5914047,2.9339528 C1.15671961,2.74793209 0.916769337,2.63032547 0.904866022,2.62440414 C0.587244475,2.46598592 0.209164365,2.61146832 0.0603301105,2.94925714 C-0.0886754144,3.28713706 0.0479986188,3.68942277 0.36553453,3.84793209 C0.630404696,3.98011429 6.9473826,7.08534824 15.2086257,7.08534824 C19.5248191,7.08534824 23.4675566,6.17200663 26.0150373,5.40578716 C27.3993329,4.98947246 28.5230401,4.575253 29.309087,4.26124058 C29.3762251,4.24666501 29.4391671,4.22052008 29.4967997,4.18544762 C30.1630428,3.91434203 30.5430925,3.73333168 30.5760622,3.71748075 C30.8958246,3.56398178 31.0380649,3.1637913 30.8937693,2.82363395" id="Fill-4"></path>
                    </g>
                </g>
                <path d="M23.5863475,4.75578078 C25.049399,2.41489833 27.421276,2.41458116 28.8845258,4.75578078 L51.8123653,41.440324 C53.2754168,43.7812065 52.2136314,45.6788666 49.4517129,45.6788666 L3.01916039,45.6788666 C0.252356522,45.6788666 -0.8047418,43.7815236 0.658507959,41.440324 L23.5863475,4.75578078 Z" id="Triangle" fill-opacity="0.25"></path>
            </g>
        </g>
    </g>
</svg>