<?xml version="1.0" encoding="UTF-8" standalone="no"?>
<svg width="42px" height="47px" viewBox="0 0 42 47" version="1.1" xmlns="http://www.w3.org/2000/svg" xmlns:xlink="http://www.w3.org/1999/xlink">
    <!-- Generator: Sketch 41 (35326) - http://www.bohemiancoding.com/sketch -->
    <title>Group 21</title>
    <desc>Created with Sketch.</desc>
    <defs></defs>
    <g id="Configurator-iPad" stroke="none" stroke-width="1" fill="none" fill-rule="evenodd">
        <g id="Hair" transform="translate(-443.000000, -336.000000)" stroke="#F67272">
            <g id="Group-17" transform="translate(385.000000, 313.000000)">
                <g id="Group-21" transform="translate(59.000000, 24.000000)">
                    <path d="M39.9027737,29.3422091 C39.9027737,29.3422091 31.0581752,27.4074895 19.9513869,27.1684195 C10.4338728,27.1363056 0,29.3422091 0,29.3422091" id="Stroke-1" stroke-width="1.8" stroke-linecap="round" stroke-linejoin="round"></path>
                    <path d="M11.2304881,28.0144084 L0.98393193,37.6581403" id="Line-Copy-9" stroke-opacity="0.25501019" stroke-linecap="square"></path>
                    <path d="M4.58398567,28.5816868 L0.808938647,31.9853568" id="Line-Copy-10" stroke-opacity="0.25501019" stroke-linecap="square"></path>
                    <path d="M20.0198477,28.0144084 L4.38036722,42.7636455" id="Line-Copy-11" stroke-opacity="0.25501019" stroke-linecap="square"></path>
                    <path d="M28.0949216,28.5816868 L10.8375638,45.0327589" id="Line-Copy-12" stroke-opacity="0.25501019" stroke-linecap="square"></path>
                    <path d="M36.1699955,28.4181959 L18.9126377,44.869268" id="Line-Copy-12" stroke-opacity="0.25501019" stroke-linecap="square"></path>
                    <path d="M39.6984863,32.3990238 L28.9126377,43.1773124" id="Line-Copy-12" stroke-opacity="0.25501019" stroke-linecap="square"></path>
                    <g id="Group-27" transform="translate(12.000000, 0.000000)" stroke-width="1.68" stroke-linecap="round" stroke-linejoin="round">
                        <path d="M0,14.6375746 C0,19.1532587 3.40441143,22.814298 7.60486857,22.814298 C11.8053257,22.814298 15.2108114,19.1532587 15.2108114,14.6375746 C15.2108114,9.6303875 9.33661714,6.1273313 7.60486857,0 C5.26077714,6.04504843 0,9.6292904 0,14.6375746 Z" id="Stroke-7"></path>
                        <path d="M7.45017143,20.0957816 C10.2658743,20.0957816 12.5240229,17.6415578 12.5487314,14.613548 C12.5616229,13.0743097 11.7935086,11.7555896 10.8309486,10.4182186" id="Stroke-9"></path>
                    </g>
                </g>
            </g>
        </g>
    </g>
</svg>