<?xml version="1.0" encoding="UTF-8" standalone="no"?>
<svg width="57px" height="25px" viewBox="0 0 57 25" version="1.1" xmlns="http://www.w3.org/2000/svg" xmlns:xlink="http://www.w3.org/1999/xlink">
    <!-- Generator: Sketch 41 (35326) - http://www.bohemiancoding.com/sketch -->
    <title>Shape</title>
    <desc>Created with Sketch.</desc>
    <defs></defs>
    <g id="Configurator-iPad" stroke="none" stroke-width="1" fill="none" fill-rule="evenodd">
        <g id="Hair" transform="translate(-754.000000, -467.000000)" fill="#F97372">
            <path d="M808.853228,481.205638 C809.434453,481.073754 810.406662,480.654758 810.188995,479.919474 C809.848196,478.783284 808.375876,478.371875 807.395497,478.043914 C806.224877,477.651762 804.800409,477.459771 803.950746,476.474723 C803.232385,475.629729 803.246974,474.502293 803.345012,473.448968 C803.425543,472.528695 803.714405,471.78174 803.870215,470.881891 C804.307301,468.363833 801.192845,468.266962 800.431884,470.344433 C799.874001,471.86869 799.433997,473.435547 798.963065,474.991316 C798.584919,476.247719 797.705495,476.914727 796.447341,476.888467 C793.359145,476.826026 790.269199,476.723903 787.19034,476.528994 C785.525446,476.426871 784.896369,475.65774 784.896369,474.01327 C784.896369,472.551454 785.009579,471.090805 784.965812,469.63074 C784.933133,468.586753 784.449946,467.75343 783.303835,467.534595 C782.218999,467.325097 781.257877,468.079056 780.954426,469.471428 C780.748429,470.421463 780.701161,471.40301 780.557022,472.366466 C780.438559,473.168276 780.43039,474.036613 780.094259,474.743303 C778.773665,477.476695 774.8183,477.110219 772.280984,477.117222 C769.943829,477.124225 767.469538,477.409585 766.869056,474.640013 C766.597117,473.371355 766.345019,472.097445 765.889259,470.880724 C765.626658,470.16353 764.327655,469.878753 763.710249,470.179869 C763.019899,470.516 762.83491,471.4211 762.802231,472.116703 C762.7643,472.902173 762.913691,473.685894 762.830825,474.471364 C762.569391,476.877963 760.75919,477.065869 758.740658,477.375155 C757.728183,477.531549 755.290072,477.064702 754.866992,478.406888 C753.80258,481.770524 762.983718,478.373042 763.729507,481.837049 C764.02187,483.198493 763.42839,486.236503 765.248511,486.907012 C766.120933,487.229721 766.536427,485.95406 766.806615,485.294055 C767.162002,484.429803 767.26004,483.505445 767.431607,482.600345 C767.590918,481.767022 767.470705,480.685687 768.119039,480.029183 C768.798302,479.329495 769.939161,479.521486 770.815667,479.498727 C772.808522,479.454961 774.811881,479.48764 776.806486,479.602017 C778.660454,479.71231 779.376481,480.531627 779.485024,482.403102 C779.542212,483.395153 778.962154,486.849824 780.349275,487.345266 C781.451618,487.73625 782.579055,485.849603 782.869084,485.085724 C783.27174,484.02598 783.606703,482.932974 784.068298,481.896573 C784.568992,480.772054 785.498602,480.07295 786.746835,480.104462 C788.510935,480.150563 790.28087,480.199582 792.046137,480.264357 C793.467104,480.320379 795.180434,480.286532 796.469516,480.973965 C796.622409,481.052746 796.756627,481.142614 796.871005,481.236567 C798.311229,482.388513 797.394458,484.492244 797.27016,486.098199 C797.16045,487.48532 795.992165,491.567317 798.743647,491.310551 C800.014055,491.193839 800.550346,489.743694 800.90515,488.711961 C801.331149,487.48532 801.632265,486.217245 801.966645,484.959092 C802.579382,482.668621 803.828782,481.21731 806.430873,481.379539 C807.233851,481.429142 808.071842,481.387125 808.853228,481.205638 Z" id="Shape"></path>
        </g>
    </g>
</svg>