<?xml version="1.0" encoding="UTF-8" standalone="no"?>
<svg width="42px" height="36px" viewBox="0 0 42 36" version="1.1" xmlns="http://www.w3.org/2000/svg" xmlns:xlink="http://www.w3.org/1999/xlink">
    <!-- Generator: Sketch 41 (35326) - http://www.bohemiancoding.com/sketch -->
    <title>Group 29</title>
    <desc>Created with Sketch.</desc>
    <defs></defs>
    <g id="Configurator-iPad" stroke="none" stroke-width="1" fill="none" fill-rule="evenodd">
        <g id="Hair" transform="translate(-759.000000, -339.000000)" fill="#F67272">
            <g id="Group-19" transform="translate(705.000000, 313.000000)">
                <g id="Group-29" transform="translate(54.000000, 25.000000)">
                    <path d="M5.4755112,17.7582218 C3.53811544,17.6226663 0.1671121,19.1908577 0.934440989,20.428584 C1.70176988,21.6663103 4.85955723,23.1885 8.89469706,20.9855463 C12.9298369,18.7825926 7.51824347,17.9011474 5.4755112,17.7582218 Z" id="Path-5"></path>
                    <path d="M16.7015265,1.75589314 C15.4074981,1.60110306 13.0412354,4.53473722 13.5537509,5.94809028 C14.0662665,7.36144335 16.2901176,7.9566989 18.9852745,5.4411578 C21.6804315,2.92561669 18.0659115,1.91909917 16.7015265,1.75589314 Z" id="Path-5-Copy"></path>
                    <path d="M22.191897,29.0080685 C20.2339525,28.7961407 16.6536517,32.8126673 17.4291192,34.7477314 C18.2045867,36.6827955 21.56941,37.4977778 25.6473481,34.0536749 C29.7252862,30.6095721 24.2562953,29.2315188 22.191897,29.0080685 Z" id="Path-5-Copy-2"></path>
                    <path d="M27.9552115,1.60094882 C26.3566233,1.42791778 23.4334424,4.70726074 24.0665824,6.28716783 C24.6997225,7.86707493 27.4469742,8.53247729 30.7764574,5.7204968 C34.1059405,2.90851632 29.640715,1.78338758 27.9552115,1.60094882 Z" id="Path-5-Copy-3" transform="translate(27.978397, 4.622680) rotate(-30.000000) translate(-27.978397, -4.622680) "></path>
                    <path d="M38.4812313,12.3321001 C37.1872029,12.207711 34.8209402,14.5651757 35.3334558,15.7009445 C35.8459713,16.8367133 38.0698224,17.3150599 40.7649794,15.2935742 C43.4601364,13.2720885 39.8456163,12.4632523 38.4812313,12.3321001 Z" id="Path-5-Copy-5" transform="translate(38.500000, 14.504372) rotate(-30.000000) translate(-38.500000, -14.504372) "></path>
                    <path d="M22.7842247,14.9143909 C20.8931153,14.7185797 17.4350295,18.42966 18.1840261,20.2175675 C18.9330227,22.0054751 22.1829865,22.7584801 26.1217227,19.5762922 C30.0604589,16.3941044 24.778154,15.1208484 22.7842247,14.9143909 Z" id="Path-5-Copy-4" transform="translate(22.811654, 18.333943) rotate(-30.000000) translate(-22.811654, -18.333943) "></path>
                </g>
            </g>
        </g>
    </g>
</svg>