<?xml version="1.0" encoding="UTF-8" standalone="no"?>
<svg width="16px" height="23px" viewBox="0 0 16 23" version="1.1" xmlns="http://www.w3.org/2000/svg" xmlns:xlink="http://www.w3.org/1999/xlink">
    <!-- Generator: Sketch 41 (35326) - http://www.bohemiancoding.com/sketch -->
    <title>Group 12</title>
    <desc>Created with Sketch.</desc>
    <defs></defs>
    <g id="Icons" stroke="none" stroke-width="1" fill="none" fill-rule="evenodd">
        <g id="Icons-Cat" transform="translate(-489.000000, -46.000000)" fill="#2BB0D4">
            <g id="Group-12" transform="translate(489.000000, 46.000000)">
                <path d="M12.1819596,16.3426644 C12.3447849,16.4464216 12.5173197,16.5897624 12.6153642,16.6977473 C12.5577349,16.7257137 12.4896669,16.7546446 12.4362709,16.777307 C12.1220999,16.9103888 11.6917563,17.092653 11.5875137,17.5627787 C11.4885145,18.0092777 11.372823,18.4364894 11.1882458,19.0363217 C11.064136,19.4394244 10.5432115,20.0006823 9.673577,19.7899695 C9.41684288,19.7277683 9.1762238,19.6371184 8.92151007,19.5406823 C8.13086328,19.2426949 7.23472315,18.9046865 5.92560524,19.5652735 C4.27157752,20.3999276 3.59667033,22.2616257 3.56876968,22.3402211 C3.47987243,22.591437 3.61081308,22.866762 3.86114929,22.9559653 C3.91435295,22.9752525 3.96866301,22.9839318 4.02205909,22.9839318 C4.21996132,22.9839318 4.40540445,22.8604936 4.47539661,22.6627997 C4.48097674,22.6473699 5.04524341,21.0894454 6.35820968,20.4269297 C7.29066877,19.9563217 7.8608523,20.1713741 8.58270955,20.4433238 C8.85339399,20.545546 9.13331452,20.6511435 9.44738929,20.727328 C9.65563399,20.7779569 9.85608576,20.8011016 10.0475901,20.8011016 C11.094057,20.8011016 11.866857,20.1029045 12.1076204,19.3208081 C12.292823,18.7185649 12.416548,18.2633867 12.5185778,17.8086907 C12.5748601,17.7652945 12.7204727,17.7035754 12.8109093,17.6654831 C13.0994405,17.5430093 13.458445,17.3911226 13.5996319,17.0188794 C13.6992565,16.7565733 13.637875,16.5058395 13.5043848,16.2840366 C13.7976303,16.1972441 14.0744722,16.0366781 14.1611085,15.7184391 C14.2880084,15.2521708 14.043108,14.9257347 13.8810918,14.7092358 C13.7105129,14.4821288 13.6466782,14.3967829 13.7587137,14.1253154 C13.8129276,13.9941624 13.8186039,13.9806613 14.2130614,13.9700534 C14.37248,13.9657137 14.5532089,13.9608919 14.7543822,13.929068 C15.3520335,13.8340785 15.6445093,13.5495922 15.7845417,13.3277892 C15.9104314,13.1281666 16.0318954,12.7925691 15.8957595,12.3272651 C15.7719383,11.9039108 15.4366013,11.4506613 15.0483012,10.925567 C14.5108288,10.1984391 13.9016324,9.37487517 13.860936,8.62219174 C13.8313997,8.07636364 13.9412706,7.56959216 14.0381532,7.12261102 C14.0861135,6.90129027 14.131428,6.6925062 14.1534118,6.50252717 C14.2339869,5.80625882 14.1733271,4.57669907 13.7371148,3.4026865 C13.1279665,1.76341815 11.9369454,0.595963225 10.2926829,0.0265565161 C10.0416251,-0.0603805909 9.76771765,0.0731351324 9.680937,0.324833246 C9.59415635,0.576531359 9.72740602,0.851084818 9.9785119,0.938021925 C13.6384042,2.20552926 13.2025767,6.34967601 13.1977182,6.39114352 C13.1811702,6.53386889 13.1426384,6.71179341 13.0979974,6.9176844 C12.9936105,7.39938251 12.8637281,7.99873262 12.9002395,8.67426721 C12.956618,9.71625882 13.6878557,10.7052106 14.2754531,11.4998437 C14.5809652,11.9130722 14.8969161,12.340284 14.9725365,12.5987326 C14.9918264,12.6647913 15.0073642,12.7554412 14.9715744,12.8118563 C14.9249611,12.8856299 14.7874782,12.947349 14.6037187,12.9762798 C14.4647446,12.9984601 14.3237982,13.0023175 14.1875179,13.0056928 C13.7817558,13.0167829 13.1685668,13.0331771 12.8697412,13.7569297 C12.5477773,14.5366152 12.9010092,15.0072232 13.1120439,15.2888165 C13.1310452,15.314372 13.1541835,15.3452316 13.1752533,15.3746446 C13.0287821,15.4088422 12.8066954,15.4352099 12.5882428,15.4433986 C12.2446635,15.3747951 11.7422642,15.2462706 11.4351778,15.0634092 C11.206681,14.9274344 10.9115595,15.0031367 10.7759527,15.2316902 C10.6403459,15.4607258 10.7156295,15.7567845 10.9440782,15.8927593 C11.3135045,16.1124344 11.8050981,16.2563333 12.1819596,16.3426644 Z M1.86846212,6.76321909 L1.77085793,6.77575577 C0.625343686,6.92233858 -0.12816638,7.89875368 0.0181196333,9.04730714 C0.0888814634,9.60277883 0.250897673,10.0005776 0.393768261,10.3516048 C0.521341594,10.6645398 0.631549176,10.935043 0.676959895,11.2913742 C0.756284339,11.9143512 1.09893323,12.4302841 1.57112774,12.6381038 C1.71943414,12.7031981 1.87322447,12.7359864 2.02831362,12.7359864 C2.28273872,12.7359864 2.54053114,12.6487117 2.78259336,12.4770556 C2.94523493,12.3613323 2.98371859,12.1356719 2.86860434,11.972695 C2.75349009,11.809718 2.52831257,11.7711436 2.36567101,11.8863847 C2.18595231,12.0141625 2.01623937,12.0440577 1.86134264,11.9760702 C1.62702525,11.8728837 1.43869584,11.560913 1.39270787,11.19976 C1.33531911,10.7494036 1.19629689,10.4080199 1.0618446,10.0782086 C0.923447738,9.7382715 0.792699503,9.41713942 0.733867607,8.95569288 C0.638139503,8.2039738 1.11269114,7.58919393 1.86220852,7.49324005 L1.95981271,7.48070336 C2.3497965,7.43055661 2.62760042,7.65814571 2.75849297,7.79846018 C2.9701531,8.02460273 3.08353558,8.32500106 3.0406263,8.54583963 C3.03947179,8.55162579 3.03846159,8.55789414 3.03759571,8.5636803 C2.9912229,8.89011636 2.90352826,9.13747485 2.81554499,9.33420441 C2.71380382,9.21992768 2.59878578,9.12783124 2.47029846,9.05887946 C2.03942578,8.82695074 1.70591676,8.9306195 1.59085061,8.96581867 C1.47578447,9.00101783 1.28957166,9.17219183 1.3625944,9.41569288 C1.44114918,9.67751678 1.67979597,9.66498009 1.81217976,9.65437213 C1.94461166,9.64328198 1.97578342,9.60904718 2.13789584,9.70066143 C2.30914813,9.79806185 2.4465348,10.0227579 2.53519153,10.3516048 C2.57867806,10.5131352 2.72429061,10.6192149 2.88327623,10.6192149 C2.914448,10.6192149 2.94610081,10.6148753 2.97765741,10.6066782 C3.16074342,10.5570136 3.27229793,10.3747495 3.23780695,10.1910388 C3.24295414,10.1635545 3.24531127,10.1351059 3.24386813,10.1061751 C3.25695257,10.0676006 3.2992846,9.98514781 3.333968,9.91764257 C3.46553401,9.66112265 3.6641097,9.27393187 3.75074604,8.67409959 C3.83406316,8.22518974 3.65622055,7.70105976 3.28509375,7.30374319 C2.90213323,6.89388994 2.38573061,6.6966782 1.86846212,6.76321909 Z" id="Combined-Shape" fill-opacity="0.6"></path>
                <path d="M4.74265625,12.1591661 C4.72546875,10.099467 5.795625,10.4649251 5.795625,10.4649251 L8.41018791,11.8000442 C8.41018791,11.8000442 9.53895425,12.3129258 9.29091503,14.0412408 C9.04287582,15.7695558 8.69984375,17.3292372 8.69984375,17.3292372 C8.69984375,17.3292372 8.029375,18.3771023 7.00671875,17.5750597 C5.9840625,16.773017 5.08828125,14.3545668 5.08828125,14.3545668 C5.08828125,14.3545668 4.74265625,13.8513794 4.74265625,12.1591661 Z" id="Path-2" stroke="#2BB0D4" stroke-width="1.43" stroke-linecap="round" stroke-linejoin="round"></path>
            </g>
        </g>
    </g>
</svg>