<?xml version="1.0" encoding="UTF-8" standalone="no"?>
<svg width="28px" height="24px" viewBox="0 0 28 24" version="1.1" xmlns="http://www.w3.org/2000/svg" xmlns:xlink="http://www.w3.org/1999/xlink">
    <!-- Generator: Sketch 41 (35326) - http://www.bohemiancoding.com/sketch -->
    <title>Group 15</title>
    <desc>Created with Sketch.</desc>
    <defs></defs>
    <g id="Configurator-iPad" stroke="none" stroke-width="1" fill="none" fill-rule="evenodd">
        <g id="Hair-Diagnostik" transform="translate(-416.000000, -457.000000)">
            <g id="Group-19" transform="translate(381.000000, 390.000000)">
                <g id="Group-15" transform="translate(35.000000, 68.000000)">
                    <g id="Group-18" transform="translate(0.000000, 4.000000)" fill="#B2B2B2">
                        <rect id="Rectangle-15" x="16" y="4" width="3" height="3" rx="1.5"></rect>
                        <rect id="Rectangle-15-Copy" x="10" y="10" width="7" height="7" rx="3.5"></rect>
                        <rect id="Rectangle-15-Copy-2" x="0" y="14" width="5" height="5" rx="2.5"></rect>
                        <rect id="Rectangle-15-Copy" x="19" y="14" width="5" height="5" rx="2.5"></rect>
                        <rect id="Rectangle-15-Copy" x="1" y="0" width="8" height="8" rx="4"></rect>
                    </g>
                    <g id="Stroke-7644-+-Stroke-7645" transform="translate(13.000000, 0.000000)" stroke="#B2B2B2" stroke-width="1.6" stroke-linecap="round" stroke-linejoin="round">
                        <path d="M13.44,4.80434783 C12.9908333,3.46817391 11.50975,2.73734783 10.1313333,3.17086957 C9.95225,3.22795652 9.7825,3.30256522 9.625,3.39130435 C9.66291667,3.21834783 9.6845,3.03973913 9.6845,2.85604348 C9.6845,1.45147826 8.50908333,0.312565217 7.0595,0.312565217 C5.60933333,0.312565217 4.4345,1.45147826 4.4345,2.85604348 C4.4345,3.03973913 4.4555,3.21834783 4.49341667,3.39017391 C4.33591667,3.30256522 4.16733333,3.22795652 3.98708333,3.17086957 C2.60808333,2.73734783 1.12758333,3.46873913 0.679583333,4.80434783 C0.231583333,6.13995652 0.98525,7.57504348 2.36483333,8.00913043 C2.5445,8.06621739 2.7265,8.10182609 2.90733333,8.11991304 C2.772,8.23804348 2.64658333,8.37030435 2.53575,8.5183913 C1.6835,9.65504348 1.94366667,11.2455652 3.11616667,12.0713478 C4.28866667,12.8971304 5.93075,12.6444783 6.783,11.5083913 C6.89383333,11.3597391 6.98541667,11.2037391 7.0595,11.0426522 C7.133,11.2037391 7.22458333,11.3597391 7.33541667,11.5083913 C8.18766667,12.6444783 9.83033333,12.8965652 11.00225,12.0713478 C12.1765,11.2455652 12.4349167,9.65504348 11.5826667,8.5183913 C11.4718333,8.37030435 11.3464167,8.23804348 11.2110833,8.11991304 C11.3919167,8.10182609 11.5739167,8.06621739 11.7535833,8.00913043 C13.1325833,7.57504348 13.8874167,6.13995652 13.44,4.80434783 L13.44,4.80434783 Z" id="Stroke-7645" fill="#FFFFFF"></path>
                        <path d="M9.10093333,6.81239565 C9.10093333,7.90552609 8.18685,8.79065652 7.05926667,8.79065652 C5.9311,8.79065652 5.0176,7.90552609 5.0176,6.81239565 C5.0176,5.71983043 5.9311,4.83413478 7.05926667,4.83413478 C8.18685,4.83413478 9.10093333,5.71983043 9.10093333,6.81239565 L9.10093333,6.81239565 Z" id="Stroke-7644"></path>
                    </g>
                </g>
            </g>
        </g>
    </g>
</svg>