<?xml version="1.0" encoding="UTF-8" standalone="no"?>
<svg width="134px" height="133px" viewBox="0 0 134 133" version="1.1" xmlns="http://www.w3.org/2000/svg" xmlns:xlink="http://www.w3.org/1999/xlink">
    <!-- Generator: Sketch 41 (35326) - http://www.bohemiancoding.com/sketch -->
    <title>softlifting</title>
    <desc>Created with Sketch.</desc>
    <defs></defs>
    <g id="Configurator-iPad" stroke="none" stroke-width="1" fill="none" fill-rule="evenodd" opacity="0.224347015">
        <g id="2-copy" transform="translate(-194.000000, -190.000000)" fill="#FFFFFF">
            <g id="Group-2" transform="translate(20.000000, 145.000000)">
                <g id="softlifting" transform="translate(174.725000, 45.214724)">
                    <path d="M83.1352419,132.600373 C86.8303885,123.113999 95.0472473,120.439829 102.235216,120.111897 C119.302934,119.326061 122.333675,112.874846 123.00221,97.7452566 C123.23081,92.5419128 124.858416,90.0484247 128.192832,86.7292834 L129.468716,85.4769048 C133.928868,81.1300167 133.959648,79.732266 129.701821,74.8020113 C129.068196,74.0646331 128.315953,73.1950301 127.445094,72.1409886 C121.678278,65.1417173 121.466945,59.5995477 121.198555,52.5826214 C121.0668,49.0899351 120.917027,45.1322084 120.041663,40.6072677 C119.069454,35.5733368 115.85403,30.3966633 113.170883,27.2315337 C112.449421,26.3840934 111.68404,25.5610696 110.874366,24.7598328 C109.845101,25.3848951 108.587234,25.7875795 107.021189,25.7875795 C106.286589,25.7875795 105.61355,25.6820251 104.971291,25.5280134 C106.739661,26.9742214 108.349625,28.5124609 109.735117,30.1479907 C112.642736,33.5794479 114.95652,38.0209969 115.620925,41.4633477 C116.426095,45.6475844 116.566859,49.2616019 116.698614,52.7542882 C116.971508,59.9958462 117.230889,66.8343442 123.969915,75.0108663 C124.867425,76.093832 125.641439,76.9919835 126.292707,77.7492706 C127.128281,78.7154127 127.986003,79.7078495 128.285173,80.2119563 C127.964231,80.6499507 127.132786,81.4598272 126.323487,82.2501705 L125.016823,83.5333515 C121.110718,87.4204581 118.79243,90.959348 118.502269,97.5472951 C117.921571,110.649564 116.518436,114.941609 102.028387,115.608743 C95.843408,115.89235 83.0166249,118.276152 78.3714158,132.600373 L83.1352419,132.600373 Z" id="Fill-1"></path>
                    <path d="M40.0307043,132.600373 C40.9589953,128.508543 42.2123572,124.703326 43.457461,120.972484 C44.631995,117.433219 45.7490975,114.090037 46.5411291,110.612376 C46.7434537,109.736387 46.8620708,108.878053 46.9457784,108.026105 C46.2156829,108.318728 45.4544317,108.541106 44.6627754,108.604964 C43.9018995,108.666569 43.1320148,108.563268 42.375268,108.387094 C42.3137072,108.789778 42.247642,109.19697 42.1507965,109.606416 C41.4030586,112.872593 40.3253701,116.114728 39.1816163,119.548439 C37.8531804,123.5411 36.4410368,127.848546 35.4384224,132.600373 L40.0307043,132.600373 Z" id="Fill-4"></path>
                    <path d="M105.353943,70.5914048 C102.864111,70.5914048 99.8555173,70.0940595 96.3187771,68.6786538 L97.9903016,64.492539 C106.871566,68.0472056 111.019785,64.6067331 111.191329,64.4549751 L114.208932,67.802665 C114.037388,67.9611844 111.076841,70.5914048 105.353943,70.5914048" id="Fill-6"></path>
                    <path d="M68.0163344,95.0908074 C67.9416356,95.0908074 67.8669369,95.0908074 67.7918628,95.0885536 C64.026522,94.9762377 62.0164133,92.216422 60.0764989,89.5486378 C59.1437034,88.2677107 58.1805029,86.944712 56.9928308,85.844467 C51.5863705,80.8481 51.2830712,74.0182417 51.8814116,71.1044143 C52.9722381,65.7162563 56.3944904,62.5732894 61.510414,62.2539968 C64.0043752,62.0977312 66.3842237,62.9230088 68.244935,64.5694322 C70.1101506,66.2158555 71.2186195,68.489595 71.3683923,70.9676819 L66.8725806,71.2452787 C66.7933775,69.9662298 66.2258174,68.7953647 65.2626169,67.9456705 C64.3035454,67.096352 63.0674506,66.6756369 61.7919418,66.7530185 C58.7698345,66.9419646 56.970684,68.659008 56.2935157,72.004444 C55.9545562,73.6572532 55.9721986,78.7659361 60.0498476,82.5339654 C61.5633412,83.9339699 62.7067196,85.5075193 63.7187183,86.8943765 C65.4078852,89.2207054 66.4416554,90.5369425 67.9239932,90.5808922 C68.9487545,90.6646596 69.6660874,90.1098416 69.7715665,89.2361066 L74.2407269,89.7950566 C73.8492155,92.9402773 71.3023271,95.0908074 68.0163344,95.0908074" id="Fill-8"></path>
                    <path d="M75.1645135,85.7365461 C74.5706775,84.3256481 74.0252643,82.8490133 73.5324029,81.3434544 L77.8127519,79.9434499 C78.2699531,81.3344391 78.771448,82.6968798 79.3172366,83.993208 L75.1645135,85.7365461 Z M79.6160315,94.0498006 C78.7451721,92.7598582 77.9268646,91.3951637 77.1791266,89.993281 L81.155801,87.871675 C81.8288402,89.1394548 82.5679446,90.3696707 83.3509673,91.5318961 L79.6160315,94.0498006 Z M85.7747342,101.284597 C84.6133381,100.208017 83.5089983,99.0461676 82.4797325,97.8354849 L85.9154981,94.9212818 C86.8257714,95.9952321 87.8111188,97.0256084 88.8407599,97.9827352 L85.7747342,101.284597 Z M93.4814646,106.883864 C92.082459,106.10479 90.7277471,105.241948 89.4563674,104.315248 L92.1046058,100.670428 C93.2307171,101.488944 94.4270227,102.252993 95.6721264,102.944168 L93.4814646,106.883864 Z M102.292159,110.493374 C100.765903,110.066648 99.252785,109.54714 97.7877142,108.950627 L99.4903945,104.777283 C100.796684,105.309939 102.147266,105.77235 103.506483,106.152871 L102.292159,110.493374 Z M111.802545,111.917419 L111.622367,111.917419 C111.006384,111.917419 109.321722,111.877977 106.955011,111.507973 L107.650197,107.053277 C109.761656,107.383463 111.226351,107.409758 111.622367,107.409758 L111.802545,111.917419 Z" id="Fill-10"></path>
                    <path d="M113.232293,80.075562 L109.660268,77.3288936 C110.773241,75.8826856 110.883225,74.5134834 110.887729,74.5003361 L115.38767,74.6588555 C115.379037,74.9383305 115.233768,77.469758 113.232293,80.075562 L113.232293,80.075562 Z M104.192622,85.1906307 L103.304121,80.7712444 C104.689613,80.4913937 105.917074,80.0778158 106.950844,79.5361452 L109.035652,83.5333139 C107.623884,84.2706922 105.996277,84.8273884 104.192622,85.1906307 L104.192622,85.1906307 Z M98.5575614,85.705631 C97.2951907,85.705631 95.9622503,85.6395187 94.576758,85.5121772 L94.9945453,81.0221709 C96.2437781,81.1386188 97.4359546,81.1979697 98.539919,81.1979697 L99.2396095,81.18933 L99.3229418,85.6969914 L98.5620659,85.705631 L98.5575614,85.705631 Z" id="Fill-12"></path>
                    <path d="M97.6999151,39.5858316 L96.0062437,35.4083564 C97.4844524,34.8073349 99.0238466,34.3054819 100.576754,33.913691 L101.676589,38.2849956 C100.326007,38.6260753 98.9844327,39.0618159 97.6999151,39.5858316 M90.4638992,43.7723221 L87.6970437,40.2154016 C88.963919,39.2293507 90.3054929,38.3248133 91.6823516,37.5235765 L93.9432078,41.4238305 C92.7378933,42.1213911 91.5678637,42.9117344 90.4638992,43.7723221 M84.529668,49.7588721 L80.9666519,47.0031884 C81.9474948,45.7331548 83.0075409,44.5228477 84.1160098,43.4000644 L87.3186703,46.5742093 C86.337452,47.5643922 85.4005274,48.6364644 84.529668,49.7588721 M80.2714658,56.9361959 L76.0616864,55.3404838 C76.0883377,55.2657317 76.7700104,53.474312 78.2744951,50.9518998 L82.141186,53.2628275 C80.8611728,55.4111038 80.2804747,56.9230486 80.2714658,56.9361959" id="Fill-14"></path>
                    <path d="M88.6426394,3.27583023 C65.6496988,-3.34930511 42.5467747,1.2620325 27.8941899,15.2801082 C16.7344269,12.2535892 5.31040307,17.2897739 1.36901351,27.2205275 C-2.56374253,37.1272404 2.24437736,48.594731 12.3572322,54.0730421 C12.1199981,64.4771002 12.999491,107.427601 43.6289677,110.498069 C44.0073411,110.535257 44.3767056,110.555166 44.741941,110.555166 C57.4546115,110.552912 61.3697252,87.9747878 61.783008,85.3291662 L56.5484673,84.51065 C55.6731035,90.1185564 51.5733076,105.926174 44.1567385,105.224105 C16.1405908,102.413579 17.4645223,57.6780443 17.7107654,52.5870164 L17.794473,50.7888351 L16.1578579,50.045071 C7.53184529,46.1294158 3.19894438,36.9645889 6.29124601,29.1794821 C9.37941857,21.4033905 18.8192342,17.718753 27.7710684,20.784714 L29.3547562,21.3286385 L30.5247859,20.1311031 C43.7344468,6.61713423 65.4473742,2.11135103 87.177944,8.36911196 C96.6530445,11.0981253 106.325965,16.3232561 107.135639,23.2147191 C75.4108316,22.7744709 72.0148553,36.3966236 69.225853,47.5602227 C68.7727809,49.3760589 68.4079208,50.9740249 68.0866037,52.3890549 C66.4589975,59.5532314 66.2127545,60.6538521 61.1583916,62.5072522 L61.9545523,64.6818232 C62.0690403,64.6773155 62.1658858,64.648767 62.2845029,64.648767 C63.9605319,64.648767 65.3726755,65.1108023 66.5558431,65.8372871 C71.0647927,63.1762643 71.8831003,59.6039426 73.2554546,53.5644276 C73.5677628,52.1820781 73.9239893,50.6194222 74.4033374,48.6935239 C77.1307789,37.7789731 79.6866762,27.4759617 109.590186,28.5807144 L111.917108,28.6689894 L112.29961,26.3689552 C113.923087,16.6425488 105.076732,8.00812341 88.6426394,3.27583023" id="Fill-16"></path>
                    <path d="M18.9161174,31.3452631 C12.7003583,43.483644 12.423335,52.0369314 12.4147014,52.3956662 L17.7108029,52.5320229 C17.7153073,52.455017 18.0144776,44.7296367 23.6318961,33.7621209 L18.9161174,31.3452631 Z" id="Fill-19"></path>
                </g>
            </g>
        </g>
    </g>
</svg>