<?xml version="1.0" encoding="UTF-8" standalone="no"?>
<svg width="58px" height="52px" viewBox="0 0 58 52" version="1.1" xmlns="http://www.w3.org/2000/svg" xmlns:xlink="http://www.w3.org/1999/xlink">
    <!-- Generator: Sketch 41 (35326) - http://www.bohemiancoding.com/sketch -->
    <title>Group 38</title>
    <desc>Created with Sketch.</desc>
    <defs></defs>
    <g id="Icons" stroke="none" stroke-width="1" fill="none" fill-rule="evenodd">
        <g id="Icons-Subcat" transform="translate(-4197.000000, -42.000000)" fill="#2BB0D4">
            <g id="Group-38" transform="translate(4197.000000, 45.000000)">
                <g id="Group-21" transform="translate(0.000000, 4.000000)">
                    <path d="M55.3811431,24.5013898 L54.1252275,45 L56.7506371,45 L58,24.579549 C58,18.4682704 53.2078631,16.0233714 50.6763742,15.5841293 C42.4572261,14.1283863 37.8682199,10.4772941 36.6210411,9.35937989 L36.6210411,1 C35.8281762,1.89829314 34.9523116,2.62498043 34,3.18759787 L34,10.4142069 L34.3494722,10.7849789 C34.5591554,11.0071837 39.576265,16.2427772 50.217692,18.1276425 C50.2701129,18.1377623 55.3789589,19.0864391 55.3811431,24.5013898 Z" id="Fill-49"></path>
                    <path d="M3.87075697,44 L2.61909596,23.6414162 C2.61909596,18.1623726 7.72403801,17.2191459 7.7808324,17.2090568 C18.4210432,15.329902 23.4407937,10.1101706 23.6483117,9.88863899 L24,9.51899031 L24,2.24129032 C23.0476017,1.6627751 22.1694731,0.918111166 21.3787204,0 L21.3787204,8.46735912 C20.1292438,9.58424768 15.5354513,13.221917 7.32210846,14.6708884 C4.78820484,15.108585 -0.00218365288,17.5460768 7.46801682e-07,23.7193386 L1.24729296,44 L3.87075697,44" id="Fill-50"></path>
                    <path d="M9.38577586,45 L12,45 C11.3814655,41.001761 10.825431,36.263042 10.6336207,31.3207132 L10.5818966,30 L8,30.1058772 L8.04956897,31.4265904 C8.23922414,36.3121285 8.77801724,40.9991195 9.38577586,45" id="Fill-51"></path>
                    <path d="M18.2278892,44 C17.7433639,44 17.2544338,43.9663388 16.7655037,43.8987949 C14.7635331,43.6186539 8.22244117,41.9420156 8,32.0595715 L10.6428654,32 C10.8102469,39.5700076 15.2348441,41.0026021 17.1266953,41.2648052 C20.3553959,41.7190101 23.7206445,40.011368 24.4738611,37.5381549 L27,38.3192279 C25.9736873,41.6851274 22.2758781,44 18.2278892,44" id="Fill-52"></path>
                    <path d="M48.6128164,45 C49.2202477,40.9991195 49.7587507,36.3121285 49.9483037,31.4265904 L50,30.1058772 L47.4151858,30 L47.3656435,31.3207132 C47.1739365,36.263042 46.6182014,41.001761 46,45 L48.6128164,45" id="Fill-53"></path>
                    <path d="M39.7744814,44 C35.7252289,44 32.0304786,41.6851274 31,38.3192279 L33.5277552,37.5381549 C34.2807973,40.0087106 37.6430641,41.7190101 40.8732182,41.2648052 C42.7668328,41.0026021 47.1882026,39.5700076 47.3577471,32 L50,32.0595715 C49.7776104,41.9420156 43.2358327,43.6186539 41.236528,43.8987949 C40.7477112,43.9663388 40.2566925,44 39.7744814,44" id="Fill-54"></path>
                </g>
                <polygon id="Star-Copy" stroke="#FFFFFF" stroke-width="2" points="39.1084521 17.5201767 32.2430512 21.1295316 33.5542261 13.4847952 28 8.07076289 35.6757516 6.95541089 39.1084521 0 42.5411526 6.95541089 50.2169043 8.07076289 44.6626782 13.4847952 45.9738531 21.1295316"></polygon>
            </g>
        </g>
    </g>
</svg>