<?xml version="1.0" encoding="UTF-8" standalone="no"?>
<svg width="59px" height="35px" viewBox="0 0 59 35" version="1.1" xmlns="http://www.w3.org/2000/svg" xmlns:xlink="http://www.w3.org/1999/xlink">
    <!-- Generator: Sketch 41 (35326) - http://www.bohemiancoding.com/sketch -->
    <title>Group 25</title>
    <desc>Created with Sketch.</desc>
    <defs></defs>
    <g id="Configurator-iPad" stroke="none" stroke-width="1" fill="none" fill-rule="evenodd">
        <g id="Hair" transform="translate(-754.000000, -220.000000)" stroke="#F67272">
            <g id="Group-16" transform="translate(705.000000, 193.000000)">
                <g id="Group-25" transform="translate(50.000000, 28.000000)">
                    <path d="M56.8638832,3.20512821 L40.6545401,0.205128205 C40.6545401,0.205128205 33.8920292,0.142769231 38.7730219,6.35897436 C42.1019562,10.5981538 43.1148613,13.6069744 43.1148613,17.4358974 C43.1148613,21.2648205 39.7863358,31.9314872 28.9317372,31.9314872 C18.0775474,31.9314872 14.7490219,21.2648205 14.7490219,17.4358974 C14.7490219,13.6069744 15.761927,10.5981538 19.0908613,6.35897436 C23.971854,0.142769231 17.2089343,0.205128205 17.2089343,0.205128205 L1,3.20512821" id="Stroke-1" stroke-width="2.2" stroke-linecap="round" stroke-linejoin="round"></path>
                    <path d="M39.696,16.0685128 C39.696,16.0685128 39.9682336,25.6410256 30.9755328,28.7864615" id="Stroke-3" stroke-width="2.2" stroke-linecap="round" stroke-linejoin="round"></path>
                    <path d="M19.5,1.5 L0.5,18.5" id="Line" stroke-opacity="0.25501019" stroke-linecap="square"></path>
                    <path d="M8.5,2.5 L1.5,8.5" id="Line" stroke-opacity="0.25501019" stroke-linecap="square"></path>
                    <path d="M14.5,16.5 L1.5,27.5" id="Line-Copy-6" stroke-opacity="0.25501019" stroke-linecap="square"></path>
                    <path d="M17.5,24.5 L9.5,31.5" id="Line-Copy-7" stroke-opacity="0.25501019" stroke-linecap="square"></path>
                    <path d="M52.5,3.5 L42.5,12.5" id="Line" stroke-opacity="0.25501019" stroke-linecap="square"></path>
                    <path d="M45.5,1.5 L39.5,6.5" id="Line" stroke-opacity="0.25501019" stroke-linecap="square"></path>
                    <path d="M55.5,20.5 L44.5,29.5" id="Line-Copy-8" stroke-opacity="0.25501019" stroke-linecap="square"></path>
                    <path d="M56.5,9.5 L43.5,20.5" id="Line-Copy-6" stroke-opacity="0.25501019" stroke-linecap="square"></path>
                </g>
            </g>
        </g>
    </g>
</svg>