<?xml version="1.0" encoding="UTF-8" standalone="no"?>
<svg width="35px" height="44px" viewBox="0 0 35 44" version="1.1" xmlns="http://www.w3.org/2000/svg" xmlns:xlink="http://www.w3.org/1999/xlink">
    <!-- Generator: Sketch 41 (35326) - http://www.bohemiancoding.com/sketch -->
    <title>Group 7</title>
    <desc>Created with Sketch.</desc>
    <defs></defs>
    <g id="Icons" stroke="none" stroke-width="1" fill="none" fill-rule="evenodd">
        <g id="Icons-Subcat" transform="translate(-883.000000, -280.000000)" fill="#2BB0D4">
            <g id="Group-7" transform="translate(883.000000, 280.000000)">
                <path d="M34.4966359,28.150149 C33.5482426,25.3661309 31.3830902,23.4631061 28.5449877,22.9118645 C28.3320791,22.6685237 27.1916221,21.0306907 26.0556249,12.9766049 C25.3092814,7.68468621 25.0285057,2.76423474 25.1964282,1.23962978 C25.2639074,0.627801336 24.8345999,0.0765598006 24.2376609,0.00703384118 C23.6401401,-0.0614988902 23.1020514,0.37850111 23.0346692,0.989336324 C22.8061512,3.06319637 23.2298354,8.76233858 23.9991567,13.9648668 C24.4240044,16.8372821 24.9179794,19.293535 25.4276609,21.0684334 C26.1804032,23.6885688 26.9647523,24.8893815 28.0501401,25.0850474 C30.9214974,25.6015259 32.0346138,27.6873047 32.4425916,28.8841445 C33.1144753,30.8566952 32.8457218,33.0864921 31.7890321,34.3071693 C31.3077578,34.863377 30.7038381,35.1474402 29.9871622,35.1593589 C30.1196969,34.941842 30.181165,34.6776433 30.1417052,34.4054989 C30.0536719,33.7966501 29.495514,33.3506907 28.9063312,33.4659052 C28.0871761,33.6268081 25.4831179,33.9744379 23.0145999,38.270149 C21.9309573,40.1562889 20.8386858,41.68586 17.7136996,41.68586 L17.2902093,41.68586 C14.1652232,41.68586 13.1569129,40.1036478 11.9893091,38.270149 C11.5826886,37.6324966 9.73505699,33.7052731 6.07944757,33.4659052 C5.48008469,33.4271693 4.92851959,33.7956569 4.84048635,34.4045056 C4.79860269,34.693535 4.86947527,34.972632 5.01810408,35.1961083 C3.76343649,35.3043702 2.93536169,34.8733092 2.50110962,33.8840542 C1.71230075,32.0882979 2.47871349,29.4602167 3.1887966,28.9298329 C3.67423981,28.5682979 3.78108192,27.8710519 3.42730075,27.3734447 C3.07351959,26.8758375 2.39310408,26.7665824 1.90756391,27.1291106 C0.13255006,28.4540767 -0.569195092,32.3246862 0.517065295,34.7988171 C0.963145628,35.8138961 1.68854729,36.5806682 2.61512624,37.0147088 C3.6256664,37.4874853 4.85328413,37.5669435 6.26414286,37.2501038 C7.54673289,36.9620677 8.28609577,37.1835575 8.90824258,37.7775079 C8.94702374,37.8222031 9.75502928,38.8412551 10.1675639,39.4888397 C11.3575639,41.3561083 12.9873423,43.9146636 17.2902093,43.9146636 L17.7136996,43.9146636 C22.0166636,43.9146636 23.646442,41.3561083 24.836442,39.4888397 C25.9559573,37.7318194 26.5730625,36.7634221 28.7398631,37.2501038 C30.5808049,37.6632867 32.2418021,37.1438284 33.4168714,35.7860858 C34.996719,33.9605327 35.4306803,30.8914582 34.4966359,28.150149" id="Fill-109" fill-opacity="0.550130208"></path>
                <path d="M8.11109577,21.4637381 C8.21153898,21.493535 8.31275782,21.5074402 8.41232845,21.5074402 C8.88487693,21.5074402 9.32000158,21.1896072 9.45718995,20.700939 C11.5565113,13.2249119 11.4843783,1.59719185 11.4803063,1.105544 C11.4751678,0.493715557 10.9891429,0.00107447324 10.3927855,0.00107447324 L10.3832841,0.00107447324 C9.78266086,0.00604061319 9.29983538,0.509607205 9.30487693,1.12441533 C9.30584646,1.24161623 9.37778552,12.9219774 7.36640048,20.0851377 C7.20032014,20.6761083 7.5337412,21.2938961 8.11109577,21.4637381" id="Fill-110" fill-opacity="0.550130208"></path>
                <path d="M14.280888,2.43646951 C13.8793091,2.43646951 13.5537412,2.1027449 13.5537412,1.69154851 L13.5537412,1.46111962 C13.5537412,1.04893 13.8793091,0.716198627 14.280888,0.716198627 C14.682467,0.716198627 15.0080348,1.04893 15.0080348,1.46111962 L15.0080348,1.69154851 C15.0080348,2.1027449 14.682467,2.43646951 14.280888,2.43646951 Z M20.5163174,2.70265461 C20.1147384,2.70265461 19.7891706,2.36893 19.7891706,1.95773362 L19.7891706,1.46111962 C19.7891706,1.04893 20.1147384,0.716198627 20.5163174,0.716198627 C20.9178963,0.716198627 21.2434642,1.04893 21.2434642,1.46111962 L21.2434642,1.95773362 C21.2434642,2.36893 20.9178963,2.70265461 20.5163174,2.70265461 Z M14.280888,5.91276748 C13.8793091,5.91276748 13.5537412,5.57904287 13.5537412,5.16784648 L13.5537412,4.67123249 C13.5537412,4.25904287 13.8793091,3.92631149 14.280888,3.92631149 C14.682467,3.92631149 15.0080348,4.25904287 15.0080348,4.67123249 L15.0080348,5.16784648 C15.0080348,5.57904287 14.682467,5.91276748 14.280888,5.91276748 Z M20.5163174,6.17895258 C20.1147384,6.17895258 19.7891706,5.84522797 19.7891706,5.43403158 L19.7891706,4.93741759 C19.7891706,4.52522797 20.1147384,4.1924966 20.5163174,4.1924966 C20.9178963,4.1924966 21.2434642,4.52522797 21.2434642,4.93741759 L21.2434642,5.43403158 C21.2434642,5.84522797 20.9178963,6.17895258 20.5163174,6.17895258 Z M14.280888,9.38906544 C13.8793091,9.38906544 13.5537412,9.05534084 13.5537412,8.64414445 L13.5537412,8.14753046 C13.5537412,7.73534084 13.8793091,7.40260946 14.280888,7.40260946 C14.682467,7.40260946 15.0080348,7.73534084 15.0080348,8.14753046 L15.0080348,8.64414445 C15.0080348,9.05534084 14.682467,9.38906544 14.280888,9.38906544 Z M20.5163174,9.65525055 C20.1147384,9.65525055 19.7891706,9.32152594 19.7891706,8.91032955 L19.7891706,8.41371556 C19.7891706,8.00152594 20.1147384,7.66879456 20.5163174,7.66879456 C20.9178963,7.66879456 21.2434642,8.00152594 21.2434642,8.41371556 L21.2434642,8.91032955 C21.2434642,9.32152594 20.9178963,9.65525055 20.5163174,9.65525055 Z M14.280888,12.8653634 C13.8793091,12.8653634 13.5537412,12.5316388 13.5537412,12.1204424 L13.5537412,11.6238284 C13.5537412,11.2116388 13.8793091,10.8789074 14.280888,10.8789074 C14.682467,10.8789074 15.0080348,11.2116388 15.0080348,11.6238284 L15.0080348,12.1204424 C15.0080348,12.5316388 14.682467,12.8653634 14.280888,12.8653634 Z M20.5163174,13.1315485 C20.1147384,13.1315485 19.7891706,12.7978239 19.7891706,12.3866275 L19.7891706,11.8900135 C19.7891706,11.4778239 20.1147384,11.1450925 20.5163174,11.1450925 C20.9178963,11.1450925 21.2434642,11.4778239 21.2434642,11.8900135 L21.2434642,12.3866275 C21.2434642,12.7978239 20.9178963,13.1315485 20.5163174,13.1315485 Z M14.280888,16.3416614 C13.8793091,16.3416614 13.5537412,16.0079368 13.5537412,15.5967404 L13.5537412,15.1001264 C13.5537412,14.6879368 13.8793091,14.3552054 14.280888,14.3552054 C14.682467,14.3552054 15.0080348,14.6879368 15.0080348,15.1001264 L15.0080348,15.5967404 C15.0080348,16.0079368 14.682467,16.3416614 14.280888,16.3416614 Z M20.5163174,16.6078465 C20.1147384,16.6078465 19.7891706,16.2741219 19.7891706,15.8629255 L19.7891706,15.3663115 C19.7891706,14.9541219 20.1147384,14.6213905 20.5163174,14.6213905 C20.9178963,14.6213905 21.2434642,14.9541219 21.2434642,15.3663115 L21.2434642,15.8629255 C21.2434642,16.2741219 20.9178963,16.6078465 20.5163174,16.6078465 Z M14.280888,19.8179593 C13.8793091,19.8179593 13.5537412,19.4842347 13.5537412,19.0730384 L13.5537412,18.5764244 C13.5537412,18.1642347 13.8793091,17.8315034 14.280888,17.8315034 C14.682467,17.8315034 15.0080348,18.1642347 15.0080348,18.5764244 L15.0080348,19.0730384 C15.0080348,19.4842347 14.682467,19.8179593 14.280888,19.8179593 Z M20.5163174,20.0841445 C20.1147384,20.0841445 19.7891706,19.7504198 19.7891706,19.3392235 L19.7891706,18.8426095 C19.7891706,18.4304198 20.1147384,18.0976885 20.5163174,18.0976885 C20.9178963,18.0976885 21.2434642,18.4304198 21.2434642,18.8426095 L21.2434642,19.3392235 C21.2434642,19.7504198 20.9178963,20.0841445 20.5163174,20.0841445 Z M14.280888,23.2942573 C13.8793091,23.2942573 13.5537412,22.9605327 13.5537412,22.5493363 L13.5537412,22.0527223 C13.5537412,21.6405327 13.8793091,21.3078013 14.280888,21.3078013 C14.682467,21.3078013 15.0080348,21.6405327 15.0080348,22.0527223 L15.0080348,22.5493363 C15.0080348,22.9605327 14.682467,23.2942573 14.280888,23.2942573 Z M20.5163174,23.5604424 C20.1147384,23.5604424 19.7891706,23.2267178 19.7891706,22.8155214 L19.7891706,22.3189074 C19.7891706,21.9067178 20.1147384,21.5739864 20.5163174,21.5739864 C20.9178963,21.5739864 21.2434642,21.9067178 21.2434642,22.3189074 L21.2434642,22.8155214 C21.2434642,23.2267178 20.9178963,23.5604424 20.5163174,23.5604424 Z M14.280888,26.7705553 C13.8793091,26.7705553 13.5537412,26.4368307 13.5537412,26.0256343 L13.5537412,25.5290203 C13.5537412,25.1168307 13.8793091,24.7840993 14.280888,24.7840993 C14.682467,24.7840993 15.0080348,25.1168307 15.0080348,25.5290203 L15.0080348,26.0256343 C15.0080348,26.4368307 14.682467,26.7705553 14.280888,26.7705553 Z M20.5163174,27.0367404 C20.1147384,27.0367404 19.7891706,26.7030158 19.7891706,26.2918194 L19.7891706,25.7952054 C19.7891706,25.3830158 20.1147384,25.0502844 20.5163174,25.0502844 C20.9178963,25.0502844 21.2434642,25.3830158 21.2434642,25.7952054 L21.2434642,26.2918194 C21.2434642,26.7030158 20.9178963,27.0367404 20.5163174,27.0367404 Z M14.280888,30.2468533 C13.8793091,30.2468533 13.5537412,29.9131286 13.5537412,29.5019323 L13.5537412,29.0053183 C13.5537412,28.5931286 13.8793091,28.2603973 14.280888,28.2603973 C14.682467,28.2603973 15.0080348,28.5931286 15.0080348,29.0053183 L15.0080348,29.5019323 C15.0080348,29.9131286 14.682467,30.2468533 14.280888,30.2468533 Z M20.5163174,30.5130384 C20.1147384,30.5130384 19.7891706,30.1793138 19.7891706,29.7681174 L19.7891706,29.2715034 C19.7891706,28.8593138 20.1147384,28.5265824 20.5163174,28.5265824 C20.9178963,28.5265824 21.2434642,28.8593138 21.2434642,29.2715034 L21.2434642,29.7681174 C21.2434642,30.1793138 20.9178963,30.5130384 20.5163174,30.5130384 Z M14.8072454,33.6357472 C14.5477994,33.6357472 14.2967883,33.4927223 14.165708,33.2424289 C14.0773839,33.0735801 13.9971068,32.8957923 13.9270099,32.7140316 C13.7789628,32.3316388 13.9616221,31.8995846 14.3348908,31.7476207 C14.7082564,31.5956569 15.1308742,31.783377 15.2788243,32.1657697 C15.3286581,32.2938961 15.3854725,32.4190429 15.4476193,32.5382302 C15.6372592,32.9007584 15.5040459,33.3526772 15.1500708,33.5463566 C15.040708,33.6069435 14.923201,33.6357472 14.8072454,33.6357472 Z M19.8599462,33.8651828 C19.7287689,33.8651828 19.5960404,33.8294266 19.4764974,33.7529481 C19.135514,33.5354311 19.0310958,33.0765598 19.2432287,32.7269435 C19.3120653,32.6137156 19.3758603,32.4925417 19.4328686,32.3683882 C19.6031179,31.9959277 20.0359157,31.8350248 20.399683,32.0098329 C20.7633534,32.1836478 20.9202232,32.6276207 20.7499739,33.0000812 C20.6686304,33.1778691 20.5771068,33.3506907 20.478021,33.5135801 C20.3403478,33.7410293 20.1028132,33.8651828 19.8599462,33.8651828 Z M17.3986027,35.4166049 C17.2388243,35.4166049 17.0778825,35.403693 16.9201401,35.3798555 C16.523021,35.3192686 16.2493229,34.9398555 16.308852,34.532632 C16.3683811,34.1254086 16.7386442,33.8453183 17.1357634,33.9068984 C17.2489074,33.9237833 17.3653478,33.9297426 17.4788797,33.9247765 C17.879683,33.9078916 18.2197938,34.2247314 18.2376332,34.6359277 C18.2553755,35.0471241 17.9445445,35.3947539 17.5433534,35.412632 C17.4953617,35.4156117 17.4470791,35.4166049 17.3986027,35.4166049 L17.3986027,35.4166049 Z" id="Fill-111"></path>
            </g>
        </g>
    </g>
</svg>