<?xml version="1.0" encoding="UTF-8" standalone="no"?>
<svg width="18px" height="22px" viewBox="0 0 18 22" version="1.1" xmlns="http://www.w3.org/2000/svg" xmlns:xlink="http://www.w3.org/1999/xlink">
    <!-- Generator: Sketch 41 (35326) - http://www.bohemiancoding.com/sketch -->
    <title>Group 5</title>
    <desc>Created with Sketch.</desc>
    <defs></defs>
    <g id="Icons" stroke="none" stroke-width="1" fill="none" fill-rule="evenodd">
        <g id="Icons-Cat" transform="translate(-366.000000, -46.000000)" stroke="#2BB0D4" stroke-width="0.5" fill="#2BB0D4">
            <g id="Group-5" transform="translate(367.000000, 47.000000)">
                <path d="M15.7698907,12.7955223 C15.3363395,11.5300595 14.3465555,10.6650482 13.0491372,10.4144839 C12.9518076,10.3038744 12.4304558,9.55940488 11.9111428,5.89845679 C11.5699572,3.49303919 11.4416026,1.25647034 11.5183672,0.563468081 C11.5492148,0.285364243 11.35296,0.0347999093 11.0800735,0.00319720054 C10.8069212,-0.027954041 10.5609378,0.172045959 10.5301345,0.449698329 C10.4256691,1.39236199 10.6193533,3.98288117 10.9710431,6.34766673 C11.1652591,7.65331007 11.3910763,8.76978862 11.6240735,9.57656063 C11.9681843,10.7675313 12.3267439,11.3133552 12.8229212,11.4022943 C14.1355417,11.6370572 14.6443949,12.5851385 14.830899,13.1291566 C15.1380458,14.0257706 15.0151871,15.0393146 14.5321289,15.5941679 C14.3121179,15.8469895 14.0360403,15.9761092 13.708417,15.9815268 C13.7690043,15.8826554 13.797104,15.7625651 13.7790652,15.6388631 C13.7388215,15.3621137 13.4836636,15.1594049 13.2143228,15.2117751 C12.8398519,15.2849128 11.6494253,15.4429263 10.52096,17.3955223 C10.0255805,18.2528586 9.52625636,18.9481182 8.09769127,18.9481182 L7.9040957,18.9481182 C6.4755306,18.9481182 6.01458877,18.2289308 5.480827,17.3955223 C5.29494334,17.1056803 4.45031176,15.3205787 2.77917603,15.2117751 C2.50518157,15.1941679 2.25303753,15.3616622 2.21279376,15.6384116 C2.19364694,15.7697886 2.22604584,15.8966509 2.29399044,15.9982311 C1.72042811,16.047441 1.34187963,15.8515042 1.1433644,15.4018428 C0.782766058,14.58559 1.13312617,13.3910076 1.45773559,13.1499241 C1.67965248,12.98559 1.72849459,12.66866 1.56676606,12.4424749 C1.40503753,12.2162898 1.09399044,12.1666284 0.872029216,12.3314139 C0.0605943132,12.9336712 -0.260203471,14.6930392 0.236372707,15.8176442 C0.440295144,16.2790437 0.771907333,16.6275764 1.19548628,16.8248676 C1.6574475,17.039766 2.21864417,17.0758834 2.86360816,16.9318654 C3.44993503,16.8009399 3.78792949,16.9016171 4.07233947,17.1715945 C4.090068,17.1919105 4.45944196,17.6551159 4.64802922,17.9494726 C5.19202922,18.7982311 5.93707077,19.9612107 7.9040957,19.9612107 L8.09769127,19.9612107 C10.0647605,19.9612107 10.8098021,18.7982311 11.3538021,17.9494726 C11.8655805,17.150827 12.1476857,16.7106464 13.1382231,16.9318654 C13.9797965,17.1196758 14.7391095,16.8835584 15.2762841,16.2664026 C15.9985001,15.4366058 16.1968824,14.0415719 15.7698907,12.7955223" id="Fill-109"></path>
                <path d="M3.70792949,9.7562446 C3.75384639,9.76978862 3.80011786,9.77610916 3.84563586,9.77610916 C4.06165803,9.77610916 4.26057215,9.63163964 4.32328683,9.40951774 C5.28297658,6.01132361 5.25000152,0.725996298 5.24814002,0.50252 C5.24579099,0.224416162 5.02360816,0.000488396926 4.75098766,0.000488396926 L4.74664417,0.000488396926 C4.47207354,0.00274573327 4.25135332,0.231639638 4.25365803,0.511097878 C4.25410124,0.564371015 4.28698766,5.87362609 3.36749736,9.12960804 C3.29157492,9.39823106 3.44399598,9.6790437 3.70792949,9.7562446" id="Fill-110"></path>
            </g>
        </g>
    </g>
</svg>