<?xml version="1.0" encoding="UTF-8" standalone="no"?>
<svg width="51px" height="32px" viewBox="0 0 51 32" version="1.1" xmlns="http://www.w3.org/2000/svg" xmlns:xlink="http://www.w3.org/1999/xlink">
    <!-- Generator: Sketch 41 (35326) - http://www.bohemiancoding.com/sketch -->
    <title>Group 18</title>
    <desc>Created with Sketch.</desc>
    <defs></defs>
    <g id="Icons" stroke="none" stroke-width="1" fill="none" fill-rule="evenodd">
        <g id="Icons-Subcat" transform="translate(-2129.000000, -206.000000)" fill="#2BB0D4">
            <g id="Group-18" transform="translate(2128.000000, 206.000000)">
                <g id="Group-13-Copy-2" transform="translate(0.000000, 11.000000)">
                    <g id="Group-12">
                        <path d="M44.4304397,12.1433164 C43.545927,11.6081612 42.974178,12.583068 42.974178,12.583068 L42.9798389,12.5726332 C42.9713476,12.58754 42.2113743,14.1154904 39.8550325,15.6270431 C37.6430432,17.0476643 33.5445652,18.7395897 26.585927,18.7395897 C19.5904931,18.7395897 15.2457668,17.0267947 12.8328162,15.5897761 C10.268437,14.0633164 9.29193501,12.5189686 9.26504582,12.4757388 C8.9565278,11.9629438 8.31260256,11.806422 7.82293634,12.1284096 C7.33043968,12.4503972 7.18042633,13.1331301 7.48611391,13.6503972 C7.66301645,13.9485338 11.970947,20.9517636 26.585927,20.9517636 C41.2744984,20.9517636 44.7233903,13.8531301 44.8620819,13.5505214 C44.8620819,13.5505214 45.3149524,12.6784717 44.4304397,12.1433164" id="Fill-98"></path>
                        <path d="M26.0509737,9.9025711 C18.7243783,9.9025711 12.2624824,8.34182576 7.95596705,6.94803694 C10.6194116,6.27126675 13.0450992,5.11300588 14.9938576,4.18132886 C16.3015211,3.55673259 17.4308669,3.01710526 18.1908402,2.83524191 C18.9239243,2.65934128 19.6739911,2.73685681 20.3617881,3.05735371 L24.0993849,4.80145309 C25.6363142,5.51847172 27.3770351,5.46927917 28.8743382,4.6672916 L31.7528963,3.12592514 C32.4307868,2.76368911 33.2134036,2.64443445 33.9578095,2.79201209 C34.9413876,2.98580091 36.376421,3.61635992 38.0378896,4.34381333 C40.0036306,5.20691892 42.2623222,6.19822327 44.6087574,6.83921706 C40.0616546,8.28816116 33.3591713,9.9025711 26.0509737,9.9025711 Z M51.9721486,5.13983818 C51.7343916,4.58381333 51.1116947,4.33486923 50.5838175,4.5867947 C50.5583436,4.59872017 49.9653662,4.87747793 48.9124423,5.29934128 C45.5130832,5.22778849 41.8221887,3.61039719 38.8445652,2.30306799 C37.0741246,1.52642203 35.5456867,0.855614576 34.3441646,0.618595943 C33.1483035,0.381577309 31.8901727,0.572384763 30.8018683,1.15524191 L27.9233102,2.69660837 C26.99068,3.19598725 25.9066213,3.22580091 24.9499323,2.78008663 L21.2109203,1.03598725 C20.1240311,0.527664266 18.8857134,0.400956191 17.726648,0.678223272 C16.7586373,0.910769856 15.5387174,1.493627 14.1263275,2.16741582 C11.3581566,3.49114253 7.56536625,5.30232265 3.72587359,5.30232265 C3.66501912,5.30232265 3.60557987,5.30977607 3.54755583,5.32021085 C2.82862392,5.01611147 2.43236224,4.82381333 2.41254916,4.81337855 C1.88750243,4.55399967 1.26339028,4.79250899 1.01714195,5.34555246 C0.770893618,5.89859594 0.995913644,6.55598725 1.52096037,6.81536613 C1.95826344,7.0315152 12.3983436,12.1132543 26.0509737,12.1132543 C33.183684,12.1132543 39.6993582,10.6195897 43.9096386,9.36443445 C46.1980498,8.68319222 48.0548189,8.00642203 49.3539911,7.49213632 C49.4643783,7.46828538 49.5691046,7.42505557 49.6639243,7.36840961 C50.7649657,6.92418601 51.3933235,6.62903073 51.4471019,6.60219843 C51.9763943,6.35176364 52.2113209,5.69586302 51.9721486,5.13983818 L51.9721486,5.13983818 Z" id="Fill-99"></path>
                    </g>
                </g>
                <g id="Group-17" transform="translate(2.000000, 0.000000)">
                    <polyline id="Fill-46" points="1.591 5.916 1.609 9.429 2.967 9.423 2.952 5.909 4.519 5.9 2.241 2 0 5.924 1.591 5.916"></polyline>
                    <polyline id="Fill-47" points="44.593 3.916 44.61 7.43 45.969 7.425 45.952 3.909 47.521 3.9 45.242 0 43 3.924 44.593 3.916"></polyline>
                    <path d="M35.755,7.43607421 C35.238,7.35607421 34.665,7.33807421 34.096,7.37807421 L34.005,6.02207421 C34.674,5.97807421 35.345,5.99907421 35.961,6.09207421 L35.755,7.43607421 Z M31.11,7.93107421 L30.76,6.61707421 C31.452,6.43207421 32.032,6.30007421 32.582,6.20107421 L32.821,7.54007421 C32.31,7.63107421 31.767,7.75507421 31.11,7.93107421 Z M12.233,8.19007421 L12.091,6.83807421 C12.594,6.78507421 13.103,6.75907421 13.644,6.75907421 L13.988,6.76207421 L13.955,8.12307421 L13.644,8.11907421 C13.151,8.11907421 12.689,8.14207421 12.233,8.19007421 Z M17.031,8.40707421 C16.431,8.32107421 15.845,8.24707421 15.269,8.19607421 L15.389,6.84107421 C15.99,6.89407421 16.599,6.97107421 17.226,7.06207421 L17.031,8.40707421 Z M38.4,8.52507421 L38.192,8.38807421 C37.794,8.12007421 37.37,7.90107421 36.936,7.74007421 L37.41,6.46507421 C37.943,6.66507421 38.463,6.93107421 38.954,7.26107421 L39.136,7.38107421 L38.4,8.52507421 Z M28.056,8.79507421 L27.705,7.48107421 C28.186,7.35307421 28.669,7.21307421 29.153,7.07207421 L29.438,6.99007421 L29.815,8.29607421 L29.532,8.37907421 C29.038,8.52107421 28.546,8.66507421 28.056,8.79507421 Z M9.35,8.88207421 L8.825,7.62807421 C9.15,7.49307421 9.469,7.37707421 9.78,7.28707421 C10.083,7.20007421 10.381,7.12607421 10.677,7.06207421 L10.962,8.39107421 C10.696,8.44807421 10.428,8.51507421 10.157,8.59307421 C9.894,8.67007421 9.624,8.76707421 9.35,8.88207421 Z M20.158,8.89907421 L18.365,8.61207421 L18.579,7.27007421 L20.367,7.55407421 L20.158,8.89907421 Z M23.337,9.32007421 C22.705,9.25507421 22.099,9.17907421 21.514,9.09807421 L21.7,7.75207421 C22.27,7.83007421 22.86,7.90507421 23.477,7.96807421 L23.337,9.32007421 Z M24.796,9.37207421 L24.731,8.01407421 C25.242,7.99007421 25.795,7.91507421 26.422,7.78807421 L26.694,9.11807421 C25.999,9.26107421 25.377,9.34407421 24.796,9.37207421 Z M41.313,10.0540742 C40.728,9.81107421 40.157,9.53907421 39.613,9.24607421 L40.26,8.04907421 C40.763,8.32207421 41.293,8.57407421 41.834,8.79907421 L41.313,10.0540742 Z M6.593,10.3030742 L5.94,9.11107421 L6.35,8.88507421 C6.751,8.66307421 7.151,8.44307421 7.545,8.23707421 L8.174,9.44207421 C7.789,9.64407421 7.4,9.85907421 7.007,10.0750742 L6.593,10.3030742 Z M44.428,11.0680742 C43.817,10.9210742 43.212,10.7450742 42.629,10.5490742 L43.064,9.26007421 C43.609,9.44407421 44.177,9.60907421 44.749,9.74807421 L44.428,11.0680742 Z M47.655,11.6120742 C47.047,11.5560742 46.423,11.4710742 45.801,11.3590742 L46.039,10.0210742 C46.624,10.1250742 47.211,10.2050742 47.78,10.2580742 L47.655,11.6120742 Z M3.605,11.6940742 L3.185,10.4000742 C3.643,10.2530742 4.157,10.0350742 4.762,9.73407421 L5.367,10.9520742 C4.693,11.2860742 4.134,11.5230742 3.605,11.6940742 Z M1.775,12.0140742 C1.136,12.0140742 0.539,11.8760742 0,11.6050742 L0.613,10.3900742 C1.031,10.6020742 1.497,10.6860742 2.018,10.6460742 L2.115,12.0020742 C2.001,12.0100742 1.887,12.0140742 1.775,12.0140742 L1.775,12.0140742 Z" id="Fill-48"></path>
                </g>
            </g>
        </g>
    </g>
</svg>