<?xml version="1.0" encoding="UTF-8" standalone="no"?>
<svg width="38px" height="49px" viewBox="0 0 38 49" version="1.1" xmlns="http://www.w3.org/2000/svg" xmlns:xlink="http://www.w3.org/1999/xlink">
    <!-- Generator: Sketch 41 (35326) - http://www.bohemiancoding.com/sketch -->
    <title>Page 1 Copy 3</title>
    <desc>Created with Sketch.</desc>
    <defs></defs>
    <g id="Icons" stroke="none" stroke-width="1" fill="none" fill-rule="evenodd" stroke-linecap="round" stroke-linejoin="round">
        <g id="Icons-Subcat" transform="translate(-3305.000000, -195.000000)" stroke="#2BB0D4">
            <g id="Page-1-Copy-3" transform="translate(3307.000000, 197.000000)">
                <path d="M2.236575,0.359178568 C2.48097105,2.07597592 2.4496003,4.61498616 1.47073469,8.09784703 C-0.839714286,16.3165635 -0.475142857,27.4790976 11.1983265,25.9879569 C19.0554694,25.6900866 30.2530204,21.5127459 34.2462449,18.9812954" id="Stroke-5" stroke-width="3.4"></path>
                <path d="M8.00585938,30.7614545 C16.6132813,33.9984949 21.2597656,30.7614545 21.2597656,30.7614545" id="Stroke-5" stroke-width="3"></path>
                <path d="M21.4520327,30.9744545 C22.6921143,31.3018435 23.6807673,32.0836413 24.3686041,33.5166391 C26.6099102,38.1850633 25.7299102,41.4034941 25.2701551,45.1926193" id="Stroke-7" stroke-width="3.4"></path>
                <path d="M33.5357894,30.4106706 C33.5357894,30.4106706 31.5477174,34.0445992 33.149838,37.2112426" id="Path-3" stroke-width="2" transform="translate(33.030747, 33.810957) rotate(-9.000000) translate(-33.030747, -33.810957) "></path>
            </g>
        </g>
    </g>
</svg>