<?xml version="1.0" encoding="UTF-8" standalone="no"?>
<svg width="59px" height="48px" viewBox="0 0 59 48" version="1.1" xmlns="http://www.w3.org/2000/svg" xmlns:xlink="http://www.w3.org/1999/xlink">
    <!-- Generator: Sketch 41 (35326) - http://www.bohemiancoding.com/sketch -->
    <title>Group</title>
    <desc>Created with Sketch.</desc>
    <defs>
        <filter x="-50%" y="-50%" width="200%" height="200%" filterUnits="objectBoundingBox" id="filter-1">
            <feOffset dx="0" dy="2" in="SourceAlpha" result="shadowOffsetOuter1"></feOffset>
            <feGaussianBlur stdDeviation="2" in="shadowOffsetOuter1" result="shadowBlurOuter1"></feGaussianBlur>
            <feColorMatrix values="0 0 0 0 1   0 0 0 0 0.531269729   0 0 0 0 0.531269729  0 0 0 1 0" type="matrix" in="shadowBlurOuter1" result="shadowMatrixOuter1"></feColorMatrix>
            <feMerge>
                <feMergeNode in="shadowMatrixOuter1"></feMergeNode>
                <feMergeNode in="SourceGraphic"></feMergeNode>
            </feMerge>
        </filter>
    </defs>
    <g id="Configurator-iPad" stroke="none" stroke-width="1" fill="none" fill-rule="evenodd">
        <g id="Hair" transform="translate(-437.000000, -220.000000)" stroke="#F67272" stroke-width="1.5">
            <g id="Group-26" transform="translate(385.000000, 193.000000)">
                <g id="Group" filter="url(#filter-1)" transform="translate(81.122104, 49.702047) rotate(20.000000) translate(-81.122104, -49.702047) translate(62.622104, 23.702047)">
                    <path d="M32.7418511,3.4731044 C30.7010919,5.41132073 28.6603327,7.3383335 25.8234531,10.2512598 C22.9865736,13.164186 19.3535737,17.0630258 16.3821385,20.9730692 C13.4107034,24.8831125 11.1008331,28.8043594 8.79096277,33.3866165 C6.48109245,37.9800772 4.16000917,43.2233445 1.85013885,48.4666118" id="Shape"></path>
                    <path d="M32.7530641,3.49551153 C30.7907956,5.51215279 28.8285272,7.53999762 26.1149902,10.5761631 C23.4014532,13.6123285 19.9254348,17.6568146 17.0549163,21.746115 C14.1731849,25.8242118 11.8969534,29.9359192 9.45252757,34.8990975 C7.0081017,39.8622757 4.38426842,45.6881282 1.77164811,51.5139808" id="Shape"></path>
                    <path d="M3.24054623,45.3072071 C2.97143512,44.9374895 2.70232402,44.5565684 2.4668518,44.1196295 C2.23137958,43.6826905 2.04075921,43.1785302 1.76043515,42.7303877 C1.46889812,42.2710416 1.08765738,41.8565098 0.78490739,41.5988279 C0.470944434,41.341146 0.235472217,41.2403139 9.9475983e-14,41.1394818" id="Shape"></path>
                    <path d="M9.9475983e-14,41.1394818 C0.459731471,41.2851281 0.90824998,41.4307745 1.27827775,41.6772528 C1.64830552,41.9237312 1.92862959,42.2598381 2.17531477,42.5847414 C2.43321291,42.8984412 2.6462592,43.2121409 2.87051846,43.5258407" id="Shape"></path>
                    <path d="M2.87051846,43.5258407 C2.7359629,42.8872376 2.60140735,42.2598381 2.38836106,41.5988279 C2.1641018,40.9490213 1.85013885,40.2768075 1.64830552,39.6942223 C1.44647219,39.111637 1.33434256,38.6298838 1.33434256,37.9464665 C1.33434256,37.2742527 1.44647219,36.4115784 1.54738886,35.5377005" id="Shape"></path>
                    <path d="M1.54738886,35.5377005 C1.69315737,36.1763036 1.83892589,36.8037031 2.01833329,37.3862884 C2.20895366,37.9688736 2.43321291,38.4954411 2.69111105,38.8651586 C2.96022216,39.2236726 3.26297215,39.4365403 3.48723141,39.6157973 C3.71149066,39.8062579 3.83483325,39.9631078 3.9693888,40.1199576" id="Shape"></path>
                    <path d="M3.9693888,40.1199576 C3.91332399,39.7390365 3.85725918,39.3581154 3.80119436,39.0668227 C3.75634251,38.7755301 3.71149066,38.5626624 3.64421288,38.215352 C3.57693511,37.856838 3.48723141,37.3638812 3.41995363,36.6580568 C3.35267585,35.9522323 3.307824,35.0447438 3.37510178,33.9804053 C3.44237955,32.9272704 3.62178696,31.7172857 3.8796851,30.7201686 C4.14879621,29.7230515 4.50761101,28.9275986 4.74308323,28.4346419 C4.98976841,27.9416851 5.12432396,27.7512245 5.24766655,27.560764" id="Shape"></path>
                    <path d="M5.26767097,27.560764 C5.24067261,28.2217742 5.20017506,28.8827844 5.1731767,29.5213874 C5.14617833,30.1599905 5.13267915,30.7761864 5.18667588,31.4932144 C5.24067261,32.221446 5.36216525,33.0393061 5.48365789,33.8683697" id="Shape"></path>
                    <path d="M5.42707396,33.8683697 C5.47192581,33.1289346 5.51677766,32.3894994 5.55041655,31.7508964 C5.5952684,31.1122933 5.61769432,30.5745223 5.67375914,29.8238836 C5.71861099,29.0732449 5.79710173,28.1209421 6.02136098,27.1574357 C6.2568332,26.1939293 6.63807393,25.2192194 6.92961096,24.6254306 C7.22114799,24.0316418 7.43419428,23.8075705 7.63602761,23.5834992" id="Shape"></path>
                    <path d="M7.63602761,23.5834992 C8.47699982,22.5639751 9.31797202,21.5332473 10.1253053,20.4577053 C10.9438516,19.3821633 11.739972,18.2730106 12.4800275,17.4775576 C13.2088701,16.6821047 13.8928608,16.2115551 14.5207867,15.6961912 C15.1487126,15.1808273 15.7429997,14.6206492 16.4045645,13.8588069 C17.0661293,13.0969647 17.8061848,12.1222547 18.5238144,11.2259697 C19.241444,10.3296847 19.9478607,9.51182464 20.4972959,8.99646076 C21.0355181,8.48109688 21.4167588,8.26822919 21.7979995,8.06656506" id="Shape"></path>
                    <path d="M21.8145578,8.06656506 C21.7709839,8.73877882 21.7419347,9.41099257 21.7419347,10.0832063 C21.7564593,10.7666236 21.8145578,11.4388374 21.8581316,12.1110512" id="Shape"></path>
                    <path d="M21.8316384,12.1110512 C21.8652773,11.9766084 21.8989162,11.8533692 21.943768,11.4276338 C21.9886199,11.0018985 22.0558977,10.2848705 22.1343884,9.59024958 C22.2128791,8.90683226 22.3137958,8.24582207 22.4259254,7.58481187" id="Shape"></path>
                    <path d="M22.4259254,7.58481187 C23.4014532,6.62130549 24.3881939,5.66900267 25.2067402,4.9407711 C26.0252865,4.21253953 26.6756383,3.71958278 27.3372031,3.10338684 C27.9987679,2.47598733 28.6715457,1.74775576 29.5685827,1.1987812 C30.4656197,0.661010193 31.586916,0.30249619 32.6297215,0.134442751 C33.672527,-0.0448142504 34.6480548,-0.0448142504 35.2311289,0.235274814 C35.8254159,0.515363879 36.0272492,1.07554201 36.0721011,2.12867689 C36.1169529,3.18181178 35.9936103,4.75031054 35.489027,6.21797724 C34.9732307,7.68564394 34.0537678,9.06368213 32.8651937,10.4081096 C31.6766197,11.7413336 30.2077216,13.0297433 28.7276105,14.3293566" id="Shape"></path>
                    <path d="M28.7276105,14.3293566 C28.4921383,14.4603073 28.2566661,14.591258 27.7408698,14.6349083 C27.2250735,14.6640084 26.4177402,14.591258 25.6104069,14.5185076" id="Shape"></path>
                    <path d="M25.554342,14.4637993 C25.9467957,14.5870385 26.3504624,14.7214812 26.776555,14.855924 C27.2026476,14.9903667 27.662379,15.1248095 27.9314901,15.2256416 C28.2118142,15.3264736 28.3239438,15.4048986 28.4248605,15.4721199" id="Shape"></path>
                    <path d="M28.4248605,15.4721199 C27.9202772,16.9285831 27.4269068,18.3850462 26.4962309,19.8975272 C25.565555,21.3988045 24.2199995,22.9560997 23.2444717,24.4125629 C22.268944,25.869026 21.6858699,27.2246571 20.8897495,28.9051915 C20.0936292,30.5969294 19.0956755,32.6247743 18.2322774,33.9692018 C17.3688793,35.3024257 16.6512496,35.9522323 15.8999811,36.3667642 C15.1487126,36.7700924 14.3750182,36.9493494 13.5901108,37.1286064" id="Shape"></path>
                    <path d="M4.31699065,45.8561817 C4.85521286,45.9009959 5.38222211,45.9458102 5.90923135,45.9234031 C6.4362406,45.9009959 6.96324985,45.8001639 7.50147206,45.8001639 C8.03969427,45.8113674 8.58912944,45.9234031 8.97037018,46.0466422 C9.35161091,46.181085 9.5646572,46.3267313 9.77770349,46.4723776" id="Shape"></path>
                    <path d="M9.77770349,46.4723776 C9.40767572,46.1586779 9.04886091,45.8449781 8.64519426,45.6657211 C8.25274056,45.4752605 7.81543502,45.4192427 7.41176836,45.3744285 C6.99688874,45.3296142 6.615648,45.2960035 6.24562023,45.2735964" id="Shape"></path>
                    <path d="M6.24562023,45.2735964 C6.85112022,45.0607287 7.45662021,44.8366575 8.12939797,44.6798076 C8.80217573,44.5229577 9.54223127,44.4333292 10.1477313,44.31009 C10.7532312,44.1756473 11.2129627,44.0187974 11.7960368,43.6602834 C12.3678979,43.3017694 13.0518886,42.7639984 13.7470923,42.2262274" id="Shape"></path>
                    <path d="M13.7470923,42.2262274 C13.1303793,42.4278915 12.5136664,42.6295557 11.9193794,42.7864055 C11.3250923,42.9320518 10.7644442,43.0216803 10.3047127,42.9880697 C9.85619423,42.954459 9.51980535,42.7976091 9.25069424,42.7079806 C8.97037018,42.6183521 8.76853685,42.5847414 8.55549055,42.5623343" id="Shape"></path>
                    <path d="M8.55549055,42.5623343 C8.91430536,42.4054844 9.27312017,42.2598381 9.55344424,42.1478025 C9.8337683,42.0357668 10.0243887,41.9685455 10.3607776,41.8341027 C10.6971664,41.7108635 11.1681109,41.520403 11.8072497,41.2067032 C12.4463886,40.8930034 13.242509,40.4560645 14.1059071,39.8510721 C14.9805182,39.2348762 15.9111941,38.4506268 16.6288237,37.7111917 C17.3464533,36.960553 17.8286107,36.243525 18.1313607,35.7729753 C18.4228977,35.3136293 18.5126014,35.1007616 18.6023052,34.8878939" id="Shape"></path>
                    <path d="M18.6023052,34.8878939 C18.1313607,35.268815 17.6492033,35.6497362 17.133407,36.0306573 C16.6176107,36.4115784 16.0681756,36.7924995 15.4738886,36.9717565 C14.8683886,37.1622171 14.2292497,37.13981 13.5901108,37.1286064" id="Shape"></path>
                    <path d="M1.85013885,48.4666118 C1.90620366,48.6122581 1.97348144,48.7579044 2.01833329,48.9035507 C2.06318514,49.0604006 2.08561107,49.228454 2.09682403,49.4189146 C2.10803699,49.6093751 2.08561107,49.8222428 2.06318514,50.0351105 C2.04075921,50.2479782 2.01833329,50.4608459 1.96226848,50.7073243 C1.91741662,50.9538027 1.83892589,51.2562988 1.76043515,51.5475915" id="Shape"></path>
                    <path d="M1.91212362,48.4666118 C1.85398233,48.6570723 1.79584105,48.8475329 1.75223508,49.049197 C1.70862911,49.2508611 1.66502315,49.4749324 1.65048783,49.665393 C1.6359525,49.8558535 1.6359525,50.0127034 1.66502315,50.3151996 C1.69409379,50.6288993 1.75223508,51.0658383 1.81037637,51.5139808" id="Shape"></path>
                    <path d="M14.5207867,15.6961912 C14.5544256,16.4804406 14.5992775,17.2534864 14.6777682,17.9369037 C14.7562589,18.6315246 14.8796015,19.2253134 15.0029441,19.8078987" id="Shape"></path>
                    <path d="M30.6553234,0.683417318 C30.6053234,1.12035626 30.5719901,1.5572952 30.5553234,1.98303058 C30.5553234,2.40876596 30.5719901,2.83450134 30.6053234,3.24903315" id="Shape"></path>
                    <path d="M34.7153326,7.88730806 C34.278027,8.0553615 33.8407215,8.21221138 33.3024993,8.31304344 C32.7642771,8.42507907 32.1251382,8.46989332 31.4747864,8.52591113" id="Shape"></path>
                    <path d="M22.6389717,25.3872728 C21.943768,25.510512 21.2485644,25.6449548 20.6094255,25.7009726 C19.9702866,25.768194 19.3984255,25.768194 18.8265644,25.768194" id="Shape"></path>
                </g>
            </g>
        </g>
    </g>
</svg>