<?xml version="1.0" encoding="UTF-8" standalone="no"?>
<svg width="54px" height="32px" viewBox="0 0 54 32" version="1.1" xmlns="http://www.w3.org/2000/svg" xmlns:xlink="http://www.w3.org/1999/xlink">
    <!-- Generator: Sketch 41 (35326) - http://www.bohemiancoding.com/sketch -->
    <title>Group 11 Copy</title>
    <desc>Created with Sketch.</desc>
    <defs></defs>
    <g id="Icons" stroke="none" stroke-width="1" fill="none" fill-rule="evenodd">
        <g id="Icons-Subcat" transform="translate(-1680.000000, -209.000000)">
            <g id="Group-11-Copy" transform="translate(1681.000000, 209.000000)">
                <g id="Group-9">
                    <g id="Group-10">
                        <path d="M18.6893849,0.618655611 C18.4779061,1.08689448 18.6983027,1.63153021 19.181137,1.83607666 L22.7584421,3.35292415 C23.5113578,3.6720659 24.32415,3.83225289 25.1369423,3.83225289 C25.9000497,3.83225289 26.6631572,3.69054902 27.3765798,3.4096057 L31.3348016,1.84593432 C31.8240057,1.65247774 32.0584161,1.11277084 31.8584029,0.640835347 C31.6583898,0.16766765 31.1003913,-0.0590585376 30.6124612,0.134398047 L26.6542394,1.69806942 C25.6541737,2.09237583 24.5139714,2.07882155 23.5253714,1.65987099 L19.9480664,0.1430235 C19.4652321,-0.0615229527 18.9008638,0.151648952 18.6893849,0.618655611" id="Fill-100" fill-opacity="0.516247736" fill="#2BB0D4"></path>
                        <path d="M7.33597506,8.74663628 C0.0651292067,16.5244141 0.549767127,27.2150608 0.549767127,27.2150608" id="Path-9" stroke="#2BB0D4" stroke-width="1.94444444" stroke-linecap="round" stroke-linejoin="round" stroke-dasharray="1.944444444444444,3.888888888888889"></path>
                        <path d="M51.3359751,8.74663628 C44.0651292,16.5244141 44.5497671,27.2150608 44.5497671,27.2150608" id="Path-9" stroke="#2BB0D4" stroke-width="1.94444444" stroke-linecap="round" stroke-linejoin="round" stroke-dasharray="1.944444444444444,3.888888888888889" transform="translate(47.939518, 17.980849) scale(-1, 1) translate(-47.939518, -17.980849) "></path>
                    </g>
                </g>
                <g id="Page-1-Copy" opacity="0.380013993" transform="translate(5.230769, 13.851852)" stroke="#2BB0D4" stroke-width="0.740740741" fill="#2BB0D4">
                    <path d="M33.8630012,10.5147774 C33.1626489,10.0909557 32.7112386,10.8630222 32.7112386,10.8630222 L32.7149341,10.8551102 C32.7089989,10.8671553 32.1067452,12.0766239 30.2425359,13.2746379 C28.491879,14.3995547 25.249362,15.7405745 19.7432983,15.7405745 C14.2074466,15.7405745 10.7695163,14.3833765 8.86017716,13.2449975 C6.83157431,12.0352927 6.05820797,10.8122439 6.03715485,10.7783523 C5.79347614,10.3716535 5.28372179,10.2482503 4.89591877,10.5028504 C4.50654796,10.7585134 4.38739624,11.298771 4.6299551,11.7093668 C4.76937606,11.945545 8.17841431,17.4924264 19.7432983,17.4924264 C31.3658544,17.4924264 34.0945856,11.8690233 34.2050025,11.6295386 C34.2050025,11.6295386 34.5633535,10.9385992 33.8630012,10.5147774" id="Fill-1"></path>
                    <path d="M19.8882028,7.43285883 C14.0903069,7.43285883 8.97798141,6.196584 5.5693911,5.09327751 C7.67671919,4.55703489 9.59647291,3.63912829 11.1387262,2.90130757 C12.1736888,2.40615996 13.0675507,1.97855931 13.6690205,1.8346087 C14.2485413,1.69597209 14.8421722,1.75678798 15.3858579,2.01067955 L18.3442698,3.39220397 C19.5599757,3.95985829 20.9370515,3.92124316 22.1221856,3.28604187 L24.4005143,2.06523671 C24.9364731,1.77792593 25.5557485,1.683927 26.1444521,1.80012668 C26.9234177,1.95423296 28.0584946,2.45292324 29.372859,3.03026087 C30.9282145,3.71364251 32.7161622,4.49846269 34.5720847,5.00624584 C30.9749121,6.15442619 25.6714287,7.43285883 19.8882028,7.43285883 M40.3995445,3.66026624 C40.2109623,3.21932152 39.7189015,3.02305743 39.3008626,3.22215566 C39.2808174,3.23160279 38.8111535,3.45195706 37.9776514,3.78685776 C35.2876669,3.73029308 32.3681138,2.44843586 30.0117317,1.41326677 C28.6109151,0.797786366 27.4011444,0.266267311 26.4505063,0.078387547 C25.5037876,-0.108901771 24.5084676,0.0422522813 23.6478652,0.503390231 L21.3696484,1.72431347 C20.6314453,2.11991197 19.7739784,2.14400215 19.0169619,1.79044337 L16.0584381,0.408918948 C15.1979476,0.0070617284 14.2186414,-0.0933140097 13.3012627,0.126213634 C12.5350634,0.309606012 11.5698673,0.771334407 10.452372,1.30604187 C8.26150329,2.35408266 5.26109722,3.78957381 2.22295229,3.78957381 C2.1745749,3.78957381 2.12731736,3.79488782 2.08106768,3.80327214 C1.51263334,3.56213419 1.19885221,3.40968116 1.18328634,3.40200537 C0.767935083,3.19664842 0.273522631,3.38523671 0.0788932214,3.82311111 C-0.115960157,4.2611036 0.0627674246,4.78258508 0.478006694,4.98806012 C0.824375372,5.15940741 9.08503878,9.18471068 19.8882028,9.18471068 C25.5324557,9.18471068 30.6883433,8.00074933 34.0196642,7.00750188 C35.8298968,6.46783468 37.2993601,5.93088352 38.3272676,5.52383038 C38.4150636,5.50493612 38.4973724,5.47104455 38.5727381,5.42558025 C39.4439791,5.07414707 39.9409672,4.83950403 39.9840813,4.81895652 C40.4022322,4.61997638 40.5882387,4.10121095 40.3995445,3.66026624" id="Fill-4"></path>
                </g>
            </g>
        </g>
    </g>
</svg>