<?xml version="1.0" encoding="UTF-8" standalone="no"?>
<svg width="32px" height="32px" viewBox="0 0 32 32" version="1.1" xmlns="http://www.w3.org/2000/svg" xmlns:xlink="http://www.w3.org/1999/xlink">
    <!-- Generator: Sketch 41 (35326) - http://www.bohemiancoding.com/sketch -->
    <title>noun_88859_cc</title>
    <desc>Created with Sketch.</desc>
    <defs></defs>
    <g id="Configurator-iPad" stroke="none" stroke-width="1" fill="none" fill-rule="evenodd">
        <g id="Hair-Amnese" transform="translate(-487.000000, -388.000000)" stroke="#A0A3A8" stroke-width="0.8" fill="#A0A3A8">
            <g id="Group-15-Copy-3" transform="translate(381.000000, 362.000000)">
                <g id="noun_88859_cc" transform="translate(107.000000, 27.000000)">
                    <path d="M15.0006667,23.19 C11.6686667,23.19 8.95766667,20.48 8.95766667,17.1483333 C8.95766667,16.194 9.17133333,15.2743333 9.576,14.4876667 C9.84,13.9686667 9.94566667,13.819 10.1633333,13.5113333 C10.251,13.3876667 10.3566667,13.237 10.506,13.0153333 L10.8136667,12.5583333 C11.343,11.7766667 11.9416667,10.8916667 12.453,10.003 C13.5876667,8.04533333 14.3836667,6.14933333 14.3926667,6.13133333 C14.4943333,5.88533333 14.7353333,5.72566667 15.0006667,5.72566667 L15.002,5.72566667 C15.2673333,5.72566667 15.5083333,5.88666667 15.61,6.13266667 C15.6176667,6.15066667 16.4033333,8.03366667 17.5433333,10.0016667 C18.061,10.8953333 18.6663333,11.7906667 19.201,12.5813333 L19.4946667,13.0143333 C19.639,13.2293333 19.7433333,13.3786667 19.8296667,13.4996667 C20.0563333,13.8203333 20.1593333,13.9673333 20.4363333,14.5173333 C20.8316667,15.2823333 21.043,16.1943333 21.043,17.1486667 C21.0423333,20.4803333 18.3326667,23.19 15.0006667,23.19 Z M14.9993333,7.986 C14.6503333,8.72 14.1673333,9.677 13.5953333,10.6636667 C13.061,11.591 12.4206667,12.5376667 11.9056667,13.2976667 L11.6003333,13.7496667 C11.4446667,13.9826667 11.3323333,14.1423333 11.241,14.2713333 C11.0593333,14.529 10.9706667,14.6536667 10.749,15.089 C10.44,15.6916667 10.2763333,16.4026667 10.2763333,17.1483333 C10.2763333,19.7526667 12.395,21.8713333 15.0006667,21.8713333 C17.605,21.8713333 19.7236667,19.7526667 19.7236667,17.1483333 C19.7236667,16.404 19.564,15.7006667 19.2613333,15.116 C19.027,14.651 18.9406667,14.5286667 18.7513333,14.2596667 C18.661,14.132 18.5516667,13.9763333 18.3996667,13.7496667 L18.1086667,13.3206667 C17.5896667,12.5516667 16.943,11.596 16.4023333,10.6636667 C15.829,9.673 15.3473333,8.71733333 14.9993333,7.986 Z" id="Shape"></path>
                    <path d="M26.6070281,7.84753626 C27.8983675,9.92867626 28.6516667,12.3753231 28.6516667,15 C28.6516667,22.528 22.5276667,28.6523333 15.0006667,28.6523333 C11.9486667,28.6523333 9.13766667,27.6336667 6.86166667,25.935 C6.83266667,25.9133333 6.80833333,25.8856667 6.77933333,25.8636667 L8.06633333,25.8636667 C8.431,25.8636667 8.72566667,25.5686667 8.72566667,25.2043333 C8.72566667,24.84 8.43066667,24.545 8.06633333,24.545 L5.282,24.545 L5.20333333,24.545 C4.839,24.545 4.544,24.84 4.544,25.2043333 L4.544,25.6683333 L4.544,28.0686667 C4.544,28.4333333 4.839,28.728 5.20333333,28.728 C5.568,28.728 5.86266667,28.433 5.86266667,28.0686667 L5.86266667,26.8243333 C5.88333333,26.8403333 5.90066667,26.8596667 5.92133333,26.8756667 C8.44333333,28.8086667 11.5853333,29.971 15.001,29.971 C23.2553333,29.971 29.9706667,23.2543333 29.9706667,14.9996667 C29.9703849,12.1127519 29.139769,9.42073332 27.7151029,7.13350657 L26.6070281,7.84753626 Z" id="Shape"></path>
                    <path d="M15.0006667,1.34766667 C18.0513333,1.34766667 20.8623333,2.366 23.1376667,4.064 C23.2196667,4.12533333 23.289,4.20166667 23.3696667,4.26466667 L21.895,4.26466667 C21.5303333,4.26466667 21.2356667,4.55966667 21.2356667,4.924 C21.2356667,5.28833333 21.5306667,5.58333333 21.895,5.58333333 L24.758,5.58333333 C25.1533333,5.539 25.4173333,5.26666667 25.4173333,4.924 L25.4173333,4.297 L25.4173333,2.06 C25.4173333,1.69533333 25.1223333,1.40066667 24.758,1.40066667 C24.3933333,1.40066667 24.0986667,1.69566667 24.0986667,2.06 L24.0986667,3.14133333 C21.5566667,1.19133333 18.4153333,0.029 15.0006667,0.029 C6.74633333,0.029 0.0296666667,6.74533333 0.0296666667,15 C0.0296666667,17.9991167 0.926312232,20.7876362 2.45355585,23.1304519 L3.45709345,22.2548432 C2.12677729,20.1516165 1.34833333,17.6675398 1.34833333,15 C1.34833333,7.472 7.47266667,1.34766667 15.0006667,1.34766667 Z" id="Shape"></path>
                </g>
            </g>
        </g>
    </g>
</svg>