<?xml version="1.0" encoding="UTF-8" standalone="no"?>
<svg width="27px" height="46px" viewBox="0 0 27 46" version="1.1" xmlns="http://www.w3.org/2000/svg" xmlns:xlink="http://www.w3.org/1999/xlink">
    <!-- Generator: Sketch 41 (35326) - http://www.bohemiancoding.com/sketch -->
    <title>Group 5</title>
    <desc>Created with Sketch.</desc>
    <defs></defs>
    <g id="Icons" stroke="none" stroke-width="1" fill="none" fill-rule="evenodd">
        <g id="Icons-Subcat" transform="translate(-888.000000, -126.000000)" fill="#2BB0D4">
            <g id="Group-5" transform="translate(888.000000, 126.000000)">
                <path d="M22.6764,32.5147843 L21.4794,32.2550196 C21.5244,32.0475686 21.5595,31.832 21.5856,31.6110196 L22.8015,31.7517255 C22.7709,32.0141961 22.7295,32.2676471 22.6764,32.5147843 Z M4.9734,33.4744706 C4.77,32.9522353 4.6098,32.3858039 4.5,31.7941176 L5.7033,31.5686275 C5.7996,32.085451 5.9373,32.5770196 6.1128,33.027098 L4.9734,33.4744706 Z M21.4074,35.3370196 L20.4237,34.6073333 C20.7189,34.2077647 20.9628,33.7748235 21.1509,33.3193333 L22.2822,33.787451 C22.0563,34.3349412 21.762,34.8562745 21.4074,35.3370196 Z M6.642,36.0694118 C6.2253,35.6463922 5.8599,35.1755686 5.5548,34.6650588 L6.6042,34.0345882 C6.8589,34.4603137 7.1649,34.8544706 7.5123,35.2071373 L6.642,36.0694118 Z M19.1367,37.4034118 L18.4914,36.3607451 C18.9288,36.0892549 19.3302,35.7816863 19.6848,35.4443529 L20.5272,36.3336863 C20.1114,36.7278431 19.6443,37.0886275 19.1367,37.4034118 Z M9.171,37.7975686 C8.6202,37.5468235 8.1099,37.2536863 7.6536,36.9280784 L8.3637,35.9305098 C8.7552,36.2101176 9.198,36.4626667 9.6759,36.6800392 L9.171,37.7975686 Z M16.3431,38.5831765 L16.0407,37.3952941 C16.5393,37.2672157 17.0244,37.098549 17.4843,36.892902 L17.9811,38.0140392 C17.4591,38.2467451 16.9083,38.4388627 16.3431,38.5831765 Z M12.0366,38.6724706 C11.4534,38.5624314 10.8963,38.4226275 10.3815,38.2593725 L10.7532,37.0895294 C11.2203,37.2392549 11.7288,37.3655294 12.2634,37.466549 L12.0366,38.6724706 Z M13.9779,38.8916471 C13.7457,38.8916471 13.5216,38.8826275 13.3065,38.8636863 L13.4145,37.6415294 C13.8771,37.6821176 14.391,37.6703922 14.9166,37.6072549 L15.0633,38.824 C14.6943,38.869098 14.3289,38.8916471 13.9779,38.8916471 L13.9779,38.8916471 Z" id="Fill-61"></path>
                <polyline id="Fill-62" points="13.1328 31.5018824 13.1949 34.6704706 14.418 34.6470196 14.3568 31.4775294 15.7671 31.4477647 13.6647 27.9607843 11.7 31.5307451 13.1328 31.5018824"></polyline>
                <path d="M20.0405374,27.4182406 C18.0587374,19.7551818 16.1768374,8.58259352 20.3663374,1.22710332 C20.8901374,0.307103324 19.4771374,-0.517288833 18.9560374,0.400005285 C14.4641374,8.28314254 16.3316374,19.6081621 18.4646374,27.8538876 C18.7283374,28.8758092 20.3051374,28.4419661 20.0405374,27.4182406" id="Fill-63" fill-opacity="0.646654212"></path>
                <path d="M6.74034007,27.4182406 C6.47574007,28.4419661 8.05254007,28.8758092 8.31624007,27.8538876 C10.4501401,19.6081621 12.3167401,8.28314254 7.82574007,0.400005285 C7.30374007,-0.517288833 5.89074007,0.307103324 6.41454007,1.22710332 C10.6049401,8.58259352 8.72214007,19.7551818 6.74034007,27.4182406" id="Fill-64" fill-opacity="0.646654212"></path>
                <path d="M4.33147086,29.5980461 C5.37907086,29.5493402 5.38447086,27.9122814 4.33147086,27.9618892 C1.93477086,28.0737324 0.938470863,31.003301 0.339970863,32.9389089 C-0.623029137,36.0551834 0.527170863,39.1308696 2.93917086,41.2134971 C3.73207086,41.8989873 4.89127086,40.7480853 4.09297086,40.0571834 C2.21917086,38.4390657 1.22827086,36.2896932 1.79617086,33.809301 C2.04907086,32.7016932 2.87167086,29.6656932 4.33147086,29.5980461" id="Fill-65" fill-opacity="0.646654212"></path>
                <path d="M22.3877263,29.5980461 C21.3401263,29.5493402 21.3347263,27.9122814 22.3877263,27.9618892 C24.7844263,28.0737324 25.7807263,31.003301 26.3792263,32.9389089 C27.3422263,36.0551834 26.1920263,39.1308696 23.7800263,41.2134971 C22.9871263,41.8989873 21.8279263,40.7480853 22.6262263,40.0571834 C24.5000263,38.4390657 25.4900263,36.2896932 24.9230263,33.809301 C24.6701263,32.7016932 23.8475263,29.6656932 22.3877263,29.5980461" id="Fill-66" fill-opacity="0.646654212"></path>
                <path d="M21.853787,37.9083676 C19.992587,38.357544 18.689387,39.7348381 17.423087,41.0913872 C16.671587,41.8950342 15.869687,42.8926028 14.894087,43.4292695 C14.352287,43.7269166 13.803287,43.8062891 13.235387,43.8207205 C12.994187,43.8153087 12.755687,43.7954656 12.518987,43.7530734 C12.376787,43.6926421 12.239987,43.6150734 12.116687,43.5014264 C11.890787,43.2957793 11.636987,43.2587989 11.403887,43.3102107 C10.508387,42.7555048 9.75328698,41.8445244 9.04858698,41.0913872 C7.78228698,39.7348381 6.47908698,38.357544 4.61788698,37.9083676 C3.59458698,37.6621323 3.16078698,39.2387597 4.18408698,39.484995 C6.40258698,40.0207597 7.81108698,42.2774656 9.38968698,43.7720146 C10.073687,44.4196225 10.728887,44.8155832 11.420987,45.0645244 C11.546087,45.2773872 11.756687,45.4388381 12.077087,45.442446 C12.252587,45.4451519 12.418187,45.441544 12.584687,45.4397401 C13.030187,45.5155048 13.491887,45.5073872 13.957187,45.4397401 C14.102087,45.4406421 14.243387,45.4442499 14.394587,45.442446 C14.674487,45.4397401 14.874287,45.3179754 15.004787,45.1475048 C15.050687,45.1141323 15.088487,45.0780538 15.123587,45.0383676 C15.788687,44.7876225 16.421387,44.3979754 17.081987,43.7720146 C18.660587,42.2774656 20.069087,40.0207597 22.287587,39.484995 C23.310887,39.2387597 22.877087,37.6621323 21.853787,37.9083676" id="Fill-67" fill-opacity="0.646654212"></path>
            </g>
        </g>
    </g>
</svg>