<?xml version="1.0" encoding="UTF-8" standalone="no"?>
<svg width="27px" height="17px" viewBox="0 0 27 17" version="1.1" xmlns="http://www.w3.org/2000/svg" xmlns:xlink="http://www.w3.org/1999/xlink">
    <!-- Generator: Sketch 41 (35326) - http://www.bohemiancoding.com/sketch -->
    <title>Group</title>
    <desc>Created with Sketch.</desc>
    <defs></defs>
    <g id="Configurator-iPad" stroke="none" stroke-width="1" fill="none" fill-rule="evenodd" stroke-linejoin="round">
        <g id="Hair-Diagnostik" transform="translate(-701.000000, -462.000000)" stroke="#B2B2B2" stroke-width="1.7">
            <g id="Group-19" transform="translate(381.000000, 390.000000)">
                <g id="Group" transform="translate(321.000000, 73.000000)">
                    <path d="M7.86465909,6.17121429 L18.7771591,0.267642857 C19.5907955,-0.175928571 20.6339773,0.0876428571 21.1044318,0.855857143" id="Stroke-6942" stroke-linecap="round"></path>
                    <path d="M17.1386364,6.17121429 L6.22727273,0.267642857 C5.41363636,-0.175928571 4.37045455,0.0876428571 3.9,0.855857143" id="Stroke-6943" stroke-linecap="round"></path>
                    <path d="M10.7977273,10.1785714 C10.7977273,12.5464286 8.76477273,14.4642857 6.25227273,14.4642857 C3.74204545,14.4642857 1.70681818,12.5464286 1.70681818,10.1785714 C1.70681818,7.81178571 3.74204545,5.89285714 6.25227273,5.89285714 C8.76477273,5.89285714 10.7977273,7.81178571 10.7977273,10.1785714 L10.7977273,10.1785714 Z" id="Stroke-6944" fill="#FFFFFF"></path>
                    <path d="M14.2068182,10.1785714 C14.2068182,12.5464286 16.2420455,14.4642857 18.7522727,14.4642857 C21.2647727,14.4642857 23.2977273,12.5464286 23.2977273,10.1785714 C23.2977273,7.81178571 21.2647727,5.89285714 18.7522727,5.89285714 C16.2420455,5.89285714 14.2068182,7.81178571 14.2068182,10.1785714 L14.2068182,10.1785714 Z" id="Stroke-6945" fill="#FFFFFF"></path>
                    <path d="M10.7977273,10.1785714 C10.7977273,9.29142857 11.5613636,8.57142857 12.5022727,8.57142857 C13.4431818,8.57142857 14.2068182,9.29142857 14.2068182,10.1785714" id="Stroke-6946"></path>
                    <path d="M1.70568182,9 L0.569318182,9" id="Stroke-6947" stroke-linecap="round"></path>
                    <path d="M23.2965909,9 L24.4329545,9" id="Stroke-6948" stroke-linecap="round"></path>
                </g>
            </g>
        </g>
    </g>
</svg>