<?xml version="1.0" encoding="UTF-8" standalone="no"?>
<svg width="29px" height="15px" viewBox="0 0 29 15" version="1.1" xmlns="http://www.w3.org/2000/svg" xmlns:xlink="http://www.w3.org/1999/xlink">
    <!-- Generator: Sketch 41 (35326) - http://www.bohemiancoding.com/sketch -->
    <title>Group</title>
    <desc>Created with Sketch.</desc>
    <defs></defs>
    <g id="Icons" stroke="none" stroke-width="1" fill="none" fill-rule="evenodd">
        <g id="Icons-Cat" transform="translate(-246.000000, -49.000000)" fill="#2BB0D4">
            <g id="Group" transform="translate(246.000000, 49.000000)">
                <path d="M28.4340112,7.13621053 C28.2010337,6.85736842 22.7258989,0.415578947 14.9346742,0.198631579 C14.8027079,0.192 14.669764,0.188210526 14.5355169,0.188210526 L14.5348652,0.188210526 L14.5342135,0.188210526 C14.524764,0.188210526 14.5156404,0.188842105 14.5065169,0.188842105 C14.3830225,0.189157895 14.2598539,0.192 14.1376629,0.198315789 C6.3441573,0.413684211 0.868044944,6.85736842 0.635067416,7.13621053 L0.303359551,7.53347368 L0.635067416,7.93073684 C0.868044944,8.20989474 6.3441573,14.6535789 14.1376629,14.8686316 C14.2598539,14.8749474 14.3826966,14.8774737 14.5065169,14.8781053 C14.5159663,14.8781053 14.5250899,14.8787368 14.5342135,14.8787368 L14.5348652,14.8787368 L14.5355169,14.8787368 C14.6694382,14.8787368 14.802382,14.8749474 14.9346742,14.8686316 C22.7258989,14.6513684 28.2010337,8.20989474 28.4340112,7.93105263 L28.7660449,7.53347368 L28.4340112,7.13621053 L28.4340112,7.13621053 Z M14.5368202,13.6155789 L14.5355169,13.6155789 C11.0744157,13.6152632 8.25880899,10.8868421 8.25880899,7.53315789 C8.25880899,4.80757895 10.1187191,2.49505263 12.6736517,1.72452632 C11.3135843,2.38642105 10.3780899,3.74684211 10.3780899,5.32294737 C10.3780899,7.54768421 12.2389775,9.35115789 14.5348652,9.35115789 C16.8291236,9.35115789 18.6909888,7.54768421 18.6909888,5.32294737 C18.6909888,4.62631579 18.508191,3.97136842 18.187236,3.39978947 C18.0406067,3.98842105 17.497427,4.42768421 16.8441124,4.42768421 C16.078382,4.42768421 15.4586292,3.82642105 15.4586292,3.08526316 C15.4586292,2.45210526 15.9115506,1.92536842 16.5192472,1.78326316 C16.4749326,1.75989474 16.4270337,1.74284211 16.3814157,1.72073684 C18.943191,2.48652632 20.8105955,4.80221053 20.8105955,7.53315789 C20.8102697,10.8868421 17.9959663,13.6149474 14.5368202,13.6155789 L14.5368202,13.6155789 Z M2.00882022,7.53315789 C2.90195506,6.58736842 5.39660674,4.17568421 8.845,2.68894737 C7.67033708,3.98305263 6.9554382,5.67821053 6.9554382,7.53315789 C6.9554382,9.38589474 7.66838202,11.0794737 8.84108989,12.3732632 C5.3985618,10.8862105 2.90260674,8.47768421 2.00882022,7.53315789 L2.00882022,7.53315789 Z M20.2250562,12.3773684 C21.3993933,11.0832632 22.1136404,9.38810526 22.1136404,7.53315789 C22.1136404,5.68073684 21.4010225,3.98778947 20.229618,2.69431579 C23.6711685,4.18168421 26.1664719,6.58957895 27.0602584,7.53378947 C26.1671236,8.48021053 23.6721461,10.8909474 20.2250562,12.3773684 L20.2250562,12.3773684 Z" id="Shape"></path>
            </g>
        </g>
    </g>
</svg>