<?xml version="1.0" encoding="UTF-8" standalone="no"?>
<svg width="20px" height="21px" viewBox="0 0 20 21" version="1.1" xmlns="http://www.w3.org/2000/svg" xmlns:xlink="http://www.w3.org/1999/xlink">
    <!-- Generator: Sketch 41 (35326) - http://www.bohemiancoding.com/sketch -->
    <title>Group 3 Copy</title>
    <desc>Created with Sketch.</desc>
    <defs></defs>
    <g id="Icons" stroke="none" stroke-width="1" fill="none" fill-rule="evenodd">
        <g id="Icons-Cat" transform="translate(-150.000000, -45.000000)" fill="#2BB0D4">
            <g id="Group-3-Copy" transform="translate(150.000000, 45.000000)">
                <path d="M17.0027642,20.4234139 C16.6685095,20.2675678 16.3332791,20.1268911 16,20" id="Fill-1-Copy"></path>
                <path d="M17.0204878,3.03506037 C15.0944715,1.10146153 12.5953388,0.0366195773 9.98352304,0.0366195773 C7.36336043,0.0366195773 4.86460705,1.09012436 2.94764228,3.00317792 C1.07436314,4.87258605 0,7.38826584 0,9.90522307 C0,12.9645546 0.452086721,17.1276895 2.45121951,20.5652991 C2.78081301,20.4022675 3.11224932,20.2545117 3.44260163,20.120648 C1.51777778,16.870075 1.08401084,12.8551216 1.08401084,9.90522307 C1.08401084,7.66530785 2.04493225,5.42177325 3.7203252,3.74983407 C5.43186992,2.04180756 7.65620596,1.10114217 9.98352304,1.10114217 C14.724336,1.10114217 18.882981,5.21520264 18.882981,9.90522307 C18.882981,14.6890812 17.6878049,17.9295412 16.4523577,20.0010489 C16.7856369,20.12794 17.1208672,20.2686167 17.455122,20.4244628 C18.743523,18.2186123 19.9669919,14.8277352 19.9669919,9.90522307 C19.9669919,7.41897732 18.8930623,4.91490082 17.0204878,3.03506037" id="Fill-6-Copy"></path>
                <path d="M8.03427293,16.2390804 C7.94419163,16.4410204 8.03779597,16.6764396 8.24343282,16.7649546 L9.00001819,17.0905388 C9.18532984,17.1702716 9.38527564,17.2101912 9.58527564,17.2101912 C9.77286372,17.2101912 9.96050599,17.1750619 10.1361158,17.1046438 L10.9733515,16.7688933 C11.1812106,16.6855412 11.2808312,16.452464 11.1959531,16.248395 C11.1110751,16.0442196 10.8738393,15.94639 10.6659802,16.0297421 L9.82874448,16.3654925 C9.66825667,16.4298429 9.48516724,16.4276074 9.32630545,16.3592118 L8.56977429,16.0336808 C8.36413743,15.9452722 8.12440843,16.0371405 8.03427293,16.2390804" id="Fill-9-Copy"></path>
                <path d="M16.8043639,10.7638581 C16.7471823,10.7263869 15.3841471,9.84778317 13.6268571,10.02311 C11.7445265,10.2106257 11.0284289,11.127499 10.6842555,11.5681049 C10.6631715,11.5950906 10.6434967,11.6202665 10.6250685,11.6432602 C10.1744994,12.204583 9.77796821,13.5400798 10.1432257,15.456593 C10.1797568,15.6484732 10.3504885,15.7824434 10.5423043,15.7824434 C10.5671281,15.7824434 10.5922772,15.7802079 10.6175346,15.775524 C10.8382392,15.7349657 10.9836051,15.5264257 10.9423585,15.3097422 C10.7707595,14.4092093 10.714662,12.8213141 11.2635509,12.137518 C11.2840929,12.1119163 11.3059357,12.0839726 11.3293503,12.0540062 C11.6252311,11.6751959 12.1759628,10.9701626 13.7089167,10.8174036 C15.1675075,10.6719366 16.3421417,11.4208814 16.3537948,11.4284395 C16.5404072,11.5501145 16.7922772,11.5006142 16.9167216,11.3175163 C17.0413828,11.1341523 16.9910847,10.8862782 16.8043639,10.7638581" id="Fill-11-Copy"></path>
                <path d="M8.62883372,12.0094363 C8.70764131,12.1216902 8.83463318,12.1820486 8.96384727,12.1820486 C9.04276326,12.1820486 9.12249225,12.1595339 9.19257356,12.1125885 C9.37804781,11.9883587 9.42579849,11.7400056 9.29929442,11.5578658 C9.26140824,11.5033622 8.34948412,10.2214109 6.35831881,10.0230371 C4.60102884,9.84802958 3.23799361,10.7263672 3.18086624,10.7638384 C2.99414537,10.8862585 2.94379307,11.1341326 3.06845431,11.3174966 C3.19311556,11.5009138 3.44558169,11.5502544 3.63224835,11.4278343 C3.64384727,11.4202762 4.80596109,10.6704797 6.27631339,10.8173839 C7.87365757,10.97653 8.59642179,11.9640344 8.62883372,12.0094363" id="Fill-13-Copy"></path>
                <path d="M9.42857143,8.05727554 C12.4266886,8.05727554 14.8251953,7.87454195 14.8571429,5.52863777 C14.8571429,4.13210969 12.4266886,3 9.42857143,3 C6.43045422,3 4,4.13210969 4,5.52863777 C4.05845424,8.07250334 6.43045422,8.05727554 9.42857143,8.05727554 Z" id="Oval-6-Copy"></path>
            </g>
        </g>
    </g>
</svg>