<?xml version="1.0" encoding="UTF-8" standalone="no"?>
<svg width="31px" height="29px" viewBox="0 0 31 29" version="1.1" xmlns="http://www.w3.org/2000/svg" xmlns:xlink="http://www.w3.org/1999/xlink">
    <!-- Generator: Sketch 41 (35326) - http://www.bohemiancoding.com/sketch -->
    <title>Group 24 Copy 3</title>
    <desc>Created with Sketch.</desc>
    <defs></defs>
    <g id="Icons" stroke="none" stroke-width="1" fill="none" fill-rule="evenodd">
        <g id="Icons-Subcat" transform="translate(-1328.000000, -511.000000)" fill="#2BB0D4">
            <g id="Group-24-Copy-3" transform="translate(1328.000000, 511.000000)">
                <g id="Group-12-Copy-3" fill-opacity="0.6">
                    <path d="M23.6025467,19.9747782 C23.9180208,20.1777814 24.2523068,20.4582307 24.4422681,20.6695056 C24.3306114,20.7242226 24.1987297,20.7808263 24.0952748,20.8251659 C23.4865685,21.0855433 22.6527779,21.4421471 22.4508079,22.3619584 C22.2589969,23.2355433 22.0348446,24.0713924 21.6772262,25.2449773 C21.4367634,26.0336565 20.4274723,27.1317697 18.7425554,26.7195056 C18.2451331,26.5978075 17.7789336,26.420449 17.2854258,26.2317697 C15.7535476,25.6487509 14.0172761,24.9874301 11.4808601,26.2798829 L12.3190313,27.965732 C14.1256707,27.0449773 15.2304013,27.465732 16.6289998,27.9978075 C17.1534509,28.1978075 17.6957969,28.4044112 18.3043167,28.5534678 C18.7077909,28.6525244 19.0961662,28.6978075 19.4672058,28.6978075 C21.4947354,28.6978075 22.9920354,27.3317697 23.4585145,25.801581 C23.8173446,24.6232792 24.0570617,23.7327131 24.2547445,22.8430905 C24.3637915,22.7581848 24.6459158,22.6374301 24.8211367,22.5629018 C25.380166,22.3232792 26.0757371,22.0261093 26.3492868,21.2978075 C26.5423094,20.7845999 26.4233829,20.2940339 26.1647456,19.8600716 C26.7329088,19.6902603 27.2692898,19.3761093 27.4371477,18.7534678 C27.6830162,17.8412037 27.2085217,17.2025244 26.8946153,16.7789395 C26.5641188,16.3345999 26.440439,16.1676188 26.6575079,15.6364867 C26.7625472,15.3798829 26.7735451,15.3534678 27.5378066,15.3327131 C27.84668,15.3242226 28.1968422,15.3147886 28.5866156,15.2525244 C29.7445649,15.0666754 30.3112367,14.5100716 30.5825496,14.0761093 C30.8264608,13.6855433 31.0617974,13.0289395 30.798034,12.1185622 C30.5581305,11.2902603 29.908415,10.4034678 29.1560835,9.37610934 C28.1147307,7.95346783 26.9344128,6.34214708 26.8555634,4.86950557 C26.798337,3.80158104 27.0112118,2.81007161 27.1989218,1.93554331 C27.2918449,1.50252444 27.3796417,1.09403387 27.4222353,0.722335759 C27.5783497,-0.639928391 25.5799924,0.423279156 25.570579,0.504411231 C25.5385173,0.783656514 25.463862,1.13176972 25.3773699,1.53459991 C25.1751203,2.47705274 24.9234732,3.64969425 24.994214,4.97139236 C25.1034475,7.01007161 26.5202204,8.94497727 27.6586903,10.4996943 C28.2506201,11.3081848 28.8627749,12.1440339 29.0092894,12.6496943 C29.0466637,12.7789395 29.0767681,12.956298 29.0074254,13.0666754 C28.917112,13.211015 28.650739,13.3317697 28.294705,13.3883735 C28.0254426,13.4317697 27.752359,13.4393169 27.488316,13.4459207 C26.7021519,13.4676188 25.5140982,13.4996943 24.9351235,14.915732 C24.3113184,16.4412037 24.9957052,17.3619584 25.4045851,17.9129018 C25.4414001,17.9629018 25.4862306,18.0232792 25.5270533,18.0808263 C25.2432653,18.1477348 24.8129724,18.1993238 24.3897204,18.215345 C23.7240355,18.0811208 22.7506369,17.8296599 22.1556569,17.4718876 C21.7129445,17.2058499 21.1411465,17.3539631 20.8784083,17.8011329 C20.6156701,18.2492461 20.7615322,18.8284914 21.2041514,19.0945292 C21.9199149,19.5243281 22.8723775,19.8058696 23.6025467,19.9747782 Z M3.62014535,1.23238517 L3.43103725,1.25691347 C1.21160339,1.54370592 -0.248322361,3.45408328 0.0351067896,5.70125309 C0.172207835,6.78804554 0.486114241,7.56634743 0.762926005,8.25313988 C1.01009934,8.86540403 1.22362653,9.39464932 1.3116098,10.0918191 C1.46530091,11.3106871 2.12918313,12.320121 3.04405999,12.7267248 C3.33140365,12.8540833 3.62937241,12.9182342 3.92985764,12.9182342 C4.42280627,12.9182342 4.92227908,12.7474795 5.39127463,12.4116304 C5.70639267,12.1852154 5.78095476,11.7437059 5.55792091,11.424838 C5.33488705,11.1059701 4.89860561,11.0304984 4.58348757,11.2559701 C4.23528261,11.5059701 3.90646378,11.5644606 3.60635136,11.4314418 C3.15236143,11.229555 2.78747319,10.6191776 2.6983715,9.91257385 C2.58718078,9.03144177 2.31782522,8.36351724 2.05732391,7.71823422 C1.78917999,7.05313988 1.53585529,6.424838 1.42186849,5.52200781 C1.23639529,4.05125309 2.15583908,2.8484229 3.60802901,2.66068705 L3.79713712,2.63615875 C4.55273071,2.53804554 5.09097581,2.98332856 5.34458012,3.25785686 C5.75467163,3.7003097 5.97435019,4.28804554 5.89121346,4.72012102 C5.88897659,4.73144177 5.88701934,4.74370592 5.88534169,4.75502668 C5.79549437,5.39370592 5.62558601,5.87766819 5.45511842,6.26257385 C5.25799489,6.03898894 5.03514744,5.85880026 4.78620326,5.7238946 C3.95138744,5.27012102 3.30521372,5.4729512 3.08227306,5.54181913 C2.85933241,5.61068705 2.49854509,5.94559271 2.64002666,6.42200781 C2.79222653,6.93427196 3.2546047,6.90974366 3.51109829,6.88898894 C3.76768509,6.86729083 3.82808038,6.8003097 4.14217319,6.97955498 C4.4739745,7.17012102 4.74016117,7.60974366 4.91193359,8.25313988 C4.99618875,8.56917762 5.27831306,8.77672479 5.5863477,8.77672479 C5.646743,8.77672479 5.70807032,8.76823422 5.76921123,8.75219649 C6.12394038,8.65502668 6.34007725,8.2984229 6.27325097,7.93898894 C6.28322365,7.88521536 6.28779058,7.82955498 6.2849945,7.7729512 C6.31034561,7.69747951 6.39236391,7.53615875 6.459563,7.40408328 C6.71447215,6.90219649 7.09921254,6.14464932 7.26707045,4.97106441 C7.42849738,4.09276253 7.08392731,3.06729083 6.36486914,2.28993234 C5.62288313,1.48804554 4.62235306,1.10219649 3.62014535,1.23238517 Z" id="Combined-Shape"></path>
                </g>
                <path d="M8.00039687,16.3638714 C7.96709609,12.3340253 10.0405238,14.0490521 10.0405238,14.0490521 L15.1062395,16.6612416 C15.1062395,16.6612416 17.2932242,17.6647057 16.8126483,21.0461915 C16.3320723,24.4276774 8.00039687,19.6747235 8.00039687,16.3638714 Z" id="Path-2" stroke="#2BB0D4" stroke-width="2.79782609" stroke-linecap="round" stroke-linejoin="round"></path>
            </g>
        </g>
    </g>
</svg>