<?xml version="1.0" encoding="UTF-8" standalone="no"?>
<svg width="25px" height="19px" viewBox="0 0 25 19" version="1.1" xmlns="http://www.w3.org/2000/svg" xmlns:xlink="http://www.w3.org/1999/xlink">
    <!-- Generator: Sketch 41 (35326) - http://www.bohemiancoding.com/sketch -->
    <title>Group 27</title>
    <desc>Created with Sketch.</desc>
    <defs></defs>
    <g id="Configurator-iPad" stroke="none" stroke-width="1" fill="none" fill-rule="evenodd" stroke-linecap="round" stroke-linejoin="round">
        <g id="Hair-Diagnostik" transform="translate(-665.000000, -206.000000)" stroke="#A0A3A8" stroke-width="1.38125">
            <g id="Group-15-Copy-4" transform="translate(636.000000, 191.000000)">
                <g id="Group-27" transform="translate(30.000000, 16.000000)">
                    <path d="M10,10.8190769 C10,14.1567564 12.7660843,16.862742 16.1789557,16.862742 C19.5918271,16.862742 22.3587843,14.1567564 22.3587843,10.8190769 C22.3587843,7.1181125 17.5860014,4.52889705 16.1789557,0 C14.2743814,4.46807927 10,7.1173016 10,10.8190769 Z" id="Stroke-7"></path>
                    <path d="M13.6790292,16.3476991 C12.9146352,16.6788077 12.0687479,16.862742 11.1789557,16.862742 C7.76608429,16.862742 5,14.1567564 5,10.8190769 C5,7.1173016 9.27438143,4.46807927 11.1789557,0 C11.6737772,1.59269573 12.5848552,2.94550199 13.5582194,4.19113519 C11.7824942,6.47702446 10,8.42858388 10,10.8190769 C10,13.286568 11.5117756,15.4088132 13.6790292,16.3476991 Z" id="Combined-Shape"></path>
                    <path d="M8.67902924,16.3476991 C7.91463524,16.6788077 7.06874789,16.862742 6.17895571,16.862742 C2.76608429,16.862742 0,14.1567564 0,10.8190769 C0,7.1173016 4.27438143,4.46807927 6.17895571,0 C6.67377723,1.59269573 7.58485515,2.94550199 8.55821941,4.19113519 C6.7824942,6.47702446 5,8.42858388 5,10.8190769 C5,13.286568 6.51177563,15.4088132 8.67902924,16.3476991 Z" id="Combined-Shape"></path>
                    <path d="M16.0532643,14.8534038 C18.3410229,14.8534038 20.1757686,13.0394123 20.1958443,10.8013181 C20.2063186,9.66362024 19.5822257,8.68891402 18.8001457,7.70042243" id="Stroke-9"></path>
                </g>
            </g>
        </g>
    </g>
</svg>