<?xml version="1.0" encoding="UTF-8" standalone="no"?>
<svg width="40px" height="47px" viewBox="0 0 40 47" version="1.1" xmlns="http://www.w3.org/2000/svg" xmlns:xlink="http://www.w3.org/1999/xlink">
    <!-- Generator: Sketch 41 (35326) - http://www.bohemiancoding.com/sketch -->
    <title>Page 1</title>
    <desc>Created with Sketch.</desc>
    <defs></defs>
    <g id="Icons" stroke="none" stroke-width="1" fill="none" fill-rule="evenodd">
        <g id="Icons-Subcat" transform="translate(-3640.000000, -427.000000)">
            <g id="Page-1" transform="translate(3634.000000, 428.000000)">
                <path d="M11.3133317,0.367341717 C11.5635237,2.12315719 11.531409,4.71987221 10.5293292,8.28188901 C8.16408696,16.6873945 8.53730435,28.1036225 20.4876149,26.5785923 C28.5310932,26.2739522 39.9941988,22.001672 44.0821242,19.4126885" id="Stroke-5" stroke="#2BB0D4" stroke-width="2.73214286" stroke-linecap="round" stroke-linejoin="round"></path>
                <path d="M30.9844919,29.6329648 C32.2539826,29.9677945 33.266082,30.7673604 33.9702311,32.2329264 C36.2646907,37.0074511 35.3638211,40.299028 34.8931627,44.1742698" id="Stroke-7" stroke="#2BB0D4" stroke-width="2.73214286" stroke-linecap="round" stroke-linejoin="round"></path>
                <path d="M43.35482,29.0564111 C43.35482,29.0564111 41.3196001,32.7729289 42.9597156,36.0115415" id="Path-3" stroke="#2BB0D4" stroke-width="1.60714286" stroke-linecap="round" stroke-linejoin="round" transform="translate(42.837800, 32.533976) rotate(-9.000000) translate(-42.837800, -32.533976) "></path>
                <g id="Group-15" transform="translate(12.507855, 29.555538) rotate(220.000000) translate(-12.507855, -29.555538) translate(7.507855, 16.055538)">
                    <g id="augenbraue" transform="translate(5.419362, 13.353998) rotate(-9.000000) translate(-5.419362, -13.353998) translate(2.919362, 0.353998)">
                        <path d="M2.29787234,21.5206349 C2.29787234,21.5206349 2.88827713,17.5183296 2.0372133,4.5659486" id="Shape" stroke="#2BB0D4" stroke-width="1.5"></path>
                        <polygon id="Shape" fill="#2BB0D4" points="4.93119093 9.10418719 1.69762311 -1.46549439e-13 -1.53099755e-13 9.51428571"></polygon>
                        <ellipse id="Oval" stroke="#2BB0D4" stroke-width="1.5" cx="2.37060247" cy="23.325449" rx="1.98685857" ry="2.01587302"></ellipse>
                    </g>
                </g>
            </g>
        </g>
    </g>
</svg>