<?xml version="1.0" encoding="UTF-8" standalone="no"?>
<svg width="25px" height="35px" viewBox="0 0 25 35" version="1.1" xmlns="http://www.w3.org/2000/svg" xmlns:xlink="http://www.w3.org/1999/xlink">
    <!-- Generator: Sketch 41 (35326) - http://www.bohemiancoding.com/sketch -->
    <title>Page 1</title>
    <desc>Created with Sketch.</desc>
    <defs></defs>
    <g id="Configurator-iPad" stroke="none" stroke-width="1" fill="none" fill-rule="evenodd" stroke-linecap="round" stroke-linejoin="round">
        <g id="Hair-Amnese" transform="translate(-615.000000, -562.000000)" stroke="#A0A3A8" stroke-width="1.7">
            <g id="Group-15-Copy-12" transform="translate(548.000000, 534.000000)">
                <g id="Page-1" transform="translate(68.000000, 29.000000)">
                    <path d="M0.360568421,8.6856 C0.360568421,4.10390769 3.73646316,0.377907692 7.88688421,0.377907692 C12.0373053,0.377907692 15.4132,4.10390769 15.4132,8.6856" id="Stroke-1"></path>
                    <path d="M3.09741053,8.6856 C3.09741053,5.62698462 5.24172632,3.14713846 7.88688421,3.14713846 C10.5320421,3.14713846 12.6763579,5.62698462 12.6763579,8.6856" id="Stroke-5"></path>
                    <path d="M18.5503053,32.2240615 L7.83556842,32.2240615 C7.43462105,32.2240615 7.04325263,32.0509846 6.78188421,31.7408308 C3.95883158,28.3928308 2.42209474,24.3012923 1.76935789,19.9702154 C1.55177895,18.4886769 2.11146316,16.9517538 3.83704211,16.9517538 C4.97283158,16.9517538 5.83493684,17.8794462 5.83493684,19.0286769 L5.83493684,7.97944615 C5.83493684,6.84406154 6.76546316,5.91636923 7.88756842,5.91636923 C9.00830526,5.91636923 9.9402,6.84406154 9.9402,7.97944615 L9.9402,14.8886769 C9.9402,13.7394462 10.8707263,12.8117538 11.9928316,12.8117538 C13.1135684,12.8117538 14.0454632,13.7394462 14.0454632,14.8886769 L14.0454632,17.6440615 C14.0454632,16.5086769 14.9759895,15.5809846 16.0980947,15.5809846 C17.2188316,15.5809846 18.1507263,16.5086769 18.1507263,17.6440615 L18.1507263,20.3994462 C18.1507263,19.0923692 19.3836737,18.0608308 20.7219895,18.4028308 C21.6757789,18.6451385 22.2655684,19.6046769 22.2546211,20.5988308 C22.2163053,24.0437538 21.1913579,28.0785231 19.8092526,31.3946769 C19.5971474,31.9042154 19.0963053,32.2240615 18.5503053,32.2240615 Z" id="Stroke-7"></path>
                </g>
            </g>
        </g>
    </g>
</svg>