<?xml version="1.0" encoding="UTF-8" standalone="no"?>
<svg width="50px" height="44px" viewBox="0 0 50 44" version="1.1" xmlns="http://www.w3.org/2000/svg" xmlns:xlink="http://www.w3.org/1999/xlink">
    <!-- Generator: Sketch 41 (35326) - http://www.bohemiancoding.com/sketch -->
    <title>Group 37</title>
    <desc>Created with Sketch.</desc>
    <defs></defs>
    <g id="Icons" stroke="none" stroke-width="1" fill="none" fill-rule="evenodd">
        <g id="Icons-Subcat" transform="translate(-3633.000000, -279.000000)">
            <g id="Group-37" transform="translate(3633.000000, 279.000000)">
                <g id="Group-Copy-8" fill="#2BB0D4">
                    <path d="M49.3508046,36.0105263 C35.3652107,18.0631579 41.6128736,2.89473684 41.8994636,2.25789474 C42.1860536,1.56315789 41.8994636,0.810526316 41.2116475,0.521052632 C40.5238314,0.231578947 39.7786973,0.521052632 39.4921073,1.21578947 C39.2055172,1.91052632 32.3273563,18.4105263 47.2873563,37.6894737 C47.5166284,38.0368421 47.9178544,38.2105263 48.3190805,38.2105263 C48.6056705,38.2105263 48.8922605,38.0947368 49.1215326,37.9210526 C49.6947126,37.4578947 49.8093487,36.5894737 49.3508046,36.0105263 L49.3508046,36.0105263 Z" id="Shape"></path>
                    <path d="M18.4563985,20.4947368 C23.5003831,19.8578947 31.0090421,16.3263158 37.371341,8.04736842 C37.8298851,7.46842105 37.715249,6.65789474 37.142069,6.19473684 C36.5688889,5.73157895 35.7664368,5.84736842 35.3078927,6.42631579 C28.9455939,14.7052632 21.5515709,17.8315789 17.1380843,18.0052632 C8.54038314,18.2947368 6.24766284,4.16842105 6.24766284,3.99473684 C6.13302682,3.3 5.44521073,2.77894737 4.75739464,2.89473684 C4.06957854,3.01052632 3.55371648,3.70526316 3.66835249,4.4 C3.78298851,5.09473684 6.24766284,20.4368421 16.6222222,20.6105263 C16.7368582,21.2473684 16.9088123,22.2894737 17.0807663,24.2 C17.4819923,29.2368421 14.0429119,31.7263158 11.0050575,32.3631579 C9.45747126,32.6526316 7.79524904,33 6.30498084,33.3473684 C4.01226054,33.8684211 2.00613027,34.2736842 1.14636015,34.3894737 C0.630498084,34.4473684 0.286590038,34.9105263 0.343908046,35.4315789 C0.286590038,35.8947368 0.687816092,36.2421053 1.14636015,36.2421053 L1.26099617,36.2421053 C2.17808429,36.1263158 4.24153257,35.6631579 6.59157088,35.2 C8.08183908,34.9105263 9.6867433,34.5631579 11.2916475,34.2157895 C15.3612261,33.3473684 19.3161686,29.8736842 18.8576245,24.0263158 C18.7429885,22.4052632 18.5710345,21.3052632 18.4563985,20.4947368 Z" id="Shape"></path>
                    <path d="M39.8933333,39.4842105 C38.0591571,39.3105263 28.4870498,41.6263158 26.5382375,42.1473684 C26.0223755,42.2631579 25.7357854,42.7842105 25.8504215,43.3052632 C25.9650575,43.7105263 26.3089655,44 26.7675096,44 L26.9967816,44 C31.2956322,42.9578947 38.5177011,41.2789474 39.7213793,41.3947368 C40.2372414,41.4526316 40.6957854,41.0473684 40.7531034,40.5263158 C40.7531034,39.9473684 40.4091954,39.4842105 39.8933333,39.4842105 L39.8933333,39.4842105 Z" id="Shape"></path>
                    <path d="M18.9722605,42.1473684 C17.5393103,41.6842105 10.4318774,39.3105263 8.54038314,39.4842105 C8.02452107,39.5421053 7.62329502,40.0052632 7.68061303,40.5263158 C7.73793103,41.0473684 8.1964751,41.4526316 8.71233716,41.3947368 C9.80137931,41.2789474 15.017318,42.8421053 18.3990805,43.9421053 C18.5137165,44 18.5710345,44 18.6856705,44 C19.0868966,44 19.4308046,43.7684211 19.5454406,43.3631579 C19.7173946,42.8421053 19.4308046,42.2631579 18.9722605,42.1473684 L18.9722605,42.1473684 Z" id="Shape"></path>
                </g>
                <path d="M14.5956779,32.2270282 C14.5956779,32.2270282 21.4295954,33.992165 32.5256782,29.3779071" id="Path-11-Copy-6" stroke="#2BB0D4" stroke-width="1.5" stroke-dasharray="2,1.5" transform="translate(23.560678, 30.968286) rotate(-70.000000) translate(-23.560678, -30.968286) "></path>
                <path d="M21.4407078,27.4650533 C21.4407078,27.4650533 27.2405442,28.5749377 36.6576121,25.6735803" id="Path-11-Copy-7" stroke="#2BB0D4" stroke-width="1.5" stroke-dasharray="2,1.5" transform="translate(29.049160, 26.673580) rotate(-82.000000) translate(-29.049160, -26.673580) "></path>
                <path d="M14.5408616,28.4967836 C14.5408616,28.4967836 18.9840941,29.6066679 26.1984737,26.7053106" id="Path-11-Copy-8" stroke="#2BB0D4" stroke-width="1.5" stroke-dasharray="2,1.5" transform="translate(20.369668, 27.705311) rotate(-65.000000) translate(-20.369668, -27.705311) "></path>
            </g>
        </g>
    </g>
</svg>