<?xml version="1.0" encoding="UTF-8" standalone="no"?>
<svg width="28px" height="22px" viewBox="0 0 28 22" version="1.1" xmlns="http://www.w3.org/2000/svg" xmlns:xlink="http://www.w3.org/1999/xlink">
    <!-- Generator: Sketch 41 (35326) - http://www.bohemiancoding.com/sketch -->
    <title>Group 21</title>
    <desc>Created with Sketch.</desc>
    <defs></defs>
    <g id="Icons" stroke="none" stroke-width="1" fill="none" fill-rule="evenodd">
        <g id="Icons-Cat" transform="translate(-1438.000000, -45.000000)" fill="#2BB0D4">
            <g id="Group-21" transform="translate(1438.000000, 45.000000)">
                <path d="M26.7357242,11.9784572 L26.1294202,22 L27.3968593,22 L28,12.0166684 C28,9.02893221 25.6865546,7.83364826 24.4644565,7.61890768 C20.4965919,6.90721109 18.2812096,5.12223266 17.6791233,4.57569684 L17.6791233,0.488888889 C17.2963609,0.928054425 16.8735297,1.28332376 16.4137931,1.55838118 L16.4137931,5.09139002 L16.5825038,5.27265633 C16.6837302,5.3812898 19.1057831,7.94091328 24.2430237,8.862403 C24.2683303,8.86735045 26.7346698,9.331148 26.7357242,11.9784572 Z" id="Fill-49"></path>
                <path d="M1.8686413,21.5111111 L1.26439115,11.5580257 C1.26439115,8.87938216 3.72884593,8.41824912 3.75626392,8.41331666 C8.89291742,7.49461875 11.3162452,4.94275007 11.4164263,4.83444573 L11.5862069,4.65372859 L11.5862069,1.09574193 C11.1264284,0.81291227 10.7025042,0.448854348 10.3207616,0 L10.3207616,4.13959779 C9.71756596,4.6856322 7.49987302,6.46404833 3.53481098,7.17243431 C2.31154716,7.38641935 -0.00105417725,8.57808199 3.60524933e-07,11.5961211 L0.60214143,21.5111111 L1.8686413,21.5111111" id="Fill-50"></path>
                <path d="M4.53106421,22 L5.79310345,22 C5.49450059,20.0453054 5.22607015,17.7285983 5.13347206,15.3123487 L5.10850178,14.6666667 L3.86206897,14.7184288 L3.88599881,15.3641108 C3.97755648,17.7525962 4.2376635,20.044014 4.53106421,22" id="Fill-51"></path>
                <path d="M8.79967064,21.5111111 C8.56576186,21.5111111 8.32972664,21.4946545 8.09369142,21.4616331 C7.12722287,21.3246753 3.96945436,20.5049854 3.86206897,15.6735683 L5.13793503,15.6444444 C5.21873988,19.345337 7.35475232,20.0457166 8.26805978,20.1739048 C9.82674282,20.3959605 11.4513456,19.5611133 11.8149674,18.3519868 L13.0344828,18.7338447 C12.5390214,20.3793956 10.7538722,21.5111111 8.79967064,21.5111111" id="Fill-52"></path>
                <path d="M23.4682562,22 C23.7614989,20.044014 24.0214658,17.7525962 24.1129742,15.3641108 L24.137931,14.7184288 L22.8900897,14.6666667 L22.8661727,15.3123487 C22.7736245,17.7285983 22.5053386,20.0453054 22.2068966,22 L23.4682562,22" id="Fill-53"></path>
                <path d="M19.2014738,21.5111111 C17.2466622,21.5111111 15.4629897,20.3793956 14.9655172,18.7338447 L16.1858129,18.3519868 C16.5493504,19.5598141 18.1725137,20.3959605 19.7318984,20.1739048 C20.6460572,20.0457166 22.7805116,19.345337 22.8623607,15.6444444 L24.137931,15.6735683 C24.0305705,20.5049854 20.8724709,21.3246753 19.9072894,21.4616331 C19.6713089,21.4946545 19.4342654,21.5111111 19.2014738,21.5111111" id="Fill-54"></path>
            </g>
        </g>
    </g>
</svg>