<?xml version="1.0" encoding="UTF-8" standalone="no"?>
<svg width="135px" height="86px" viewBox="0 0 135 86" version="1.1" xmlns="http://www.w3.org/2000/svg" xmlns:xlink="http://www.w3.org/1999/xlink">
    <!-- Generator: Sketch 41 (35326) - http://www.bohemiancoding.com/sketch -->
    <title>Oval 9</title>
    <desc>Created with Sketch.</desc>
    <defs></defs>
    <g id="Configurator-WebApp" stroke="none" stroke-width="1" fill="none" fill-rule="evenodd">
        <g id="Artboard" transform="translate(-452.000000, -349.000000)" stroke="#979797" fill="#B8E986">
            <path d="M522.5,430 C538.457854,430 557.075064,438.217225 568.120123,432.075759 C579.165182,425.934293 583.066494,406.111538 583.066494,394.530133 C583.066494,384.351767 591.342731,360.543935 581.108663,353.599143 C570.874595,346.654351 540.706313,352 522.5,352 C512.344436,352 503.693418,355.45786 492.468414,355.976689 C487.903225,356.187696 480.939758,357.15343 475.511434,355.944017 C470.083109,354.734604 461.41126,350.247032 458.0518,352.955748 C446.620381,362.172848 457.300335,383.145184 457.300335,392.127455 C457.300335,399.119769 459.145642,425.337764 464.309823,431.012649 C469.474004,436.687534 499.187835,430 522.5,430 Z" id="Oval-9"></path>
        </g>
    </g>
</svg>