<?xml version="1.0" encoding="UTF-8" standalone="no"?>
<svg width="298px" height="205px" viewBox="0 0 298 205" version="1.1" xmlns="http://www.w3.org/2000/svg" xmlns:xlink="http://www.w3.org/1999/xlink">
    <!-- Generator: Sketch 41 (35326) - http://www.bohemiancoding.com/sketch -->
    <title>Oval 9 Copy 2</title>
    <desc>Created with Sketch.</desc>
    <defs></defs>
    <g id="Configurator-WebApp" stroke="none" stroke-width="1" fill="none" fill-rule="evenodd">
        <g id="Artboard" transform="translate(-455.000000, -154.000000)" stroke="#979797" fill="#F6A623">
            <path d="M603.16868,351.915817 C625.922374,351.915817 677.318393,346.751649 698.219264,345.687668 C711.670259,345.00293 700.392368,345.710287 711.997943,344.930541 C723.603518,344.150794 727.228827,347.39309 731.657322,342.975493 C734.581176,340.058835 749.78617,349.669053 751.892326,347.181179 C753.998481,344.693305 742.55788,269.543097 742.55788,254.412348 C742.55788,235.80877 732.196826,207.102997 718.98322,192.69092 C705.769614,178.278844 646.155152,155 602.5,155 C533.188264,155 470.543563,194.120247 472.097508,218.583635 C472.357843,222.682025 468.402206,227.872966 464.370662,236.858405 C460.648181,245.155009 464.431381,252.513597 462.35857,260.837558 C458.040851,278.176587 449.158472,342.655131 464.832198,354.908026 C474.80767,362.706325 496.973537,352.423185 519.537234,350.883842 C542.100932,349.3445 582.743359,351.915817 603.16868,351.915817 Z" id="Oval-9-Copy-2"></path>
        </g>
    </g>
</svg>