<?xml version="1.0" encoding="UTF-8" standalone="no"?>
<svg width="26px" height="11px" viewBox="0 0 26 11" version="1.1" xmlns="http://www.w3.org/2000/svg" xmlns:xlink="http://www.w3.org/1999/xlink">
    <!-- Generator: Sketch 41 (35326) - http://www.bohemiancoding.com/sketch -->
    <title>Page 1</title>
    <desc>Created with Sketch.</desc>
    <defs></defs>
    <g id="Configurator-WebApp" stroke="none" stroke-width="1" fill="none" fill-rule="evenodd">
        <g id="3_2" transform="translate(-765.000000, -278.000000)" stroke="#2BB0D4" stroke-width="0.5" fill="#2BB0D4">
            <g id="Group-14" transform="translate(190.000000, 85.000000)">
                <g id="Group-15-Copy-3" transform="translate(559.000000, 173.000000)">
                    <g id="Page-1" transform="translate(17.000000, 21.000000)">
                        <path d="M20.3844729,5.62523792 C19.9698431,5.38683816 19.7025945,5.8211256 19.7025945,5.8211256 L19.7047823,5.81667512 C19.7012685,5.82345048 19.344716,6.50377657 18.2410475,7.17765942 C17.2046055,7.81042512 15.284937,8.56474879 12.0251801,8.56474879 C8.74778785,8.56474879 6.71242873,7.80132488 5.58204199,7.16098671 C4.38104751,6.48052778 3.92319116,5.7925628 3.91072707,5.77349879 C3.76646188,5.54473068 3.46467182,5.47531643 3.23508066,5.61852899 C3.00456133,5.76233937 2.93401989,6.0662343 3.0776221,6.29719444 C3.16016354,6.43004469 5.17841768,9.55016546 12.0251801,9.55016546 C18.9060862,9.55016546 20.5215779,6.38700121 20.5869481,6.25229106 C20.5869481,6.25229106 20.7991028,5.86363768 20.3844729,5.62523792" id="Fill-1"></path>
                        <path d="M11.7744199,4.18098309 C8.3418895,4.18098309 5.31523757,3.4855785 3.29724862,2.8649686 C4.54485083,2.56333213 5.68140331,2.04700966 6.59446409,1.63198551 C7.20719337,1.35346498 7.73638674,1.11293961 8.09247514,1.03196739 C8.43556906,0.9539843 8.78701657,0.988193237 9.10889503,1.13100725 L10.8603646,1.90811473 C11.5800994,2.22742029 12.3953702,2.20569928 13.0970055,1.84839855 L14.4458453,1.16169565 C14.7631492,1.00008333 15.129779,0.947208937 15.4783094,1.01257126 C15.9394807,1.09925604 16.6114807,1.37976932 17.3896243,1.70452174 C18.310442,2.08892391 19.3689613,2.53038527 20.4677238,2.81601329 C18.3380884,3.46186473 15.1982652,4.18098309 11.7744199,4.18098309 M23.9177569,2.05889976 C23.8061105,1.81086836 23.5147956,1.70046981 23.2673039,1.81246256 C23.2554365,1.81777657 22.9773812,1.94172585 22.4839227,2.13010749 C20.8913702,2.09828986 19.1629061,1.37724517 17.7678564,0.79496256 C16.9385304,0.448754831 16.2223094,0.149775362 15.6595028,0.0440929952 C15.0990166,-0.0612572464 14.5097569,0.0237669082 14.0002541,0.283157005 L12.6514807,0.969926329 C12.214442,1.19245048 11.7067956,1.20600121 11.2586188,1.0071244 L9.50708287,0.230016908 C8.99764641,0.00397222222 8.4178674,-0.0524891304 7.87475138,0.0709951691 C7.42113812,0.174153382 6.84971271,0.433875604 6.18812155,0.734648551 C4.89106077,1.3241715 3.11472928,2.13163527 1.31605525,2.13163527 C1.28741436,2.13163527 1.25943646,2.1346244 1.23205525,2.13934058 C0.895524862,2.00370048 0.709756906,1.91794565 0.700541436,1.91362802 C0.454640884,1.79811473 0.161933702,1.90419565 0.0467071823,2.1505 C-0.0686519337,2.39687077 0.037160221,2.69020411 0.282994475,2.80578382 C0.488055249,2.90216667 5.37861878,5.16639976 11.7744199,5.16639976 C15.115989,5.16639976 18.1684309,4.5004215 20.140674,3.94171981 C21.2123867,3.638157 22.0823536,3.33612198 22.6909061,3.10715459 C22.742884,3.09652657 22.7916133,3.07746256 22.836232,3.05188889 C23.3520331,2.85420773 23.6462652,2.72222101 23.6717901,2.71066304 C23.9193481,2.59873671 24.0294696,2.30693116 23.9177569,2.05889976" id="Fill-4"></path>
                    </g>
                </g>
            </g>
        </g>
    </g>
</svg>