<?xml version="1.0" encoding="UTF-8" standalone="no"?>
<svg width="18px" height="21px" viewBox="0 0 18 21" version="1.1" xmlns="http://www.w3.org/2000/svg" xmlns:xlink="http://www.w3.org/1999/xlink">
    <!-- Generator: Sketch 41 (35326) - http://www.bohemiancoding.com/sketch -->
    <title>Group 5</title>
    <desc>Created with Sketch.</desc>
    <defs></defs>
    <g id="Configurator-WebApp" stroke="none" stroke-width="1" fill="none" fill-rule="evenodd">
        <g id="3_2" transform="translate(-427.000000, -272.000000)" stroke="#37B1D3" stroke-width="0.5" fill="#37B1D3">
            <g id="Group-14" transform="translate(190.000000, 85.000000)">
                <g id="Group-15-Copy" transform="translate(217.000000, 173.000000)">
                    <g id="Group-5" transform="translate(21.000000, 15.000000)">
                        <path d="M15.7698907,12.1557461 C15.3363395,10.9535565 14.3465555,10.1317958 13.0491372,9.89375969 C12.9518076,9.78868068 12.4304558,9.08143463 11.9111428,5.60353395 C11.5699572,3.31838723 11.4416026,1.19364682 11.5183672,0.535294677 C11.5492148,0.271096031 11.35296,0.0330599139 11.0800735,0.00303734051 C10.8069212,-0.0265563389 10.5609378,0.163443661 10.5301345,0.427213413 C10.4256691,1.32274389 10.6193533,3.78373711 10.9710431,6.03028339 C11.1652591,7.27064456 11.3910763,8.33129919 11.6240735,9.0977326 C11.9681843,10.2291547 12.3267439,10.7476875 12.8229212,10.8321796 C14.1355417,11.0552044 14.6443949,11.9558816 14.830899,12.4726987 C15.1380458,13.324482 15.0151871,14.2873489 14.5321289,14.8144595 C14.3121179,15.05464 14.0360403,15.1773037 13.708417,15.1824504 C13.7690043,15.0885227 13.797104,14.9744369 13.7790652,14.85692 C13.7388215,14.594008 13.4836636,14.4014346 13.2143228,14.4511863 C12.8398519,14.5206671 11.6494253,14.67078 10.52096,16.5257461 C10.0255805,17.3402157 9.52625636,18.0007123 8.09769127,18.0007123 L7.9040957,18.0007123 C6.4755306,18.0007123 6.01458877,17.3174843 5.480827,16.5257461 C5.29494334,16.2503963 4.45031176,14.5545498 2.77917603,14.4511863 C2.50518157,14.4344595 2.25303753,14.5935791 2.21279376,14.8564911 C2.19364694,14.9812992 2.22604584,15.1018184 2.29399044,15.1983195 C1.72042811,15.2450689 1.34187963,15.058929 1.1433644,14.6317507 C0.782766058,13.8563105 1.13312617,12.7214572 1.45773559,12.4924279 C1.67965248,12.3363105 1.72849459,12.035227 1.56676606,11.8203511 C1.40503753,11.6054753 1.09399044,11.5582969 0.872029216,11.7148432 C0.0605943132,12.2869877 -0.260203471,13.9583872 0.236372707,15.0267619 C0.440295144,15.4650915 0.771907333,15.7961976 1.19548628,15.9836242 C1.6574475,16.1877777 2.21864417,16.2220893 2.86360816,16.0852721 C3.44993503,15.9608929 3.78792949,16.0565362 4.07233947,16.3130148 C4.090068,16.332315 4.45944196,16.7723601 4.64802922,17.051999 C5.19202922,17.8583195 5.93707077,18.9631502 7.9040957,18.9631502 L8.09769127,18.9631502 C10.0647605,18.9631502 10.8098021,17.8583195 11.3538021,17.051999 C11.8655805,16.2932856 12.1476857,15.8751141 13.1382231,16.0852721 C13.9797965,16.263692 14.7391095,16.0393805 15.2762841,15.4530825 C15.9985001,14.6647755 16.1968824,13.3394933 15.7698907,12.1557461" id="Fill-109"></path>
                        <path d="M3.70792949,9.26843237 C3.75384639,9.28129919 3.80011786,9.28730371 3.84563586,9.28730371 C4.06165803,9.28730371 4.26057215,9.15005766 4.32328683,8.93904186 C5.28297658,5.71075743 5.25000152,0.689696483 5.24814002,0.477394 C5.24579099,0.213195354 5.02360816,0.00046397708 4.75098766,0.00046397708 L4.74664417,0.00046397708 C4.47207354,0.00260844661 4.25135332,0.220057657 4.25365803,0.485542984 C4.25410124,0.536152465 4.28698766,5.57994479 3.36749736,8.67312763 C3.29157492,8.92831951 3.44399598,9.19509152 3.70792949,9.26843237" id="Fill-110"></path>
                    </g>
                </g>
            </g>
        </g>
    </g>
</svg>