<?xml version="1.0" encoding="UTF-8" standalone="no"?>
<svg width="38px" height="38px" viewBox="0 0 38 38" version="1.1" xmlns="http://www.w3.org/2000/svg" xmlns:xlink="http://www.w3.org/1999/xlink">
    <!-- Generator: Sketch 41 (35326) - http://www.bohemiancoding.com/sketch -->
    <title>Group 2</title>
    <desc>Created with Sketch.</desc>
    <defs></defs>
    <g id="Configurator-WebApp" stroke="none" stroke-width="1" fill="none" fill-rule="evenodd">
        <g id="edit_layer-add" transform="translate(-931.000000, -572.000000)" stroke-width="2" stroke="#FFFFFF">
            <g id="Group" transform="translate(376.000000, 53.000000)">
                <g id="Group-18">
                    <g id="Group-10" transform="translate(515.000000, 498.000000)">
                        <g id="thin-0626_photo_camera_upload_computer-copy" transform="translate(15.471698, 22.000000)">
                            <g id="Group-2" transform="translate(26.000000, 0.000000)">
                                <path d="M15,0.423009524 L15,15.1887235" id="Shape"></path>
                                <polyline id="Shape" points="7.71017419 7.59092419 15.2838199 0.423009524 22.8576797 7.59092419"></polyline>
                                <path d="M17.1957696,31.4378423 C13.6661269,31.4378423 10.795388,28.720893 10.795388,25.3813516 C10.795388,22.040797 13.6661269,19.3238476 17.1957696,19.3238476 C20.7243415,19.3238476 23.5955087,22.040797 23.5955087,25.3813516 C23.5955087,28.720893 20.7243415,31.4378423 17.1957696,31.4378423 L17.1957696,31.4378423 Z" id="Shape"></path>
                                <path d="M19.4886408,11.427549 C20.9809711,11.8922636 21.5882675,13.1017783 21.7415905,15.2551116 L31.3647545,15.2551116 C33.826275,15.2551116 34.5256509,17.0628983 34.6080942,18.1694583 L34.6080942,32.6603276 C34.6080942,35.396125 31.3311348,35.5051596 31.3311348,35.5051596 L3.54304161,35.5525836 C2.43915834,35.5525836 1.63528292,35.182109 1.0329117,34.535805 C0.19584483,33.6416396 0.296489862,32.4392183 0.296489862,32.1569036 L0.296489862,19.121789 C0.296489862,16.4455756 2.40596689,15.306589 3.65053907,15.254301 L8.87872725,15.254301 C9.03654722,13.038141 9.45261806,11.8217356 10.9421645,11.388029" id="Shape"></path>
                                <path id="Shape"></path>
                            </g>
                        </g>
                    </g>
                </g>
            </g>
        </g>
    </g>
</svg>