<?xml version="1.0" encoding="UTF-8" standalone="no"?>
<svg width="71px" height="55px" viewBox="0 0 71 55" version="1.1" xmlns="http://www.w3.org/2000/svg" xmlns:xlink="http://www.w3.org/1999/xlink">
    <!-- Generator: Sketch 41 (35326) - http://www.bohemiancoding.com/sketch -->
    <title>Group</title>
    <desc>Created with Sketch.</desc>
    <defs></defs>
    <g id="Configurator-WebApp" stroke="none" stroke-width="1" fill="none" fill-rule="evenodd">
        <g id="edit_layer-photo" transform="translate(-548.000000, -275.000000)" stroke="#2BB0D4" stroke-width="2.2">
            <g id="Group-2" transform="translate(365.000000, 194.000000)">
                <g id="Group" transform="translate(184.781453, 82.369290)">
                    <path d="M5.81715785,9.84988496 L5.94862562,7.57463342 C5.94862562,6.04500368 7.77521319,4.03380229 9.30745256,4.03380229 L11.6343157,4.03380229 C13.2642833,4.03380229 14.6697087,6.04500368 14.6697087,7.57463342 L14.6185177,9.84988496" id="Stroke-2957"></path>
                    <path d="M55.8447154,9.84988496 L52.8093224,4.63983811 C51.7808489,3.0985762 50.2602438,1.70736923 48.4092242,0.544152694 L33.7395155,0.544152694 C31.8873325,1.70736923 30.3678909,3.0985762 29.3382539,4.63983811 L24.432063,9.84988496 L5.81715785,9.84988496 C1.41589622,9.84988496 -9.09494702e-13,12.498529 -9.09494702e-13,15.5589517 L-9.09494702e-13,46.0328984 C-9.09494702e-13,49.0921579 1.46708721,51.5732988 6.03122926,51.7256802 L61.4478018,51.7256802 C66.0119439,51.5732988 67.4790311,49.0921579 67.4790311,46.0328984 L67.4790311,14.5027511 C67.4790311,11.4423284 66.1131624,9.84988496 61.5490204,9.84988496 L55.8447154,9.84988496 L55.8447154,9.84988496 Z" id="Stroke-2958"></path>
                    <path d="M57.008147,29.624566 C57.008147,38.617393 49.713431,45.9095975 40.720105,45.9095975 C31.7232886,45.9095975 24.432063,38.617393 24.432063,29.624566 C24.432063,20.631739 31.7232886,13.3395346 40.720105,13.3395346 C49.713431,13.3395346 57.008147,20.631739 57.008147,29.624566 L57.008147,29.624566 Z" id="Stroke-2959"></path>
                    <path d="M50.0275575,29.624566 C50.0275575,34.7648199 45.8589822,38.9302983 40.720105,38.9302983 C35.5777374,38.9302983 31.4126524,34.7648199 31.4126524,29.624566 C31.4126524,24.4843122 35.5777374,20.3188338 40.720105,20.3188338 C45.8589822,20.3188338 50.0275575,24.4843122 50.0275575,29.624566 L50.0275575,29.624566 Z" id="Stroke-2960"></path>
                    <path d="M13.9611788,21.4820503 C13.9611788,24.0515956 11.8763095,26.1349164 9.30745256,26.1349164 C6.73626879,26.1349164 4.65372628,24.0515956 4.65372628,21.4820503 C4.65372628,18.912505 6.73626879,16.8291842 9.30745256,16.8291842 C11.8763095,16.8291842 13.9611788,18.912505 13.9611788,21.4820503 L13.9611788,21.4820503 Z" id="Stroke-2961"></path>
                </g>
            </g>
        </g>
    </g>
</svg>