<?xml version="1.0" encoding="UTF-8" standalone="no"?>
<svg width="17px" height="17px" viewBox="0 0 17 17" version="1.1" xmlns="http://www.w3.org/2000/svg" xmlns:xlink="http://www.w3.org/1999/xlink">
    <!-- Generator: Sketch 41 (35326) - http://www.bohemiancoding.com/sketch -->
    <title>Group</title>
    <desc>Created with Sketch.</desc>
    <defs></defs>
    <g id="Configurator-WebApp" stroke="none" stroke-width="1" fill="none" fill-rule="evenodd">
        <g id="Panel-Projects" transform="translate(-459.000000, -261.000000)" stroke="#FFFFFF" stroke-width="0.15" fill="#FFFFFF">
            <g id="Group-2" transform="translate(130.000000, 167.000000)">
                <g id="Group-19-Copy" transform="translate(323.000000, 88.000000)">
                    <g id="Group" transform="translate(7.000000, 7.000000)">
                        <path d="M12.9566929,2.78740157 L11.8700787,2.78740157 L11.8700787,0.416338583 C11.8700787,0.186023622 11.6840551,0 11.4537402,0 L3.54625984,0 C3.31594488,-5.24514815e-17 3.12992126,0.186023622 3.12992126,0.416338583 L3.12992126,2.78444882 L2.04035433,2.78444882 C0.915354331,2.78740157 0,3.70275591 0,4.83070866 L0,8.94389764 C0,10.0688976 0.915354331,10.984252 2.04035433,10.984252 L3.12992126,10.984252 L3.12992126,14.5836614 C3.12992126,14.8139764 3.31594488,15 3.54625984,15 L11.4507874,15 C11.6811024,15 11.867126,14.8139764 11.867126,14.5836614 L11.867126,10.984252 L12.9537402,10.984252 C14.0816929,10.984252 14.9970472,10.0688976 14.9970472,8.94389764 L14.9970472,4.83070866 C15,3.70275591 14.0846457,2.78740157 12.9566929,2.78740157 L12.9566929,2.78740157 Z M3.96259843,0.832677165 L11.0344488,0.832677165 L11.0344488,2.78444882 L3.96259843,2.78444882 L3.96259843,0.832677165 L3.96259843,0.832677165 Z M11.0344488,14.1673228 L3.96259843,14.1673228 L3.96259843,9.55511811 L11.0344488,9.55511811 L11.0344488,14.1673228 L11.0344488,14.1673228 Z M14.1673228,8.94094488 C14.1673228,9.60826772 13.6240157,10.148622 12.9566929,10.148622 L11.8700787,10.148622 L11.8700787,9.55511811 L12.3809055,9.55511811 C12.6112205,9.55511811 12.7972441,9.36909449 12.7972441,9.13877953 C12.7972441,8.90846457 12.6112205,8.72244094 12.3809055,8.72244094 L2.61909449,8.72244094 C2.38877953,8.72244094 2.20275591,8.90846457 2.20275591,9.13877953 C2.20275591,9.36909449 2.38877953,9.55511811 2.61909449,9.55511811 L3.12992126,9.55511811 L3.12992126,10.148622 L2.04035433,10.148622 C1.3730315,10.148622 0.832677165,9.60531496 0.832677165,8.94094488 L0.832677165,4.83070866 C0.832677165,4.16338583 1.37598425,3.62007874 2.04035433,3.62007874 L12.9537402,3.62007874 C13.621063,3.62007874 14.1643701,4.16338583 14.1643701,4.83070866 L14.1643701,8.94094488 L14.1673228,8.94094488 Z" id="Shape"></path>
                        <path d="M5.21456693,13.2519685 L9.78543307,13.2519685 C10.015748,13.2519685 10.2017717,13.0659449 10.2017717,12.8356299 C10.2017717,12.605315 10.015748,12.4192913 9.78543307,12.4192913 L5.21456693,12.4192913 C4.98425197,12.4192913 4.79822835,12.605315 4.79822835,12.8356299 C4.79822835,13.0629921 4.98425197,13.2519685 5.21456693,13.2519685 L5.21456693,13.2519685 Z" id="Shape"></path>
                        <path d="M5.21456693,11.4478346 L9.78543307,11.4478346 C10.015748,11.4478346 10.2017717,11.261811 10.2017717,11.0314961 C10.2017717,10.8011811 10.015748,10.6151575 9.78543307,10.6151575 L5.21456693,10.6151575 C4.98425197,10.6151575 4.79822835,10.8011811 4.79822835,11.0314961 C4.79822835,11.261811 4.98425197,11.4478346 5.21456693,11.4478346 L5.21456693,11.4478346 Z" id="Shape"></path>
                        <ellipse id="Oval" cx="12.7972441" cy="4.98425197" rx="0.416338583" ry="0.416338583"></ellipse>
                        <ellipse id="Oval" cx="12.7972441" cy="6.42224409" rx="0.416338583" ry="0.416338583"></ellipse>
                    </g>
                </g>
            </g>
        </g>
    </g>
</svg>