<?xml version="1.0" encoding="UTF-8" standalone="no"?>
<svg width="43px" height="43px" viewBox="0 0 43 43" version="1.1" xmlns="http://www.w3.org/2000/svg" xmlns:xlink="http://www.w3.org/1999/xlink">
    <!-- Generator: Sketch 41 (35326) - http://www.bohemiancoding.com/sketch -->
    <title>softlifting</title>
    <desc>Created with Sketch.</desc>
    <defs></defs>
    <g id="Configurator-WebApp" stroke="none" stroke-width="1" fill="none" fill-rule="evenodd">
        <g id="3" transform="translate(-1321.000000, -317.000000)" fill="#F5AF62">
            <g id="Group-7" transform="translate(1302.000000, 317.000000)">
                <g id="softlifting" transform="translate(19.000000, 0.000000)">
                    <path d="M26.9023548,43 C28.0980949,39.9237337 30.7570497,39.0565467 33.0830582,38.950204 C38.6061288,38.6953711 39.5868689,36.6033541 39.8032051,31.6970907 C39.8771797,30.0097365 40.4038689,29.2011416 41.4828774,28.1248017 L41.8957503,27.7186771 C43.3390441,26.3090567 43.3490045,25.8557904 41.9711825,24.2569943 C41.7661429,24.0178754 41.5227192,23.7358782 41.2409113,23.3940708 C39.3747842,21.1243286 39.3063972,19.3270992 39.2195469,17.0516317 C39.1769113,15.9190142 39.1284452,14.6355921 38.8451797,13.1682323 C38.5305751,11.5358159 37.4900723,9.85711048 36.6218124,8.83071388 C36.3883492,8.55590368 36.140674,8.28901133 35.8786655,8.02918414 C35.5455977,8.23188102 35.1385554,8.36246459 34.631787,8.36246459 C34.3940723,8.36246459 34.1762785,8.32823513 33.9684452,8.27829178 C34.5406853,8.74727195 35.0616655,9.24609632 35.5100073,9.77647025 C36.4509056,10.8892323 37.1996401,12.3295496 37.4146401,13.4458442 C37.675191,14.8027195 37.7207418,15.9746827 37.7633774,17.1073003 C37.8516853,19.4556119 37.9356203,21.6732181 40.116352,24.3247224 C40.4067842,24.6759093 40.6572531,24.9671643 40.8680017,25.2127394 C41.1383915,25.5260425 41.415948,25.8478725 41.5127588,26.0113456 C41.4089028,26.1533796 41.1398492,26.4160085 40.8779621,26.6723031 L40.4551288,27.0884164 C39.1911232,28.3489377 38.4409311,29.4965382 38.3470356,31.6328952 C38.1591232,35.8817337 37.7050723,37.2735694 33.0161288,37.4899093 C31.0146853,37.5818782 26.8639706,38.3549037 25.3607927,43 L26.9023548,43 Z" id="Fill-1"></path>
                    <path d="M12.953835,43 C13.2542277,41.6730907 13.6598124,40.4391246 14.0627249,39.2292776 C14.4428011,38.0815552 14.8042927,36.9974193 15.0605921,35.8696742 C15.1260638,35.5856062 15.164448,35.3072635 15.1915356,35.0309915 C14.9552785,35.1258839 14.7089395,35.1979972 14.4527616,35.2187054 C14.2065441,35.2386827 13.9574113,35.2051841 13.7125299,35.1480538 C13.692609,35.2786374 13.6712305,35.4106827 13.6398915,35.5434589 C13.3979254,36.6026232 13.0491881,37.6539915 12.6790723,38.7674844 C12.2491938,40.0622351 11.7922277,41.4590652 11.4677842,43 L12.953835,43 Z" id="Fill-4"></path>
                    <path d="M34.0922706,22.8915677 C33.2865672,22.8915677 32.3129938,22.7302873 31.1685136,22.2712958 L31.7094147,20.9138113 C34.5833695,22.066528 35.9257226,20.9508425 35.9812339,20.90163 L36.9577226,21.9872278 C36.9022113,22.0386329 35.9441859,22.8915677 34.0922706,22.8915677" id="Fill-6"></path>
                    <path d="M22.0099144,30.8362989 C21.9857421,30.8362989 21.9615698,30.8362989 21.937276,30.835568 C20.7188212,30.7991459 20.0683551,29.9041856 19.4406037,29.0390694 C19.1387534,28.623687 18.8270641,28.1946615 18.4427364,27.8378711 C16.6932195,26.217636 16.5950726,24.0028314 16.7886941,23.0579278 C17.1416828,21.3106416 18.249115,20.291432 19.904615,20.1878909 C20.7116545,20.1372167 21.4817675,20.4048399 22.083889,20.9387465 C22.6874681,21.472653 23.0461658,22.2099873 23.0946319,23.0135878 L21.6397986,23.1036076 C21.6141686,22.6888343 21.4305076,22.3091431 21.1188184,22.033602 C20.8084653,21.7581827 20.4084681,21.6217521 19.9957167,21.6468456 C19.0177703,21.7081176 18.4355698,22.2649249 18.2164398,23.3497918 C18.1067534,23.8857691 18.1124624,25.5424263 19.4319794,26.7643329 C19.9217421,27.21833 20.2917364,27.7286048 20.6192167,28.1783385 C21.1658268,28.9327266 21.5003523,29.3595595 21.9800331,29.3738116 C22.3116432,29.4009759 22.5437703,29.2210581 22.5779031,28.937721 L24.0241121,29.1189788 C23.8974201,30.1389193 23.0732534,30.8362989 22.0099144,30.8362989" id="Fill-8"></path>
                    <path d="M24.3230472,27.8028742 C24.1308833,27.3453445 23.954389,26.8664975 23.7949003,26.3782708 L25.1800105,25.9242737 C25.3279596,26.3753473 25.4902421,26.8171632 25.6668579,27.2375399 L24.3230472,27.8028742 Z M25.7635472,30.4987184 C25.4817393,30.0804125 25.216937,29.6378657 24.9749709,29.1832595 L26.2618127,28.4952595 C26.4796065,28.9063785 26.7187788,29.3053161 26.972163,29.6822057 L25.7635472,30.4987184 Z M27.7564879,32.8448374 C27.380663,32.4957212 27.0233014,32.1189535 26.6902336,31.7263501 L27.8020387,30.7813246 C28.0966008,31.1295881 28.4154568,31.4637212 28.748646,31.7741008 L27.7564879,32.8448374 Z M30.2503664,34.6605824 C29.7976517,34.4079422 29.3592703,34.1281377 28.9478551,33.8276249 L29.8048184,32.6456731 C30.1692251,32.9111037 30.5563466,33.1588714 30.959259,33.3830074 L30.2503664,34.6605824 Z M33.101485,35.8310839 C32.6075924,35.6927042 32.1179511,35.5242368 31.6438579,35.3307977 L32.194841,33.977455 C32.6175528,34.1501858 33.054598,34.3001377 33.494437,34.4235343 L33.101485,35.8310839 Z M36.1790218,36.2928771 L36.1207167,36.2928771 C35.9213862,36.2928771 35.3762336,36.2800867 34.610372,36.1601008 L34.8353325,34.7155201 C35.5185952,34.8225938 35.9925669,34.8311207 36.1207167,34.8311207 L36.1790218,36.2928771 Z" id="Fill-10"></path>
                    <path d="M36.6416847,25.9671153 L35.4857864,25.0764184 C35.8459418,24.6074382 35.8815322,24.1634297 35.8829898,24.1591663 L37.3391593,24.2105714 C37.3363655,24.3012003 37.2893571,25.1220983 36.6416847,25.9671153 L36.6416847,25.9671153 Z M33.7164701,27.6258433 L33.4289531,26.192713 C33.8772949,26.1019623 34.2744983,25.9678462 34.6090237,25.7921918 L35.2836621,27.0884042 C34.8268175,27.3275232 34.3001282,27.5080501 33.7164701,27.6258433 L33.7164701,27.6258433 Z M31.8929785,27.792849 C31.4844785,27.792849 31.0531424,27.7714099 30.6048006,27.7301153 L30.7399955,26.2740841 C31.1442441,26.3118462 31.5300294,26.3310926 31.8872695,26.3310926 L32.1136876,26.3282909 L32.1406537,27.7900473 L31.8944362,27.792849 L31.8929785,27.792849 Z" id="Fill-12"></path>
                    <path d="M31.6154463,12.8369983 L31.0673785,11.4823156 C31.5457232,11.2874147 32.0438672,11.1246725 32.5463842,10.9976215 L32.9022881,12.4151598 C32.4652429,12.525766 32.031113,12.6670691 31.6154463,12.8369983 M29.2738898,14.1946045 L28.3785424,13.0411569 C28.7885,12.7213977 29.2226299,12.428072 29.668178,12.1682448 L30.3997853,13.4330295 C30.0097486,13.6592363 29.6311299,13.9155309 29.2738898,14.1946045 M27.3535876,16.1359388 L26.2006045,15.2423184 C26.5180028,14.8304686 26.8610311,14.437987 27.2197288,14.0738878 L28.2561017,15.1032079 C27.9385819,15.4243071 27.6353955,15.7719615 27.3535876,16.1359388 M25.9756441,18.4634204 L24.6133701,17.9459586 C24.6219944,17.9217178 24.8425819,17.3407915 25.3294294,16.522817 L26.5806808,17.2722108 C26.1664718,17.9688595 25.9785593,18.4591569 25.9756441,18.4634204" id="Fill-14"></path>
                    <path d="M28.6845347,1.0622949 C21.2440771,-1.08612153 13.7680291,0.409255241 9.02648955,4.95507394 C5.41521836,3.97362635 1.71843305,5.60677365 0.443009322,8.82714476 C-0.829620621,12.0397198 0.726274859,15.758428 3.99876921,17.5349493 C3.92200085,20.9088048 4.20660254,34.8369068 14.118224,35.8326065 C14.2406647,35.844666 14.3601901,35.8511221 14.4783794,35.8511221 C18.5921675,35.8503912 19.8590884,28.5286972 19.9928257,27.670768 L18.2989415,27.4053374 C18.015676,29.2238841 16.6889924,34.3500201 14.2890093,34.1223516 C5.22305452,33.2109465 5.65147542,18.703989 5.73115904,17.0530569 L5.75824661,16.469938 L5.22864209,16.2287482 C2.43728616,14.9589691 1.03517034,11.9869748 2.03583136,9.46239972 C3.03515621,6.94074816 6.08985678,5.74588414 8.98664774,6.7401221 L9.49912514,6.91650737 L9.87774379,6.52816742 C14.1523568,2.14582181 21.1786054,0.684674504 28.210563,2.71395779 C31.2766816,3.59892946 34.4068144,5.29334873 34.6688229,7.52813059 C24.4027551,7.38536572 23.3038257,11.8027935 22.4013116,15.422955 C22.2546986,16.0117992 22.1366308,16.5299918 22.0326534,16.9888615 C21.5059641,19.3120796 21.4262805,19.6689918 19.7907014,20.2700173 L20.048337,20.9751929 C20.085385,20.9737312 20.116724,20.9644734 20.1551082,20.9644734 C20.6974669,20.9644734 21.1544331,21.1143034 21.5373031,21.3498898 C22.9963879,20.4869663 23.2611901,19.3285244 23.7052805,17.3700144 C23.8063427,16.9217425 23.9216167,16.4150003 24.0767325,15.7904649 C24.9593257,12.2510654 25.7864076,8.90997762 35.4631082,9.26822975 L36.2160941,9.29685581 L36.3398709,8.55099462 C36.865224,5.3968898 34.0025658,2.59689547 28.6845347,1.0622949" id="Fill-16"></path>
                    <path d="M6.12120791,10.1647249 C4.10980395,14.1009912 4.02015989,16.8746739 4.0173661,16.9910054 L5.73117119,17.0352235 C5.73262881,17.0102518 5.82943955,14.505045 7.64722203,10.94847 L6.12120791,10.1647249 Z" id="Fill-19"></path>
                </g>
            </g>
        </g>
    </g>
</svg>