<?xml version="1.0" encoding="UTF-8" standalone="no"?>
<svg width="35px" height="35px" viewBox="0 0 35 35" version="1.1" xmlns="http://www.w3.org/2000/svg" xmlns:xlink="http://www.w3.org/1999/xlink">
    <!-- Generator: Sketch 41 (35326) - http://www.bohemiancoding.com/sketch -->
    <title>Page 1</title>
    <desc>Created with Sketch.</desc>
    <defs></defs>
    <g id="Configurator-iPad" stroke="none" stroke-width="1" fill="none" fill-rule="evenodd" stroke-linecap="round" stroke-linejoin="round">
        <g id="Signature-2" transform="translate(-500.000000, -126.000000)" stroke="#FFFFFF" stroke-width="2.5">
            <g id="Group" transform="translate(126.000000, 103.000000)">
                <g id="Group-2">
                    <g id="Stroke-1502-+-Stroke-1503-Copy" transform="translate(350.098485, 0.000000)">
                        <g id="Page-1" transform="translate(24.651515, 23.750000)">
                            <polygon id="Stroke-1" points="14.0359417 11.8610938 5.01048333 14.3721979 0.697358333 32.7985938 19.1237542 28.4868646 21.6348583 19.4600104"></polygon>
                            <path d="M0.697916667,32.7985937 L9.581,23.9155104" id="Stroke-3"></path>
                            <path d="M9.581,21.9415229 C10.1267708,21.3957521 11.0103333,21.3957521 11.5547083,21.9415229 C12.1004792,22.4872938 12.1004792,23.3708563 11.5547083,23.9152313 C11.0103333,24.4610021 10.1267708,24.4610021 9.581,23.9152313 C9.03522917,23.3708563 9.03522917,22.4872938 9.581,21.9415229 Z" id="Stroke-5"></path>
                            <path d="M21.02125,18.8402604 L31.49,8.38546875 C32.3554167,7.50609375 32.8020833,6.34755208 32.8020833,5.18901042 C32.8020833,4.04442708 32.3554167,2.88588542 31.49,2.00651042 C29.73125,0.26171875 26.8697917,0.26171875 25.1110417,2.00651042 L14.65625,12.4752604" id="Stroke-7"></path>
                            <path d="M24.12,15.7415104 L17.755,9.37651042" id="Stroke-9"></path>
                        </g>
                    </g>
                </g>
            </g>
        </g>
    </g>
</svg>