<?xml version="1.0" encoding="UTF-8" standalone="no"?>
<svg width="30px" height="32px" viewBox="0 0 30 32" version="1.1" xmlns="http://www.w3.org/2000/svg" xmlns:xlink="http://www.w3.org/1999/xlink">
    <!-- Generator: Sketch 41 (35326) - http://www.bohemiancoding.com/sketch -->
    <title>Page 1</title>
    <desc>Created with Sketch.</desc>
    <defs>
        <polygon id="path-1" points="0.0182845528 0.740327077 1.50535772 0.740327077 1.50535772 0.0531801617 0.0182845528 0.0531801617 0.0182845528 0.740327077"></polygon>
    </defs>
    <g id="Configurator-WebApp" stroke="none" stroke-width="1" fill="none" fill-rule="evenodd">
        <g id="5" transform="translate(-635.000000, -722.000000)">
            <g id="Group-19" transform="translate(289.000000, 707.000000)">
                <g id="Group-15" transform="translate(346.000000, 15.000000)">
                    <g id="Page-1">
                        <path d="M26.1826098,31.5907435 C25.6812276,31.3498904 25.1783821,31.132481 24.6784634,30.9363766" id="Fill-1" fill="#307DC1"></path>
                        <g id="Group-5" transform="translate(3.658537, 31.068073)">
                            <mask id="mask-2" fill="white">
                                <use xlink:href="#path-1"></use>
                            </mask>
                            <g id="Clip-4"></g>
                            <path d="M1.50535772,0.0531801617 C1.00974797,0.259978192 0.512674797,0.488410225 0.0182845528,0.740368207" id="Fill-3" fill="#307DC1" mask="url(#mask-2)"></path>
                        </g>
                        <g id="Group-8" transform="translate(0.000000, 0.056594)" fill="#F9CFA1">
                            <path d="M25.5306992,4.65963508 C22.6416748,1.67134596 18.8929756,0.0256811237 14.975252,0.0256811237 C11.0450081,0.0256811237 7.29687805,1.65382488 4.42143089,4.6103622 C1.6115122,7.49944749 -3.25203255e-05,11.3873163 -3.25203255e-05,15.2771592 C-3.25203255e-05,20.005217 0.678097561,26.4391528 3.67679675,31.7518222 C4.17118699,31.4998642 4.66834146,31.2715145 5.16386992,31.0646342 C2.27663415,26.0410214 1.62598374,19.8360934 1.62598374,15.2771592 C1.62598374,11.8154721 3.06736585,8.34819135 5.58045528,5.76428533 C8.14777236,3.12460801 11.4842764,1.67085241 14.975252,1.67085241 C22.0864715,1.67085241 28.324439,8.02894586 28.324439,15.2771592 C28.324439,22.6703945 26.5316748,27.6783781 24.6785041,30.8797992 C25.1784228,31.0759036 25.6812683,31.293313 26.1826504,31.5341661 C28.115252,28.1251244 29.9504553,22.884678 29.9504553,15.2771592 C29.9504553,11.4347795 28.339561,7.56484305 25.5306992,4.65963508" id="Fill-6"></path>
                        </g>
                        <path d="M12.6069675,25.5723944 C12.4718455,25.8844834 12.612252,26.248313 12.9207073,26.385109 L14.0555854,26.8882846 C14.3335528,27.0115079 14.6334715,27.0732019 14.9334715,27.0732019 C15.2148537,27.0732019 15.4963171,27.0189112 15.7597317,26.9100831 L17.0155854,26.3911961 C17.327374,26.2623792 17.4768049,25.9021689 17.3494878,25.5867896 C17.2221707,25.2712458 16.8663171,25.1200545 16.5545285,25.2488714 L15.2986748,25.7677584 C15.0579431,25.8672091 14.7833089,25.8637542 14.5450163,25.7580519 L13.4102195,25.2549586 C13.1017642,25.1183271 12.7421707,25.2603054 12.6069675,25.5723944" id="Fill-9" fill="#F9CFA1"></path>
                        <path d="M25.6565854,16.4377124 C25.570813,16.3798024 23.5262602,15.0219603 20.8903252,15.29292 C18.0668293,15.5827169 16.9926829,16.9997029 16.4764228,17.6806393 C16.4447967,17.7223444 16.4152846,17.7612527 16.3876423,17.7967884 C15.7117886,18.6642872 15.1169919,20.7282369 15.664878,23.690121 C15.7196748,23.9866631 15.9757724,24.1937079 16.2634959,24.1937079 C16.3007317,24.1937079 16.3384553,24.1902531 16.3763415,24.1830143 C16.7073984,24.1203333 16.9254472,23.7980442 16.8635772,23.4631696 C16.6061789,22.071437 16.5220325,19.6174172 17.3453659,18.5606414 C17.3761789,18.5210751 17.4089431,18.4778893 17.444065,18.4315778 C17.8878862,17.8461436 18.7139837,16.7565466 21.0134146,16.5204645 C23.2013008,16.2956519 24.963252,17.4531121 24.9807317,17.4647929 C25.2606504,17.6528359 25.6384553,17.5763355 25.825122,17.293366 C26.0121138,17.0099853 25.9366667,16.6269071 25.6565854,16.4377124" id="Fill-11" fill="#F9CFA1"></path>
                        <path d="M12.4767236,18.3627602 C12.594935,18.5362436 12.7854228,18.6295248 12.9792439,18.6295248 C13.0976179,18.6295248 13.2172114,18.5947294 13.3223333,18.5221773 C13.6005447,18.3301859 13.6721707,17.9463674 13.4824146,17.6648786 C13.4255854,17.5806458 12.0576992,15.5994483 9.07095122,15.2928706 C6.43501626,15.0224045 4.39046341,16.3798353 4.30477236,16.4377453 C4.02469106,16.62694 3.9491626,17.0100182 4.13615447,17.2933989 C4.32314634,17.5768619 4.70184553,17.6531156 4.98184553,17.4639209 C4.9992439,17.4522402 6.74241463,16.2934638 8.94794309,16.5204974 C11.3439593,16.7664505 12.4281057,18.2925937 12.4767236,18.3627602" id="Fill-13" fill="#F9CFA1"></path>
                        <path d="M15,13.0263158 C19.4971758,13.0263158 23.0949358,12.7439093 23.1428571,9.11842105 C23.1428571,6.96015039 19.4971758,5.21052632 15,5.21052632 C10.5028242,5.21052632 6.85714286,6.96015039 6.85714286,9.11842105 C6.94482422,13.0498497 10.5028242,13.0263158 15,13.0263158 Z" id="Oval-6" fill="#F5AF62"></path>
                    </g>
                </g>
            </g>
        </g>
    </g>
</svg>