<?xml version="1.0" encoding="UTF-8" standalone="no"?>
<svg width="42px" height="18px" viewBox="0 0 42 18" version="1.1" xmlns="http://www.w3.org/2000/svg" xmlns:xlink="http://www.w3.org/1999/xlink">
    <!-- Generator: Sketch 41 (35326) - http://www.bohemiancoding.com/sketch -->
    <title>Page 1</title>
    <desc>Created with Sketch.</desc>
    <defs></defs>
    <g id="Configurator-WebApp" stroke="none" stroke-width="1" fill="none" fill-rule="evenodd">
        <g id="5" transform="translate(-731.000000, -734.000000)" fill="#F5AF62">
            <g id="Group-19" transform="translate(289.000000, 707.000000)">
                <g id="Group-14" transform="translate(442.000000, 27.000000)">
                    <g id="Page-1">
                        <path d="M35.6728276,10.1254283 C34.9472254,9.6963087 34.4795403,10.4780261 34.4795403,10.4780261 L34.4833691,10.4700152 C34.4772199,10.4822109 33.853253,11.7067978 31.9218331,12.919787 C30.1080597,14.0587652 26.7486398,15.4165478 21.0440652,15.4165478 C15.3086287,15.4165478 11.7467503,14.0423848 9.76857348,12.8897761 C7.66683315,11.66495 6.86558453,10.426613 6.84377238,10.3922978 C6.59130829,9.98051522 6.06317569,9.85556957 5.66139116,10.1133522 C5.25798232,10.3722109 5.13453481,10.9192217 5.38583867,11.33495 C5.53028619,11.5740804 9.06223094,17.1902978 21.0440652,17.1902978 C33.0856508,17.1902978 35.9127613,11.4966022 36.0271591,11.2541239 C36.0271591,11.2541239 36.3984298,10.5545478 35.6728276,10.1254283" id="Fill-1"></path>
                        <path d="M20.6052348,7.52576957 C14.5983066,7.52576957 9.30166575,6.2740413 5.77018508,5.15694348 C7.95348895,4.61399783 9.9424558,3.68461739 11.5403122,2.93757391 C12.6125884,2.43623696 13.5386768,2.0032913 14.1618315,1.8575413 C14.7622459,1.71717174 15.377279,1.77874783 15.9405663,2.03581304 L19.0056381,3.43460652 C20.265174,4.00935652 21.6918978,3.9702587 22.9197597,3.32711739 L25.2802293,2.09105217 C25.835511,1.80015 26.4771133,1.70497609 27.0870414,1.82262826 C27.8940912,1.97866087 29.0700912,2.48358478 30.4318425,3.06813913 C32.0432735,3.76006304 33.8956823,4.55469348 35.8185166,5.06882391 C32.0916547,6.23135652 26.5969641,7.52576957 20.6052348,7.52576957 M41.8560746,3.70601957 C41.6606934,3.25956304 41.1508923,3.06084565 40.7177818,3.26243261 C40.6970138,3.27199783 40.2104171,3.49510652 39.3468646,3.83419348 C36.5598978,3.77692174 33.5350856,2.4790413 31.0937486,1.43093261 C29.6424282,0.807758696 28.3890414,0.269595652 27.4041298,0.0793673913 C26.423279,-0.110263043 25.3920746,0.0427804348 24.5004448,0.509682609 L22.1400912,1.74586739 C21.3752735,2.14641087 20.4868923,2.17080217 19.7025829,1.81282391 L16.637395,0.414030435 C15.7458812,0.00715 14.731268,-0.0944804348 13.7808149,0.127791304 C12.9869917,0.313476087 11.9869972,0.780976087 10.8292127,1.32236739 C8.55935635,2.3835087 5.45077624,3.83694348 2.30309669,3.83694348 C2.25297514,3.83694348 2.20401381,3.84232391 2.15609669,3.85081304 C1.56716851,3.60666087 1.24207459,3.45230217 1.22594751,3.44453043 C0.795621547,3.23660652 0.283383978,3.42755217 0.0817375691,3.8709 C-0.120140884,4.31436739 0.0650303867,4.84236739 0.495240331,5.05041087 C0.854096685,5.2239 9.41258287,9.29951957 20.6052348,9.29951957 C26.4529807,9.29951957 31.7947541,8.1007587 35.2461796,7.09509565 C37.1216768,6.54868261 38.6441188,6.00501957 39.7090856,5.59287826 C39.800047,5.57374783 39.8853232,5.53943261 39.9634061,5.4934 C40.866058,5.13757391 41.3809641,4.89999783 41.4256326,4.87919348 C41.8588591,4.67772609 42.0515718,4.15247609 41.8560746,3.70601957" id="Fill-4"></path>
                    </g>
                </g>
            </g>
        </g>
    </g>
</svg>