<?xml version="1.0" encoding="UTF-8" standalone="no"?>
<svg width="36px" height="41px" viewBox="0 0 36 41" version="1.1" xmlns="http://www.w3.org/2000/svg" xmlns:xlink="http://www.w3.org/1999/xlink">
    <!-- Generator: Sketch 41 (35326) - http://www.bohemiancoding.com/sketch -->
    <title>Page 1</title>
    <desc>Created with Sketch.</desc>
    <defs></defs>
    <g id="Page-1" stroke="none" stroke-width="1" fill="none" fill-rule="evenodd">
        <g id="Artboard" transform="translate(-843.000000, -17.000000)" stroke="#F5AF62" stroke-width="0.5" fill="#F5AF62">
            <g id="Group-13-Copy-2" transform="translate(821.000000, 18.000000)">
                <g id="Page-1" transform="translate(23.000000, 0.000000)">
                    <path d="M6.04036738,5.99835423 C7.31599375,4.55411391 9.17089561,3.32290931 11.1947369,2.46479701 C13.2174342,1.60519233 15.4083082,1.11830688 17.3307095,1.11942615 C18.4633285,1.11905306 19.5002278,1.28769078 20.3552216,1.62944333 C21.2121222,1.97194207 21.8836851,2.47673596 22.3439784,3.16994146 L22.8237207,2.86587123 L22.3279616,3.14494428 C22.9362199,4.17915615 23.1795232,5.05778853 23.1795232,5.80770406 C23.1787605,6.3001859 23.0761765,6.74230028 22.8870253,7.1586713 C22.5567735,7.88508202 21.945083,8.53948592 21.1232669,9.11889827 C19.8934029,9.98894952 18.2104913,10.6717084 16.493258,11.1985148 C14.7752619,11.7268135 13.0252322,12.1040098 11.6409201,12.4017375 C10.306184,12.6882724 9.27538638,13.2005281 8.4981886,13.814638 C7.32972247,14.736176 6.7447267,15.8707497 6.45604234,16.7628134 C6.16697663,17.6571157 6.16468851,18.3186083 6.16430716,18.3585292 L6.17002746,18.438371 C6.17574775,18.466726 6.6551087,21.7357608 8.16145375,25.0536706 C8.91729574,26.712439 9.92940708,28.3891158 11.3038039,29.6770305 C11.9913837,30.3198685 12.771251,30.8649564 13.6533209,31.2492414 C14.534628,31.6331534 15.5177565,31.853651 16.5901217,31.8532779 L16.5939352,31.8532779 C17.5587587,31.8469353 18.4545573,31.6290494 19.2653142,31.2581957 C20.6858548,30.6078958 21.8459312,29.5061542 22.7996954,28.244356 C24.2286258,26.3490471 25.2056526,24.076915 25.8375549,22.2707751 C26.468313,20.4653815 26.7489889,19.1263532 26.7524211,19.1099371 C26.8157258,18.8069862 26.616278,18.5114971 26.3066193,18.4495637 C25.9973418,18.3872573 25.6949288,18.5827577 25.6316241,18.8857086 L25.6247598,18.915556 C25.5534467,19.2487274 24.8635788,22.2692828 23.3740133,25.1633598 C22.6311373,26.6102117 21.6880509,28.0208737 20.5542879,29.0483699 C19.9879785,29.5628642 19.3755253,29.9818469 18.717691,30.2724858 C18.0594755,30.5631247 17.3558788,30.7280315 16.5859268,30.734001 L16.5901217,30.734001 C15.6763995,30.7336279 14.8618291,30.5496934 14.1185717,30.2262223 C12.8196828,29.6621068 11.7313008,28.6555037 10.8343582,27.4325072 C9.4885628,25.6013701 8.59314554,23.3012561 8.04819185,21.466015 C7.77514298,20.548581 7.58789857,19.7468057 7.46929773,19.1770937 C7.40980664,18.8920512 7.36823914,18.6655842 7.34078171,18.5107509 C7.32743435,18.4335208 7.31751917,18.3741991 7.31141752,18.3350244 L7.30417181,18.2909995 L7.30226504,18.2786875 L6.73633693,18.3585292 L7.30836669,18.3585292 L7.0932835,18.3585292 L7.30836669,18.3603947 L7.30836669,18.3585292 L7.0932835,18.3585292 L7.30836669,18.3603947 C7.30684128,18.3473364 7.32514623,17.3418527 7.90213359,16.259885 C8.19043659,15.7174088 8.61373862,15.1544125 9.24640354,14.6623037 C9.87983116,14.1705681 10.7264352,13.7452429 11.8868929,13.4948979 C14.0007336,13.038606 17.0290592,12.3920371 19.5780238,11.2567172 C20.8528875,10.6866321 22.0148706,9.99454591 22.8854999,9.10658622 C23.3198612,8.66223329 23.6802399,8.16639361 23.931933,7.61459009 C24.1840075,7.06315967 24.3239641,6.45576539 24.3235827,5.80770406 C24.3232014,4.8167709 24.000958,3.74413052 23.3194798,2.5864251 L23.3038443,2.56142791 C22.7016877,1.6503365 21.8161856,1.00152898 20.7869134,0.592619818 C19.7561157,0.182591374 18.5777344,0.000522329227 17.3307095,0.000149236922 C15.2141994,0.00126851384 12.8936653,0.524717018 10.7394012,1.43804698 C8.58628119,2.35324241 6.59943113,3.6579462 5.17545837,5.26597403 C4.9683836,5.49952982 4.99469697,5.85322132 5.23342405,6.05543735 C5.4725325,6.25765338 5.83367396,6.23191001 6.04036738,5.99835423" id="Fill-1"></path>
                    <path d="M26.7634041,19.0205069 C26.7672176,18.9287262 26.7695058,18.8347069 26.7695058,18.738076 C26.7691244,17.4072558 26.3870085,15.5992504 25.0244336,14.0330089 C24.3444809,13.2521268 23.4219876,12.5406397 22.2085218,11.9936864 C20.9946746,11.44636 19.4921431,11.0617018 17.6418175,10.9147035 C17.3268197,10.8897063 17.05072,11.1195311 17.0251694,11.4273323 C17.0000001,11.7355065 17.2345323,12.0056254 17.5491486,12.0306225 C19.2892632,12.1686667 20.657177,12.5268353 21.7291608,13.0103629 C23.3369458,13.7378929 24.2899474,14.7385265 24.866172,15.7746038 C25.4401086,16.8095619 25.6258276,17.8926488 25.6254462,18.738076 C25.6254462,18.8194101 25.6235395,18.8985057 25.6204886,18.9749896 C25.6075226,19.2839101 25.8531141,19.5443285 26.1688745,19.5566405 C26.4842536,19.5696988 26.7504381,19.3294273 26.7634041,19.0205069" id="Fill-3"></path>
                    <path d="M23.4612288,5.49822399 L23.4616102,5.49859709 C23.5203385,5.52284809 24.4146117,5.91720665 25.2810462,6.94470286 C26.1467179,7.97518381 27.007432,9.62947509 27.0108642,12.2896232 C27.0108642,12.6582384 26.9940846,13.0466275 26.9578561,13.4551636 C26.93078,13.7629647 27.1637868,14.0342028 27.4784032,14.0610655 C27.7930195,14.0879281 28.0702633,13.8599687 28.0977207,13.5517945 C28.1366188,13.1122918 28.1549237,12.6918167 28.1549237,12.2896232 C28.1587372,9.29406511 27.122982,7.31443733 26.0643456,6.11718413 C25.0068532,4.91657309 23.9512676,4.48565148 23.8959714,4.46289285 C23.6034735,4.34536877 23.2694082,4.48192055 23.1492819,4.76808235 C23.029537,5.05387106 23.1691123,5.38107301 23.4612288,5.49822399" id="Fill-5"></path>
                    <path d="M6.89002226,18.9323452 C6.87514948,18.9308528 6.81413297,18.9260026 6.71917603,18.9260026 C6.48807601,18.9289873 6.05333339,18.9468958 5.59990446,19.1856748 C5.37490608,19.3054375 5.14647553,19.4919836 4.98249366,19.7568792 C4.81736774,20.0210285 4.72736839,20.3523345 4.72813109,20.7205766 C4.72851245,21.0522557 4.79639331,21.4171399 4.93711264,21.8305262 L4.95541759,21.8771627 C5.42600741,22.9382373 6.09299412,23.56354 6.65282058,23.9049194 C7.2130284,24.2474182 7.65654214,24.3149479 7.71412647,24.3231559 C8.02721743,24.3653153 8.31590178,24.1511603 8.35899469,23.8452246 C8.4020876,23.5389159 8.18357223,23.256485 7.87048127,23.2143256 L7.82166807,23.559809 L7.87734563,23.2150717 L7.87048127,23.2143256 L7.82166807,23.559809 L7.87734563,23.2150717 L7.86933721,23.2135794 C7.814041,23.2031328 7.51544147,23.13523 7.15201189,22.8863774 C6.78858231,22.6356594 6.35269563,22.2092149 6.00413883,21.4298251 L5.47977821,21.6536804 L6.02244378,21.4764616 C5.9107073,21.1492597 5.87219063,20.8992878 5.87219063,20.7205766 C5.87333469,20.5198529 5.91566489,20.4120293 5.96028321,20.3377839 C5.9953677,20.2821931 6.03655385,20.241153 6.0914687,20.2027245 C6.17231558,20.1456414 6.28900965,20.1012434 6.40951725,20.0766193 C6.5288808,20.051249 6.64786299,20.0449064 6.71917603,20.0452795 L6.77637901,20.0463988 L6.7870569,20.047145 L6.79964155,19.8803727 L6.78362472,20.0467719 L6.7870569,20.047145 L6.79964155,19.8803727 L6.78362472,20.0467719 C7.09824109,20.0755 7.37701026,19.8494061 7.40637446,19.5416049 C7.43573865,19.2338038 7.20463863,18.9610733 6.89002226,18.9323452" id="Fill-7"></path>
                    <path d="M26.2282512,20.0102835 L26.2274885,20.0315497 L26.2282512,20.0102835 L26.2274885,20.0315497 C26.2606662,20.0300574 26.5470624,20.0546814 26.749561,20.1572818 C26.8525263,20.2076493 26.9295597,20.2684633 26.9802797,20.3389778 C27.0298556,20.4109846 27.070279,20.497542 27.0721858,20.6773725 C27.0729485,20.8594415 27.018415,21.1403801 26.840323,21.5283961 L26.8635856,21.483625 C26.3941398,22.2995778 25.8632962,22.6816244 25.4582991,22.8801095 C25.2554192,22.9786058 25.0834289,23.0286002 24.9682603,23.0535974 C24.910676,23.0659094 24.8675831,23.072252 24.8424137,23.0752367 L24.8187698,23.0778484 L24.8386002,23.4266897 L24.8248715,23.0774753 C24.5094924,23.0890412 24.2631383,23.3487134 24.2745789,23.6576338 C24.2864008,23.9665543 24.5518226,24.2075719 24.8679644,24.196006 C24.9263114,24.1937675 25.3740201,24.1698896 25.9662616,23.8829816 C26.5577403,23.5983122 27.2853622,23.0405392 27.8615868,22.0309514 L27.884468,21.9861803 C28.1083223,21.4963101 27.8772223,21.0680001 27.8776037,20.6773725 C27.8806545,20.271075 28.0873479,19.90731 27.8776037,19.6442799 C27.7223929,19.4454217 27.5340045,19.3036466 27.3505736,19.2025386 C27.0740925,19.0514362 26.806764,18.9846527 26.6031214,18.9492089 C26.3998601,18.9141383 26.2591408,18.9126459 26.2358783,18.9122728 C25.9197365,18.9104073 25.6619417,19.1592599 25.6596536,19.4681803 C25.6577468,19.7771008 25.9121094,20.0293112 26.2278698,20.0315497 L26.2282512,20.0102835 Z" id="Fill-9"></path>
                    <path d="M11.8217578,30.0866485 L11.826334,30.1011991 C11.8808676,30.2687176 12.3625166,31.8715221 12.3606099,33.5724499 C12.3617539,34.4585441 12.229043,35.3644123 11.877054,36.1005234 C11.7008689,36.4695117 11.4728197,36.7970867 11.178415,37.0750405 C10.8832476,37.3529943 10.5205808,37.5835653 10.0560926,37.7533223 C9.75978118,37.861146 9.60914668,38.1831246 9.71935775,38.4730174 C9.82956881,38.762537 10.159058,38.9099084 10.454988,38.8020848 C11.0586701,38.5827065 11.5651071,38.265578 11.9723923,37.881293 C12.5844642,37.3041192 12.9684868,36.5866627 13.1969174,35.8415973 C13.4257293,35.0950396 13.504288,34.3156498 13.5046694,33.5724499 C13.5019999,31.5480511 12.9196736,29.7769819 12.9116652,29.7467614 C12.8155642,29.4520185 12.4940835,29.2897233 12.1931958,29.3833695 C11.8919268,29.4773888 11.7260382,29.7922787 11.8217578,30.0866485" id="Fill-11"></path>
                    <path d="M20.1295749,29.7467241 C20.1215665,29.7769446 19.5392402,31.5480138 19.5365707,33.5724126 C19.5377148,34.5622265 19.6753833,35.6199432 20.1276681,36.573194 C20.3538106,37.0488867 20.6619439,37.4969706 21.0692291,37.8812556 C21.4765143,38.2655407 21.98257,38.5830423 22.5866334,38.8020475 C22.8829448,38.9102442 23.2120526,38.7624997 23.3222637,38.47298 C23.4324748,38.1830873 23.2818403,37.8611087 22.9855289,37.753285 C22.5210407,37.583528 22.1583738,37.3529569 21.8632065,37.0750032 C21.4219808,36.6590053 21.1271948,36.1273487 20.9403318,35.5195814 C20.7538501,34.9133064 20.6802489,34.2365169 20.6806302,33.5724126 C20.6806302,32.6661714 20.8156293,31.7853005 20.9521537,31.1372391 C21.0200346,30.8130219 21.0879154,30.5470071 21.1386354,30.3634457 C21.1638047,30.271665 21.1847791,30.2007775 21.1988892,30.1537678 L21.2149061,30.1011618 L21.2194823,30.0866112 C21.3155833,29.7922414 21.1493133,29.4773515 20.8484256,29.3833322 C20.547538,29.289686 20.2256759,29.4519812 20.1295749,29.7467241" id="Fill-13"></path>
                    <path d="M5.29871172,5.04991628 C5.26782211,5.08050985 3.94757741,6.37775179 2.63000219,8.86030799 C1.31242696,11.3424911 -0.000190676589,15.0148387 -0.000190676589,19.7676615 C-0.000953382943,24.7480707 1.44361245,30.9040938 5.78226755,38.095821 C5.94281723,38.3618358 6.29366216,38.4502587 6.56594833,38.29356 C6.83785314,38.136115 6.92823384,37.7932432 6.76768416,37.5268553 C2.5182657,30.4795147 1.14501291,24.5354081 1.14386885,19.7676615 C1.14425021,15.218174 2.39737675,11.7297609 3.6455457,9.37629465 C4.26943949,8.19993461 4.89257058,7.30861709 5.35591469,6.71502724 C5.58777743,6.41841885 5.77959807,6.19605584 5.91154627,6.04980366 C5.97752037,5.97667757 6.0286217,5.92257918 6.06179943,5.8878816 L6.09879068,5.85019927 L6.1067991,5.84199124 L6.10832451,5.84087197 L5.95997813,5.69685834 L6.10756181,5.84124506 L6.10832451,5.84087197 L5.95997813,5.69685834 L6.10756181,5.84124506 C6.33103477,5.62261297 6.33103477,5.26817528 6.10756181,5.04991628 C5.88408885,4.83128419 5.52180333,4.83128419 5.29871172,5.04991628" id="Fill-15"></path>
                    <path d="M26.7954378,21.9203295 C26.9006912,25.6665494 27.2694598,29.5717065 28.1930972,32.7105321 C28.6564413,34.2801314 29.2578352,35.6624384 30.0643972,36.7429137 C30.4678689,37.2827783 30.9251113,37.7472782 31.4448957,38.1117894 C31.9639174,38.4763006 32.5473877,38.7389575 33.1842475,38.8717784 C33.4931436,38.9359503 33.7970821,38.7434347 33.8630562,38.4412299 C33.9290303,38.1390251 33.7318707,37.8416706 33.4229746,37.7771256 C32.9462832,37.6771368 32.5153541,37.4846212 32.1115011,37.2021903 C31.4059977,36.7085892 30.7851547,35.9250954 30.2627009,34.9043148 C29.4771133,33.3750095 28.9214817,31.3293444 28.5553827,29.064301 C28.1881396,26.7988845 28.0062341,24.3137167 27.9391159,21.890109 C27.9307262,21.5811886 27.6675925,21.3375593 27.3514507,21.3457674 C27.0356903,21.3539754 26.787048,21.6114091 26.7954378,21.9203295" id="Fill-18"></path>
                    <path d="M26.7637855,19.5316433 L26.9540807,24.6451416 C26.954462,24.954062 27.9615479,23.1337891 27.9615479,23.1337891 C27.9615479,20.8310634 27.9936494,15.0716979 28.0962335,13.3170448 C28.1141571,13.0084975 27.8735232,12.743975 27.5577628,12.7260666 C27.2423837,12.7085313 26.9720043,12.9443256 26.9540807,13.2528729 C26.8503526,15.0243152 26.7637855,17.2016819 26.7637855,19.5316433 Z" id="Fill-21"></path>
                </g>
            </g>
        </g>
    </g>
</svg>