<?xml version="1.0" encoding="UTF-8" standalone="no"?>
<svg width="44px" height="23px" viewBox="0 0 44 23" version="1.1" xmlns="http://www.w3.org/2000/svg" xmlns:xlink="http://www.w3.org/1999/xlink">
    <!-- Generator: Sketch 41 (35326) - http://www.bohemiancoding.com/sketch -->
    <title>Group</title>
    <desc>Created with Sketch.</desc>
    <defs></defs>
    <g id="Configurator-WebApp" stroke="none" stroke-width="1" fill="none" fill-rule="evenodd">
        <g id="5" transform="translate(-322.000000, -728.000000)" fill="#F5AF62">
            <g id="Group-19" transform="translate(289.000000, 707.000000)">
                <g id="Group-18" transform="translate(33.000000, 21.000000)">
                    <g id="Group">
                        <path d="M43.1412584,10.9421895 C42.7877753,10.5146316 34.4806742,0.637221053 22.6595056,0.304568421 C22.4592809,0.2944 22.257573,0.288589474 22.0538876,0.288589474 L22.0528989,0.288589474 L22.0519101,0.288589474 C22.037573,0.288589474 22.0237303,0.289557895 22.0098876,0.289557895 C21.8225169,0.290042105 21.6356404,0.2944 21.4502472,0.304084211 C9.62561798,0.634315789 1.31703371,10.5146316 0.963550562,10.9421895 L0.460269663,11.5513263 L0.963550562,12.1604632 C1.31703371,12.5885053 9.62561798,22.4688211 21.4502472,22.7985684 C21.6356404,22.8082526 21.8220225,22.8121263 22.0098876,22.8130947 C22.0242247,22.8130947 22.0380674,22.8140632 22.0519101,22.8140632 L22.0528989,22.8140632 L22.0538876,22.8140632 C22.2570787,22.8140632 22.4587865,22.8082526 22.6595056,22.7985684 C34.4806742,22.4654316 42.7877753,12.5885053 43.1412584,12.1609474 L43.6450337,11.5513263 L43.1412584,10.9421895 L43.1412584,10.9421895 Z M22.0558652,20.8772211 L22.0538876,20.8772211 C16.8025618,20.8767368 12.5306067,16.6931579 12.5306067,11.5508421 C12.5306067,7.37162105 15.3525393,3.82574737 19.2289888,2.64427368 C17.1654382,3.65917895 15.7460674,5.74515789 15.7460674,8.16185263 C15.7460674,11.5731158 18.5694831,14.3384421 22.0528989,14.3384421 C25.5338427,14.3384421 28.3587416,11.5731158 28.3587416,8.16185263 C28.3587416,7.09368421 28.0813933,6.08943158 27.594427,5.21301053 C27.3719551,6.11557895 26.5478202,6.78911579 25.5565843,6.78911579 C24.3947865,6.78911579 23.4544719,5.86717895 23.4544719,4.73073684 C23.4544719,3.75989474 24.1416629,2.95223158 25.0636854,2.73433684 C24.9964494,2.69850526 24.9237753,2.67235789 24.8545618,2.63846316 C28.7413933,3.81267368 31.5746966,7.36338947 31.5746966,11.5508421 C31.5742022,16.6931579 27.3042247,20.8762526 22.0558652,20.8772211 L22.0558652,20.8772211 Z M3.04786517,11.5508421 C4.40296629,10.1006316 8.18795506,6.40271579 13.42,4.12305263 C11.6377528,6.10734737 10.5530787,8.70658947 10.5530787,11.5508421 C10.5530787,14.3917053 11.6347865,16.9885263 13.4140674,18.9723368 C8.19092135,16.6921895 4.40395506,12.9991158 3.04786517,11.5508421 L3.04786517,11.5508421 Z M30.6862921,18.9786316 C32.4680449,16.9943368 33.5517303,14.3950947 33.5517303,11.5508421 C33.5517303,8.71046316 32.4705169,6.11461053 30.6932135,4.13128421 C35.9148764,6.41191579 39.7008539,10.1040211 41.0569438,11.5518105 C39.7018427,13.0029895 35.9163596,16.6994526 30.6862921,18.9786316 L30.6862921,18.9786316 Z" id="Shape"></path>
                    </g>
                </g>
            </g>
        </g>
    </g>
</svg>