<?xml version="1.0" encoding="UTF-8" standalone="no"?>
<svg width="96px" height="96px" viewBox="0 0 96 96" version="1.1" xmlns="http://www.w3.org/2000/svg" xmlns:xlink="http://www.w3.org/1999/xlink">
    <!-- Generator: Sketch 41 (35326) - http://www.bohemiancoding.com/sketch -->
    <title>Group 2</title>
    <desc>Created with Sketch.</desc>
    <defs></defs>
    <g id="Configurator-WebApp" stroke="none" stroke-width="1" fill="none" fill-rule="evenodd">
        <g id="3_1" transform="translate(-439.000000, -380.000000)">
            <g id="Group-2" transform="translate(439.000000, 380.000000)">
                <path d="M10.9890602,78.5225386 C19.7873209,89.1584334 33.0860638,95.9352203 47.9676101,95.9352203 C74.4593897,95.9352203 95.9352203,74.4593897 95.9352203,47.9676101 C95.9352203,21.4758306 74.4593897,0 47.9676101,0 C21.4758306,0 0,21.4758306 0,47.9676101 C0,59.5778434 4.12486361,70.2246631 10.9890602,78.5225386 Z" id="Mask" fill="#00637E" opacity="0.200326493"></path>
                <g id="Oval-4-+-Line-Copy" transform="translate(50.000000, 47.000000) rotate(-270.000000) translate(-50.000000, -47.000000) translate(46.000000, 43.000000)" stroke="#2BB0D4" stroke-width="1.5" fill="#2BB0D4">
                    <path d="M3.90434036,7.80868072 C6.060648,7.80868072 7.80868072,6.060648 7.80868072,3.90434036 C7.80868072,1.74803272 6.060648,4.47641924e-13 3.90434036,4.47641924e-13 C1.74803272,4.47641924e-13 0,1.74803272 0,3.90434036 C0,6.060648 1.74803272,7.80868072 3.90434036,7.80868072 Z" id="Oval-4"></path>
                </g>
            </g>
        </g>
    </g>
</svg>