<?xml version="1.0" encoding="UTF-8" standalone="no"?>
<svg width="25px" height="36px" viewBox="0 0 25 36" version="1.1" xmlns="http://www.w3.org/2000/svg" xmlns:xlink="http://www.w3.org/1999/xlink">
    <!-- Generator: Sketch 41 (35326) - http://www.bohemiancoding.com/sketch -->
    <title>Group 12</title>
    <desc>Created with Sketch.</desc>
    <defs></defs>
    <g id="Configurator-WebApp" stroke="none" stroke-width="1" fill="none" fill-rule="evenodd">
        <g id="5" transform="translate(-539.000000, -722.000000)" fill="#F5AF62">
            <g id="Group-19" transform="translate(289.000000, 707.000000)">
                <g id="Group-16" transform="translate(241.000000, 15.000000)">
                    <g id="Group-12" transform="translate(9.000000, 0.000000)">
                        <path d="M19.0343118,25.5798225 C19.2887265,25.7422251 19.558312,25.9665846 19.7115065,26.1356045 C19.6214608,26.179378 19.5151046,26.2246611 19.4316732,26.2601328 C18.9407811,26.4684346 18.2683693,26.7537177 18.1054902,27.4895667 C17.9508039,28.1884346 17.770036,28.8571139 17.481634,29.7959818 C17.2877124,30.4269252 16.473768,31.3054158 15.1149641,30.9756045 C14.713817,30.878246 14.3378497,30.7363592 13.9398595,30.5854158 C12.7044739,30.1190007 11.3042549,29.5899441 9.25875818,30.6239063 C6.67433988,31.9303214 5.6197974,34.8442837 5.57620263,34.9673026 C5.43730067,35.3605101 5.64189544,35.7914535 6.03304576,35.9310762 C6.11617648,35.9612648 6.20103596,35.9748497 6.28446733,35.9748497 C6.59368955,35.9748497 6.88344446,35.7816422 6.9928072,35.4722082 C7.00152616,35.4480573 7.88319282,33.0095667 9.93470263,31.9725856 C11.3916699,31.2359818 12.2825817,31.5725856 13.4104837,31.998246 C13.8334281,32.158246 14.2708039,32.323529 14.7615458,32.4427743 C15.0869281,32.5220196 15.400134,32.558246 15.6993595,32.558246 C17.3344641,32.558246 18.5419641,31.4654158 18.9181569,30.2412648 C19.207536,29.2986233 19.4008562,28.5861705 19.5602778,27.8744724 C19.648219,27.8065479 19.8757386,27.7099441 20.0170458,27.6503214 C20.4678758,27.4586233 21.0288203,27.2208875 21.2494248,26.638246 C21.4050882,26.2276799 21.3091798,25.8352271 21.1006013,25.4880573 C21.5587974,25.3522082 21.9913628,25.1008875 22.126732,24.6027743 C22.3250131,23.8729629 21.9423562,23.3620196 21.6892059,23.0231516 C21.4226765,22.6676799 21.3229347,22.534095 21.4979902,22.1091894 C21.5826994,21.9039063 21.5915686,21.8827743 22.2079085,21.8661705 C22.457,21.859378 22.7393889,21.8518309 23.0537222,21.8020196 C23.9875523,21.6533403 24.4445458,21.2080573 24.6633464,20.8608875 C24.860049,20.5484346 25.0498366,20.0231516 24.8371242,19.2948497 C24.6436536,18.6322082 24.1196896,17.9227743 23.5129706,17.1008875 C22.6731699,15.9627743 21.7213007,14.6737177 21.6577124,13.4956045 C21.6115621,12.6412648 21.7832353,11.8480573 21.9346144,11.1484346 C22.0095523,10.8020196 22.0803562,10.4752271 22.1147059,10.1778686 C22.2406046,9.08805729 22.1458235,7.16352898 21.4642418,5.32594408 C20.5124477,2.76013276 18.6514771,0.932812004 16.082317,0.0415667208 C15.6900392,-0.0945087509 15.2620588,0.114472381 15.1264641,0.508434645 C14.9908693,0.902396909 15.1990719,1.33213276 15.5914248,1.46820823 C21.3100065,3.45213276 20.6290262,9.93862332 20.6214347,10.003529 C20.5955784,10.2269252 20.5353726,10.5054158 20.4656209,10.8276799 C20.3025164,11.5816422 20.0995752,12.5197554 20.1566242,13.5771139 C20.2447157,15.2080573 21.3872745,16.7559818 22.3053954,17.9997554 C22.7827582,18.6465479 23.2764314,19.3152271 23.3945882,19.7197554 C23.4247288,19.8231516 23.4490065,19.9650384 23.393085,20.0533403 C23.3202516,20.168812 23.1054347,20.2654158 22.8183105,20.3106988 C22.6011634,20.3454158 22.3809347,20.3514535 22.1679967,20.3567365 C21.5339935,20.374095 20.5758856,20.3997554 20.1089706,21.5325856 C19.605902,22.7529629 20.1578268,23.4895667 20.4875686,23.9303214 C20.5172582,23.9703214 20.5534118,24.0186233 20.5863333,24.0646611 C20.357472,24.1181878 20.0104616,24.159459 19.6691293,24.172276 C19.1322867,24.0648967 18.3472878,23.8637279 17.8674653,23.5775101 C17.5104391,23.3646799 17.0493117,23.4831705 16.837426,23.8409063 C16.6255404,24.1993969 16.7431711,24.6627931 17.1001221,24.8756233 C17.6773507,25.2194625 18.4454657,25.4446956 19.0343118,25.5798225 Z M2.91947206,10.5859081 L2.76696552,10.6055308 C0.977099509,10.8349647 -0.200259968,12.3632666 0.0283119271,14.1610025 C0.138877287,15.0304364 0.392027613,15.6530779 0.615262907,16.2025119 C0.814596241,16.6923232 0.986795587,17.1157195 1.05774984,17.6734553 C1.18169428,18.6485496 1.71708317,19.4560968 2.45488709,19.7813798 C2.68661585,19.8832666 2.92691323,19.9345874 3.16924003,19.9345874 C3.56677925,19.9345874 3.9695799,19.7979836 4.34780212,19.5293044 C4.60192957,19.3481723 4.66206029,18.9949647 4.48219428,18.7398704 C4.30232827,18.4847761 3.9504884,18.4243987 3.69636095,18.6047761 C3.41555049,18.8047761 3.15037402,18.8515685 2.90834787,18.7451534 C2.54222696,18.583644 2.24796225,18.0953421 2.17610604,17.5300591 C2.08643611,16.8251534 1.86921389,16.2908138 1.65913219,15.7745874 C1.44288709,15.2425119 1.23859297,14.7398704 1.14666814,14.0176062 C0.997092973,12.8410025 1.7385799,11.8787383 2.90970082,11.7285496 L3.06220735,11.708927 C3.67155703,11.6304364 4.10562565,11.9866629 4.31014526,12.2062855 C4.64086421,12.5602478 4.81802435,13.0304364 4.75097859,13.3760968 C4.74917467,13.3851534 4.74759624,13.3949647 4.7462433,13.4040213 C4.67378578,13.9149647 4.53676291,14.3021345 4.39928905,14.6100591 C4.24031846,14.4311912 4.06060278,14.2870402 3.85984134,14.1791157 C3.18660278,13.8160968 2.66549493,13.978361 2.48570408,14.0334553 C2.30591323,14.0885496 2.01495572,14.3564742 2.12905376,14.7376062 C2.25179559,15.1474176 2.62468121,15.1277949 2.83153088,15.1111912 C3.03845572,15.0938327 3.0871616,15.0402478 3.34046225,15.183644 C3.60804395,15.3360968 3.82271062,15.6877949 3.96123676,16.2025119 C4.02918448,16.4553421 4.25670408,16.6213798 4.50511912,16.6213798 C4.553825,16.6213798 4.60328252,16.6145874 4.6525897,16.6017572 C4.9386616,16.5240213 5.11296552,16.2387383 5.05907336,15.9511912 C5.06711585,15.9081723 5.07079886,15.863644 5.06854395,15.818361 C5.0889884,15.7579836 5.15513219,15.628927 5.209325,15.5232666 C5.41489689,15.1217572 5.7251714,14.5157195 5.86054069,13.5768515 C5.99072369,12.87421 5.71284461,12.0538327 5.13295899,11.4319459 C4.53458317,10.7904364 3.72770408,10.4817572 2.91947206,10.5859081 Z" id="Combined-Shape" fill-opacity="0.6"></path>
                        <path d="M7.41040039,19.0317383 C7.38354492,15.8078613 9.05566406,16.3798828 9.05566406,16.3798828 L13.1409186,18.4696344 C13.1409186,18.4696344 14.904616,19.2724057 14.5170547,21.9775943 C14.1294935,24.682783 13.5935059,27.1240234 13.5935059,27.1240234 C13.5935059,27.1240234 12.5458984,28.7641602 10.947998,27.5087891 C9.35009766,26.253418 7.95043945,22.4680176 7.95043945,22.4680176 C7.95043945,22.4680176 7.41040039,21.6804199 7.41040039,19.0317383 Z" id="Path-2" stroke="#F5AF62" stroke-width="2.2" stroke-linecap="round" stroke-linejoin="round"></path>
                    </g>
                </g>
            </g>
        </g>
    </g>
</svg>