<?xml version="1.0" encoding="UTF-8" standalone="no"?>
<svg width="34px" height="43px" viewBox="0 0 34 43" version="1.1" xmlns="http://www.w3.org/2000/svg" xmlns:xlink="http://www.w3.org/1999/xlink">
    <!-- Generator: Sketch 41 (35326) - http://www.bohemiancoding.com/sketch -->
    <title>thin-0212_hand_touch_click_one_finger</title>
    <desc>Created with Sketch.</desc>
    <defs></defs>
    <g id="Configurator-WebApp" stroke="none" stroke-width="1" fill="none" fill-rule="evenodd">
        <g id="3" transform="translate(-1326.000000, -78.000000)" stroke="#2BB0D4" stroke-width="1.5">
            <g id="Group-9" transform="translate(1294.000000, 78.000000)">
                <g id="thin-0212_hand_touch_click_one_finger" transform="translate(33.000000, 0.000000)">
                    <path d="M11.8518519,3.9130814 L11.8518519,0.112386628" id="Shape"></path>
                    <path d="M2.61525,8.16666667 L6.785625,8.16666667" id="Shape"></path>
                    <path d="M18.714375,8.16666667 L22.8849375,8.16666667" id="Shape"></path>
                    <path d="M17.069625,5.32417151 L20.465625,2.18790698" id="Shape"></path>
                    <path d="M8.4305625,5.32417151 L5.0345625,2.18790698" id="Shape"></path>
                    <path d="M15.5625,23.7469099 L15.5625,20.9998169 C15.5625,19.482689 16.82175,18.2527238 18.375,18.2527238 L18.375,18.2527238 C19.92825,18.2527238 21.1875,19.482689 21.1875,20.9998169 L21.1875,25.5783052" id="Shape"></path>
                    <path d="M26.8125,26.4940029 L26.8125,22.8312122 C26.8125,21.3140843 25.55325,20.0841192 24,20.0841192 C22.44675,20.0841192 21.1875,21.3140843 21.1875,22.8312122 L21.1875,25.5783052" id="Shape"></path>
                    <path d="M9.9375,31.0724913 L9.9375,10.0114448 C9.9375,8.49431686 11.19675,7.26435174 12.75,7.26435174 C14.30325,7.26435174 15.5625,8.49431686 15.5625,10.0114448 L15.5625,23.7469099" id="Shape"></path>
                    <path d="M10.9755,42.000061 C10.156875,40.0598808 8.64075,38.7517151 8.64075,38.7517151 C4.373625,33.8965029 0.8810625,24.3241657 0.8810625,24.3241657 C-0.2098125,21.5415436 3.38625,20.3624913 4.5316875,22.1244767 L6.091875,24.6626076 L9.9375,31.0724913" id="Shape"></path>
                    <path d="M27.03975,42.000061 C27.3170625,40.4375145 27.9391875,37.9991948 29.341125,35.3096076 C31.311375,31.5299738 31.8564375,26.5811773 31.8564375,26.5811773 C31.8564375,25.0640494 31.17825,23.7469099 29.625,23.7469099 C28.07175,23.7469099 26.8125,24.976875 26.8125,26.4940029" id="Shape"></path>
                    <path d="M24.8888889,26.4940029 L24.8888889,27.4097006" id="Shape"></path>
                </g>
            </g>
        </g>
    </g>
</svg>