<?xml version="1.0" encoding="UTF-8" standalone="no"?>
<svg width="27px" height="32px" viewBox="0 0 27 32" version="1.1" xmlns="http://www.w3.org/2000/svg" xmlns:xlink="http://www.w3.org/1999/xlink">
    <!-- Generator: Sketch 41 (35326) - http://www.bohemiancoding.com/sketch -->
    <title>Group 5</title>
    <desc>Created with Sketch.</desc>
    <defs></defs>
    <g id="Configurator-WebApp" stroke="none" stroke-width="1" fill="none" fill-rule="evenodd">
        <g id="5" transform="translate(-434.000000, -726.000000)" stroke="#F5AF62" stroke-width="0.5" fill="#F5AF62">
            <g id="Group-19" transform="translate(289.000000, 707.000000)">
                <g id="Group-17" transform="translate(144.000000, 20.000000)">
                    <g id="Group-5" transform="translate(2.000000, 0.000000)">
                        <path d="M24.6404542,19.1932834 C23.9630304,17.2950893 22.416493,15.9975723 20.389277,15.6217258 C20.2371994,15.4558116 19.4225872,14.3391073 18.6111606,8.84768519 C18.0780581,5.23955878 17.8775041,1.88470551 17.9974487,0.845202121 C18.0456481,0.428046365 17.7389999,0.052199864 17.3126149,0.00479580081 C16.8858143,-0.0419310615 16.5014653,0.258068939 16.4533351,0.674547494 C16.290108,2.08854298 16.5927396,5.97432176 17.1422548,9.52150009 C17.4457174,11.4799651 17.7985567,13.1546829 18.1626149,14.3648409 C18.700288,16.1512969 19.2605373,16.9700328 20.0358143,17.1034414 C22.0867839,17.4555859 22.881867,18.8777078 23.1732797,19.6937349 C23.6531966,21.0386558 23.4612299,22.5589719 22.7064515,23.3912518 C22.3626842,23.7704843 21.931313,23.9641637 21.4194016,23.9722902 C21.5140692,23.8239832 21.557975,23.6438477 21.5297894,23.4582947 C21.4669085,23.0431705 21.0682243,22.7391073 20.6473794,22.8176626 C20.0622686,22.9273692 18.2022271,23.1643895 16.4389999,26.0932834 C15.6649695,27.3792879 14.8847756,28.4221773 12.6526426,28.4221773 L12.3501495,28.4221773 C10.1180166,28.4221773 9.39779496,27.3433963 8.56379219,26.0932834 C8.27334897,25.6585204 6.95361213,22.980868 4.34246255,22.8176626 C3.9143462,22.7912518 3.52037114,23.0424933 3.45749025,23.4576175 C3.42757335,23.6546829 3.47819662,23.8449764 3.58436005,23.9973466 C2.68816892,24.0711615 2.09668692,23.7772563 1.78650687,23.1027642 C1.22307197,21.878385 1.77050964,20.0865114 2.27771186,19.7248861 C2.62445701,19.478385 2.7007728,19.0029899 2.44807197,18.6637123 C2.19537114,18.3244346 1.70936005,18.2499425 1.36254565,18.4971209 C0.0946786143,19.4005069 -0.406567923,22.0395588 0.369332354,23.7264662 C0.687961163,24.4185656 1.20610521,24.9413646 1.86794731,25.2373014 C2.58976172,25.5596491 3.46663152,25.6138251 4.47438776,25.3977981 C5.39052349,25.2014098 5.91863983,25.3524256 6.36303041,25.7573917 C6.39073125,25.7878658 6.96787806,26.4826739 7.26254565,26.9242089 C8.11254565,28.1973466 9.27667307,29.9418161 12.3501495,29.9418161 L12.6526426,29.9418161 C15.7261883,29.9418161 16.8903157,28.1973466 17.7403157,26.9242089 C18.5399695,25.7262405 18.9807589,25.0659696 20.5284736,25.3977981 C21.8434321,25.6795136 23.0298587,25.3253376 23.8691938,24.3996039 C24.9976565,23.1549087 25.3076288,21.0623579 24.6404542,19.1932834" id="Fill-109"></path>
                        <path d="M5.79363983,14.6343669 C5.86538499,14.6546829 5.93768415,14.6641637 6.00880604,14.6641637 C6.34634066,14.6641637 6.65714399,14.4474595 6.75513568,14.1142766 C8.25465091,9.01698542 8.20312737,1.08899445 8.20021878,0.753779999 C8.19654842,0.336624243 7.84938776,0.000732595389 7.42341823,0.000732595389 L7.41663152,0.000732595389 C6.9876149,0.0041185999 6.64273956,0.347459458 6.64634066,0.766646817 C6.64703318,0.846556523 6.69841823,8.81043914 5.26171463,13.6944121 C5.14308582,14.0973466 5.38124371,14.5185656 5.79363983,14.6343669" id="Fill-110"></path>
                    </g>
                </g>
            </g>
        </g>
    </g>
</svg>