<?xml version="1.0" encoding="UTF-8" standalone="no"?>
<svg width="34px" height="30px" viewBox="0 0 34 30" version="1.1" xmlns="http://www.w3.org/2000/svg" xmlns:xlink="http://www.w3.org/1999/xlink">
    <!-- Generator: Sketch 41 (35326) - http://www.bohemiancoding.com/sketch -->
    <title>Group</title>
    <desc>Created with Sketch.</desc>
    <defs></defs>
    <g id="Page-1" stroke="none" stroke-width="1" fill="none" fill-rule="evenodd">
        <g id="Artboard" transform="translate(-652.000000, -25.000000)" fill="#F5AF62">
            <g id="Group-13" transform="translate(652.000000, 25.000000)">
                <g id="Group">
                    <path d="M33.6482759,24.5526316 C24.1126437,12.3157895 28.3724138,1.97368421 28.5678161,1.53947368 C28.7632184,1.06578947 28.5678161,0.552631579 28.0988506,0.355263158 C27.6298851,0.157894737 27.1218391,0.355263158 26.9264368,0.828947368 C26.7310345,1.30263158 22.0413793,12.5526316 32.2413793,25.6973684 C32.3977011,25.9342105 32.6712644,26.0526316 32.9448276,26.0526316 C33.1402299,26.0526316 33.3356322,25.9736842 33.491954,25.8552632 C33.8827586,25.5394737 33.9609195,24.9473684 33.6482759,24.5526316 L33.6482759,24.5526316 Z" id="Shape"></path>
                    <path d="M12.583908,13.9736842 C16.0229885,13.5394737 21.1425287,11.1315789 25.4804598,5.48684211 C25.7931034,5.09210526 25.7149425,4.53947368 25.3241379,4.22368421 C24.9333333,3.90789474 24.3862069,3.98684211 24.0735632,4.38157895 C19.7356322,10.0263158 14.6942529,12.1578947 11.6850575,12.2763158 C5.82298851,12.4736842 4.25977011,2.84210526 4.25977011,2.72368421 C4.1816092,2.25 3.71264368,1.89473684 3.24367816,1.97368421 C2.77471264,2.05263158 2.42298851,2.52631579 2.50114943,3 C2.57931034,3.47368421 4.25977011,13.9342105 11.3333333,14.0526316 C11.4114943,14.4868421 11.5287356,15.1973684 11.645977,16.5 C11.9195402,19.9342105 9.57471264,21.6315789 7.50344828,22.0657895 C6.44827586,22.2631579 5.31494253,22.5 4.29885057,22.7368421 C2.73563218,23.0921053 1.36781609,23.3684211 0.781609195,23.4473684 C0.429885057,23.4868421 0.195402299,23.8026316 0.234482759,24.1578947 C0.195402299,24.4736842 0.468965517,24.7105263 0.781609195,24.7105263 L0.859770115,24.7105263 C1.48505747,24.6315789 2.89195402,24.3157895 4.49425287,24 C5.51034483,23.8026316 6.6045977,23.5657895 7.69885057,23.3289474 C10.4735632,22.7368421 13.1701149,20.3684211 12.8574713,16.3815789 C12.7793103,15.2763158 12.662069,14.5263158 12.583908,13.9736842 Z" id="Shape"></path>
                    <path d="M27.2,26.9210526 C25.9494253,26.8026316 19.4229885,28.3815789 18.0942529,28.7368421 C17.7425287,28.8157895 17.5471264,29.1710526 17.6252874,29.5263158 C17.7034483,29.8026316 17.937931,30 18.2505747,30 L18.4068966,30 C21.337931,29.2894737 26.262069,28.1447368 27.0827586,28.2236842 C27.4344828,28.2631579 27.7471264,27.9868421 27.7862069,27.6315789 C27.7862069,27.2368421 27.5517241,26.9210526 27.2,26.9210526 L27.2,26.9210526 Z" id="Shape"></path>
                    <path d="M12.9356322,28.7368421 C11.9586207,28.4210526 7.11264368,26.8026316 5.82298851,26.9210526 C5.47126437,26.9605263 5.19770115,27.2763158 5.23678161,27.6315789 C5.27586207,27.9868421 5.58850575,28.2631579 5.94022989,28.2236842 C6.68275862,28.1447368 10.2390805,29.2105263 12.5448276,29.9605263 C12.6229885,30 12.662069,30 12.7402299,30 C13.0137931,30 13.2482759,29.8421053 13.3264368,29.5657895 C13.4436782,29.2105263 13.2482759,28.8157895 12.9356322,28.7368421 L12.9356322,28.7368421 Z" id="Shape"></path>
                </g>
            </g>
        </g>
    </g>
</svg>