<?xml version="1.0" encoding="UTF-8" standalone="no"?>
<svg width="30px" height="40px" viewBox="0 0 30 40" version="1.1" xmlns="http://www.w3.org/2000/svg" xmlns:xlink="http://www.w3.org/1999/xlink">
    <!-- Generator: Sketch 41 (35326) - http://www.bohemiancoding.com/sketch -->
    <title>Page 1</title>
    <desc>Created with Sketch.</desc>
    <defs></defs>
    <g id="Page-1" stroke="none" stroke-width="1" fill="none" fill-rule="evenodd" stroke-linecap="round" stroke-linejoin="round">
        <g id="Artboard" transform="translate(-746.000000, -17.000000)">
            <g id="Group-13-Copy" transform="translate(741.000000, 18.000000)">
                <g id="Page-1" transform="translate(6.000000, 0.000000)">
                    <path d="M19.6081244,4.06726667 C17.3364578,4.07423333 15.4817467,2.2629 15.4753022,0.0304 L15.4669244,0.0247 C15.4669244,2.25656667 13.6186578,4.0736 11.3463467,4.0736 C13.6186578,4.0736 15.4669244,5.89 15.4669244,8.1225 L15.4753022,8.11616667 C15.4817467,5.8843 17.3364578,4.07296667 19.6081244,4.0793 L19.6081244,4.06726667 Z" id="Stroke-1" stroke="#F9CFA0"></path>
                    <path d="M28.4683333,9.54119667 C26.5736667,9.54689667 25.027,8.03639667 25.0212,6.17439667 L25.0147556,6.16933 C25.0147556,8.03133 23.4732444,9.54626333 21.5779333,9.54626333 C23.4732444,9.54626333 25.0147556,11.06183 25.0147556,12.9231967 L25.0212,12.91813 C25.027,11.05613 26.5736667,9.54563 28.4683333,9.55133 L28.4683333,9.54119667 Z" id="Stroke-3" stroke="#F9CFA0"></path>
                    <g id="Group-2" transform="translate(0.000000, 10.000000)" stroke="#F5AF62" stroke-width="1.6">
                        <path d="M11.0745581,2.21258074 C11.0745581,2.21258074 8.2536197,0.981099259 6.31662475,0.981099259 C4.12630455,0.981099259 0.336531818,2.41749926 0.336531818,6.15332148 C0.336531818,6.15332148 0.42074899,8.86258074 2.10509242,12.967519 C3.78943586,17.0724573 3.66344697,24.7897412 3.66344697,25.6107289 C3.66344697,26.4317165 4.04208737,27.5810993 4.92670455,27.5810993 C5.81132172,27.5810993 6.77948232,27.4582795 7.4532197,24.7897412 C8.12695707,22.121203 9.2217803,17.1131783 11.3272096,17.1131783 C13.4326389,17.1131783 14.653451,22.0391042 15.4956227,24.6669215 C16.3377944,27.294082 17.0964227,27.5810993 17.7277146,27.5810993 C18.3596803,27.5810993 19.201852,27.1298844 19.201852,24.2971486 C19.201852,21.4644128 19.5387207,17.195277 20.9279672,12.7212227 C22.3172136,8.2471684 23.9550692,4.62497086 19.9598066,1.84346469 C16.1275884,-0.82507358 11.0745581,2.21258074 11.0745581,2.21258074 Z" id="Stroke-5"></path>
                        <path d="M7.41111111,4.71659309 C7.41111111,4.71659309 7.66376263,4.79869185 11.0742212,2.21225235" id="Stroke-7"></path>
                        <path d="M16.9697601,4.30609926 C16.9697601,4.30609926 19.1176348,4.67521531 19.1176348,7.67214864" id="Stroke-9"></path>
                    </g>
                </g>
            </g>
        </g>
    </g>
</svg>