<?xml version="1.0" encoding="UTF-8" standalone="no"?>
<svg width="179px" height="35px" viewBox="0 0 179 35" version="1.1" xmlns="http://www.w3.org/2000/svg" xmlns:xlink="http://www.w3.org/1999/xlink">
    <!-- Generator: Sketch 41 (35326) - http://www.bohemiancoding.com/sketch -->
    <title>logo</title>
    <desc>Created with Sketch.</desc>
    <defs>
        <filter x="-50%" y="-50%" width="200%" height="200%" filterUnits="objectBoundingBox" id="filter-1">
            <feOffset dx="0" dy="1" in="SourceAlpha" result="shadowOffsetOuter1"></feOffset>
            <feColorMatrix values="0 0 0 0 0.0156862745   0 0 0 0 0.0156862745   0 0 0 0 0.0156862745  0 0 0 0.05 0" type="matrix" in="shadowOffsetOuter1" result="shadowMatrixOuter1"></feColorMatrix>
            <feMerge>
                <feMergeNode in="shadowMatrixOuter1"></feMergeNode>
                <feMergeNode in="SourceGraphic"></feMergeNode>
            </feMerge>
        </filter>
    </defs>
    <g id="Configurator-WebApp" stroke="none" stroke-width="1" fill="none" fill-rule="evenodd">
        <g id="both" transform="translate(-21.000000, -15.000000)">
            <g id="Group-4" filter="url(#filter-1)">
                <g id="Group" transform="translate(21.000000, 15.000000)">
                    <g id="logo">
                        <path d="M136.51687,30.6816065 C136.476364,30.644138 136.435939,30.6067629 136.395433,30.5692944 C135.914548,30.7300072 135.429869,30.8777323 134.954677,31.0576933 C134.751236,31.1347794 134.555797,31.2595187 134.377517,31.3972459 C134.082833,31.6249536 133.986227,31.9617031 134.117234,32.3339589 C134.258637,32.7360214 134.585744,32.9004718 134.920276,32.7894678 C135.21826,32.6905172 135.551307,32.4982224 135.733052,32.2294021 C136.049434,31.7611858 136.261207,31.2024283 136.51687,30.6816065 L136.51687,30.6816065 Z M126.084926,28.8100492 C125.863829,29.6198738 125.641166,30.4302591 125.421967,31.2417656 C125.338066,31.5525394 125.216216,31.8627526 125.198066,32.1795999 C125.184701,32.4128204 125.25169,32.7724621 125.391773,32.8654326 C125.561142,32.9778382 125.868284,32.93168 126.072963,32.8361866 C126.258585,32.7497567 126.421767,32.5296175 126.533553,32.3253627 C126.877077,31.6974613 127.090006,31.0143382 127.088768,30.2628187 C127.087448,29.4544891 126.81974,29.0564445 126.084926,28.8100492 L126.084926,28.8100492 Z M126.951573,25.6406422 C127.725492,25.4142426 128.207036,24.8949158 128.463277,24.1652607 C128.790219,23.2340605 129.049594,22.2714653 129.314662,21.3141025 C129.415063,20.9513773 129.374391,20.5842606 129.010655,20.4135499 C128.695016,20.2653577 128.403713,20.4766203 128.224114,20.951097 C128.165045,21.107138 128.117938,21.2696262 128.073719,21.4321143 C127.828203,22.3339751 127.583842,23.2362096 127.342204,24.1394719 C127.213424,24.6206761 127.090996,25.1041228 126.951573,25.6406422 L126.951573,25.6406422 Z M154.124047,26.4632677 C154.113157,27.2639355 154.203493,27.7814869 154.689492,28.0493728 C155.176316,28.3176325 155.659098,28.221672 156.082068,27.8616565 C156.895751,27.1690962 157.283577,26.2162184 157.246618,25.0793618 C157.212628,24.0367839 156.434914,23.5253993 155.586829,23.9438134 C155.414324,24.0289351 155.24611,24.1487223 155.105945,24.2906541 C154.471201,24.9332253 154.158943,25.7516462 154.124047,26.4632677 L154.124047,26.4632677 Z M134.64704,26.6758385 C134.637635,27.232447 134.725661,27.7538294 135.198213,28.0352637 C135.695102,28.331181 136.192156,28.2219523 136.626511,27.8526865 C137.42815,27.1712453 137.809046,26.2292063 137.777366,25.1111307 C137.746017,24.0057626 136.901809,23.4832589 136.027241,23.9838982 C135.894171,24.0600499 135.765556,24.1570382 135.6541,24.2689766 C135.017294,24.9085577 134.694147,25.7195036 134.64704,26.6758385 L134.64704,26.6758385 Z M167.782923,27.7688728 C167.491126,26.8777574 167.747531,26.4948497 168.705175,26.4089804 C168.745847,26.1163335 168.807308,25.814156 168.826365,25.5085212 C168.870502,24.800824 168.750466,24.1541417 168.119847,23.8189806 C167.495663,23.4872767 166.912481,23.6557449 166.392162,24.1239613 C165.80403,24.653099 165.486245,25.364814 165.398054,26.1992128 C165.322816,26.9109278 165.410017,27.5777927 166.004831,28.0024671 C166.531832,28.3787408 167.166494,28.2914699 167.782923,27.7688728 L167.782923,27.7688728 Z M115.308054,27.7936338 C115.034159,26.8586961 115.317047,26.4277614 116.226428,26.429163 C116.269823,26.1382914 116.335409,25.8381695 116.355786,25.5342166 C116.40314,24.8298832 116.297377,24.1769405 115.670718,23.8308472 C115.014937,23.4687761 114.408572,23.6615381 113.876704,24.1666623 C113.241547,24.7698962 112.929455,25.5722458 112.909161,26.4986806 C112.894476,27.1669471 113.05939,27.7718628 113.66229,28.0748813 C114.263127,28.3769654 114.805225,28.2173738 115.308054,27.7936338 L115.308054,27.7936338 Z M124.926893,33.9479085 C124.08318,33.5540685 123.810687,33.0648287 124.017676,32.0130004 C124.222933,30.9698618 124.531972,29.9528858 124.795885,28.9246038 C124.841012,28.7487541 124.888036,28.5734649 124.95618,28.3139884 C124.687895,28.5663637 124.488496,28.7716463 124.272349,28.9508598 C124.129792,29.069152 123.969992,29.169691 123.806067,29.2444411 C122.740103,29.7307844 121.932855,29.1327831 122.04629,27.8463327 C122.120209,27.0082899 122.403262,26.1947278 122.580386,25.3667762 C122.644488,25.0671215 122.707104,24.7580296 122.709661,24.4525817 C122.714116,23.915128 122.423804,23.6442521 121.934752,23.6703212 C121.315435,23.7033047 120.492842,24.4783705 120.285853,25.2384863 C119.954456,26.455419 119.624875,27.6730057 119.307585,28.8946103 C119.236141,29.1699713 119.137473,29.3141457 118.858215,29.2830309 C118.573513,29.2511686 118.28386,29.2759296 117.946689,29.2759296 C118.101786,28.6793299 118.246571,28.1222542 118.376341,27.62311 C117.845215,27.7706482 117.29825,27.9129538 116.757472,28.0810482 C116.649976,28.1144055 116.56162,28.2402661 116.472522,28.33333 C115.737377,29.1008274 114.878732,29.4850432 113.874971,29.3683395 C112.80018,29.2433199 112.085742,28.5857987 111.735866,27.3510194 C111.555441,27.6093747 111.411811,27.8265239 111.257622,28.0337687 C110.135393,29.5422271 108.755687,30.448386 106.960848,30.3250482 C105.183251,30.2029251 103.95691,29.0059881 103.53823,27.0237071 C102.96338,24.3015864 104.113327,21.2037526 106.200376,19.9218807 C107.312127,19.2389445 108.487979,19.0652438 109.698234,19.5614914 C110.749018,19.9923327 111.33352,21.125919 111.153261,22.3235101 C111.057975,22.9565505 110.705706,23.3944931 110.247592,23.4308404 C109.898623,23.4585914 109.628027,23.2968507 109.481262,22.9324436 C109.336477,22.5732691 109.384491,22.2292314 109.62778,21.9413499 C110.004881,21.4949979 109.975346,21.1324596 109.506837,20.7836566 C109.027025,20.4264443 108.486247,20.4057946 107.956194,20.5392236 C106.29426,20.9577311 105.392798,22.2750159 104.984677,24.0312711 C104.814978,24.7612999 104.784783,25.583832 104.881307,26.3328287 C105.157924,28.4791863 106.703288,29.5669881 108.561816,29.021125 C109.967839,28.6080369 110.925565,27.5621886 111.639013,26.188374 C111.739001,25.9957054 111.744693,25.7424893 111.807227,25.5220697 C112.251482,23.9580159 113.100392,22.8419025 114.579922,22.5510309 C116.648409,22.14439 118.037272,23.8600932 117.549705,26.1753862 C117.471497,26.5467076 117.339417,26.9035462 117.217071,27.3183162 C118.021927,27.05912 118.623094,26.5673573 118.898557,25.6829694 C119.171957,24.8049353 119.404768,23.9096152 119.628422,23.0132672 C119.704898,22.7069784 119.814291,22.5690644 120.106584,22.6017676 C120.376767,22.6321348 120.651734,22.6082148 120.966384,22.6082148 C120.877203,22.9806575 120.800314,23.3017094 120.723508,23.6227614 C120.75362,23.6502321 120.783732,23.6777962 120.813844,23.7052669 C120.88207,23.5908057 120.935942,23.4595257 121.021576,23.365434 C121.17857,23.1930414 121.341917,23.0206488 121.524652,22.8867526 C122.143886,22.4331125 122.812867,22.274175 123.458336,22.7538842 C124.107435,23.2362096 124.114695,24.0229551 123.970157,24.7736337 C123.818607,25.5602857 123.572926,26.3233915 123.375095,27.0990179 C123.322048,27.3070102 123.273704,27.521076 123.257699,27.735609 C123.21381,28.3231453 123.513198,28.5587952 123.97552,28.2665221 C124.23176,28.1045011 124.461684,27.8605352 124.656298,27.6070387 C125.472456,26.5441848 125.819363,25.231385 126.155792,23.9133527 C126.395698,22.9735562 126.620671,22.0257241 126.920306,21.110128 C127.082498,20.6142541 127.330407,20.1202489 127.641509,19.729399 C128.064974,19.1974581 128.655664,19.113551 129.235959,19.3950789 C129.801899,19.6695989 130.117043,20.249193 130.018623,20.895595 C129.863855,21.911917 129.601592,22.9151576 129.309217,23.8949455 C128.912482,25.2244706 128.13848,26.1607164 126.895309,26.5255907 C126.798621,26.5539958 126.684113,26.6678963 126.648886,26.77264 C126.517796,27.1628359 126.416405,27.5657393 126.306434,27.9545336 C127.007012,28.5063767 127.901709,28.5132911 128.597255,27.9599529 C129.340732,27.3684923 129.828876,26.5410079 130.136761,25.592802 C130.410903,24.7484989 130.630927,23.8804626 130.848063,23.0142951 C130.924375,22.7096881 131.032035,22.5684103 131.325483,22.6017676 C131.595583,22.6324151 131.870551,22.6082148 132.202607,22.6082148 C131.895053,23.7578723 131.59715,24.848851 131.312613,25.9442213 C131.173685,26.4792456 131.010338,27.0151108 130.946649,27.5637771 C130.866296,28.2566177 131.303703,28.5882281 131.861558,28.2767068 C132.112024,28.136924 132.34698,27.9143553 132.527652,27.6708567 C132.970009,27.0745372 133.328548,26.4275745 133.49371,25.6427912 C133.709774,24.6160977 134.179933,23.7262904 134.955667,23.1262334 C135.339038,22.8296621 135.80796,22.6154095 136.26426,22.5121608 C137.143695,22.3133254 137.801126,22.7983605 138.268893,23.8949455 C138.368881,23.5390412 138.435787,23.2105142 138.557308,22.9104858 C138.610272,22.7798598 138.768257,22.6384886 138.890932,22.6222304 C139.200054,22.5813047 139.516189,22.608682 139.885205,22.608682 C139.306065,24.7579361 138.744002,26.8437461 138.181939,28.9296495 C138.208256,28.953663 138.234656,28.977583 138.260973,29.0015965 C138.541798,28.7680957 138.842835,28.5599165 139.099736,28.2965156 C139.981893,27.392132 140.629424,26.3133937 140.955954,25.0009676 C141.123261,24.3284964 141.332725,23.6692934 141.49434,22.9952338 C141.563803,22.7055769 141.670722,22.577941 141.943874,22.6026085 C142.227669,22.6282104 142.514599,22.6083082 142.857381,22.6083082 C142.552631,23.7387176 142.262649,24.8025059 141.980009,25.868817 C141.869791,26.2843345 141.732265,26.699198 141.684004,27.1255542 C141.587233,27.9814436 142.055165,28.4169568 142.76985,28.1218805 C143.398654,27.8622171 143.876816,27.3669973 144.090405,26.624915 C144.430299,25.4438623 144.758808,24.2581378 145.064713,23.0654055 C145.158514,22.6997837 145.307754,22.5569175 145.6408,22.601861 C145.882686,22.6344708 146.13076,22.6082148 146.441532,22.6082148 C146.226623,23.4133675 146.026646,24.1632986 145.82634,24.9129493 C145.619763,25.685866 145.405267,26.4561665 145.209333,27.2325404 C145.11611,27.6015259 144.96093,28.0592772 145.311631,28.3017481 C145.66852,28.5484236 146.033576,28.2572717 146.245928,27.9368738 C146.696617,27.2571145 147.118597,26.5467076 147.492316,25.8098578 C147.749959,25.3021173 147.911656,24.7310261 148.107343,24.1842286 C148.257985,23.7631048 148.39914,23.3924375 148.123513,22.8986192 C147.81835,22.3521955 148.235546,21.6559911 148.794474,21.6200176 C149.312977,21.5867537 149.566,21.9696615 149.383101,22.5101986 C149.343997,22.6257811 149.307615,22.7425782 149.254073,22.9077761 C149.547356,23.0350382 149.83973,23.1499666 150.123691,23.2874135 C151.115653,23.7674964 151.398046,24.4181032 151.112766,25.5875695 C150.963114,26.201175 150.757775,26.79955 150.641039,27.4200699 C150.589808,27.6921605 150.605482,28.1110417 150.753155,28.2710071 C150.99768,28.5359964 151.333202,28.3405247 151.564446,28.1017914 C152.192425,27.4535206 152.678836,26.6909754 152.917175,25.753328 C153.21549,24.580311 153.730693,23.5820226 154.668042,22.918428 C155.136222,22.586911 155.650353,22.4297488 156.199628,22.4920717 C156.883624,22.569625 157.240348,22.8962832 157.739547,23.8562622 C157.835822,23.5075527 157.907514,23.1806142 158.020784,22.873391 C158.062034,22.7613592 158.197414,22.6313873 158.298392,22.6214829 C158.623849,22.5894338 158.953266,22.6095229 159.340431,22.6095229 C159.091863,23.5325006 158.85765,24.4009106 158.624014,25.2695076 C158.432287,25.9824373 158.209871,26.6876117 158.065746,27.4126883 C158.010307,27.6913195 158.040666,28.136924 158.197331,28.2911896 C158.442352,28.5324458 158.816813,28.3475326 159.000455,28.0725454 C159.476554,27.3597091 159.968823,26.6422009 160.325959,25.8519983 C160.620232,25.2008309 160.730285,24.4428642 160.935459,23.6820944 L160.16319,23.6820944 C160.204604,23.4930699 160.246843,23.3516986 160.265405,23.206403 C160.322824,22.7588364 160.499289,22.502163 160.941151,22.6053182 C161.154493,22.6552139 161.272796,22.5367349 161.313797,22.2937969 C161.339372,22.1422409 161.418571,21.9989075 161.429048,21.8479121 C161.507257,20.7229221 162.221447,20.5236195 163.078029,20.4222396 C162.882013,21.1503997 162.693339,21.8513693 162.488165,22.6136342 L164.178313,22.6136342 C164.082285,22.9931781 164.000446,23.316566 163.911678,23.6675181 C163.427741,23.6675181 162.961376,23.653409 162.496497,23.6770487 C162.375637,23.6832156 162.18127,23.7798302 162.153138,23.8817707 C161.850616,24.9777951 161.567315,26.0810141 161.295483,27.1875034 C161.203744,27.5606936 161.209189,27.9602333 161.507422,28.2154116 C161.824299,28.4864744 162.20239,28.4307856 162.520917,28.2162526 C163.35473,27.6547854 163.950864,26.8327204 164.200505,25.7801447 C164.611678,24.0467817 165.698514,22.7750945 167.095628,22.5340252 C169.119235,22.1848485 170.497621,23.8755104 170.025234,26.1380111 C169.950821,26.4943825 169.82732,26.8375792 169.793908,27.296919 C170.091976,27.0814516 170.424363,26.9085919 170.681758,26.6426681 C171.506496,25.7907031 171.832943,24.6227318 172.154523,23.4641976 C172.185212,23.3538477 172.081841,23.1911726 172.031022,23.0573698 C171.879472,22.6586711 171.857445,22.2707178 172.123916,21.9231295 C172.342537,21.6378642 172.622867,21.549659 172.943869,21.6662692 C173.3246,21.8046505 173.408666,22.0038597 173.275926,22.4309634 C173.230634,22.576446 173.188477,22.7232366 173.136421,22.8980585 C173.493805,23.0635367 173.856056,23.2038802 174.196445,23.3943062 C174.989669,23.8380419 175.242279,24.4564126 175.021761,25.4237732 C174.860888,26.1299754 174.64169,26.8201063 174.501525,27.530887 C174.454913,27.7673778 174.50928,28.205881 174.63047,28.2677368 C174.820382,28.3645382 175.179003,28.3140819 175.336905,28.1581343 C175.703529,27.7961566 176.017354,27.3541028 176.305934,26.9058822 C176.545839,26.5332526 176.719251,26.1056816 176.943648,25.6597034 C177.10749,25.7507118 177.257967,25.8343385 177.426924,25.9282434 C176.94736,27.0556628 176.448821,28.1059961 175.589268,28.8652709 C175.18816,29.2194933 174.739368,29.426084 174.215255,29.3802061 C173.687676,29.3340479 173.292178,28.9972049 173.285496,28.4037821 C173.278648,27.7939141 173.379049,27.1760106 173.483162,26.5728702 C173.572178,26.0571875 173.757553,25.5633692 173.855396,25.0489946 C173.969821,24.4477229 173.852508,24.2316015 173.363457,23.99156 C173.16447,23.8939176 172.958719,23.8142153 172.756845,23.7266641 C172.532449,24.3475577 172.347322,24.9502309 172.101971,25.5196403 C171.578765,26.7343305 170.870515,27.747569 169.608699,28.0044293 C169.280272,28.0713307 169.038139,28.2212982 168.796088,28.4655444 C168.081486,29.1866032 167.230925,29.4946673 166.281779,29.361612 C165.245597,29.2163164 164.548072,28.5702881 164.207022,27.3413019 C164.041365,27.5876037 163.91209,27.7922323 163.771677,27.9864893 C163.272891,28.6766202 162.696061,29.2475246 161.880068,29.3633873 C160.801729,29.5166252 160.275223,29.0830742 160.049672,28.0045227 C159.820656,28.2202704 159.570107,28.5197383 159.269153,28.7239931 C158.889082,28.9817877 158.484674,29.2638762 158.060796,29.3529223 C157.343801,29.5035439 157.081703,29.2365924 156.741479,28.2630649 C156.123977,28.9906643 155.419027,29.4744848 154.49463,29.3761883 C153.522137,29.2728462 153.018318,28.5983194 152.808277,27.5899396 C152.46335,28.0025605 152.154146,28.4202271 151.800639,28.7825785 C151.391776,29.2018335 150.902065,29.4318772 150.330514,29.3786177 C149.84996,29.3337676 149.496041,29.0621442 149.436395,28.5223545 C149.383183,28.0415241 149.408758,27.5320082 149.489112,27.0544481 C149.58613,26.477844 149.785694,25.9241322 149.926271,25.3559375 C150.145058,24.471643 150.035995,24.2344981 149.285093,23.900178 C149.159035,23.8440219 149.032317,23.7897346 148.870207,23.7190022 C148.599942,24.4715496 148.351374,25.2048487 148.074591,25.9241322 C147.69386,26.9137309 147.234838,27.8593205 146.516605,28.58692 C146.217961,28.8894713 145.851007,29.1531525 145.474318,29.2994759 C144.622768,29.630152 144.055508,29.2196801 143.749603,28.0885232 C143.65704,28.2599814 143.590958,28.4626478 143.467128,28.5972916 C142.971477,29.1364271 142.384582,29.4301018 141.680126,29.3792717 C140.924852,29.3247976 140.583143,28.9465617 140.316012,27.8097051 C139.672029,28.7096037 138.903884,29.3940349 138.00729,29.9000001 C137.901939,29.9594265 137.844603,30.169381 137.801951,30.3227123 C137.569305,31.1601945 137.270577,31.9582459 136.741597,32.6165146 C136.171861,33.3254265 135.476811,33.692917 134.612638,33.5779886 C134.026321,33.4998747 133.562926,33.0904306 133.426391,32.5186853 C133.270057,31.8647148 133.409314,31.2377478 133.943492,30.887076 C134.480558,30.5345356 135.093275,30.3295332 135.674065,30.0633292 C135.736681,30.0346438 135.806888,30.01932 135.874619,30.0136203 C136.593594,29.952699 136.944213,29.503357 136.947761,28.6352273 C136.330754,29.1841738 135.65278,29.4972836 134.873416,29.3617054 C134.023351,29.213887 133.562761,28.592059 133.34975,27.5832121 C133.214205,27.779805 133.121889,27.9176257 133.025943,28.0519891 C132.586226,28.6682108 132.089749,29.2078135 131.371929,29.3547911 C130.364374,29.5611015 129.806684,29.0643867 129.679884,27.8070889 C129.097361,28.5516005 128.447107,29.082607 127.5831,29.1414728 C128.004255,31.5572113 127.341461,33.2046115 125.66938,33.9479085 L124.926893,33.9479085 Z" id="Fill-1" fill="#2BB0D4"></path>
                        <path d="M12.4175438,4.8348506 L9.68643166,4.8348506 L9.68643166,6.50270533 C9.18607524,5.58538523 7.91433602,4.48043148 5.82951761,4.48043148 C2.61889727,4.48043148 0.0128742609,6.94051719 0.0128742609,10.547253 C0.0128742609,13.7787216 2.16023722,16.6349228 5.82951761,16.6349228 C7.43482778,16.6349228 8.95674522,15.9677809 9.68643166,14.6334971 L9.68643166,16.2805036 L12.4175438,16.2805036 L12.4175438,4.8348506 Z M2.74398637,10.5889494 C2.74398637,8.81685376 3.99487741,7.02390993 6.20478492,7.02390993 C7.85179146,7.02390993 8.91504885,7.96207821 9.39455708,9.04618378 C9.62388711,9.5465402 9.72812803,10.1094412 9.70727985,10.651494 C9.66558348,11.2143949 9.54049437,11.7564477 9.26946798,12.2568041 C8.74826338,13.2992133 7.74755054,14.0914443 6.22563311,14.0914443 C3.76554739,14.0914443 2.74398637,12.0274741 2.74398637,10.6097976 L2.74398637,10.5889494 Z M26.6255812,11.4645731 C26.8549112,9.46314746 26.3337066,7.67020364 24.9368783,6.23167894 C23.8736209,5.12672518 22.3725517,4.48043148 20.6630006,4.48043148 C17.202202,4.48043148 14.6587236,7.33663269 14.6587236,10.5889494 C14.6587236,13.7787216 17.1813538,16.6349228 20.7046969,16.6349228 C21.8930434,16.6349228 23.0188454,16.3013518 23.9778618,15.6342099 C24.9368783,14.9879162 25.7499575,14.0288998 26.2920103,12.7571605 L23.4775054,12.7571605 C22.9563008,13.6953288 22.0598289,14.2999262 20.7255451,14.2999262 C19.1619313,14.3207743 17.535773,13.2992133 17.4106839,11.4645731 L26.6255812,11.4645731 Z M17.4523802,9.37975473 C17.5566211,8.25395279 18.6615749,6.79457991 20.6838487,6.79457991 C22.6852744,6.77373172 23.8319245,8.29564916 23.9361655,9.37975473 L17.4523802,9.37975473 Z M36.6222855,7.92038184 C36.3929554,5.16842155 34.0996552,4.48043148 32.5568896,4.48043148 C30.3469821,4.48043148 28.4497973,5.87725981 28.4497973,8.12886368 C28.4706455,9.77587022 29.7215365,10.6306458 31.2643022,11.110154 C33.3699687,11.8398404 34.2247443,12.1108668 34.2247443,13.0907315 C34.2455925,13.8621143 33.515906,14.4250153 32.6611305,14.4250153 C32.1399259,14.4250153 31.0766685,14.1748371 30.9724276,12.9447942 L28.2413155,12.9447942 C28.4497973,15.7176027 30.8473385,16.6349228 32.6194341,16.6349228 C35.0169753,16.6349228 36.9975528,15.1338535 36.9558564,12.7780087 C36.9350082,10.317923 34.9544307,9.77587022 33.1197905,9.27551381 C32.035685,8.96279105 31.2017576,8.56667555 31.1809094,7.83698911 C31.1809094,7.27408814 31.6187213,6.69033898 32.5360414,6.69033898 C33.5992988,6.69033898 33.9120215,7.31578451 33.9328697,7.92038184 L36.6222855,7.92038184 Z M40.0101154,16.2805036 L42.7412275,16.2805036 L42.7412275,6.94051719 L44.7009568,6.94051719 L44.7009568,4.8348506 L42.7412275,4.8348506 L42.7412275,0.85284745 L40.0101154,0.85284745 L40.0101154,4.8348506 L38.1129306,4.8348506 L38.1129306,6.94051719 L40.0101154,6.94051719 L40.0101154,16.2805036 Z M46.5460211,16.2805036 L49.2771332,16.2805036 L49.2771332,9.88011114 C49.2771332,9.29636199 49.3813741,8.60837192 49.7566414,8.04547095 C50.1319087,7.48256998 50.7782024,7.04475811 51.862308,7.04475811 C52.8213245,7.04475811 53.44677,7.39917724 53.8428855,7.94123003 C54.2181528,8.48328281 54.3640901,9.23381744 54.3640901,10.1094412 L54.3640901,16.2805036 L57.0952022,16.2805036 L57.0952022,9.98435207 C57.0952022,8.44158645 56.8867204,7.08645448 56.1987303,6.08574165 C55.5315884,5.08502881 54.4266346,4.48043148 52.654539,4.48043148 C51.299407,4.45958329 49.9234269,4.98078789 49.2771332,6.18998257 L49.2771332,0.85284745 L46.5460211,0.85284745 L46.5460211,16.2805036 Z M71.2615433,11.4645731 C71.4908733,9.46314746 70.9696687,7.67020364 69.5728404,6.23167894 C68.509583,5.12672518 67.0085137,4.48043148 65.2989626,4.48043148 C61.8381641,4.48043148 59.2946856,7.33663269 59.2946856,10.5889494 C59.2946856,13.7787216 61.8173159,16.6349228 65.340659,16.6349228 C66.5290055,16.6349228 67.6548074,16.3013518 68.6138239,15.6342099 C69.5728404,14.9879162 70.3859195,14.0288998 70.9279723,12.7571605 L68.1134675,12.7571605 C67.5922629,13.6953288 66.695791,14.2999262 65.3615072,14.2999262 C63.7978934,14.3207743 62.171735,13.2992133 62.0466459,11.4645731 L71.2615433,11.4645731 Z M62.0883423,9.37975473 C62.1925832,8.25395279 63.297537,6.79457991 65.3198108,6.79457991 C67.3212365,6.77373172 68.4678866,8.29564916 68.5721275,9.37975473 L62.0883423,9.37975473 Z M74.3574986,16.2805036 L77.0886107,16.2805036 L77.0886107,6.94051719 L79.04834,6.94051719 L79.04834,4.8348506 L77.0886107,4.8348506 L77.0886107,0.85284745 L74.3574986,0.85284745 L74.3574986,4.8348506 L72.4603138,4.8348506 L72.4603138,6.94051719 L74.3574986,6.94051719 L74.3574986,16.2805036 Z M80.8934043,3.29208498 L83.6245164,3.29208498 L83.6245164,0.85284745 L80.8934043,0.85284745 L80.8934043,3.29208498 Z M80.8934043,16.2805036 L83.6245164,16.2805036 L83.6245164,4.8348506 L80.8934043,4.8348506 L80.8934043,16.2805036 Z M95.1639863,12.1108668 C94.7470226,13.0490351 93.7880061,14.0705961 92.078455,14.0705961 C90.1395739,14.0705961 88.7010492,12.6112233 88.7010492,10.547253 C88.7010492,9.5465402 89.0554684,8.6292201 89.6392175,8.00377458 C90.3063594,7.35748087 91.0777422,7.00306175 92.078455,7.02390993 C93.5795243,7.02390993 94.684478,7.87868548 95.1639863,9.08788015 L97.9576429,9.08788015 C97.2905011,6.29422349 94.8512635,4.48043148 91.9742141,4.48043148 C88.5551119,4.48043148 85.9490889,7.16984722 85.9490889,10.547253 C85.9490889,13.8204179 88.450871,16.6349228 92.078455,16.6349228 C95.0388972,16.6349228 97.3113492,14.6543453 97.9576429,12.1108668 L95.1639863,12.1108668 Z" id="aesthetic" fill="#000000"></path>
                        <path d="M101.102239,20.4406632 L101.685988,20.4406632 L101.685988,13.0812542 C102.269737,14.6240199 104.18777,16.2710264 106.856337,16.2710264 C110.421377,16.2710264 112.672981,13.5190661 112.672981,10.4752312 C112.672981,7.49394091 110.483921,4.67943606 106.856337,4.67943606 C104.521341,4.67943606 102.686701,5.82608618 101.685988,7.80666367 L101.685988,4.95046245 L101.102239,4.95046245 L101.102239,20.4406632 Z M112.089232,10.4752312 C112.089232,13.5816106 109.733387,15.7289736 106.856337,15.7289736 C105.376116,15.7289736 104.062681,15.1660726 103.124512,14.2279044 C102.186344,13.2897361 101.623443,11.9763005 101.623443,10.4960794 C101.623443,9.01585834 102.165496,7.70242275 103.082816,6.74340628 C104.020984,5.805238 105.313572,5.22148885 106.793793,5.22148885 C110.358832,5.22148885 112.068383,7.97344914 112.089232,10.454383 L112.089232,10.4752312 Z M126.849746,4.95046245 L126.265997,4.95046245 L126.265997,7.86920822 C125.682248,6.3264426 123.764215,4.67943606 121.095647,4.67943606 C117.530608,4.67943606 115.279004,7.43139635 115.279004,10.4752312 C115.279004,13.4565215 117.468063,16.2710264 121.095647,16.2710264 C123.430644,16.2710264 125.265284,15.1243763 126.265997,13.1437988 L126.265997,16 L126.849746,16 L126.849746,4.95046245 Z M115.862753,10.4752312 C115.862753,7.3688518 118.218598,5.22148885 121.095647,5.22148885 C123.347251,5.22148885 125.202739,6.51407626 125.953274,8.43210919 C126.203452,9.01585834 126.328541,9.68300023 126.328541,10.3501421 C126.34939,11.017284 126.245149,11.6844259 126.015819,12.2890232 C125.30698,14.2904489 123.514037,15.7289736 121.158192,15.7289736 C117.593152,15.7289736 115.883601,12.9770133 115.862753,10.4960794 L115.862753,10.4752312 Z M130.93599,16 L131.519739,16 L131.519739,9.95402662 C131.519739,6.95188812 132.895719,5.24233703 135.251564,5.24233703 L135.41835,5.24233703 L135.41835,4.67943606 C134.459333,4.74198061 132.562149,4.86706972 131.519739,7.05612904 L131.519739,4.95046245 L130.93599,4.95046245 L130.93599,16 Z M139.650531,16 L140.23428,16 L140.23428,5.49251524 L143.069633,5.49251524 L143.069633,4.95046245 L140.23428,4.95046245 L140.23428,0.572343801 L139.650531,0.572343801 L139.650531,4.95046245 L137.211294,4.95046245 L137.211294,5.49251524 L139.650531,5.49251524 L139.650531,16 Z M145.696505,16 L146.280254,16 L146.280254,9.64130386 C146.280254,6.74340628 148.135742,5.26318521 150.762613,5.22148885 C153.7856,5.17979248 155.244973,7.07697723 155.244973,10.0582675 L155.244973,16 L155.828722,16 L155.828722,10.0582675 C155.828722,6.74340628 154.181716,4.7628288 150.887703,4.67943606 C148.927973,4.63773969 147.00994,5.42997069 146.259406,7.34800362 C146.280254,6.43068352 146.280254,5.70099708 146.280254,4.95046245 L145.696505,4.95046245 L145.696505,16 Z M170.526692,10.5377758 C170.630933,8.91161742 169.922095,7.2437627 168.7129,6.15965713 C167.649643,5.20064066 166.231966,4.67943606 164.751745,4.67943606 C161.457732,4.67943606 158.914253,7.18121815 158.914253,10.4960794 C158.914253,12.9561651 160.56126,16.2710264 164.730897,16.2710264 C165.856699,16.2710264 166.940804,16 167.878973,15.437099 C168.817141,14.8533499 169.609372,13.9777261 170.109728,12.8102278 L169.463435,12.8102278 C168.587811,14.6865644 166.794867,15.7289736 164.751745,15.7289736 C162.583534,15.7498218 159.560547,14.1445116 159.518851,10.5377758 L170.526692,10.5377758 Z M159.539699,9.99572299 C159.706484,7.20206633 162.020633,5.22148885 164.751745,5.22148885 C167.33692,5.11724792 169.817854,7.32715543 169.942943,9.99572299 L159.539699,9.99572299 Z M173.633072,16 L174.216821,16 L174.216821,9.95402662 C174.216821,6.95188812 175.592801,5.24233703 177.948646,5.24233703 L178.115431,5.24233703 L178.115431,4.67943606 C177.156415,4.74198061 175.25923,4.86706972 174.216821,7.05612904 L174.216821,4.95046245 L173.633072,4.95046245 L173.633072,16 Z" id="partner" fill="#000000"></path>
                    </g>
                </g>
            </g>
        </g>
    </g>
</svg>